<?xml version="1.0" encoding="UTF-8"?>
<svg id="Lag_1" xmlns="http://www.w3.org/2000/svg" viewBox="0 0 2276.11 358.75">
  <defs>
    <style>
      .cls-1 {
        fill: #f8e481;
      }

      .cls-2 {
        fill: #96bf80;
      }

      .cls-3 {
        fill: #bd3135;
      }

      .cls-4 {
        fill: #ea6a47;
      }

      .cls-5 {
        fill: #416466;
      }

      .cls-6 {
        fill: #da5a65;
      }

      .cls-7 {
        fill: #f08448;
        font-size: 125.04px;
      }

      .cls-7, .cls-8 {
        font-family: AcuminConcept-ExtraCondUltraBlackItalic, 'Acumin Variable Concept';
        font-style: italic;
        font-variation-settings: 'wght' 900, 'wdth' 50, 'slnt' 12;
        font-weight: 800;
      }

      .cls-9, .cls-8 {
        fill: #fff;
      }

      .cls-10 {
        fill: #e0cb54;
      }

      .cls-11 {
        fill: #134546;
      }

      .cls-12 {
        fill: #f5c25a;
      }

      .cls-13 {
        fill: #c9b969;
      }

      .cls-8 {
        font-size: 56.75px;
      }

      .cls-14 {
        letter-spacing: -.03em;
      }

      .cls-15 {
        letter-spacing: -.03em;
      }

      .cls-16 {
        fill: #b4da83;
      }
    </style>
  </defs>
  <g>
    <g id="kKLo6V.tif">
      <g>
        <path class="cls-16" d="M117.93,87.66c-.83-18.08,14.4-37.3,32.2-41.06,5.55-1.17,7.97,1.35,9.16,6.17,4.73,19.06-13.59,45.7-33.33,47.96-10.98,1.26-6.82-7.78-8.04-13.08Z"/>
        <path class="cls-16" d="M113.66,170.83c-8.12.15-14.15-.45-19.82-3.56-10.25-5.61-10.83-8.72-2.87-17.5,10.79-11.89,33.41-16.06,47.93-8.83,9.64,4.8,11.02,11.12,2.69,17.78-8.55,6.84-17.37,14.38-27.93,12.11Z"/>
        <path class="cls-16" d="M41.91,198.12c-.48,3.59-.8,7.21-1.49,10.76-1.29,6.62-3.16,14.42-10.32,15.3-6.15.75-10.9-5.19-14.1-10.83-8.26-14.57-11.12-29.41-2.66-45.09,3.79-7.02,8.19-7.45,13.68-2.33,9.28,8.66,15.23,18.9,14.89,32.19Z"/>
        <path class="cls-16" d="M84.61,205.86c-5.3-.38-12.29-1.68-18.83-6.56-4.83-3.61-4.51-6.06-1.71-10.3,10.64-16.17,37.89-21.53,54.55-11.14,5.74,3.58,5.93,6.95,2.61,12-6.15,9.33-20.75,16.24-36.61,16.01Z"/>
        <path class="cls-16" d="M134.78,136.33c-9.66-.99-23.15-1.77-24.93-11.25-1.77-9.4,9.92-15.84,19.37-19.5,12.56-4.86,24.72-4.49,36.66,2.74,6.45,3.91,5.79,7.66,1.91,12.7-8.35,10.82-19.98,14.26-33,15.31Z"/>
        <path class="cls-16" d="M62.13,240.7c-5.25.36-10.77-1.05-16.05-4.16-9.41-5.56-9.8-6.86-3.16-15.18,11.47-14.38,36.44-18.45,51.67-8.73,5.64,3.6,6.61,6.97,2.43,12.67-7.81,10.66-18.67,15.94-34.89,15.4Z"/>
        <path class="cls-16" d="M55.57,117.82c.53-3.19.9-7.13,1.87-10.92,1.48-5.76,3.5-12.82,9.25-13.96,5.19-1.03,9.73,4.69,13.36,8.8,10.84,12.28,11.82,34.22,3.22,48.12-3.58,5.79-6.98,5.74-11.74,2.18-11.17-8.35-15.06-20.14-15.95-34.22Z"/>
        <path class="cls-16" d="M65.3,162.29c0,13.84-5.33,26.2-10.79,27.33-4.88,1.01-15.22-9.54-19.37-19.22-5.03-11.72-3.84-23.33.78-34.57,3.93-9.56,7.34-10.05,15.4-3.63,10.4,8.28,13.24,19.9,13.99,30.09Z"/>
        <path class="cls-16" d="M112.54,94.01c-.61,6.43-1.15,14.55-6.06,21.77-2.82,4.14-5.46,4.91-9.63,2.33-18.79-11.6-22.41-41.43-10.77-56.82,3.06-4.04,6.09-3.73,10.09-1.13,9.67,6.28,16.45,19.12,16.36,33.85Z"/>
        <path class="cls-16" d="M33.75,241.85s-.3,2.09-1.32,3.68c-5.12,8.02-10.17,16.11-15.79,23.77-2.96,4.04-7.29,7.49-12.56,3.67-5.17-3.75-5.25-8.2-1.21-13.54,5.72-7.57,10.64-15.75,15.99-23.6,2.32-3.41,5.7-4.56,9.44-2.91,2.93,1.29,6.24,2.72,5.45,8.94Z"/>
      </g>
    </g>
    <g>
      <circle class="cls-11" cx="206.67" cy="259.52" r="90.63"/>
      <g id="cdjX50">
        <path class="cls-9" d="M185.9,244.43c7.34-8.78,14.7-17.56,22.03-26.36,2.06-2.47,4.62-4.17,7.55-5.46,2.61-1.15,5.53-1.63,7.44-4.31,1.06-1.49,3.18-.87,4.8-.29,3.71,1.33,7.13,3.28,10.35,5.54,6.55,4.62,12.43,9.98,17.56,16.15,1.3,1.57,2.43,3.26,3.15,5.17.62,1.65.55,3.24-.95,4.45-.79.64-1.05,1.51-1.14,2.42-.7,6.48-3.7,11.69-7.95,16.62-12.39,14.37-24.39,29.07-36.6,43.59-2.18,2.6-4.13,5.41-6.73,7.65-1.36,1.17-2.87,1.76-4.7,1.4-.69-.14-1.54-.32-2.12-.05-3.31,1.57-6.23.14-8.97-1.3-10.22-5.36-18.92-12.58-25.71-21.98-1.55-2.14-2.75-4.47-1.88-7.32.14-.44-.07-1.04-.25-1.52-1.03-2.76-.3-5.09,1.53-7.27,7.57-9.02,15.12-18.06,22.67-27.1l-.06-.05Z"/>
      </g>
    </g>
  </g>
  <g>
    <g id="e4ny8t">
      <g>
        <path class="cls-1" d="M1600.3,210.57c-15.04-62.41,18.9-126.59,78.92-149.11,33.65-12.63,66.77-10.85,99.37,3.85,1.29.58,2.6,1.19,3.76,1.99,2.49,1.71,3.43,4.06,1.97,6.85-1.47,2.82-3.98,3.29-6.77,2.25-2.28-.85-4.45-1.96-6.68-2.94-80.93-35.25-170.86,29.21-163.06,117.15,2.87,32.39,17.07,59.27,42.12,80.23,2.02,1.69,4.18,3.23,6.13,5,2.23,2.02,2.8,4.48.91,7.04-1.89,2.56-4.58,2.92-6.99,1.19-4.28-3.07-8.51-6.27-12.34-9.87-18.64-17.54-31.25-38.68-37.33-63.61Z"/>
        <path class="cls-1" d="M1705.14,118.09c2.34,9.65,4.63,19.32,7.03,28.95,1.22,4.9.91,9.3-3.54,12.52-4.26,3.08-8.39,1.95-12.46-.54-17.29-10.57-34.66-21.02-51.88-31.7-7.98-4.94-8.65-10.78-2.48-18.11,10.63-12.64,23.73-21.99,38.74-28.7,9.53-4.26,15.07-1.46,17.58,8.62,2.4,9.64,4.69,19.3,7.02,28.95Z"/>
        <path class="cls-1" d="M1659.41,192.37c-9.85,2.39-19.68,4.87-29.55,7.13-8.75,2-13.76-1.64-14.46-10.6-1.35-17.27,1.28-33.95,8.06-49.92,3.26-7.68,8.93-9.73,16.17-5.4,17.92,10.71,35.68,21.67,53.48,32.59,3.71,2.28,5.98,5.52,5.3,10.12-.71,4.77-3.71,7.51-8.26,8.63-10.24,2.51-20.48,4.97-30.73,7.45v.02Z"/>
        <path class="cls-1" d="M1661.3,199.99c10.05-2.43,20.11-4.79,30.13-7.33,4.83-1.23,8.86-.38,11.84,3.78,2.89,4.03,2.01,8.05-.36,11.95-10.65,17.48-21.23,35.01-32.01,52.41-4.78,7.71-10.85,8.52-17.71,2.67-12.87-10.96-22.66-24.22-29.29-39.77-3.8-8.92-1.05-14.32,8.45-16.68,9.64-2.39,19.3-4.69,28.96-7.02Z"/>
        <path class="cls-1" d="M1712.64,115.7c-2.39-9.85-4.84-19.68-7.14-29.55-2.04-8.76,1.54-13.68,10.6-14.4,17.28-1.39,33.94,1.35,49.92,8.06,7.32,3.08,9.64,8.95,5.61,15.73-10.77,18.12-21.85,36.05-32.87,54.01-2.28,3.72-5.57,5.9-10.17,5.17-4.75-.75-7.44-3.64-8.53-8.29-2.41-10.26-4.94-20.49-7.42-30.73Z"/>
      </g>
    </g>
    <g>
      <circle class="cls-13" cx="1791.59" cy="253.5" r="90.63"/>
      <g id="e4ny8t-2" data-name="e4ny8t">
        <g>
          <path class="cls-9" d="M1750.63,272.33c-6.83-28.33,8.58-57.46,35.82-67.68,15.27-5.73,30.31-4.92,45.1,1.75.59.26,1.18.54,1.71.9,1.13.77,1.56,1.84.89,3.11-.67,1.28-1.81,1.49-3.07,1.02-1.03-.39-2.02-.89-3.03-1.33-36.73-16-77.55,13.26-74.01,53.17,1.3,14.7,7.75,26.9,19.12,36.41.92.77,1.9,1.47,2.78,2.27,1.01.92,1.27,2.03.41,3.2-.86,1.16-2.08,1.32-3.17.54-1.94-1.39-3.86-2.85-5.6-4.48-8.46-7.96-14.18-17.55-16.94-28.87Z"/>
          <path class="cls-9" d="M1798.21,230.35c1.06,4.38,2.1,8.77,3.19,13.14.55,2.23.41,4.22-1.61,5.68-1.93,1.4-3.81.89-5.66-.24-7.85-4.8-15.73-9.54-23.55-14.39-3.62-2.24-3.93-4.89-1.13-8.22,4.82-5.74,10.77-9.98,17.58-13.02,4.32-1.93,6.84-.66,7.98,3.91,1.09,4.37,2.13,8.76,3.19,13.14Z"/>
          <path class="cls-9" d="M1777.46,264.07c-4.47,1.08-8.93,2.21-13.41,3.24-3.97.91-6.25-.74-6.56-4.81-.61-7.84.58-15.41,3.66-22.66,1.48-3.48,4.05-4.42,7.34-2.45,8.13,4.86,16.2,9.84,24.27,14.79,1.68,1.03,2.71,2.51,2.41,4.59-.32,2.16-1.68,3.41-3.75,3.92-4.65,1.14-9.3,2.26-13.95,3.38h0Z"/>
          <path class="cls-9" d="M1778.31,267.53c4.56-1.1,9.13-2.17,13.68-3.33,2.19-.56,4.02-.17,5.37,1.71,1.31,1.83.91,3.65-.17,5.42-4.83,7.94-9.63,15.89-14.53,23.79-2.17,3.5-4.92,3.87-8.04,1.21-5.84-4.97-10.28-10.99-13.29-18.05-1.73-4.05-.48-6.5,3.84-7.57,4.38-1.08,8.76-2.13,13.14-3.19Z"/>
          <path class="cls-9" d="M1801.62,229.27c-1.08-4.47-2.2-8.93-3.24-13.41-.93-3.97.7-6.21,4.81-6.54,7.84-.63,15.41.61,22.66,3.66,3.32,1.4,4.38,4.06,2.55,7.14-4.89,8.22-9.92,16.36-14.92,24.51-1.04,1.69-2.53,2.68-4.61,2.35-2.16-.34-3.38-1.65-3.87-3.76-1.09-4.66-2.24-9.3-3.37-13.95Z"/>
        </g>
      </g>
    </g>
  </g>
  <g>
    <path class="cls-5" d="M1229.94,196.99c13.89-22.62,30.5-46.6,45.71-71.46,4.16-6.79,10.54-11.38,17.29-15.1,10.78-5.94,18.54-14.68,25.61-24.46,9.03-12.51,18.57-24.66,27.87-36.97,3.12-4.13,6.23-8.27,9.29-12.45,1.21-1.65,5.29-7.11,5.5-9.27.14-1.47-.25-1.61.64-3.51,1.7-3.61,4.93-5.13,9.49-3.05,6.69,3.05,12.91,6.98,18.55,11.71,3.83,3.22,3.11,8.51-1.3,10.99-.33.19-.73.39-.9.7-3.01,5.71-7.2,10.66-9.91,16.63-4.64,10.22-10,20.12-15.02,30.17-5.55,11.1-11.29,22.11-16.5,33.36-2.43,5.25-2.41,11.25-3.24,16.95-.94,6.39-1.72,12.78-4.1,18.86-.76,1.93-1.76,3.71-2.85,5.45-21.44,34.13-42.92,68.23-64.29,102.41-2.41,3.86-5.61,6.83-9.25,9.25-3.3,2.2-7.15,2.06-10.64.17-13.94-7.56-27.35-15.98-40.24-25.21-1.67-1.2-3.18-2.59-4.39-4.28-1.92-2.68-2.63-5.36-1.45-8.77,1.83-5.31,4.02-10.35,7.08-15.07,5.32-8.21,10.44-16.54,17.04-27.03Z"/>
    <g>
      <circle class="cls-2" cx="1410.37" cy="252.64" r="90.63"/>
      <g id="kKLo6V.tif-2" data-name="kKLo6V.tif">
        <g>
          <path class="cls-9" d="M1426.05,219.59c-.38-8.21,6.54-16.93,14.62-18.64,2.52-.53,3.62.61,4.16,2.8,2.14,8.65-6.17,20.74-15.13,21.77-4.98.57-3.09-3.53-3.65-5.94Z"/>
          <path class="cls-9" d="M1424.11,257.34c-3.69.07-6.42-.21-9-1.61-4.65-2.55-4.91-3.96-1.3-7.94,4.9-5.4,15.16-7.29,21.75-4.01,4.38,2.18,5,5.05,1.22,8.07-3.88,3.1-7.89,6.53-12.68,5.49Z"/>
          <path class="cls-9" d="M1391.55,269.72c-.22,1.63-.36,3.27-.67,4.88-.58,3.01-1.43,6.55-4.68,6.94-2.79.34-4.95-2.35-6.4-4.91-3.75-6.61-5.05-13.35-1.21-20.47,1.72-3.19,3.72-3.38,6.21-1.06,4.21,3.93,6.91,8.58,6.76,14.61Z"/>
          <path class="cls-9" d="M1410.92,273.24c-2.41-.17-5.58-.76-8.55-2.98-2.19-1.64-2.05-2.75-.78-4.68,4.83-7.34,17.2-9.77,24.76-5.06,2.61,1.63,2.69,3.15,1.18,5.44-2.79,4.23-9.42,7.37-16.62,7.27Z"/>
          <path class="cls-9" d="M1433.7,241.68c-4.39-.45-10.51-.8-11.31-5.11-.8-4.27,4.5-7.19,8.79-8.85,5.7-2.21,11.22-2.04,16.64,1.24,2.93,1.77,2.63,3.48.87,5.76-3.79,4.91-9.07,6.47-14.98,6.95Z"/>
          <path class="cls-9" d="M1400.72,289.05c-2.38.16-4.89-.47-7.28-1.89-4.27-2.52-4.45-3.11-1.43-6.89,5.21-6.53,16.54-8.38,23.45-3.96,2.56,1.64,3,3.16,1.1,5.75-3.54,4.84-8.48,7.23-15.84,6.99Z"/>
          <path class="cls-9" d="M1397.74,233.28c.24-1.45.41-3.24.85-4.96.67-2.61,1.59-5.82,4.2-6.34,2.36-.47,4.42,2.13,6.06,3.99,4.92,5.57,5.36,15.53,1.46,21.84-1.63,2.63-3.17,2.61-5.33.99-5.07-3.79-6.83-9.14-7.24-15.53Z"/>
          <path class="cls-9" d="M1402.16,253.46c0,6.28-2.42,11.89-4.9,12.41-2.22.46-6.91-4.33-8.79-8.72-2.28-5.32-1.74-10.59.35-15.69,1.78-4.34,3.33-4.56,6.99-1.65,4.72,3.76,6.01,9.03,6.35,13.66Z"/>
          <path class="cls-9" d="M1423.6,222.47c-.28,2.92-.52,6.6-2.75,9.88-1.28,1.88-2.48,2.23-4.37,1.06-8.53-5.27-10.17-18.8-4.89-25.79,1.39-1.83,2.76-1.69,4.58-.51,4.39,2.85,7.47,8.68,7.43,15.36Z"/>
          <path class="cls-9" d="M1387.84,289.58s-.14.95-.6,1.67c-2.33,3.64-4.62,7.31-7.17,10.79-1.35,1.83-3.31,3.4-5.7,1.66-2.35-1.7-2.38-3.72-.55-6.14,2.6-3.43,4.83-7.15,7.26-10.71,1.06-1.55,2.59-2.07,4.29-1.32,1.33.59,2.83,1.24,2.47,4.06Z"/>
        </g>
      </g>
    </g>
  </g>
  <g>
    <text class="cls-7" transform="translate(2050.54 282.05) rotate(-55.68) scale(1.68 1)"><tspan x="0" y="0">I</tspan><tspan class="cls-15" x="27.51" y="0">P</tspan><tspan x="76.15" y="0">A</tspan></text>
    <g>
      <circle class="cls-4" cx="2185.48" cy="266.4" r="90.63"/>
      <text class="cls-8" transform="translate(2178.73 315.29) rotate(-55.68) scale(1.68 1)"><tspan x="0" y="0">I</tspan><tspan class="cls-14" x="12.48" y="0">P</tspan><tspan x="34.56" y="0">A</tspan></text>
    </g>
  </g>
  <g>
    <g>
      <g id="KfhMnP">
        <g>
          <path class="cls-12" d="M456.56,279.68c-9.65,9.6-20.99,15.62-34.85,16.13-11.36.42-21.53-3.02-30.31-10.15-14.96-12.14-21.7-28.49-22.94-47.24-1.24-18.7,3.36-35.99,14.57-51.17,9.42-12.76,21.67-21.34,37.8-23.17,12.65-1.43,24.05,2.05,33.91,10.11,14.66,11.99,21.29,28.08,22.65,46.49,1.32,17.82-2.84,34.39-12.83,49.35-2.33,3.49-4.9,6.78-7.99,9.65ZM396.06,191.97c-1.33,1.33-2.8,2.54-3.96,3.99-16.87,21.21-16.81,53.66-.71,72.51,8.3,9.72,18.71,14.87,31.63,13.73,11.96-1.06,21.51-6.96,28.64-16.39,15.01-19.85,17.43-41.41,6.86-63.92-5.5-11.73-14.79-19.76-27.92-22.14-13.71-2.49-25.04,2.54-34.54,12.22Z"/>
          <path class="cls-12" d="M435.63,160.62c4-.74,8.01-.52,11.98.07,12.63,1.88,23.83,7.18,34.02,14.7,8.26,6.1,15.23,13.4,20.58,22.24,8.84,14.6,9.86,29.87,3.46,45.45-9.65,23.47-26.83,39.39-50.4,48.5-3.42,1.32-7,2.09-10.64,2.6-.27-.92.42-1,.77-1.22,19.77-12.79,30.8-31.2,34.26-54.19,2.18-14.48,1.26-28.82-4.62-42.49-5.8-13.48-15.71-23.11-28.44-30.06-3.3-1.8-6.68-3.41-10.18-4.77-.32-.13-.72-.19-.77-.82Z"/>
          <path class="cls-12" d="M405.72,230.02c-2.14,2.15-5.65,2.2-7.79.12-2.15-2.09-2.13-5.86.05-7.98,2.12-2.05,5.8-2.02,7.83.07,2.1,2.17,2.07,5.64-.08,7.79Z"/>
          <path class="cls-12" d="M399.93,250.45c-2.06,2.13-5.65,2.17-7.79.1-2.26-2.19-2.26-5.66,0-7.91,2.13-2.12,5.65-2.13,7.78-.01,2.08,2.07,2.09,5.69.02,7.82Z"/>
          <path class="cls-12" d="M437.85,197.3c-2.16,2.15-5.59,2.2-7.77.1-2.13-2.05-2.1-5.92.07-7.98,2.14-2.04,5.72-1.98,7.82.13,2.1,2.12,2.05,5.58-.12,7.75Z"/>
          <path class="cls-12" d="M433.44,219.14c2.09-2.08,5.73-2.1,7.83-.05,2.18,2.13,2.12,5.8-.12,7.95-2.11,2.03-5.57,2.06-7.63.06-2.2-2.14-2.24-5.82-.08-7.96Z"/>
          <path class="cls-12" d="M414.89,264.98c-2.17,2.15-5.66,2.19-7.75.08-2.08-2.09-2.12-5.71-.08-7.83,2.08-2.16,5.85-2.17,7.97,0,2.09,2.13,2.03,5.59-.14,7.75Z"/>
          <path class="cls-12" d="M447.44,226.51c2.14-2.18,5.62-2.25,7.75-.16,2.18,2.13,2.19,5.87.02,7.97-2.12,2.06-5.69,2.03-7.82-.06-2.12-2.08-2.1-5.57.05-7.75Z"/>
          <path class="cls-12" d="M389.75,216.24c-2.08-2.14-2.04-5.73.09-7.77,2.1-2.01,5.82-1.99,7.83.04,2.12,2.15,2.06,5.9-.14,7.97-2.16,2.04-5.67,1.93-7.77-.24Z"/>
          <path class="cls-12" d="M418.03,198.12c-2.19,2.19-5.58,2.23-7.73.09-2.23-2.22-2.25-5.76-.03-7.93,2.08-2.03,5.73-2,7.82.07,2.08,2.05,2.05,5.67-.06,7.78Z"/>
          <path class="cls-12" d="M421.01,209.42c-2.14-2.27-2.01-5.45.32-7.66,2.17-2.06,5.72-1.99,7.76.15,2.01,2.1,1.94,5.77-.15,7.82-2.14,2.11-5.78,1.97-7.92-.3Z"/>
          <path class="cls-12" d="M413.27,233.16c2.18,2.2,2.18,5.51,0,7.72-2.18,2.21-5.56,2.28-7.74.16-2.18-2.13-2.21-5.89-.06-7.96,2.13-2.06,5.7-2.02,7.79.08Z"/>
          <path class="cls-12" d="M426.39,267.59c2.17,2.18,2.22,5.61.1,7.75-2.13,2.16-5.84,2.16-7.97,0-2.06-2.08-1.99-5.66.15-7.78,2.18-2.17,5.54-2.15,7.72.04Z"/>
          <path class="cls-12" d="M443.83,251.84c-2.19-2.17-2.22-5.57-.06-7.71,2.19-2.17,5.85-2.17,7.96,0,2.02,2.07,1.96,5.82-.11,7.81-2.15,2.07-5.64,2.02-7.78-.1Z"/>
          <path class="cls-12" d="M410.53,203.51c2.11,2.1,2.07,5.59-.08,7.75-2.2,2.21-5.49,2.24-7.71.07-2.19-2.14-2.21-5.83-.03-7.93,2.09-2.02,5.73-1.97,7.82.11Z"/>
          <path class="cls-12" d="M392.07,237.53c-2.19,2.22-5.47,2.28-7.72.13-2.18-2.1-2.31-5.61-.27-7.75,2.1-2.2,5.86-2.28,7.96-.15,2.11,2.12,2.12,5.64.02,7.78Z"/>
          <path class="cls-12" d="M448.78,213.28c-2.06,2.09-5.67,2.13-7.78.07-2.08-2.03-2.13-5.66-.09-7.81,2.1-2.22,5.69-2.21,7.9.02,2.17,2.19,2.16,5.5-.03,7.72Z"/>
          <path class="cls-12" d="M423.33,243.21c2.15,2.14,2.17,5.58.04,7.74-2.13,2.17-5.61,2.25-7.74.17-2.2-2.15-2.24-5.81-.07-7.95,2.11-2.08,5.67-2.06,7.78.04Z"/>
          <path class="cls-12" d="M436.53,236.24c2.1,2.08,2.07,5.62-.07,7.75-2.21,2.21-5.49,2.24-7.72.07-2.2-2.14-2.21-5.82-.03-7.93,2.11-2.04,5.7-1.99,7.81.1Z"/>
          <path class="cls-12" d="M430.47,264.19c-2.24-2.2-2.3-5.46-.15-7.7,2.14-2.23,5.77-2.29,7.91-.13,2.03,2.05,2.03,5.77,0,7.82-2.08,2.09-5.64,2.1-7.76.01Z"/>
          <path class="cls-12" d="M422.29,218.23c2.15,2.23,2.05,5.53-.24,7.72-2.08,2-5.64,1.99-7.65-.03-2.15-2.16-2.1-5.99.09-8,2.21-2.03,5.67-1.89,7.79.31Z"/>
          <path class="cls-12" d="M401.62,256.69c2.04,2.11,1.99,5.83-.11,7.85-2.12,2.04-5.84,1.99-7.85-.11-2.04-2.12-1.99-5.85.1-7.86,2.1-2.03,5.83-1.98,7.86.12Z"/>
        </g>
      </g>
      <g id="KfhMnP-2" data-name="KfhMnP">
        <g>
          <path class="cls-12" d="M535.37,162.69c-14.96,9.99-31.53,14.15-49.35,12.83-18.41-1.36-34.5-7.99-46.49-22.65-8.06-9.86-11.54-21.25-10.11-33.91,1.83-16.13,10.41-28.38,23.17-37.8,15.18-11.21,32.47-15.81,51.17-14.57,18.75,1.24,35.09,7.98,47.24,22.94,7.13,8.78,10.57,18.95,10.15,30.31-.51,13.86-6.53,25.2-16.13,34.85-2.87,3.1-6.17,5.67-9.65,7.99ZM445.1,128.75c2.38,13.12,10.41,22.41,22.14,27.92,22.51,10.56,44.07,8.15,63.92-6.86,9.43-7.13,15.33-16.67,16.39-28.64,1.14-12.92-4.01-23.33-13.73-31.63-18.86-16.1-51.3-16.16-72.51.71-1.46,1.16-2.67,2.63-3.99,3.96-9.67,9.51-14.7,20.84-12.22,34.54Z"/>
          <path class="cls-12" d="M425.97,133.77c-.74,4-.52,8.01.07,11.98,1.88,12.63,7.18,23.83,14.7,34.02,6.1,8.26,13.4,15.23,22.24,20.58,14.6,8.84,29.87,9.86,45.45,3.46,23.47-9.65,39.39-26.83,48.5-50.4,1.32-3.42,2.09-7,2.6-10.64-.92-.27-1,.42-1.22.77-12.79,19.77-31.2,30.8-54.19,34.26-14.48,2.18-28.82,1.26-42.49-4.62-13.48-5.8-23.11-15.71-30.06-28.44-1.8-3.3-3.41-6.68-4.77-10.18-.13-.32-.19-.72-.82-.77Z"/>
          <path class="cls-12" d="M495.37,103.86c2.15-2.14,2.2-5.65.12-7.79-2.09-2.15-5.86-2.13-7.98.05-2.05,2.12-2.02,5.8.07,7.83,2.17,2.1,5.64,2.07,7.79-.08Z"/>
          <path class="cls-12" d="M515.8,98.07c2.13-2.06,2.17-5.65.1-7.79-2.19-2.26-5.66-2.26-7.91,0-2.12,2.13-2.13,5.65-.01,7.78,2.07,2.08,5.69,2.09,7.82.02Z"/>
          <path class="cls-12" d="M462.64,135.99c2.15-2.16,2.2-5.59.1-7.77-2.05-2.13-5.92-2.1-7.98.07-2.04,2.14-1.98,5.72.13,7.82,2.12,2.1,5.58,2.05,7.75-.12Z"/>
          <path class="cls-12" d="M484.49,131.58c-2.08,2.09-2.1,5.73-.05,7.83,2.13,2.18,5.8,2.12,7.95-.12,2.03-2.11,2.06-5.57.06-7.63-2.14-2.2-5.82-2.24-7.96-.08Z"/>
          <path class="cls-12" d="M530.33,113.04c2.15-2.17,2.19-5.66.08-7.75-2.09-2.08-5.71-2.12-7.83-.08-2.16,2.08-2.17,5.85,0,7.97,2.13,2.09,5.59,2.03,7.75-.14Z"/>
          <path class="cls-12" d="M491.86,145.59c-2.18,2.14-2.25,5.62-.16,7.75,2.13,2.18,5.87,2.19,7.97.02,2.06-2.12,2.03-5.69-.06-7.82-2.08-2.12-5.57-2.1-7.75.05Z"/>
          <path class="cls-12" d="M481.59,87.9c-2.14-2.08-5.73-2.04-7.77.09-2.01,2.1-1.99,5.82.04,7.83,2.15,2.12,5.9,2.06,7.97-.14,2.04-2.16,1.93-5.67-.24-7.77Z"/>
          <path class="cls-12" d="M463.46,116.17c2.19-2.19,2.23-5.58.09-7.73-2.22-2.23-5.76-2.25-7.93-.03-2.03,2.08-2,5.73.07,7.82,2.05,2.08,5.67,2.05,7.78-.06Z"/>
          <path class="cls-12" d="M474.77,119.16c-2.27-2.14-5.45-2.01-7.66.32-2.06,2.17-1.99,5.72.15,7.76,2.1,2.01,5.77,1.94,7.82-.15,2.11-2.14,1.97-5.78-.3-7.92Z"/>
          <path class="cls-12" d="M498.5,111.41c2.2,2.18,5.51,2.18,7.72,0,2.21-2.18,2.28-5.56.16-7.74-2.13-2.18-5.89-2.21-7.96-.06-2.06,2.13-2.02,5.7.08,7.79Z"/>
          <path class="cls-12" d="M532.94,124.53c2.18,2.17,5.61,2.22,7.75.1,2.16-2.13,2.16-5.84,0-7.97-2.08-2.06-5.66-1.99-7.78.15-2.17,2.18-2.15,5.54.04,7.72Z"/>
          <path class="cls-12" d="M517.18,141.98c-2.17-2.19-5.57-2.22-7.71-.06-2.17,2.19-2.17,5.85,0,7.96,2.07,2.02,5.82,1.96,7.81-.11,2.07-2.15,2.02-5.64-.1-7.78Z"/>
          <path class="cls-12" d="M468.85,108.67c2.1,2.11,5.59,2.07,7.75-.08,2.21-2.2,2.24-5.49.07-7.71-2.14-2.19-5.83-2.21-7.93-.03-2.02,2.09-1.97,5.73.11,7.82Z"/>
          <path class="cls-12" d="M502.88,90.22c2.22-2.19,2.28-5.47.13-7.72-2.1-2.18-5.61-2.31-7.75-.27-2.2,2.1-2.28,5.86-.15,7.96,2.12,2.11,5.64,2.12,7.78.02Z"/>
          <path class="cls-12" d="M478.63,146.92c2.09-2.06,2.13-5.67.07-7.78-2.03-2.08-5.66-2.13-7.81-.09-2.22,2.1-2.21,5.69.02,7.9,2.19,2.17,5.5,2.16,7.72-.03Z"/>
          <path class="cls-12" d="M508.56,121.47c2.14,2.15,5.58,2.17,7.74.04,2.17-2.13,2.25-5.61.17-7.74-2.15-2.2-5.81-2.24-7.95-.07-2.08,2.11-2.06,5.67.04,7.78Z"/>
          <path class="cls-12" d="M501.59,134.68c2.08,2.1,5.62,2.07,7.75-.07,2.21-2.21,2.24-5.49.07-7.72-2.14-2.2-5.82-2.21-7.93-.03-2.04,2.11-1.99,5.7.1,7.81Z"/>
          <path class="cls-12" d="M529.54,128.62c-2.2-2.24-5.46-2.3-7.7-.15-2.23,2.14-2.29,5.77-.13,7.91,2.05,2.03,5.77,2.03,7.82,0,2.09-2.08,2.1-5.64.01-7.76Z"/>
          <path class="cls-12" d="M483.57,120.44c2.23,2.15,5.53,2.05,7.72-.24,2-2.08,1.99-5.64-.03-7.65-2.16-2.15-5.99-2.1-8,.09-2.03,2.21-1.89,5.67.31,7.79Z"/>
          <path class="cls-12" d="M522.03,99.76c2.11,2.04,5.83,1.99,7.85-.11,2.04-2.12,1.99-5.84-.11-7.85-2.12-2.04-5.85-1.99-7.86.1-2.03,2.1-1.98,5.83.12,7.86Z"/>
        </g>
      </g>
    </g>
    <g>
      <circle class="cls-10" cx="609.4" cy="268.12" r="90.63"/>
      <g>
        <g id="KfhMnP-3" data-name="KfhMnP">
          <g>
            <path class="cls-9" d="M603.44,312.86c-4.38,4.36-9.53,7.09-15.82,7.32-5.16.19-9.77-1.37-13.76-4.61-6.79-5.51-9.85-12.93-10.41-21.44-.56-8.49,1.52-16.34,6.61-23.23,4.28-5.79,9.83-9.69,17.16-10.52,5.74-.65,10.92.93,15.39,4.59,6.65,5.44,9.66,12.75,10.28,21.1.6,8.09-1.29,15.61-5.82,22.4-1.06,1.58-2.22,3.08-3.63,4.38ZM575.98,273.05c-.6.6-1.27,1.15-1.8,1.81-7.66,9.63-7.63,24.35-.32,32.91,3.77,4.41,8.49,6.75,14.35,6.23,5.43-.48,9.76-3.16,13-7.44,6.81-9.01,7.91-18.8,3.12-29.01-2.5-5.32-6.71-8.97-12.67-10.05-6.22-1.13-11.36,1.16-15.68,5.54Z"/>
            <path class="cls-9" d="M593.94,258.82c1.81-.33,3.63-.24,5.44.03,5.73.85,10.82,3.26,15.44,6.67,3.75,2.77,6.91,6.08,9.34,10.1,4.01,6.63,4.47,13.56,1.57,20.63-4.38,10.65-12.18,17.88-22.88,22.01-1.55.6-3.18.95-4.83,1.18-.12-.42.19-.45.35-.56,8.97-5.81,13.98-14.16,15.55-24.6.99-6.57.57-13.08-2.1-19.29-2.63-6.12-7.13-10.49-12.91-13.64-1.5-.82-3.03-1.55-4.62-2.17-.15-.06-.33-.09-.35-.37Z"/>
            <path class="cls-9" d="M580.37,290.32c-.97.97-2.56,1-3.54.05-.98-.95-.97-2.66.02-3.62.96-.93,2.63-.92,3.55.03.96.98.94,2.56-.04,3.54Z"/>
            <path class="cls-9" d="M577.74,299.59c-.94.96-2.57.99-3.54.05-1.03-.99-1.03-2.57,0-3.59.97-.96,2.57-.97,3.53,0,.94.94.95,2.58.01,3.55Z"/>
            <path class="cls-9" d="M594.95,275.47c-.98.98-2.54,1-3.53.05-.97-.93-.95-2.69.03-3.62.97-.93,2.6-.9,3.55.06.95.96.93,2.53-.05,3.52Z"/>
            <path class="cls-9" d="M592.95,285.38c.95-.94,2.6-.95,3.55-.02.99.97.96,2.63-.05,3.61-.96.92-2.53.93-3.46.03-1-.97-1.02-2.64-.04-3.61Z"/>
            <path class="cls-9" d="M584.53,306.19c-.98.98-2.57.99-3.52.04-.94-.95-.96-2.59-.04-3.55.95-.98,2.65-.98,3.62,0,.95.97.92,2.54-.06,3.52Z"/>
            <path class="cls-9" d="M599.3,288.73c.97-.99,2.55-1.02,3.52-.07.99.97.99,2.67.01,3.62-.96.93-2.58.92-3.55-.03-.96-.94-.95-2.53.02-3.52Z"/>
            <path class="cls-9" d="M573.12,284.07c-.94-.97-.92-2.6.04-3.53.95-.91,2.64-.9,3.55.02.96.98.93,2.68-.06,3.62-.98.92-2.57.88-3.53-.11Z"/>
            <path class="cls-9" d="M585.95,275.84c-1,.99-2.53,1.01-3.51.04-1.01-1.01-1.02-2.62-.01-3.6.94-.92,2.6-.91,3.55.03.94.93.93,2.57-.03,3.53Z"/>
            <path class="cls-9" d="M587.31,280.97c-.97-1.03-.91-2.48.14-3.48.99-.94,2.59-.9,3.52.07.91.95.88,2.62-.07,3.55-.97.96-2.62.89-3.6-.14Z"/>
            <path class="cls-9" d="M583.79,291.74c.99,1,.99,2.5,0,3.51-.99,1-2.52,1.04-3.51.07-.99-.97-1-2.67-.03-3.61.97-.93,2.59-.92,3.54.04Z"/>
            <path class="cls-9" d="M589.75,307.37c.99.99,1.01,2.55.05,3.52-.97.98-2.65.98-3.62,0-.93-.95-.9-2.57.07-3.53.99-.98,2.51-.98,3.5.02Z"/>
            <path class="cls-9" d="M597.67,300.22c-1-.98-1.01-2.53-.03-3.5.99-.98,2.65-.98,3.61,0,.92.94.89,2.64-.05,3.55-.98.94-2.56.92-3.53-.05Z"/>
            <path class="cls-9" d="M582.55,278.29c.96.95.94,2.54-.03,3.52-1,1-2.49,1.02-3.5.03-1-.97-1-2.65-.01-3.6.95-.92,2.6-.89,3.55.05Z"/>
            <path class="cls-9" d="M574.17,293.73c-.99,1.01-2.48,1.03-3.5.06-.99-.95-1.05-2.55-.12-3.52.95-1,2.66-1.03,3.61-.07.96.96.96,2.56.01,3.53Z"/>
            <path class="cls-9" d="M599.91,282.72c-.93.95-2.57.97-3.53.03-.95-.92-.97-2.57-.04-3.55.95-1.01,2.58-1,3.59,0,.98.99.98,2.49-.01,3.5Z"/>
            <path class="cls-9" d="M588.36,296.31c.98.97.98,2.53.02,3.51-.97.99-2.54,1.02-3.51.08-1-.98-1.02-2.64-.03-3.61.96-.94,2.57-.94,3.53.02Z"/>
            <path class="cls-9" d="M594.35,293.14c.95.94.94,2.55-.03,3.52-1,1-2.49,1.02-3.5.03-1-.97-1-2.64-.01-3.6.96-.92,2.59-.9,3.55.05Z"/>
            <path class="cls-9" d="M591.6,305.83c-1.01-1-1.04-2.48-.07-3.5.97-1.01,2.62-1.04,3.59-.06.92.93.92,2.62,0,3.55-.94.95-2.56.95-3.52,0Z"/>
            <path class="cls-9" d="M587.89,284.97c.98,1.01.93,2.51-.11,3.51-.95.91-2.56.9-3.47-.01-.97-.98-.95-2.72.04-3.63,1-.92,2.57-.86,3.54.14Z"/>
            <path class="cls-9" d="M578.5,302.42c.93.96.91,2.64-.05,3.56-.96.93-2.65.9-3.56-.05-.92-.96-.9-2.65.04-3.57.96-.92,2.65-.9,3.57.05Z"/>
          </g>
        </g>
        <g id="KfhMnP-4" data-name="KfhMnP">
          <g>
            <path class="cls-9" d="M639.21,259.76c-6.79,4.53-14.31,6.42-22.4,5.82-8.35-.62-15.66-3.63-21.1-10.28-3.66-4.47-5.24-9.65-4.59-15.39.83-7.32,4.72-12.88,10.52-17.16,6.89-5.09,14.74-7.18,23.23-6.61,8.51.56,15.93,3.62,21.44,10.41,3.24,3.99,4.8,8.6,4.61,13.76-.23,6.29-2.96,11.44-7.32,15.82-1.3,1.41-2.8,2.57-4.38,3.63ZM598.24,244.35c1.08,5.96,4.72,10.17,10.05,12.67,10.22,4.79,20,3.7,29.01-3.12,4.28-3.24,6.96-7.57,7.44-13,.52-5.86-1.82-10.59-6.23-14.35-8.56-7.31-23.29-7.34-32.91.32-.66.53-1.21,1.19-1.81,1.8-4.39,4.32-6.67,9.46-5.54,15.68Z"/>
            <path class="cls-9" d="M589.56,246.63c-.33,1.81-.24,3.63.03,5.44.85,5.73,3.26,10.82,6.67,15.44,2.77,3.75,6.08,6.91,10.1,9.34,6.63,4.01,13.56,4.47,20.63,1.57,10.65-4.38,17.88-12.18,22.01-22.88.6-1.55.95-3.18,1.18-4.83-.42-.12-.45.19-.56.35-5.81,8.97-14.16,13.98-24.6,15.55-6.57.99-13.08.57-19.29-2.1-6.12-2.63-10.49-7.13-13.64-12.91-.82-1.5-1.55-3.03-2.17-4.62-.06-.15-.09-.33-.37-.35Z"/>
            <path class="cls-9" d="M621.06,233.06c.97-.97,1-2.56.05-3.54-.95-.98-2.66-.97-3.62.02-.93.96-.92,2.63.03,3.55.98.96,2.56.94,3.54-.04Z"/>
            <path class="cls-9" d="M630.33,230.43c.96-.94.99-2.57.05-3.54-.99-1.03-2.57-1.03-3.59,0-.96.97-.97,2.57,0,3.53.94.94,2.58.95,3.55.01Z"/>
            <path class="cls-9" d="M606.2,247.64c.98-.98,1-2.54.05-3.53-.93-.97-2.69-.95-3.62.03-.93.97-.9,2.6.06,3.55.96.95,2.53.93,3.52-.05Z"/>
            <path class="cls-9" d="M616.12,245.64c-.94.95-.95,2.6-.02,3.55.97.99,2.63.96,3.61-.05.92-.96.93-2.53.03-3.46-.97-1-2.64-1.02-3.61-.04Z"/>
            <path class="cls-9" d="M636.92,237.22c.98-.98.99-2.57.04-3.52-.95-.94-2.59-.96-3.55-.04-.98.95-.98,2.65,0,3.62.97.95,2.54.92,3.52-.06Z"/>
            <path class="cls-9" d="M619.46,252c-.99.97-1.02,2.55-.07,3.52.97.99,2.67.99,3.62.01.93-.96.92-2.58-.03-3.55-.94-.96-2.53-.95-3.52.02Z"/>
            <path class="cls-9" d="M614.8,225.81c-.97-.94-2.6-.92-3.53.04-.91.95-.9,2.64.02,3.55.98.96,2.68.93,3.62-.06.92-.98.88-2.57-.11-3.53Z"/>
            <path class="cls-9" d="M606.57,238.65c.99-1,1.01-2.53.04-3.51-1.01-1.01-2.62-1.02-3.6-.01-.92.94-.91,2.6.03,3.55.93.94,2.57.93,3.53-.03Z"/>
            <path class="cls-9" d="M611.71,240c-1.03-.97-2.48-.91-3.48.14-.94.99-.9,2.59.07,3.52.95.91,2.62.88,3.55-.07.96-.97.89-2.62-.14-3.6Z"/>
            <path class="cls-9" d="M622.48,236.49c1,.99,2.5.99,3.51,0,1-.99,1.04-2.52.07-3.51-.97-.99-2.67-1-3.61-.03-.93.97-.92,2.59.04,3.54Z"/>
            <path class="cls-9" d="M638.11,242.44c.99.99,2.55,1.01,3.52.05.98-.97.98-2.65,0-3.62-.95-.93-2.57-.9-3.53.07-.98.99-.98,2.51.02,3.5Z"/>
            <path class="cls-9" d="M630.96,250.36c-.98-1-2.53-1.01-3.5-.03-.98.99-.98,2.65,0,3.61.94.92,2.64.89,3.55-.05.94-.98.92-2.56-.05-3.53Z"/>
            <path class="cls-9" d="M609.02,235.24c.95.96,2.54.94,3.52-.03,1-1,1.02-2.49.03-3.5-.97-1-2.65-1-3.6-.01-.92.95-.89,2.6.05,3.55Z"/>
            <path class="cls-9" d="M624.46,226.86c1.01-.99,1.03-2.48.06-3.5-.95-.99-2.55-1.05-3.52-.12-1,.95-1.03,2.66-.07,3.61.96.96,2.56.96,3.53.01Z"/>
            <path class="cls-9" d="M613.46,252.6c.95-.93.97-2.57.03-3.53-.92-.95-2.57-.97-3.55-.04-1.01.95-1,2.58,0,3.59.99.98,2.49.98,3.5-.01Z"/>
            <path class="cls-9" d="M627.04,241.05c.97.98,2.53.98,3.51.02.99-.97,1.02-2.54.08-3.51-.98-1-2.64-1.02-3.61-.03-.94.96-.94,2.57.02,3.53Z"/>
            <path class="cls-9" d="M623.88,247.04c.94.95,2.55.94,3.52-.03,1-1,1.02-2.49.03-3.5-.97-1-2.64-1-3.6-.01-.92.96-.9,2.59.05,3.55Z"/>
            <path class="cls-9" d="M636.57,244.29c-1-1.01-2.48-1.04-3.5-.07-1.01.97-1.04,2.62-.06,3.59.93.92,2.62.92,3.55,0,.95-.94.95-2.56,0-3.52Z"/>
            <path class="cls-9" d="M615.7,240.58c1.01.98,2.51.93,3.51-.11.91-.95.9-2.56-.01-3.47-.98-.97-2.72-.95-3.63.04-.92,1-.86,2.57.14,3.54Z"/>
            <path class="cls-9" d="M633.16,231.2c.96.93,2.64.91,3.56-.05.93-.96.9-2.65-.05-3.56-.96-.92-2.65-.9-3.57.04-.92.96-.9,2.65.05,3.57Z"/>
          </g>
        </g>
      </g>
    </g>
  </g>
  <g>
    <g id="emWIFI">
      <g>
        <path class="cls-6" d="M883.98,51.17c5.67-11.96,12.89-21.42,19.49-31.4.39-.59.82-1.13,1.23-1.7,5.68-7.87,5.7-12.64.01-16.15-1.13-.7-2.31-1.39-3.62-1.64-5.09-.97-8.34.29-12.04,6.95-7.68,13.81-16.85,26.61-23.06,41.43-1.34,3.2-2.12,1.49-2.98.61-6.67-6.85-14.49-11.39-23.93-12.63-10.3-1.34-20.97.21-32.26,6.64-1.96,1.12-3.97,1.86-5.95,2.81-1.72.82-2.34,2.12-2.08,4.18,1.12,9.18,3.03,17.73,6.63,25.01.81,1.65,1.97,1.34,3.39.02,8.5-7.88,16.64-9.57,24.58-7.71,1.54.36,2.98.35,4.76-1.42,11.17-11.06,24.68-10.8,32.97-4.08,2.59,2.1,4.44,5.09,6.08,8.32.65,1.28,1.29,1.47,2.71.43,10.14-7.45,19.4-8.69,27.66-4.26,5.49,2.95,9.31,8.16,11.03,15.77.64,2.83,1.61,2.27,3.76.35,12.79-11.41,20.06-27.07,26.3-43.63,1.01-2.67.59-3.97-1.19-4.62-11.7-4.28-24.12-5.7-38.16.13-7.24,3-14.47,7.01-21.17,13.65-.66.66-1.35,1.27-2.06,1.8-.48.36-1,.56-2.11,1.14Z"/>
        <path class="cls-6" d="M887.66,156.04c-.57,1.69-1.5,3.97-2.1,6.26-1.27,4.87-.66,6.28,2.53,7.38,7.52,2.59,13.36,7.48,15.49,17.6.77,3.67,2.17,4.16,7.29,1.13,7.36-4.37,14.08-10.72,16.5-21.2,2.62-11.31,1.49-20.02-5.78-26.07-7.16-5.96-18.06-5.27-28.93,6.74-1.97,2.18-3.27,4.93-5,8.16Z"/>
        <path class="cls-6" d="M943.26,96.16c-7.19-3.32-14.92-1.13-23.06,5.91-6.1,5.27-11.39,18.17-10.47,24.98.22,1.63.65,2.52,2.07,2.56,9.57.31,16.23,5.57,20.04,15.58.35.91.83,1.3,1.81,1.08,6.24-1.41,16.6-12.82,18.44-20.91,3.11-13.63.91-22.77-7.29-28.46-.47-.33-1.02-.49-1.54-.74Z"/>
        <path class="cls-6" d="M865.65,239.16c7.26-14.13,1.75-29.73-8.69-31.95-6.66-1.42-13.51.98-19.95,8.05-4.91,5.39-8.23,12.08-8.14,19.59.18,15.89,7.19,23.19,19.98,19.95,6.86-1.73,12.93-6.59,16.8-15.64Z"/>
        <path class="cls-6" d="M818.73,159.58c-9.02-3.9-18.31-.47-25.43,7.64-10.91,12.43-11.27,28.37-4.77,37.4,1.29,1.79,2.78,3.38,4.71,4.3,1.48.7,2.57.23,3.77-2.01,7.24-13.49,16.58-19.45,27.05-20.72,2.66-.32,3.66-1.67,3.95-4.94,1.03-11.64-3.41-17.85-9.27-21.68Z"/>
        <path class="cls-6" d="M866.31,146.43c-4.38-2.14-10.69-1.55-17.25,3.61-9.32,7.32-14.14,21.79-9.25,33.21,2.16,5.04,5.65,8.21,10.28,9.58,1.36.4,2.42.19,3.59-1.91,5.59-10.03,12.86-14.92,20.83-16.82,2.59-.62,3.26-2.15,3.4-4.73.63-11.49-2.93-18.84-11.6-22.93Z"/>
        <path class="cls-6" d="M851.47,106.28c-11.93-5.48-26.85,6.57-30.17,24.37-1.72,9.24,3.78,20.88,10.21,21.81,1.31.19,2.21-.65,3.11-2.05,6.42-10.06,14.13-14.12,22.31-15.34,2.05-.31,2.85-1.73,3.16-3.75,1.82-12.04.17-20.47-8.62-25.03Z"/>
        <path class="cls-6" d="M810.41,85.11c-8.15-4.75-22.27.72-29.37,14.2-4.18,7.95-5.82,18.99-3.16,25.32.73,1.74,1.64,1.72,3.18-.02,11.1-12.6,25.16-13.57,33.08-8.12,2.71,1.87,3.33,1.44,4.89-3.36,3.41-10.52.42-22.88-6.56-27.04-.65-.39-1.37-.65-2.05-.97Z"/>
        <path class="cls-6" d="M808.16,126.76c-10.73-4.97-24.02,3.05-30.75,18.36-4.84,11-2.38,22.93,2.62,28.14,1.13,1.18,2.16,1,3.28-1.34,7.3-15.21,21.75-22.97,31.99-21.27,2.35.39,3.37-.92,3.42-3.94.14-8.32-2.94-16.56-10.57-19.95Z"/>
        <path class="cls-6" d="M831.44,195.05c-8.72-4.23-20.65,1.16-27.96,11.99-6.79,10.07-7.46,25-1.98,32.67,3.92,5.48,9.3,7.66,16.07,6.77,1.8-.24,2.74-.79,2.48-3.56-1.56-16.65,2.41-26.7,12.54-37.58,5.32-5.72,5.34-6.47.63-9.44-.56-.35-1.19-.57-1.79-.85Z"/>
        <path class="cls-6" d="M862.29,196.55c9.34,4.33,14.41,13.91,13.4,29.44-.19,2.93.56,3.07,2.54,2.22,8.15-3.51,14.65-9.74,18.52-20.6,1.5-4.21,1.18-8.01,1.45-11.94.13-1.92-1.1-2.23-2.21-2.53-6.47-1.79-10.75-6.67-13.07-14.29-.43-1.42-1.07-2.22-2.45-2.2-3.49.05-7.09,1.15-10.57,3.66-3.46,2.49-6.48,6.28-9.46,9.84-3.19,3.79-2.94,4.57,1.84,6.43Z"/>
        <path class="cls-6" d="M867.11,98.09c6.7-14.23,3.52-29.05-6.14-32.5-7.31-2.61-14.7-.18-22.46,7.31-4.73,4.57-8.85,15.61-8.1,21.61.27,2.19,1.46,1.08,2.56.58,9.53-4.26,17.73-3.9,24.3,2.15,1.51,1.4,2.77,3.13,3.79,5.1,1.37,2.66,2.84,1.73,4.53-1.31.69-1.25,1.31-2.54,1.52-2.95Z"/>
        <path class="cls-6" d="M876.33,91.16c-1.78,3.39-1.61,8.1-1.34,12.8.1,1.78,1.2,1.81,2.35,1.67,7.47-.94,13.12,1.96,17.17,8.23,1.01,1.56,2.46.8,3.89-.25,7.85-5.76,12.52-18.94,10.59-25.88-2.9-10.46-8.53-14.63-18.36-11.29-5.32,1.8-10.14,5.96-14.3,14.73Z"/>
        <path class="cls-6" d="M882.35,116.5c-7.62-3.69-17.78,4.48-19.62,15.76-.82,5.06.48,7.07,4.27,6.72,4.2-.39,7.84.67,10.48,3.87,1.6,1.94,3.15,1.03,5.13-1.23,7.63-8.72,7.52-21.35-.25-25.12Z"/>
      </g>
    </g>
    <g>
      <circle class="cls-3" cx="1004.39" cy="248.33" r="90.63"/>
      <g id="emWIFI-2" data-name="emWIFI">
        <g>
          <path class="cls-9" d="M1019.62,213.57c2.57-5.43,5.85-9.72,8.85-14.25.18-.27.37-.52.56-.77,2.58-3.57,2.59-5.74,0-7.33-.51-.32-1.05-.63-1.64-.74-2.31-.44-3.79.13-5.47,3.15-3.48,6.27-7.65,12.08-10.47,18.8-.61,1.45-.96.68-1.35.28-3.03-3.11-6.58-5.17-10.86-5.73-4.68-.61-9.52.1-14.64,3.01-.89.51-1.8.84-2.7,1.27-.78.37-1.06.96-.95,1.9.51,4.16,1.38,8.05,3.01,11.35.37.75.89.61,1.54,0,3.86-3.58,7.55-4.35,11.16-3.5.7.16,1.35.16,2.16-.64,5.07-5.02,11.2-4.9,14.96-1.85,1.17.95,2.01,2.31,2.76,3.78.3.58.59.67,1.23.19,4.6-3.38,8.81-3.95,12.55-1.93,2.49,1.34,4.23,3.71,5.01,7.16.29,1.29.73,1.03,1.71.16,5.8-5.18,9.11-12.29,11.94-19.8.46-1.21.27-1.8-.54-2.1-5.31-1.94-10.95-2.59-17.32.06-3.28,1.36-6.57,3.18-9.61,6.2-.3.3-.61.58-.93.82-.22.17-.46.25-.96.52Z"/>
          <path class="cls-9" d="M1021.28,261.17c-.26.77-.68,1.8-.95,2.84-.57,2.21-.3,2.85,1.15,3.35,3.41,1.18,6.07,3.39,7.03,7.99.35,1.67.99,1.89,3.31.51,3.34-1.98,6.39-4.86,7.49-9.62,1.19-5.14.68-9.09-2.62-11.83-3.25-2.7-8.2-2.39-13.13,3.06-.9.99-1.48,2.24-2.27,3.7Z"/>
          <path class="cls-9" d="M1046.52,233.99c-3.26-1.51-6.77-.51-10.47,2.68-2.77,2.39-5.17,8.25-4.75,11.34.1.74.29,1.14.94,1.16,4.35.14,7.37,2.53,9.09,7.07.16.41.38.59.82.49,2.83-.64,7.53-5.82,8.37-9.49,1.41-6.19.41-10.34-3.31-12.92-.21-.15-.46-.22-.7-.33Z"/>
          <path class="cls-9" d="M1011.3,298.89c3.29-6.41.8-13.49-3.94-14.5-3.02-.64-6.13.45-9.06,3.65-2.23,2.44-3.74,5.48-3.7,8.89.08,7.21,3.26,10.52,9.07,9.06,3.11-.79,5.87-2.99,7.63-7.1Z"/>
          <path class="cls-9" d="M990,262.77c-4.09-1.77-8.31-.22-11.54,3.47-4.95,5.64-5.11,12.87-2.17,16.98.58.81,1.26,1.54,2.14,1.95.67.32,1.17.1,1.71-.91,3.29-6.12,7.53-8.83,12.28-9.41,1.21-.15,1.66-.76,1.79-2.24.47-5.28-1.55-8.1-4.21-9.84Z"/>
          <path class="cls-9" d="M1011.59,256.8c-1.99-.97-4.85-.7-7.83,1.64-4.23,3.32-6.42,9.89-4.2,15.07.98,2.29,2.57,3.72,4.67,4.35.62.18,1.1.08,1.63-.87,2.54-4.55,5.84-6.77,9.46-7.64,1.17-.28,1.48-.98,1.54-2.15.29-5.21-1.33-8.55-5.26-10.41Z"/>
          <path class="cls-9" d="M1004.86,238.58c-5.41-2.49-12.19,2.98-13.69,11.06-.78,4.19,1.71,9.48,4.63,9.9.59.09,1-.29,1.41-.93,2.92-4.56,6.41-6.41,10.12-6.96.93-.14,1.3-.78,1.43-1.7.83-5.46.08-9.29-3.91-11.36Z"/>
          <path class="cls-9" d="M986.22,228.97c-3.7-2.16-10.11.33-13.33,6.45-1.9,3.61-2.64,8.62-1.44,11.49.33.79.74.78,1.44,0,5.04-5.72,11.42-6.16,15.01-3.69,1.23.85,1.51.65,2.22-1.52,1.55-4.77.19-10.38-2.98-12.27-.3-.18-.62-.3-.93-.44Z"/>
          <path class="cls-9" d="M985.2,247.87c-4.87-2.26-10.9,1.39-13.96,8.33-2.2,4.99-1.08,10.41,1.19,12.77.51.54.98.45,1.49-.61,3.31-6.9,9.87-10.43,14.52-9.66,1.07.18,1.53-.42,1.55-1.79.06-3.78-1.34-7.52-4.8-9.06Z"/>
          <path class="cls-9" d="M995.77,278.87c-3.96-1.92-9.37.52-12.69,5.44-3.08,4.57-3.39,11.35-.9,14.83,1.78,2.49,4.22,3.48,7.3,3.07.82-.11,1.24-.36,1.12-1.62-.71-7.56,1.1-12.12,5.69-17.06,2.42-2.6,2.42-2.94.29-4.28-.25-.16-.54-.26-.81-.39Z"/>
          <path class="cls-9" d="M1009.77,279.55c4.24,1.97,6.54,6.31,6.08,13.36-.09,1.33.26,1.39,1.15,1.01,3.7-1.59,6.65-4.42,8.41-9.35.68-1.91.54-3.64.66-5.42.06-.87-.5-1.01-1-1.15-2.94-.81-4.88-3.03-5.93-6.49-.2-.64-.49-1.01-1.11-1-1.59.02-3.22.52-4.8,1.66-1.57,1.13-2.94,2.85-4.3,4.46-1.45,1.72-1.33,2.08.83,2.92Z"/>
          <path class="cls-9" d="M1011.96,234.86c3.04-6.46,1.6-13.19-2.79-14.75-3.32-1.19-6.67-.08-10.19,3.32-2.15,2.08-4.01,7.08-3.67,9.81.12.99.66.49,1.16.26,4.33-1.93,8.05-1.77,11.03.98.69.63,1.26,1.42,1.72,2.32.62,1.21,1.29.79,2.05-.6.31-.57.6-1.15.69-1.34Z"/>
          <path class="cls-9" d="M1016.15,231.72c-.81,1.54-.73,3.68-.61,5.81.05.81.55.82,1.07.76,3.39-.43,5.96.89,7.79,3.74.46.71,1.12.36,1.77-.11,3.56-2.62,5.68-8.6,4.81-11.75-1.32-4.75-3.87-6.64-8.33-5.13-2.41.82-4.6,2.7-6.49,6.69Z"/>
          <path class="cls-9" d="M1018.88,243.22c-3.46-1.68-8.07,2.03-8.91,7.15-.37,2.3.22,3.21,1.94,3.05,1.91-.18,3.56.3,4.76,1.76.73.88,1.43.47,2.33-.56,3.46-3.96,3.41-9.69-.12-11.4Z"/>
        </g>
      </g>
    </g>
  </g>
</svg>