<?xml version="1.0" encoding="UTF-8"?>
<svg id="Lag_1" xmlns="http://www.w3.org/2000/svg" viewBox="0 0 1474.17 563.22">
  <defs>
    <style>
      .cls-1 {
        stroke-width: 22px;
      }

      .cls-1, .cls-2 {
        fill: none;
      }

      .cls-1, .cls-2, .cls-3, .cls-4 {
        stroke: #7f1524;
        stroke-miterlimit: 10;
      }

      .cls-2, .cls-3 {
        stroke-width: 2px;
      }

      .cls-3, .cls-4 {
        fill: #7f1524;
      }

      .cls-4 {
        stroke-width: .75px;
      }
    </style>
  </defs>
  <g>
    <path class="cls-1" d="M415.24,349.66c.12,32.25-7.67,56.31-10.39,64.14-9.81,28.22-23.87,46.75-31.26,56.32-18.6,24.1-38.11,38.75-48.44,45.78-15.8,10.77-29.63,17.04-36.82,20.04-12.84,5.36-39.53,16.2-75.21,15.84-9.57-.1-47.17-1.27-87.47-24.34-31.62-18.1-48.99-40.57-63.73-60.06-22.74-30.06-50.56-66.82-50.92-117.72-.28-39.05,15.71-72.62,24.88-91.88,4.52-9.5,10.51-21.92,21.11-36.5,8.03-11.04,48.75-67.05,113.36-74.72,3.86-.46,16.83.02,42.76.98,63.33,2.34,73.45,6.65,78.57,9.13,7.45,3.61,19.16,11.45,42.57,27.14,9.14,6.12,13.71,9.18,16.4,11.27,10.26,7.97,22.48,20.82,37.09,52.58,13.55,29.47,27.34,59.47,27.49,101.99Z"/>
    <path class="cls-2" d="M145.6,300.33c-.32,10.66.79,19.09,1.34,22.71,1.56,10.27,4.03,17.77,4.55,19.34,3.85,11.48,9.3,27.75,25.12,39.33,15.42,11.29,31.97,11.76,37.19,11.69,5.68-.07,17.21-.36,28.85-7.8,9.62-6.15,14.44-14.08,16.58-17.69,1.66-2.8,4.96-8.91,8.57-31.82.27-1.69,3.51-23.91.79-50.69-.43-4.23-1.12-9.63-5.11-12.18-6.59-4.22-17.25,2.5-18.86,3.54-.19-3.6-.74-8.83-2.36-14.93-2.27-8.53-5.9-15.97-6.68-15.72-.54.17.31,3.95,2.45,17.96,1.35,8.85,1.61,11.26,0,13.19-1.82,2.17-4.5,1.9-12.54,2.43-14.7.97-14.83,2.49-17.31,1.4-11.62-5.09-7.13-37.6-9.54-37.74-1.06-.06-2.48,6.14-3.45,13.39-2.11,15.87-.86,28.05-1.2,28.08-.62.05-3.81-39.18-5.96-39.11-.76.02-1.05,4.89-3.14,25.54-.62,6.11-1.15,11.2-1.53,14.78-3.74,1.5-7.55,3-11.44,4.48-5.45,2.08-10.83,4.04-16.11,5.89-1.81-4.83-3.71-11.56-3.93-19.65-.35-12.71,3.6-21.99,3.54-22-.1-.03-9.03,18.99-9.82,45.58Z"/>
    <path class="cls-2" d="M158.43,361.21c-1.19.58-3.06,1.29-5.33,1.22-5.73-.17-9.42-5.19-11.9-8.25-5.43-6.7-5.71-13.96-5.76-16.12-.06-2.34-.1-6.87,2.5-11.13.65-1.07,1.78-2.63,3.68-4.17.05-.02.11-.04.16-.05,1.16-.36,2.86-.53,5.17.33"/>
    <path class="cls-2" d="M150.67,356.18c-3.75.43-6.93,2.64-8.21,5.83-1.86,4.63.91,9.71,4.37,11.78,4.71,2.82,12.17.96,16.12-5.41"/>
    <path class="cls-2" d="M269.64,303.35c.86-.94,3.28-3.33,6.53-3.22,5.35.17,8.27,6.96,8.91,8.31,3.13,6.63,1.24,13.55.1,17.74-.84,3.1-3.23,11.87-9.94,14.88-2.15.97-4.11,1.13-5.39.99l-2.04-.23"/>
    <path class="cls-2" d="M273.84,334.48c1.24-.47,4.02-1.33,6.57-.12,4.75,2.24,6.82,10.73,2.6,15.25-3.23,3.46-9,3.48-12.65,1.12-1.79-1.16-2.8-2.71-3.35-3.76"/>
    <g>
      <path class="cls-2" d="M195.21,366.37c6.33.31,13.85.22,22.24-.77,8.07-.95,15.16-2.53,21.09-4.22"/>
      <path class="cls-2" d="M204.6,374.2c1.15.78,7.02,4.57,14.76,3.07,6.48-1.25,10.24-5.43,11.31-6.71"/>
      <path class="cls-2" d="M229.85,363.55c-.88-.73-7.89-6.33-17.02-4.28-6.39,1.43-10.05,5.76-11.13,7.15"/>
    </g>
    <path class="cls-2" d="M205.81,323.98c-.17,2.57-.57,6.54-1.62,11.33-1.21,5.51-2.32,7.72-1.2,9.36.81,1.18,3.32,2.87,13.07.35"/>
    <ellipse class="cls-3" cx="183.02" cy="322.74" rx="5.66" ry="7.45" transform="translate(-48.09 32.49) rotate(-8.97)"/>
    <path class="cls-3" d="M241.16,313.31c.64,4.07-1.34,7.76-4.43,8.25s-6.11-2.41-6.76-6.48c-.64-4.07,1.34-7.76,4.43-8.25,3.09-.49,6.11,2.41,6.76,6.48Z"/>
    <path class="cls-2" d="M168.59,319.66c1.95-1.53,6.33-4.53,12.68-5.39,4.7-.64,8.54.16,10.79.81"/>
    <path class="cls-2" d="M223.88,310.76c1.09-1.15,4.46-4.4,9.98-5.39,5.94-1.07,10.52,1.17,11.87,1.89"/>
    <path class="cls-2" d="M165.9,299.7c2.14-1.2,5.96-2.98,11.06-3.51,5.43-.56,9.76.55,12.14,1.35"/>
    <path class="cls-2" d="M221.34,291.17c2.04-1.37,5.7-3.46,10.73-4.41,5.36-1.01,9.78-.26,12.21.34"/>
    <path class="cls-2" d="M322.31,463.66c-5.31-10.81-15.09-26.47-31.17-36.09-9.29-5.56-22.5-10.19-25.01-11.07-6.29-2.21-10.4-5.83-15.58-4.51-4.51,1.15-5.6,4.36-9.84,8.2-11.48,10.4-28.03,9.08-28.71,9.02-11.68-1.09-21.11-8.3-24.19-10.66-5.03-3.85-5.44-5.59-9.02-6.56-4.94-1.35-9.24.59-22.96,7.38-9.89,4.89-14.83,7.34-15.58,7.79-15.86,9.58-26.32,24.68-31.99,34.45,4.83,6.13,41.51,51.01,104.87,52.39,65.36,1.42,104.52-44.65,109.19-50.34Z"/>
    <path class="cls-2" d="M170.78,425.67l12.24-11.24-12.24,11.24Z"/>
    <path class="cls-2" d="M183.02,433.88l9.04-12.27-9.04,12.27Z"/>
    <path class="cls-2" d="M195.21,441.85l6.5-14.11-6.5,14.11Z"/>
    <path class="cls-2" d="M211.34,445.5l.66-16.28-.66,16.28Z"/>
    <path class="cls-2" d="M225.47,445.5l-1.82-16.28,1.82,16.28Z"/>
    <path class="cls-2" d="M238.53,439.57l-5.55-13.9,5.55,13.9Z"/>
    <path class="cls-2" d="M253.26,431.14l-12.55-10.95,12.55,10.95Z"/>
    <path class="cls-2" d="M261.01,423.85l-12.53-9.42,12.53,9.42Z"/>
    <path class="cls-2" d="M259.23,367.9c5.85.99,16.88,1.9,28.33-3.33,3.45-1.58,8.42-3.84,12.6-8.93,7.51-9.14,6.86-20.54,7.95-20.42.81.09,1.2,6.47.37,13.37-.94,7.74-2.95,12.28-2.32,12.55.78.34,5.34-6.31,8.11-14,1.69-4.69,4.58-14.93,1.19-33.45-1.15-6.27-4.36-19.52-14.67-39.13-9.78-18.59-19.53-37.14-40.6-49.89-7.64-4.63-20.38-12.34-36.2-11.25-4.1.28-4.78.91-22.01,3.91-19.35,3.38-19.07,2.69-22.99,3.91-14.36,4.48-22.93,15.2-30.33,24.46-8.25,10.33-12.02,19.28-19.57,37.18-9.17,21.76-11.63,34.43-12.72,42.56-1.5,11.15-2.19,21.65,3.42,28.86.78,1,3.4,4.14,5.5,9.06,1.67,3.89,3.99,9.32,1.62,11.95-2.09,2.32-7.28,1.8-10.43-.37-3.49-2.41-3.79-6.53-4.84-6.33-1.01.19-1.8,4.16-.37,7.45,1.85,4.26,6.57,5.46,7.07,5.59,4.22,1.01,7.65-1.66,8.19-.74.38.64-1.01,2.38-2.63,3.52-4.05,2.87-8.84,1.56-8.91,2.06-.1.66,7.94,4.82,14.89,1.86,6.32-2.69,8.94-10.08,9.68-9.68.7.37-3.3,6.03-1.96,9.11,1.79,4.09,13.41,4.69,44.48-2.52"/>
    <path class="cls-2" d="M291.11,346.64c-.55,2.97-1.54,6.77-3.4,10.92-1.66,3.72-3.57,6.71-5.24,8.97"/>
    <path class="cls-2" d="M190.64,389.28c.23,2.11.46,7.04-2.12,12.43-2.99,6.25-7.93,9.28-9.73,10.28"/>
    <path class="cls-2" d="M235.69,389.27c-.13,2.25-.08,6.96,2.45,12.07,3.26,6.56,8.59,9.65,10.53,10.67"/>
  </g>
  <g>
    <path class="cls-1" d="M936.19,214.27c.12,32.25-7.67,56.31-10.39,64.14-9.81,28.22-23.87,46.75-31.26,56.32-18.6,24.1-38.11,38.75-48.44,45.78-15.8,10.77-29.63,17.04-36.82,20.04-12.84,5.36-39.53,16.2-75.21,15.84-9.57-.1-47.17-1.27-87.47-24.34-31.62-18.1-48.99-40.57-63.73-60.06-22.74-30.06-50.56-66.82-50.92-117.72-.28-39.05,15.71-72.62,24.88-91.88,4.52-9.5,10.51-21.92,21.11-36.5,8.03-11.04,48.75-67.05,113.36-74.72,3.86-.46,16.83.02,42.76.98,63.33,2.34,73.45,6.65,78.57,9.13,7.45,3.61,19.16,11.45,42.57,27.14,9.14,6.12,13.71,9.18,16.4,11.27,10.26,7.97,22.48,20.82,37.09,52.58,13.55,29.47,27.34,59.47,27.49,101.99Z"/>
    <path class="cls-2" d="M666.56,164.94c-1.47,4.93-.46,10.84,1.34,22.71,1.56,10.27,4.03,17.77,4.55,19.34,3.85,11.48,9.3,27.75,25.12,39.33,15.42,11.29,31.97,11.76,37.19,11.69,5.68-.07,17.21-.36,28.85-7.8,9.62-6.15,14.44-14.08,16.58-17.69,1.66-2.8,4.96-8.91,8.57-31.82,4.62-29.36,5.85-44.19.79-50.69-7.28-9.33-15.53-3.46-32.51-13.76-20.67-12.53-22.46-29.74-32.25-28.83-9.11.84-7.23,15.71-23.46,31.28-16.16,15.5-30.82,13.05-34.76,26.24Z"/>
    <path class="cls-2" d="M679.38,225.82c-1.19.58-3.06,1.29-5.33,1.22-5.73-.17-9.42-5.19-11.9-8.25-5.43-6.7-5.71-13.96-5.76-16.12-.06-2.34-.1-6.87,2.5-11.13.65-1.07,1.78-2.63,3.68-4.17.05-.02.11-.04.16-.05,1.16-.36,2.86-.53,5.17.33"/>
    <path class="cls-2" d="M794.32,163.01c.84-.36,2.11-.77,3.64-.71,5.96.23,9.54,7.36,10.05,8.31,3.53,6.63,1.4,13.55.12,17.74-.95,3.1-3.65,11.87-11.21,14.88-2.42.97-4.64,1.13-6.07.99-1.32-.13-2.22-.44-2.3-.23-.2.53,5.15,2.75,7.71,4.9,7.69,6.49,9.02,28.44-2.46,41.09-7.94,8.75-22.22,10.97-32.07,7.87-3.8-1.2-7.47-3.4-8.42-2.27-1.25,1.49,3.36,7.47,7.66,12.5"/>
    <g>
      <path class="cls-2" d="M716.17,230.98c6.33.31,13.85.22,22.24-.77,8.07-.95,15.16-2.53,21.09-4.22"/>
      <path class="cls-2" d="M725.56,238.81c1.15.78,7.02,4.57,14.76,3.07,6.48-1.25,10.24-5.43,11.31-6.71"/>
      <path class="cls-2" d="M750.81,228.16c-.88-.73-7.89-6.33-17.02-4.28-6.39,1.43-10.05,5.76-11.13,7.15"/>
    </g>
    <path class="cls-2" d="M726.77,188.59c-.17,2.57-.57,6.54-1.62,11.33-1.21,5.51-2.32,7.72-1.2,9.36.81,1.18,3.32,2.87,13.07.35"/>
    <ellipse class="cls-3" cx="703.98" cy="187.36" rx="5.66" ry="7.45" transform="translate(-20.6 112.07) rotate(-8.97)"/>
    <path class="cls-3" d="M762.12,177.92c.64,4.07-1.34,7.76-4.43,8.25s-6.11-2.41-6.76-6.48c-.64-4.07,1.34-7.76,4.43-8.25,3.09-.49,6.11,2.41,6.76,6.48Z"/>
    <path class="cls-2" d="M689.55,184.28c1.95-1.53,6.33-4.53,12.68-5.39,4.7-.64,8.54.16,10.79.81"/>
    <path class="cls-2" d="M744.84,175.38c1.09-1.15,4.46-4.4,9.98-5.39,5.94-1.07,10.52,1.17,11.87,1.89"/>
    <path class="cls-2" d="M686.85,164.32c2.14-1.2,5.96-2.98,11.06-3.51,5.43-.56,9.76.55,12.14,1.35"/>
    <path class="cls-2" d="M742.3,155.79c2.04-1.37,5.7-3.46,10.73-4.41,5.36-1.01,9.78-.26,12.21.34"/>
    <path class="cls-2" d="M843.27,328.28c-5.31-10.81-15.09-26.47-31.17-36.09-8.15-4.88-19.31-9.04-23.63-10.58-.2-.07-.67-.24-1.39-.49-5.04-1.79-11.25-4-14.9-5.67-7.95-3.64-6.57-6-11.24-7.37-9.9-2.9-13.87,8.36-26.93,7.36-11.45-.88-19.13-4.78-19.13-4.78-1.33-.67-4.18-2.24-7.37-1.47-2.98.71-4.65,3.09-5.63,4.27-4.98,6.06-10.93,6.99-25.11,10.54,0,0-6.83,2.5-15.58,7.79-15.86,9.58-26.32,24.68-31.99,34.45,4.83,6.13,41.51,51.01,104.87,52.39,65.36,1.42,104.52-44.65,109.19-50.34Z"/>
    <path class="cls-2" d="M802.44,163.85c.58-3.23,6.77-40.99-18.86-65.47-18.86-18.01-45.01-19.3-48.88-18.59-.84.15-5.27,1.02-11.79,2.16-19.35,3.38-19.07,2.69-22.99,3.91-1.44.45-17.93,6.24-30.33,24.46-11.69,17.18-12.49,34.76-12.75,42.54-.51,15.27,3.06,27.4,5.72,34.5"/>
    <path class="cls-2" d="M691.02,279.71c2.31,9.73,9.91,16.93,18.51,17.93,11.29,1.31,23.24-8.21,24.49-22.2-.04,11.23,8.82,20.61,19.92,21.22,10.93.6,20.67-7.48,22.08-18.44"/>
    <path class="cls-2" d="M707.51,269.18c1.09-1.57,2.55-4.06,3.5-7.37.95-3.29.77-6.15.58-7.91"/>
    <circle class="cls-4" cx="733.1" cy="301.9" r="2.85"/>
    <circle class="cls-4" cx="733.1" cy="320.27" r="2.85"/>
    <circle class="cls-4" cx="733.1" cy="335.78" r="2.85"/>
    <circle class="cls-4" cx="733.1" cy="354.15" r="2.85"/>
    <circle class="cls-4" cx="733.1" cy="371.84" r="2.85"/>
  </g>
  <g>
    <path class="cls-1" d="M1463.17,350.1c.12,32.25-7.67,56.31-10.39,64.14-9.81,28.22-23.87,46.75-31.26,56.32-18.6,24.1-38.11,38.75-48.44,45.78-15.8,10.77-29.63,17.04-36.82,20.04-12.84,5.36-39.53,16.2-75.21,15.84-9.57-.1-47.17-1.27-87.47-24.34-31.62-18.1-48.99-40.57-63.73-60.06-22.74-30.06-50.56-66.82-50.92-117.72-.28-39.05,15.71-72.62,24.88-91.88,4.52-9.5,10.51-21.92,21.11-36.5,8.03-11.04,48.75-67.05,113.36-74.72,3.86-.46,16.83.02,42.76.98,63.33,2.34,73.45,6.65,78.57,9.13,7.45,3.61,19.16,11.45,42.57,27.14,9.14,6.12,13.71,9.18,16.4,11.27,10.26,7.97,22.48,20.82,37.09,52.58,13.55,29.47,27.34,59.47,27.49,101.99Z"/>
    <path class="cls-2" d="M1193.53,300.77c-.34,4.24-.1,13.22,1.34,22.71,1.56,10.27,4.03,17.77,4.55,19.34,3.85,11.48,9.3,27.75,25.12,39.33,15.42,11.29,31.97,11.76,37.19,11.69,5.68-.07,17.21-.36,28.85-7.8,9.62-6.15,14.44-14.08,16.58-17.69,2.89-4.88,6.77-13.04,8.57-31.82,2.03-21.22,3.09-32.3-1.31-43.97-8.95-23.71-39.22-46.53-71.78-40.17-27.5,5.37-47.63,29.79-49.1,48.39Z"/>
    <g>
      <path class="cls-2" d="M1243.14,366.81c6.33.31,13.85.22,22.24-.77,8.07-.95,15.16-2.53,21.09-4.22"/>
      <path class="cls-2" d="M1252.53,374.64c1.15.78,7.02,4.57,14.76,3.07,6.48-1.25,10.24-5.43,11.31-6.71"/>
      <path class="cls-2" d="M1277.78,363.99c-.88-.73-7.89-6.33-17.02-4.28-6.39,1.43-10.05,5.76-11.13,7.15"/>
    </g>
    <path class="cls-2" d="M1253.74,324.42c-.17,2.57-.57,6.54-1.62,11.33-1.21,5.51-2.32,7.72-1.2,9.36.81,1.18,3.32,2.87,13.07.35"/>
    <ellipse class="cls-3" cx="1230.95" cy="323.18" rx="5.66" ry="7.45" transform="translate(-35.34 195.91) rotate(-8.97)"/>
    <path class="cls-3" d="M1289.09,313.74c.64,4.07-1.34,7.76-4.43,8.25s-6.11-2.41-6.76-6.48c-.64-4.07,1.34-7.76,4.43-8.25,3.09-.49,6.11,2.41,6.76,6.48Z"/>
    <path class="cls-2" d="M1216.52,320.1c1.95-1.53,6.33-4.53,12.68-5.39,4.7-.64,8.54.16,10.79.81"/>
    <path class="cls-2" d="M1271.81,311.2c1.09-1.15,4.46-4.4,9.98-5.39,5.94-1.07,10.52,1.17,11.87,1.89"/>
    <path class="cls-2" d="M1213.83,300.14c2.14-1.2,5.96-2.98,11.06-3.51,5.43-.56,9.76.55,12.14,1.35"/>
    <path class="cls-2" d="M1269.27,291.61c2.04-1.37,5.7-3.46,10.73-4.41,5.36-1.01,9.78-.26,12.21.34"/>
    <path class="cls-2" d="M1370.24,464.1c-5.31-10.81-15.09-26.47-31.17-36.09-9.29-5.56-22.5-10.19-25.01-11.07,0,0-1.91-.66-4.81-1.56-1.99-.61-3.7-1.1-5.15-1.5-3.05-.83-4.8-1.24-5.62-1.45-5.74-1.51-10.22-5.77-11.39-6.89-6.06-5.76-4.19-9.11-8.48-11.33-2.88-1.49-3.85.4-14.62.64-7.24.16-9.95-.05-14.85.83-6.09,1.09-8.39,1.11-10.07,2.91-2,2.14-.56,3.24-2.98,7.09-.51.81-4.01,6.22-9.37,6.76,0,0,0,0,0,0-11.72,2.73-20.5,6.16-22.96,7.38-9.89,4.89-14.83,7.34-15.58,7.79-15.86,9.58-26.32,24.68-31.99,34.45,4.83,6.13,41.51,51.01,104.87,52.39,65.36,1.42,104.52-44.65,109.19-50.34Z"/>
    <path class="cls-2" d="M1273.88,394.87c7.38-.78,20.66-3.31,32.23-13.13,18.77-15.93,20.16-40.13,21.19-57.79.72-12.42,2.06-35.4-12.16-58.19-3.98-6.37-13.27-20.84-31.65-29.19-21.49-9.77-41.61-4.9-52.94-2.16-11.83,2.86-28.55,6.91-40.49,21.36-10.85,13.14-12.18,28.13-13.52,43.18-2.86,32.24,8.88,45.33-1.49,66.38-2.75,5.57-5.67,8.92-4.73,14.03,2.51,13.62,28.58,19.08,33.92,20.1.15.03.38.07.7.13,10.28,1.84,18,.28,27.49-1.38,4.81-.84,12.01-2.04,21.21-3.34"/>
    <path class="cls-2" d="M1272.35,398.89c0,2.23-3.74,4.04-8.36,4.04-4.62,0-8.36-1.81-8.36-4.04,0-2.23,3.74-4.04,8.36-4.04s8.36,1.81,8.36,4.04Z"/>
    <path class="cls-2" d="M1252.99,415.9c-2.61,11.09-6.54,19.65-8.79,19.12-2.25-.53-1.95-9.94.65-21.03,2.61-11.09,6.54-19.65,8.79-19.12,2.25.53,1.95,9.94-.65,21.03Z"/>
    <ellipse class="cls-2" cx="1278.6" cy="414.94" rx="4.18" ry="20.62" transform="translate(-61.04 303.79) rotate(-13.24)"/>
    <path class="cls-2" d="M1183.72,430.55c21.81,16.68,43.61,33.36,65.42,50.04,3.36-35.28,8.62-77.67,14.85-77.65,6.2.02,11.16,41.93,14.31,77.26,20.26-17.39,40.52-34.79,60.78-52.18"/>
  </g>
</svg>