<?xml version="1.0" encoding="UTF-8"?>
<svg id="Lag_1" xmlns="http://www.w3.org/2000/svg" viewBox="0 0 414.39 811.48">
  <defs>
    <style>
      .cls-1 {
        fill: #9b4c45;
      }

      .cls-1, .cls-2, .cls-3, .cls-4, .cls-5, .cls-6, .cls-7 {
        stroke: #1d1d1b;
        stroke-miterlimit: 10;
      }

      .cls-1, .cls-2, .cls-3, .cls-5, .cls-6, .cls-7 {
        stroke-width: 2px;
      }

      .cls-2, .cls-4 {
        fill: #1d1d1b;
      }

      .cls-3 {
        fill: #c1848b;
      }

      .cls-4 {
        stroke-width: .75px;
      }

      .cls-5 {
        fill: #cd818b;
      }

      .cls-6 {
        fill: none;
      }

      .cls-7 {
        fill: #8a1725;
      }
    </style>
  </defs>
  <g>
    <path class="cls-5" d="M37.32,478.57c.09.07,0,.21-.22,1.22-.41,1.97-.45,3.56-.49,6.21-.08,6.02,1.02,9.36-1.1,12.55-.4.61-1.21,1.81-1.91,1.67-2.22-.47-.99-13.9-1.26-13.91-.12,0-.55,2.73-.54,6.75.02,4.64.57,5.66.75,10.61.25,6.77-.62,8.91-1.07,9.86-.77,1.62-2.7,4.82-3.96,4.5-3.18-.81-.1-23.31-.64-23.36-.24-.02-.52,4.58-2.68,10.61-.78,2.18-.86,1.88-1.61,4.07-1.61,4.68-1.45,6.57-3.32,8.47-.28.28-2.28,2.27-3.54,1.61-.76-.4-1.05-1.66-.86-3.11.11-.72.35-2.18.78-3.99,4.74-20.13,20.67-34.47,21.66-33.75Z"/>
    <path class="cls-5" d="M176.23,771.79s6.11-28.83,14.89-45.76c5.29-10.2,7.11-10.89,10.73-19.03,8.59-19.32,3.72-27.54,8.44-51.24,2.8-14.08,4.62-11.66,16.88-47.62,1.07-3.15,7.48-22.01,11.45-36.17,13.46-47.99,12.35-89.85,12.06-98.25-.82-23.46-1.58-45.19-9.64-71.73-3.41-11.23-9.05-26.37-6.03-45.81,1.34-8.58,5.15-10.87,9.04-25.92,3.42-13.21,5.67-16.61,7.57-20.16,1.6-3,3.14-5.32,4.16-6.79,1.04,4.6,2.3,7.38,3.3,9.1.41.71,1.66,2.71,2.39,5.66.51,2.06-.11,2.32,4.74,11.51,6.75,12.78,8.69,13.67,11.99,20.41,6.42,13.15,1.76,15.37,6.8,26.89,4.82,11.02,13.26,17.93,30.13,31.75,4.15,3.4,7.15,5.54,11.39,9.02,1.92,1.58,3.92,3.27,6.11,5.24,7.75,6.98,12.93,13.36,16.52,17.82,5.06,6.28,7.59,9.43,8.89,12.55,2.67,6.43.98,8.23,3.36,15.88,1.94,6.21,3.31,5.86,8.48,16.28,5.44,10.98,6.82,17.22,8.75,16.96,1.99-.27,2.52-7.2,2.56-7.67.77-10.94-5.58-17.84-4.31-18.84,1.68-1.32,16.31,7.83,20.86,22.47,1.03,3.33,1.19,7.01,4.31,10.77,4.12,4.97,10.7,7.15,11.29,6.35.17-.23-.13-.89-.72-2.2-.28-.62-.57-1.13-.82-1.52.07-.88.14-1.75.21-2.63.29-3.87.33-9.51-1.08-16.02-1.57-7.24-4.32-12.77-8.02-18.18-3.7-5.41-8.33-10.7-13.65-17.48-13-16.57-21.21-30.67-26.51-39.79-8.68-14.93-16.14-30.59-19.33-37.24-8.82-18.33-11.44-23.79-17.19-31.51-7.15-9.62-8.88-8.92-13.72-16.13-4.35-6.48-6.73-12.64-12.06-39.01-6.28-31.1-4.74-31.24-9.04-46.53-2.61-9.25-4.6-14.27-7.16-26-2.38-10.89-1.98-12.66-4.14-17.71-1.52-3.55-7.13-16.66-19.22-21.48-6.52-2.6-7.39.22-29.39-1.88-5.76-.55-9-1.06-12.81-2.26-6.55-2.06-13.96-4.39-16.96-10.93-3.1-6.75.29-14.14,1.35-16.24h-45.08c1.43,4.06,3.07,10.89,0,16.9-1.9,3.72-5.88,7.67-23.28,12.15-23.27,5.99-29.53,2.38-37.45,8.1-9.27,6.69-10.94,19.03-12.15,29.35-8.22,70.58.84,88.53-11.13,119.43-6.39,16.5-12.24,19.79-18.33,29.72-4.69,7.64-6.91,14.6-7.99,17.85-1.58,4.76-2.4,8.47-2.87,10.68-5.45,25.22-5.34,35.15-10.28,50.05-1.79,5.4-1.45,1.43-8.37,19.26-9.03,23.27-13.54,34.91-15.6,38.91-5.98,11.62-11.09,18.93-9.13,20.76,1.34,1.25,5.23-.74,7.15-1.99,5.74-3.73,6.21-8.88,11.85-19.75,1.37-2.63,3.99-7.44,7.9-12.84,4.22-5.82,10.04-13.87,14.02-12.64,2.02.62,2.85,3.4,3.95,7.11,2.06,6.93.2,9.91,2.37,14.02.94,1.79,2.87,4.22,7.31,6.12l.02.58"/>
    <path class="cls-3" d="M391.18,475.05l3.45,3.12c3.85,7.34,7.69,14.78,11.52,22.32,1.91,3.76,3.79,7.51,5.65,11.25"/>
    <path class="cls-5" d="M55.98,503.93c-.15-6.83-1.15-67.47,12.56-95.82,5.6-11.58,11.56-21.52,11.56-21.52,9.19-15.32,15.82-24.84,15.82-24.84,3.74-5.37,5.45-7.51,7.39-11.89,3.04-6.89,3.71-12.68,4.3-17.84.91-7.93-.15-14.91-1.41-20.39l-2.39-8.04"/>
    <path class="cls-3" d="M179.5,379.67c-.43,4.79-1.14,5.42-1.53,5.46-1.05.11-3.27-3.71-1.81-6.17.71-1.2,2.04-1.63,2.59-1.77"/>
    <path class="cls-5" d="M55.98,503.93c.25,6.79.9,16.59,2.78,28.24.89,5.55,6.01,27.48,16.9,57.66,14.78,40.96,22.84,46.22,27.83,72.57,5.95,31.39-2.52,39.59.99,73.56,3.2,30.91,13.45,55.39,21.87,71.57l1.69,2.95h51.68c-2.71-46.24-8.61-71.48-13.69-86.1-2.68-7.7-7-17.86-6.85-32.36.11-10.41,2.46-15.31,1.87-29.25-.4-9.41-1.66-11.68-2.49-20.54-1.24-13.25.31-21.64,1.87-34.85,0,0,4.45-37.78,3.11-78.41-.2-6.13-.46-12.81-1.24-21.78l-3.73-31.74"/>
    <path class="cls-7" d="M66.2,413.63c7.64-.24,19.65.37,32.96,5.6,7.93,3.12,13.31,6.95,24.06,14.61,26.53,18.9,31.85,31.24,33.51,35.66.92,2.46,1.5,4.57,1.84,5.98,2.04.12,5.25.18,9.09-.37,18.1-2.58,28.4-15.47,41.05-26.23,7.84-6.67,20.04-15.47,38-22.95-.93-4.93-2.05-10.11-3.42-15.51-1.19-4.68-2.46-9.12-3.78-13.32-18.07,3.34-42.88,5.97-72.04,3.23-35.58-3.35-63.81-13.38-82.48-21.74-3.15,4.93-6.35,10.29-9.49,16.09-3.58,6.6-6.66,12.96-9.3,18.95Z"/>
    <path class="cls-7" d="M136.47,304.53c-2.85,1.11-10.52,4.36-20.17,3.12-5.45-.7-9.74-2.59-12.48-4.06-3.79-5.02-5.53-9.51-6.4-12.39-5.61-18.61,4.3-38.27,6.12-41.54,1.79-3.2,3.83-7.42,5.52-12.57,0,0,1.96-5.98,2.89-12.48,2.37-16.72-4.16-37.81-4.92-40.21,2.36-.29,4.73-.57,7.09-.86l7.22,48.93c3.59,7.59,9.27,17.4,18.2,27.17,15.07,16.49,31.82,24.6,41.74,28.47,7.48-2.71,22.22-9.17,35.45-23.71,14.03-15.43,18.95-31.79,20.76-39.59-2-14.88-4-29.77-5.99-44.65l5.99.49,8.92,47.35c.82,2.59,2.21,6.7,4.28,11.62,2.89,6.83,5.07,10.4,6.57,13.39,5.94,11.9,8.71,30.35,1.17,44.49-1.65,3.08-3.45,5.33-4.61,6.66-3.84,1.7-10.1,3.9-17.84,3.86-9.1-.04-15.68-3.17-18.73-4.46-23.22-9.84-61.51-6.57-80.8.96Z"/>
    <path class="cls-3" d="M122.48,189.64c4.81-.23,11.26-.07,18.66,1.48,7.37,1.55,13.32,3.98,17.63,6.11"/>
    <path class="cls-3" d="M232.36,189.64c-4.81-.23-11.26-.07-18.66,1.48-7.37,1.55-13.32,3.98-17.63,6.11"/>
  </g>
  <path class="cls-1" d="M219.71,134.78c5.06.86,14.61,1.65,24.52-2.88,2.99-1.36,7.29-3.33,10.9-7.73,6.5-7.91,5.94-17.78,6.88-17.68.7.08,1.04,5.6.32,11.58-.81,6.7-2.55,10.63-2.01,10.86.68.29,4.62-5.46,7.02-12.11,1.46-4.06,3.96-12.92,1.03-28.95-.99-5.43-3.77-16.89-12.7-33.87-8.46-16.09-16.91-32.14-35.14-43.18-6.62-4-17.64-10.68-31.33-9.74-3.55.24-4.14.79-19.05,3.39-16.74,2.92-16.5,2.33-19.9,3.39-12.43,3.88-19.85,13.16-26.25,21.17-7.14,8.94-10.41,16.68-16.93,32.17-7.93,18.83-10.06,29.8-11.01,36.83-1.3,9.65-1.89,18.73,2.96,24.98.67.86,2.94,3.58,4.76,7.84,1.44,3.37,3.46,8.07,1.4,10.34-1.81,2.01-6.3,1.56-9.02-.32-3.02-2.09-3.28-5.65-4.19-5.48-.87.16-1.56,3.6-.32,6.45,1.6,3.69,5.68,4.73,6.12,4.83,3.66.87,6.62-1.43,7.09-.64.33.56-.87,2.06-2.28,3.05-3.51,2.48-7.65,1.35-7.71,1.78-.08.57,6.88,4.17,12.89,1.61,5.47-2.33,7.74-8.72,8.38-8.38.6.32-2.86,5.21-1.69,7.88,1.55,3.54,11.61,4.06,38.5-2.18"/>
  <path class="cls-5" d="M132.46,128.99c-1.03.51-2.65,1.12-4.62,1.06-4.96-.15-8.16-4.5-10.3-7.14-4.7-5.8-4.94-12.08-4.98-13.95-.05-2.03-.09-5.94,2.16-9.64.56-.93,1.54-2.28,3.18-3.61.05-.02.09-.03.14-.04,1-.31,2.48-.46,4.48.29"/>
  <path class="cls-5" d="M228.71,78.92c.74-.81,2.84-2.88,5.65-2.79,4.63.15,7.16,6.02,7.71,7.19,2.71,5.74,1.08,11.73.09,15.35-.73,2.68-2.8,10.27-8.61,12.88-1.86.84-3.56.98-4.66.86l-1.77-.2"/>
  <path class="cls-5" d="M121.36,76.3c-.28,9.22.69,16.52,1.16,19.65,1.35,8.89,3.49,15.38,3.94,16.73,3.33,9.93,8.05,24.01,21.74,34.04,13.34,9.77,27.67,10.18,32.18,10.12,4.92-.06,14.9-.31,24.97-6.75,8.32-5.33,12.5-12.19,14.35-15.31,1.43-2.42,4.29-7.71,7.41-27.54.23-1.46,3.04-20.7.68-43.87-.37-3.66-.97-8.33-4.42-10.54-5.7-3.65-14.93,2.16-16.32,3.06-.17-3.11-.64-7.64-2.04-12.92-1.96-7.39-5.11-13.82-5.78-13.6-.46.15.27,3.42,2.12,15.55,1.17,7.66,1.4,9.75,0,11.42-1.58,1.88-3.89,1.64-10.85,2.11-12.73.84-12.83,2.15-14.98,1.21-10.06-4.4-6.17-32.55-8.26-32.66-.91-.05-2.15,5.31-2.98,11.59-1.83,13.73-.74,24.28-1.04,24.31-.54.05-3.29-33.91-5.16-33.85-.65.02-.91,4.23-2.72,22.1-.54,5.29-1,9.69-1.32,12.79-3.24,1.3-6.54,2.59-9.9,3.87-4.72,1.8-9.37,3.49-13.94,5.1-1.57-4.18-3.21-10-3.4-17-.3-11,3.12-19.03,3.06-19.04-.08-.02-7.81,16.43-8.5,39.45Z"/>
  <path class="cls-6" d="M125.75,124.63c-3.24.37-6,2.29-7.1,5.04-1.61,4.01.78,8.4,3.78,10.2,4.08,2.44,10.53.83,13.95-4.68"/>
  <path class="cls-6" d="M232.35,105.86c1.07-.41,3.48-1.15,5.69-.11,4.11,1.94,5.9,9.29,2.25,13.2-2.79,3-7.79,3.01-10.95.97-1.55-1-2.42-2.34-2.9-3.25"/>
  <g>
    <path class="cls-6" d="M164.3,133.46c5.48.27,11.99.19,19.24-.66,6.99-.82,13.12-2.19,18.25-3.65"/>
    <path class="cls-6" d="M172.43,140.23c.99.67,6.07,3.95,12.77,2.65,5.6-1.09,8.86-4.7,9.79-5.81"/>
    <path class="cls-6" d="M194.28,131.01c-.76-.63-6.82-5.48-14.73-3.71-5.53,1.24-8.69,4.98-9.63,6.19"/>
  </g>
  <path class="cls-6" d="M173.47,96.77c-.15,2.23-.49,5.66-1.4,9.8-1.05,4.77-2.01,6.68-1.04,8.1.7,1.03,2.87,2.48,11.31.3"/>
  <ellipse class="cls-2" cx="153.75" cy="95.7" rx="4.9" ry="6.45" transform="translate(-13.04 25.15) rotate(-8.97)"/>
  <path class="cls-2" d="M204.07,87.53c.56,3.52-1.16,6.72-3.84,7.14s-5.29-2.09-5.85-5.61c-.56-3.52,1.16-6.72,3.84-7.14,2.67-.42,5.29,2.09,5.85,5.61Z"/>
  <path class="cls-6" d="M141.26,93.03c1.69-1.33,5.48-3.92,10.97-4.67,4.07-.55,7.39.14,9.34.7"/>
  <path class="cls-6" d="M189.11,85.33c.95-.99,3.86-3.81,8.64-4.67,5.14-.93,9.11,1.01,10.27,1.63"/>
  <path class="cls-6" d="M138.93,75.76c1.86-1.04,5.16-2.58,9.57-3.03,4.7-.49,8.45.48,10.5,1.17"/>
  <path class="cls-6" d="M186.92,68.38c1.76-1.19,4.93-2.99,9.29-3.82,4.64-.88,8.46-.23,10.56.29"/>
  <path class="cls-6" d="M247.29,116.38c-.48,2.57-1.33,5.86-2.94,9.45-1.44,3.22-3.09,5.8-4.54,7.76"/>
  <circle class="cls-4" cx="163.8" cy="123.27" r=".5"/>
</svg>