<?xml version="1.0" encoding="UTF-8"?>
<svg id="Lag_1" xmlns="http://www.w3.org/2000/svg" viewBox="0 0 1226.28 1224.39">
  <defs>
    <style>
      .cls-1 {
        fill: #80111f;
      }
    </style>
  </defs>
  <g>
    <path class="cls-1" d="M30.88,867.86c4.72-3.77,9.77-7.3,15.15-10.58,5.38-3.28,10.95-6.07,16.71-8.38,5.76-2.3,11.63-3.95,17.6-4.93,5.97-.98,11.84-1.01,17.63-.09,5.78.92,11.37,2.91,16.77,5.97,5.39,3.06,10.43,7.52,15.11,13.38,1.98,2.48,4,5.62,6.07,9.45,2.07,3.82,3.6,7.8,4.61,11.93,1,4.13,1.24,8.13.72,11.99-.52,3.86-2.34,7.04-5.47,9.53-2.16,1.73-4.34,2.45-6.53,2.17-2.19-.28-4.47-1.16-6.84-2.65-2.37-1.49-4.77-3.39-7.21-5.7-2.44-2.31-4.98-4.64-7.64-6.98-2.66-2.34-5.42-4.49-8.3-6.45-2.88-1.96-5.9-3.37-9.07-4.21-3.17-.85-6.47-.92-9.9-.21-3.43.71-7.07,2.6-10.91,5.67-1.84,1.47-3.44,3.05-4.78,4.73-1.35,1.68-2.29,3.45-2.84,5.31-.55,1.86-.62,3.77-.22,5.75.4,1.98,1.46,4.04,3.17,6.19,1.78,2.23,3.84,4.2,6.19,5.9,2.35,1.71,4.74,3.34,7.17,4.92,2.43,1.57,4.82,3.21,7.17,4.92,2.35,1.71,4.44,3.72,6.29,6.03,2.31,2.89,3.71,5.59,4.2,8.1.5,2.51.33,4.84-.51,7-.84,2.15-2.2,4.22-4.09,6.21-1.89,1.98-4.08,3.97-6.56,5.95-12.41,9.91-24.67,14.46-36.78,13.66-12.11-.8-23.37-7.72-33.79-20.76-6.72-8.42-10.97-16.41-12.75-23.98-1.78-7.57-1.69-14.84.28-21.81,1.97-6.98,5.55-13.62,10.74-19.92,5.19-6.31,11.39-12.34,18.59-18.09Z"/>
    <path class="cls-1" d="M179.18,916.48c5.43,5.17,8.61,10.34,9.52,15.51.91,5.17-.54,9.77-4.35,13.78-1.91,2-4.37,3.98-7.38,5.92-3.01,1.94-6.22,4.02-9.63,6.22-3.41,2.21-6.9,4.57-10.47,7.11-3.58,2.54-6.92,5.44-10.02,8.71-3.39,3.56-5.86,7.43-7.42,11.6-1.56,4.17-2.95,8.43-4.17,12.78-1.22,4.35-2.65,8.65-4.28,12.89-1.63,4.25-4.17,8.26-7.62,12.05l-.53.56c-16.59,17.45-32.61,18.83-48.07,4.13-6.81-6.48-10.62-13.24-11.42-20.29-.8-7.05,1.47-13.62,6.82-19.7l.85-.89c3.1-3.27,6.45-5.75,10.02-7.44,3.57-1.69,7.28-3.37,11.11-5.02,3.83-1.66,7.78-3.59,11.85-5.8,4.07-2.21,8.15-5.47,12.24-9.78,3.74-3.93,6.62-7.81,8.64-11.62,2.02-3.81,3.74-7.5,5.18-11.08,1.44-3.58,2.93-7.07,4.49-10.47,1.55-3.4,3.81-6.66,6.78-9.78,5.65-5.94,11.75-8.87,18.3-8.79,6.55.08,13.08,3.21,19.59,9.4Z"/>
    <path class="cls-1" d="M183.17,960.62c2.58-3.57,5.34-6.25,8.27-8.05,2.93-1.8,5.95-2.87,9.07-3.21,3.11-.34,6.26.04,9.44,1.14,3.18,1.1,6.27,2.73,9.26,4.9,3.08,2.23,5.59,4.71,7.53,7.43,1.94,2.73,3.23,5.53,3.89,8.41.66,2.88.71,5.73.16,8.56-.55,2.83-1.69,5.45-3.43,7.85-1.86,2.57-4.36,4.81-7.5,6.72-3.14,1.9-6.51,3.86-10.11,5.87-3.6,2.01-7.21,4.3-10.83,6.87-3.62,2.57-6.84,5.8-9.66,9.71-3.78,5.23-5.69,10.3-5.72,15.21-.03,4.91,1.83,8.72,5.6,11.45,2.82,2.04,5.72,2.9,8.69,2.58s6.01-.87,9.12-1.66c3.11-.79,6.21-1.29,9.31-1.52,3.1-.23,6.14.74,9.14,2.91,4.53,3.28,6.58,7.89,6.13,13.82-.45,5.93-3.31,12.56-8.6,19.86-9.67,13.37-21.22,20.15-34.66,20.35-13.44.2-28.51-5.73-45.19-17.8-5.31-3.84-9.56-7.51-12.75-11.02-3.2-3.51-5.38-6.99-6.54-10.42-1.17-3.44-1.33-6.94-.51-10.51.83-3.58,2.61-7.35,5.34-11.31l.9-1.25c2.28-3.15,4.91-6.25,7.88-9.28,2.97-3.03,6.01-6.11,9.12-9.24,3.11-3.13,6.21-6.29,9.3-9.49,3.09-3.2,5.84-6.46,8.25-9.78,2.4-3.32,4.32-6.64,5.75-9.97s2.77-6.63,4.02-9.89c1.25-3.27,2.56-6.52,3.94-9.77,1.37-3.24,3.16-6.4,5.39-9.47Z"/>
    <path class="cls-1" d="M267.18,1021.55c1.95-3.95,4.23-7.05,6.82-9.31,2.59-2.26,5.39-3.82,8.41-4.67,3.01-.85,6.18-1,9.5-.44,3.32.56,6.63,1.66,9.95,3.3,3.41,1.69,6.29,3.71,8.65,6.08,2.36,2.37,4.1,4.92,5.23,7.65,1.12,2.73,1.65,5.53,1.58,8.41-.07,2.88-.77,5.65-2.08,8.31-1.41,2.85-3.5,5.47-6.28,7.87-2.78,2.4-5.78,4.89-9,7.46-3.22,2.58-6.4,5.43-9.54,8.57-3.14,3.13-5.78,6.86-7.92,11.17-2.86,5.79-3.9,11.1-3.12,15.95.78,4.85,3.25,8.3,7.42,10.36,3.12,1.55,6.12,1.92,9,1.11,2.87-.81,5.78-1.85,8.72-3.14s5.91-2.3,8.93-3.04c3.02-.74,6.18-.29,9.49,1.36,5.02,2.48,7.79,6.69,8.34,12.62.54,5.93-1.19,12.93-5.19,21.01-7.32,14.78-17.59,23.39-30.81,25.82-13.22,2.43-29.06-.93-47.52-10.06-5.87-2.91-10.67-5.83-14.4-8.76-3.73-2.94-6.46-6-8.18-9.19-1.72-3.2-2.47-6.62-2.24-10.29.22-3.66,1.35-7.68,3.4-12.04l.68-1.38c1.73-3.49,3.81-6.97,6.24-10.46,2.43-3.48,4.92-7.02,7.47-10.62,2.55-3.6,5.08-7.23,7.6-10.9,2.52-3.67,4.69-7.34,6.51-11.01,1.82-3.67,3.16-7.27,4.01-10.79.86-3.52,1.63-6.99,2.33-10.42.69-3.43,1.45-6.85,2.26-10.28.81-3.43,2.06-6.84,3.74-10.24Z"/>
    <path class="cls-1" d="M404.83,1052.45c6.98,2.09,13.38,4.28,19.2,6.56,5.82,2.28,10.73,4.74,14.74,7.39,4,2.64,6.9,5.57,8.69,8.78,1.79,3.21,2.12,6.73.97,10.56-1.09,3.63-2.65,6.35-4.67,8.14-2.03,1.8-4.37,3-7.03,3.59-2.66.59-5.52.75-8.58.48-3.06-.28-6.16-.62-9.29-1.02-3.13-.4-6.2-.74-9.21-1-3.01-.26-5.77-.07-8.27.57-1.06.22-2.18.66-3.37,1.32-1.19.66-1.95,1.53-2.27,2.61-.32,1.08-.25,2.04.21,2.87.46.84,1.1,1.56,1.91,2.18.81.62,1.73,1.13,2.76,1.55,1.03.42,1.95.75,2.76.99,2.63.79,5.49,1.54,8.59,2.25,3.09.71,5.71,2.09,7.86,4.12,1.28,1.24,2.59,2.86,3.92,4.86,1.33,2,1.7,3.99,1.11,5.95-.62,2.06-1.89,3.44-3.81,4.15-1.92.71-4.18,1.07-6.78,1.1-2.6.02-5.34-.1-8.24-.38-2.89-.28-5.63-.46-8.19-.53-2.57-.07-4.79.14-6.65.65-1.86.51-3.06,1.65-3.59,3.42-.91,3.04-.44,5.51,1.42,7.4,1.86,1.89,4.1,3.23,6.73,4.02,2.43.73,4.89,1.25,7.38,1.57,2.49.32,4.97.61,7.43.87,2.46.26,4.93.57,7.41.94,2.48.37,4.93.92,7.36,1.65,3.95,1.18,6.97,2.76,9.08,4.73,2.11,1.97,3.55,4.25,4.32,6.83.77,2.58.97,5.4.61,8.45-.36,3.05-1.06,6.29-2.09,9.72-2.44,8.15-6.28,14.05-11.52,17.72-5.24,3.67-11.19,5.89-17.88,6.67-6.68.78-13.65.48-20.9-.89-7.25-1.37-14.17-3.04-20.74-5.02-5.77-1.73-11.16-3.88-16.17-6.45-5.02-2.57-9.22-5.65-12.61-9.24-3.39-3.58-5.7-7.73-6.94-12.43-1.24-4.7-.94-10.1.88-16.18,1.27-4.22,3.16-7.79,5.7-10.73,2.53-2.93,5.17-5.75,7.91-8.46,2.74-2.71,5.39-5.57,7.96-8.6,2.56-3.03,4.5-6.75,5.83-11.17,1.5-5,2.36-9.61,2.58-13.83.21-4.21.28-8.2.2-11.97-.08-3.77-.1-7.49-.04-11.16.05-3.67.66-7.42,1.8-11.25,1.35-4.51,3.48-8.02,6.38-10.52,2.9-2.5,6.26-4.24,10.09-5.24,3.82-.99,7.92-1.32,12.28-.97,4.36.34,8.61,1.14,12.76,2.38Z"/>
    <path class="cls-1" d="M517.92,1079.79c2.73.31,5.84.77,9.33,1.37,3.49.61,7.09,1.4,10.81,2.39,3.71.99,7.32,2.23,10.82,3.71,3.5,1.48,6.56,3.28,9.19,5.38,2.63,2.11,4.66,4.55,6.1,7.35s1.95,5.97,1.54,9.53c-.58,5.09-1.98,8.75-4.2,10.97-2.22,2.22-6.06,3.02-11.51,2.4-2.52-.29-4.84-.94-6.95-1.95-2.12-1.01-4.2-2.1-6.24-3.26-2.05-1.16-4.13-2.25-6.24-3.26-2.12-1.01-4.43-1.67-6.95-1.95-2.42-.28-4.66.11-6.75,1.16-2.09,1.05-3.26,2.7-3.51,4.94-.22,1.93,1.12,3.94,4.02,6.03,2.9,2.08,6.57,4.33,11.03,6.75,4.45,2.42,9.25,5.05,14.4,7.91,5.15,2.86,9.88,6.13,14.19,9.82,4.31,3.69,7.77,7.85,10.38,12.48,2.61,4.63,3.58,9.84,2.92,15.65-1.05,9.16-3.53,16.97-7.46,23.43-3.93,6.46-9.08,11.57-15.46,15.33-6.38,3.76-13.84,6.26-22.38,7.5-8.54,1.24-17.95,1.28-28.23.1-6.51-.74-12.67-2.58-18.5-5.51-5.83-2.93-10.87-6.71-15.13-11.32-4.26-4.61-7.49-9.85-9.69-15.72s-2.93-12.06-2.19-18.58c.31-2.75,1.05-5.53,2.23-8.33,1.17-2.81,2.73-5.31,4.68-7.51,1.95-2.2,4.27-3.89,6.96-5.08,2.69-1.19,5.66-1.6,8.91-1.23,3.15.36,6.09,1.34,8.83,2.94,2.74,1.6,5.44,3.33,8.1,5.18,2.66,1.85,5.41,3.58,8.26,5.2,2.85,1.62,5.89,2.61,9.15,2.98,4.83.55,7.4-.55,7.71-3.3.22-1.93-.94-3.87-3.48-5.81-2.54-1.94-5.78-4.06-9.72-6.37-3.94-2.31-8.16-4.85-12.68-7.63-4.52-2.78-8.67-5.96-12.46-9.54-3.79-3.58-6.81-7.63-9.05-12.17-2.25-4.53-3.04-9.65-2.39-15.35.38-3.36,1.5-6.4,3.35-9.13,1.85-2.73,4.2-5.14,7.04-7.24,2.84-2.1,6.05-3.87,9.62-5.32,3.57-1.45,7.2-2.58,10.91-3.39,3.71-.81,7.35-1.35,10.95-1.61,3.59-.26,6.85-.22,9.79.11Z"/>
    <path class="cls-1" d="M648.61,1160.92c-.97-5.97-1.56-12.1-1.78-18.39-.22-6.29.08-12.52.91-18.67.82-6.15,2.27-12.07,4.35-17.75,2.07-5.68,4.93-10.81,8.58-15.4,3.64-4.58,8.12-8.48,13.43-11.67,5.31-3.2,11.67-5.39,19.07-6.59,3.13-.51,6.86-.72,11.21-.65,4.34.07,8.56.69,12.66,1.84,4.09,1.15,7.69,2.91,10.8,5.26,3.11,2.35,4.98,5.5,5.62,9.44.44,2.73,0,4.98-1.31,6.75-1.32,1.77-3.21,3.32-5.67,4.65-2.46,1.33-5.29,2.49-8.5,3.48-3.21.99-6.49,2.06-9.83,3.23-3.34,1.16-6.57,2.52-9.69,4.06-3.12,1.54-5.83,3.49-8.12,5.83-2.3,2.34-3.97,5.19-5.04,8.52-1.06,3.34-1.2,7.43-.42,12.29.38,2.33.97,4.49,1.77,6.48.8,2,1.88,3.69,3.23,5.08,1.35,1.39,2.98,2.4,4.9,3.02,1.92.62,4.23.71,6.95.28,2.81-.46,5.54-1.29,8.18-2.49,2.64-1.21,5.24-2.48,7.8-3.83,2.56-1.35,5.16-2.63,7.8-3.83,2.64-1.21,5.42-2.04,8.34-2.52,3.65-.59,6.69-.49,9.12.31,2.43.8,4.38,2.09,5.84,3.88,1.47,1.79,2.6,3.99,3.4,6.61.8,2.62,1.45,5.5,1.96,8.63,2.54,15.68.49,28.59-6.16,38.75-6.65,10.16-18.21,16.57-34.68,19.24-10.63,1.72-19.68,1.5-27.15-.66-7.47-2.16-13.75-5.82-18.87-10.96-5.11-5.14-9.14-11.52-12.09-19.14-2.95-7.62-5.16-15.98-6.63-25.08Z"/>
    <path class="cls-1" d="M786.36,1090.62c.8-.26,1.19-1.38,1.15-3.37-.03-1.98-.15-4.48-.35-7.48-.2-3-.36-6.24-.49-9.7-.12-3.46.04-6.8.49-10.02s1.37-6.04,2.74-8.49c1.37-2.44,3.46-4.12,6.28-5.03,2.61-.85,5.22-1.27,7.84-1.25,2.61.01,5.14.51,7.57,1.5,2.43.99,4.57,2.45,6.42,4.38,1.85,1.93,3.28,4.46,4.29,7.57.98,3.02,1.3,6.12.94,9.31-.35,3.19-.99,6.44-1.91,9.75-.92,3.32-2.04,6.7-3.37,10.14-1.32,3.45-2.41,6.92-3.27,10.44s-1.4,7.05-1.63,10.63c-.23,3.58.25,7.17,1.42,10.77,1.11,3.41,2.92,6.43,5.44,9.06,2.52,2.63,5.2,5.15,8.04,7.57,2.84,2.42,5.5,4.89,7.99,7.42,2.49,2.53,4.27,5.45,5.35,8.77,1.24,3.8,1.43,7.32.6,10.55-.84,3.23-2.33,6.14-4.49,8.73-2.16,2.58-4.82,4.82-7.98,6.71-3.16,1.89-6.45,3.39-9.86,4.5-3.11,1.01-6.55,1.72-10.3,2.14-3.75.41-7.41.28-10.96-.4-3.55-.68-6.77-2.13-9.67-4.37s-5.02-5.45-6.38-9.64c-.76-2.34-.87-5.24-.33-8.7.54-3.46,1.19-7.09,1.95-10.9.76-3.8,1.38-7.53,1.86-11.19.48-3.65.3-6.75-.52-9.28-1.08-3.31-2.87-6.26-5.37-8.84-2.5-2.58-5.38-4.93-8.62-7.05-3.25-2.12-6.62-4.12-10.11-6-3.5-1.88-6.85-3.81-10.04-5.78-3.2-1.98-5.99-4.08-8.38-6.32-2.39-2.24-4.07-4.82-5.02-7.74-.92-2.82-1.06-5.66-.43-8.5.63-2.84,1.7-5.53,3.21-8.07,1.51-2.54,3.38-4.73,5.6-6.59,2.23-1.86,4.45-3.14,6.66-3.86,2.91-.95,5.66-.87,8.24.23,2.58,1.1,4.98,2.77,7.21,5.01,2.23,2.24,4.29,4.75,6.19,7.52,1.9,2.78,3.61,5.4,5.14,7.86,1.52,2.47,2.85,4.49,3.97,6.06,1.12,1.58,2.08,2.23,2.89,1.97Z"/>
    <path class="cls-1" d="M851.87,1110.88c-2.75-5.38-5.21-11.03-7.35-16.95-2.14-5.92-3.77-11.94-4.88-18.05-1.11-6.11-1.55-12.18-1.33-18.23.23-6.04,1.37-11.81,3.42-17.29,2.06-5.48,5.12-10.56,9.19-15.24,4.07-4.68,9.44-8.72,16.12-12.14,2.82-1.45,6.31-2.8,10.47-4.07s8.36-1.98,12.61-2.14c4.25-.16,8.21.4,11.89,1.68,3.68,1.28,6.43,3.7,8.25,7.25,1.26,2.46,1.54,4.74.83,6.83-.71,2.09-2.03,4.15-3.96,6.17-1.93,2.02-4.27,4-7.02,5.93-2.75,1.93-5.54,3.96-8.36,6.09-2.82,2.14-5.48,4.42-7.97,6.85-2.49,2.43-4.47,5.11-5.93,8.05-1.46,2.94-2.19,6.16-2.17,9.66.02,3.5,1.14,7.44,3.38,11.82,1.08,2.1,2.3,3.97,3.68,5.62,1.38,1.65,2.93,2.93,4.64,3.84,1.71.91,3.57,1.36,5.59,1.36,2.02,0,4.25-.62,6.69-1.87,2.54-1.3,4.88-2.93,7.02-4.89,2.14-1.96,4.22-3.97,6.25-6.05,2.02-2.07,4.11-4.09,6.25-6.05,2.14-1.96,4.53-3.61,7.16-4.96,3.29-1.68,6.21-2.52,8.77-2.51,2.56.01,4.81.64,6.75,1.89,1.94,1.25,3.7,3,5.27,5.24,1.57,2.25,3.08,4.79,4.52,7.61,7.24,14.13,9.26,27.06,6.06,38.76-3.2,11.71-12.22,21.37-27.07,28.98-9.59,4.91-18.27,7.49-26.03,7.72-7.77.24-14.88-1.3-21.32-4.62-6.45-3.32-12.24-8.15-17.39-14.49-5.15-6.34-9.82-13.62-14.03-21.82Z"/>
    <path class="cls-1" d="M920.37,1016.86c-2.64-3.52-4.39-6.95-5.23-10.29-.85-3.33-.97-6.54-.37-9.61.6-3.07,1.9-5.96,3.89-8.68,1.99-2.71,4.47-5.17,7.43-7.39,3.04-2.28,6.16-3.94,9.34-4.98,3.18-1.04,6.24-1.44,9.18-1.21,2.94.23,5.68,1.02,8.22,2.39,2.54,1.36,4.7,3.23,6.48,5.61,1.9,2.54,3.3,5.59,4.18,9.15s1.75,7.36,2.6,11.4c.85,4.04,1.96,8.17,3.34,12.38,1.38,4.22,3.51,8.25,6.4,12.11,3.87,5.17,8.14,8.49,12.82,9.98,4.68,1.49,8.87.84,12.59-1.95,2.79-2.09,4.47-4.6,5.05-7.53.58-2.93.95-5.99,1.13-9.2.17-3.2.61-6.32,1.32-9.34s2.53-5.64,5.49-7.86c4.48-3.35,9.49-3.94,15.02-1.75,5.53,2.19,11,6.9,16.41,14.11,9.89,13.2,12.93,26.25,9.13,39.14-3.8,12.89-13.94,25.51-30.42,37.86-5.24,3.93-10.01,6.89-14.31,8.9-4.3,2.01-8.27,3.06-11.89,3.15-3.63.09-7.02-.79-10.19-2.64-3.17-1.85-6.24-4.67-9.21-8.46l-.92-1.23c-2.33-3.12-4.51-6.54-6.52-10.29-2.01-3.74-4.05-7.56-6.11-11.46-2.06-3.9-4.16-7.8-6.29-11.7-2.13-3.91-4.43-7.5-6.89-10.78-2.46-3.28-5.06-6.1-7.81-8.45-2.75-2.35-5.5-4.61-8.25-6.78-2.75-2.17-5.46-4.39-8.16-6.66-2.69-2.27-5.17-4.92-7.45-7.96Z"/>
    <path class="cls-1" d="M1102.88,899.25c1.5,1.4,3.41,2.88,5.75,4.43,2.34,1.55,4.98,3.27,7.92,5.15,2.94,1.89,6.12,4.12,9.54,6.68,3.42,2.57,6.93,5.53,10.51,8.9,4.11,3.86,7.16,8.35,9.15,13.49,1.99,5.13,2.74,10.69,2.25,16.68-.49,5.99-2.34,12.29-5.54,18.92-3.21,6.63-8.02,13.37-14.46,20.21-6.07,6.47-12.14,11.42-18.18,14.87-6.05,3.44-11.96,5.5-17.72,6.18-5.76.67-11.36-.03-16.8-2.09s-10.55-5.34-15.33-9.83c-4.93-4.63-9.34-9.39-13.25-14.29-3.9-4.9-7.5-8.89-10.78-11.98-2.16-2.03-4.47-3.91-6.93-5.64-2.45-1.72-4.95-3.45-7.47-5.17-2.53-1.72-5.08-3.5-7.64-5.33-2.57-1.83-5.04-3.87-7.43-6.11-3.06-2.88-5.61-5.92-7.65-9.14s-3.38-6.54-4.02-9.97c-.64-3.43-.5-6.84.44-10.23.94-3.39,2.85-6.63,5.75-9.71,5.21-5.54,10.99-8.18,17.36-7.93,6.37.26,12.65,3.3,18.84,9.12,2.69,2.53,5.03,5.16,7.02,7.9,1.99,2.74,3.78,5.4,5.37,7.98,1.58,2.58,3.08,4.99,4.47,7.25,1.4,2.26,2.84,4.08,4.33,5.49,1.57,1.47,3.41,2.88,5.53,4.22,2.12,1.34,4.32,2.32,6.61,2.95,2.29.63,4.54.82,6.74.57,2.2-.25,4.17-1.3,5.91-3.14,1.52-1.62,2.5-3.45,2.95-5.49.44-2.04.41-4.18-.1-6.4-.51-2.22-1.45-4.41-2.81-6.55-1.36-2.15-3.04-4.17-5.06-6.06-2.02-1.89-4.18-3.52-6.48-4.89-2.3-1.37-4.64-2.69-7.01-3.98-2.38-1.29-4.75-2.65-7.12-4.09-2.38-1.43-4.68-3.21-6.92-5.31-2.54-2.38-4.62-4.88-6.24-7.5-1.62-2.61-2.59-5.33-2.89-8.15-.3-2.82.07-5.69,1.13-8.61s3-5.88,5.82-8.88c2.1-2.23,4.48-3.98,7.14-5.25,2.66-1.26,5.43-1.92,8.3-1.99,2.87-.06,5.72.45,8.57,1.54,2.85,1.08,5.58,2.85,8.19,5.31,2.61,2.46,4.97,4.92,7.07,7.4,2.1,2.48,4.01,4.86,5.74,7.13,1.73,2.28,3.36,4.39,4.9,6.34,1.54,1.95,3.06,3.63,4.55,5.03Z"/>
    <path class="cls-1" d="M1090.98,811.96c1.48-2.31,3.27-4.9,5.35-7.77,2.08-2.86,4.39-5.75,6.92-8.64,2.53-2.89,5.23-5.58,8.1-8.07,2.87-2.48,5.84-4.44,8.88-5.87,3.05-1.43,6.14-2.17,9.28-2.23,3.14-.06,6.22.89,9.24,2.82,4.31,2.77,6.97,5.64,7.99,8.61,1.01,2.97.04,6.77-2.93,11.39-1.37,2.13-2.98,3.92-4.82,5.38s-3.74,2.84-5.69,4.16c-1.95,1.32-3.84,2.71-5.69,4.16s-3.45,3.24-4.82,5.38c-1.31,2.05-1.96,4.24-1.94,6.57.02,2.34.98,4.11,2.88,5.33,1.64,1.05,4.03.74,7.18-.94,3.15-1.68,6.79-3.99,10.92-6.92,4.13-2.93,8.62-6.07,13.45-9.44,4.83-3.36,9.86-6.16,15.07-8.4,5.21-2.24,10.47-3.51,15.77-3.8,5.3-.3,10.41,1.13,15.33,4.29,7.76,4.98,13.67,10.66,17.74,17.03,4.06,6.37,6.37,13.25,6.93,20.64.55,7.39-.5,15.18-3.15,23.39-2.66,8.21-6.78,16.67-12.37,25.38-3.54,5.51-7.91,10.23-13.12,14.17-5.21,3.94-10.82,6.8-16.83,8.58-6.02,1.78-12.14,2.37-18.38,1.75-6.24-.62-12.12-2.7-17.63-6.24-2.33-1.49-4.49-3.38-6.49-5.67-2-2.29-3.56-4.79-4.67-7.52-1.11-2.72-1.61-5.55-1.49-8.49.12-2.93,1.06-5.78,2.83-8.54,1.71-2.67,3.89-4.87,6.54-6.63,2.65-1.75,5.39-3.41,8.22-4.98,2.83-1.57,5.6-3.27,8.31-5.12,2.71-1.84,4.94-4.14,6.71-6.89,2.62-4.09,2.77-6.88.45-8.37-1.64-1.05-3.89-.86-6.75.56-2.86,1.43-6.2,3.4-10,5.91-3.81,2.52-7.95,5.19-12.45,8.01-4.49,2.83-9.18,5.15-14.06,6.97-4.88,1.82-9.85,2.74-14.92,2.75-5.06.02-10-1.53-14.83-4.63-2.84-1.83-5.08-4.17-6.71-7.04-1.63-2.86-2.76-6.04-3.39-9.52-.63-3.48-.81-7.14-.53-10.98.27-3.84.86-7.6,1.77-11.29.9-3.68,2.03-7.19,3.38-10.53,1.35-3.34,2.82-6.25,4.42-8.74Z"/>
  </g>
  <path class="cls-1" d="M584.59,1000.78c-1.42,0-2.83,0-4.26-.02-42.47-.42-127.15-8.83-217.14-60.35-80.05-45.83-124.54-104.63-157.03-147.57-55.12-72.85-123.73-163.52-124.63-290.94-.69-97.22,39.35-181.29,60.86-226.45,10.03-21.06,25.18-52.87,51.89-89.61C272.13,78.77,372.54,12.98,477.04.57c10.32-1.23,33.29-.45,104.32,2.17,157.21,5.81,180.37,17.03,194.21,23.73,18.97,9.19,47.08,28.03,103.1,65.56,21.99,14.74,33.02,22.12,39.97,27.52,24.04,18.66,56.45,50.56,94.02,132.29,32.7,71.13,66.52,144.69,66.9,249.81.19,54.03-8.95,110.38-25.74,158.67-24.81,71.36-61.48,118.85-77.14,139.13-34,44.03-74.15,81.98-119.34,112.79-28.87,19.68-59.43,36.31-90.82,49.42-28.2,11.78-93.66,39.11-181.94,39.11ZM490.9,43.98c-4.15,0-7.07.09-8.67.28-92.19,10.95-181.81,70.41-252.35,167.45-24.32,33.46-37.87,61.89-47.76,82.66-21.4,44.93-57.21,120.11-56.59,207.22.35,49.95,12.74,98.21,37.88,147.52,22.34,43.84,51.83,82.81,77.84,117.18,31.88,42.13,71.56,94.57,143.8,135.93,84.37,48.3,164.98,54.23,195.72,54.54,81.39.78,142.65-24.77,168.8-35.69,28.65-11.97,56.57-27.17,82.99-45.18,40.77-27.8,78.57-63.53,109.29-103.32,15.56-20.16,47.95-62.1,70.41-126.69,8.8-25.31,23.53-77.7,23.29-144.06h0c-.34-95.58-30.72-161.65-62.87-231.59-33.59-73.06-60.95-100.33-81.03-115.91-5.75-4.46-17.01-12.01-37.46-25.71-54.34-36.41-81.6-54.68-97.81-62.53-7.85-3.8-28.69-13.89-176.66-19.37-42.54-1.57-73.77-2.73-88.84-2.73Z"/>
  <g>
    <ellipse class="cls-1" cx="509.51" cy="438.22" rx="13.37" ry="17.59" transform="translate(-62.1 84.81) rotate(-8.97)"/>
    <path class="cls-1" d="M510.67,457.72c-7.67,0-14.78-7.24-16.34-17.11-1.68-10.67,3.75-20.43,12.12-21.75,8.37-1.32,16.55,6.29,18.23,16.96h0c.8,5.07.04,10.1-2.14,14.16-2.28,4.24-5.82,6.94-9.98,7.59-.64.1-1.27.15-1.9.15ZM508.39,422.71c-.43,0-.87.03-1.31.1-6.19.98-10.14,8.68-8.8,17.17,1.34,8.49,7.47,14.61,13.66,13.63,2.89-.46,5.41-2.42,7.08-5.54,1.77-3.29,2.38-7.43,1.71-11.64h0c-1.25-7.89-6.63-13.73-12.35-13.73Z"/>
  </g>
  <g>
    <path class="cls-1" d="M646.74,415.95c1.52,9.6-3.17,18.31-10.46,19.46-7.29,1.15-14.43-5.7-15.95-15.29-1.52-9.6,3.17-18.31,10.46-19.46,7.29-1.15,14.43,5.7,15.95,15.29Z"/>
    <path class="cls-1" d="M634.69,437.53c-7.67,0-14.78-7.24-16.33-17.11-1.68-10.67,3.75-20.43,12.12-21.75,4.16-.65,8.36.82,11.84,4.15,3.33,3.19,5.6,7.74,6.4,12.81h0c.8,5.07.04,10.1-2.14,14.16-2.28,4.24-5.82,6.94-9.98,7.59-.63.1-1.27.15-1.9.15ZM632.4,402.53c-.43,0-.87.03-1.3.1-6.19.98-10.14,8.68-8.8,17.17,1.34,8.49,7.46,14.6,13.66,13.63,2.89-.46,5.41-2.42,7.08-5.54,1.77-3.29,2.38-7.43,1.71-11.64h0c-.67-4.21-2.52-7.96-5.22-10.55-2.17-2.08-4.67-3.19-7.15-3.19Z"/>
  </g>
  <g>
    <path class="cls-1" d="M580.47,609.98c-19.48,0-55.38-3.94-89.03-28.57-38.63-28.29-52.14-68.6-61.08-95.27-2.14-6.37-7.48-23.66-10.95-46.47-2.65-17.44-3.77-36.28-3.22-54.49.99-32.94,7.25-60.79,12.34-78.36,2.94-10.16,5.79-17.98,7.66-22.75,3.58-9.13,4.22-9.61,5.2-10.33l1.95-1.44,4.46,1.21,1.01,1.94c1.02,1.97.44,3.59,0,4.77-5.49,15.17-8.25,32.68-7.79,49.33.37,13.41,2.83,26.89,7.31,40.13,11.09-3.93,22.24-8.03,33.21-12.21,8.02-3.05,16.12-6.21,24.11-9.41,1.12-10.6,2.22-21.3,3.29-31.86.97-9.62,1.78-17.79,2.47-24.71,1.42-14.35,2.28-23.01,3-28.46.78-5.88,1.51-11.43,6.76-11.6,5.29-.14,6.73,6.17,7.67,10.36.89,3.93,1.82,9.42,2.87,16.77.34,2.41.68,4.94,1.02,7.54.17-1.42.35-2.86.54-4.3,1.18-8.84,2.63-16.94,4.09-22.82,1.76-7.09,3.82-13.42,9.28-13.12,5.52.31,6.13,6.95,6.39,9.79.32,3.44.43,8.16.56,13.63.49,20.65,1.4,59.1,17.3,66.06,1.46.64,1.69.67,6.81-.19,5.29-.89,14.14-2.37,31.7-3.53,3.23-.21,6.09-.37,8.64-.51,11.85-.66,15.36-.96,17.45-3.45,2.32-2.76,1.83-7.94-1.11-27.16-1.5-9.84-2.72-17.42-3.69-23.51-1.13-7.09-1.88-11.78-2.25-14.79-.37-3.04-.98-8.14,3.56-9.6,1.42-.46,2.95-.3,4.3.44,5.93,3.23,14.54,27.73,17.83,40.13,2.45,9.21,4.16,18.66,5.1,28.18,10.91-5.76,29.35-12.85,42.83-4.22,11.8,7.55,13.39,23.14,14.33,32.45,6.65,65.38-1.54,118.67-1.89,120.91-8.93,56.76-17.29,70.85-20.86,76.87-4.53,7.64-16.58,27.95-40.74,43.41-29.22,18.7-58.3,19.05-70.72,19.21-.57,0-1.15.01-1.75.01ZM431.46,337.44c-2.67,14.07-4.73,30.26-5.26,48.03h0c-.53,17.62.55,35.84,3.11,52.69,3.35,22.04,8.49,38.67,10.54,44.8,9.05,27,21.44,63.98,57.51,90.39,32.34,23.68,66.96,26.84,84.75,26.63,11.56-.14,38.63-.48,65.45-17.63,22.16-14.18,32.93-32.33,37.53-40.09,2.99-5.05,10.95-18.46,19.58-73.32.34-2.19,8.34-54.23,1.82-118.34-1.03-10.17-2.64-20.48-9.78-25.04-9.71-6.22-27.13.61-39.1,8.33l-7.24,4.67-.47-8.6c-.63-11.57-2.45-23.09-5.4-34.23-.51-1.9-1.03-3.76-1.57-5.56.43,2.72.88,5.66,1.36,8.82,3.18,20.79,4.37,28.57-1.11,35.1-4.96,5.92-11.51,6.28-24.55,7.01-2.52.14-5.35.3-8.53.51-17.06,1.13-25.6,2.56-30.71,3.42-5.44.91-8.18,1.37-12.47-.51-19.35-8.48-22.21-40.66-23.04-66.02-.22,1.47-.44,3.01-.65,4.63-3.58,26.91-3.01,48.93-2.73,59.52.05,1.97.09,3.51.09,4.55,0,5.06-2.57,6.34-4.72,6.53-4.78.42-5.62-4.51-5.89-6.13-.22-1.29-.48-3.16-.79-5.71-.59-4.71-1.3-11.16-2.13-18.64-1.13-10.22-2.92-26.37-4.75-39.9-.28,2.82-.58,5.87-.91,9.13-.69,6.92-1.5,15.1-2.47,24.73-1.17,11.57-2.39,23.31-3.61,34.9l-.32,2.99-2.79,1.12c-8.96,3.6-18.07,7.17-27.08,10.6-12.6,4.8-25.44,9.49-38.14,13.96l-4.62,1.62-1.72-4.58c-4.98-13.27-8.06-26.81-9.17-40.36Z"/>
    <path class="cls-1" d="M439.61,536.91c-.29,0-.59,0-.88-.01-15.05-.45-24.53-12.26-30.81-20.07l-1.01-1.26c-6.45-7.97-14.24-21.56-14.7-41.08-.12-5.22-.41-17.45,6.62-28.99,2.54-4.17,5.84-7.92,9.81-11.13l.69-.56.84-.29c.17-.06.34-.11.52-.17,4.72-1.47,9.92-1.17,15.43.88l-3.49,9.37c-3.15-1.17-5.98-1.46-8.43-.85-2.74,2.34-5.03,5.01-6.82,7.94-5.5,9.04-5.27,18.84-5.16,23.56.4,16.7,7,28.26,12.48,35.02l1.04,1.29c5.43,6.76,12.87,16.02,23.31,16.34,3.37.09,6.82-.7,10.23-2.38l4.42,8.97c-4.6,2.27-9.33,3.41-14.06,3.41Z"/>
    <path class="cls-1" d="M435.43,566.69c-4.9,0-9.67-1.19-13.89-3.72-5.09-3.05-9.43-8.15-11.9-13.98-2.82-6.65-2.99-13.75-.48-19.98,3.69-9.17,12.67-15.62,23.45-16.85l1.13,9.94c-7.12.81-12.98,4.89-15.3,10.65-3.54,8.79,2.51,18.22,8.24,21.65,8.56,5.13,23.16,1.89,31.23-11.11l8.49,5.28c-7.12,11.46-19.39,18.13-30.98,18.13Z"/>
    <path class="cls-1" d="M716.38,488.89c-.86,0-1.69-.04-2.5-.13l-4.82-.53,1.1-9.94,4.82.53c1.09.12,5.06.34,10.11-1.93,13.68-6.15,18.96-25.51,20.69-31.88,2.65-9.73,6.66-24.42.06-38.41l-.23-.5c-6.13-13.2-12.32-16.12-16.43-16.25-5.18-.18-9.45,3.68-11.55,5.98l-7.38-6.74c5.63-6.17,12.47-9.44,19.25-9.24,10.07.32,18.54,7.73,25.18,22.03l.21.44c8.17,17.32,3.4,34.84.55,45.31-2.04,7.49-8.26,30.29-26.24,38.37-4.17,1.87-8.71,2.88-12.81,2.88Z"/>
    <path class="cls-1" d="M729.04,513.24c-5.35,0-10.94-1.44-16.1-4.78-4.02-2.6-7.26-6.23-9.62-10.76l8.87-4.61c1.55,2.98,3.63,5.33,6.18,6.98,6.55,4.24,17.55,4.51,23.48-1.85,3.43-3.68,4.79-9.49,3.63-15.54-1.11-5.77-4.35-10.69-8.25-12.54-4.07-1.93-9.01-.55-11.58.44l-3.59-9.33c4.97-1.91,12.37-3.49,19.44-.15,6.8,3.21,12.09,10.76,13.8,19.69,1.79,9.3-.45,18.14-6.13,24.24-4.61,4.95-12.1,8.2-20.14,8.2Z"/>
    <path class="cls-1" d="M553.58,546.55c-5.19,0-10.37-.12-15.53-.37l.48-9.99c17.19.83,34.56.23,51.65-1.78,16.51-1.95,32.99-5.24,48.98-9.8l2.74,9.62c-16.5,4.7-33.51,8.1-50.55,10.11-12.5,1.47-25.15,2.21-37.77,2.21Z"/>
    <path class="cls-1" d="M586.68,572.73c-14.05,0-24.62-5.95-29.03-8.92l5.59-8.29c3.37,2.28,15.58,9.48,31.09,6.47,12.44-2.41,20.26-9.89,23.81-14.13l7.67,6.42c-4.4,5.26-14.09,14.54-29.58,17.54-3.33.64-6.52.92-9.55.92Z"/>
    <path class="cls-1" d="M557.56,544.35l-7.89-6.15c4.29-5.5,13.77-15.24,29.12-18.68,23.21-5.2,41.09,8.37,44.44,11.14l-6.38,7.7c-2.72-2.25-17.23-13.26-35.88-9.08-12.31,2.75-19.95,10.62-23.42,15.06Z"/>
    <path class="cls-1" d="M567.86,498.89c-7.55,0-12.56-2.03-15.34-6.11-3.23-4.73-1.94-9.77,0-17.39.63-2.46,1.34-5.26,2.07-8.59,1.88-8.59,3.13-17.34,3.71-26l9.98.67c-.61,9.15-1.93,18.4-3.92,27.47-.77,3.5-1.5,6.38-2.15,8.92-1.18,4.63-2.11,8.29-1.43,9.28.13.19,3.38,4.51,25.45-1.2l2.5,9.68c-8.42,2.18-15.33,3.27-20.88,3.27Z"/>
    <path class="cls-1" d="M478.55,434.88l-6.17-7.87c6.58-5.16,17.53-11.74,32.33-13.75,9.23-1.25,18.49-.56,27.53,2.06l-2.79,9.6c-7.69-2.23-15.56-2.82-23.39-1.76-12.58,1.71-21.9,7.31-27.5,11.71Z"/>
    <path class="cls-1" d="M609.57,413.39l-7.25-6.89c4.05-4.26,12.86-11.78,26.29-14.21,14.32-2.58,25.73,2,31.26,4.97l-4.72,8.81c-4.38-2.35-13.43-5.99-24.76-3.94-10.63,1.92-17.6,7.87-20.81,11.25Z"/>
    <path class="cls-1" d="M471.54,388.21l-4.88-8.73c8.7-4.87,18.13-7.86,28.02-8.88,10.29-1.07,20.93.11,30.75,3.42l-3.19,9.48c-8.48-2.85-17.65-3.87-26.53-2.95-8.53.89-16.67,3.47-24.17,7.67Z"/>
    <path class="cls-1" d="M602.75,367.86l-5.59-8.29c8.27-5.57,17.41-9.33,27.19-11.17,10.17-1.92,20.86-1.62,30.93.86l-2.39,9.71c-8.69-2.14-17.92-2.4-26.68-.74-8.31,1.57-16.42,4.9-23.46,9.64Z"/>
    <path class="cls-1" d="M587.64,894.67c-2.4,0-4.79-.03-7.2-.08-147.46-3.21-235.22-105.14-251.31-125.54l-2.1-2.67,1.71-2.94c14.85-25.58,40.31-60.76,77.23-83.06,1.86-1.12,10.41-5.36,37.15-18.59,33.16-16.41,44.29-21.42,57.73-17.76,6.51,1.77,9.55,4.58,13.76,8.46,2.26,2.08,5.06,4.67,9.26,7.88,7.02,5.37,28.4,21.72,54.53,24.16.38.04,38.22,3.26,63.92-20.02,3.11-2.81,5.42-5.45,7.67-8,4.66-5.3,9.07-10.31,17.68-12.5,10.18-2.59,18.64,1.39,27.58,5.61,3.79,1.79,7.72,3.64,12.08,5.17,14.04,4.92,40.49,14.91,59.95,26.56,38.15,22.84,62.1,60.05,75.47,87.25l1.42,2.89-2.04,2.49c-7.07,8.62-33.47,38.9-76.28,66.71-55.16,35.84-115.08,53.99-178.2,53.99ZM339.12,765.52c20.18,24.67,104.12,116.09,241.54,119.08,63.72,1.38,124.19-16.21,179.73-52.3,38.18-24.81,62.84-51.52,71.93-62.2-13.02-25.68-35.45-59.39-70.19-80.18-18.71-11.2-44.44-20.91-58.12-25.7-4.85-1.7-9.2-3.75-13.04-5.56-8.22-3.87-14.15-6.67-20.85-4.96-5.62,1.43-8.26,4.44-12.64,9.42-2.31,2.63-4.94,5.61-8.46,8.8-28.93,26.21-69.84,22.73-71.57,22.56-29-2.71-52.09-20.37-59.67-26.17-4.56-3.49-7.56-6.25-9.96-8.47-3.86-3.56-5.45-5.03-9.61-6.16-9.46-2.57-18.04.94-50.67,17.08-21.71,10.74-34.82,17.23-36.41,18.19-33.72,20.37-57.54,52.31-72.01,76.58Z"/>
    <rect class="cls-1" x="475.46" y="662.88" width="39.22" height="10" transform="translate(-321.33 510.88) rotate(-42.57)"/>
    <rect class="cls-1" x="502.19" y="681.02" width="35.97" height="10" transform="translate(-340.67 698.3) rotate(-53.65)"/>
    <rect class="cls-1" x="527.62" y="697.67" width="36.66" height="10" transform="translate(-320.63 904.78) rotate(-65.28)"/>
    <rect class="cls-1" x="557.9" y="703.72" width="38.46" height="10" transform="translate(-154.55 1256.44) rotate(-87.66)"/>
    <rect class="cls-1" x="602.54" y="689.38" width="10" height="38.67" transform="translate(-75.07 71.99) rotate(-6.39)"/>
    <rect class="cls-1" x="628.98" y="679.89" width="10" height="35.32" transform="translate(-213.42 284.72) rotate(-21.76)"/>
    <rect class="cls-1" x="655.48" y="661.47" width="10" height="39.32" transform="translate(-286.98 731.17) rotate(-48.91)"/>
    <rect class="cls-1" x="673.79" y="647.24" width="10" height="37" transform="translate(-261.21 808.4) rotate(-53.07)"/>
    <path class="cls-1" d="M424.85,603.81c-15.44,0-24.09-3.24-27.08-10.1-.44-1.01-.73-2.05-.9-3.12-3.01,2.75-6.58,5.28-10.8,7.07-16.54,7.04-34.94-.68-39.42-4.13-2.57-1.98-2.85-4.13-2.64-5.58.69-4.7,5.44-4.61,7.72-4.57,2.17.04,5.2.1,8.42-.62-1.43-.08-2.92-.28-4.45-.64-2.45-.58-14.95-4.11-20.13-16.06-3.28-7.58-2.61-16.25-.32-20.57,1.46-2.75,3.45-3.64,4.86-3.91,4.83-.91,6.98,3.66,8.26,6.38,1.42,3.02,3.19,6.77,6.93,9.35,6.2,4.28,15.42,4.56,18.05,1.64,3.45-3.83-1.86-16.23-4.71-22.89-4.35-10.15-9.6-16.81-11.85-19.65l-.49-.62c-14.75-18.95-12.58-45.88-9.09-71.85,2.72-20.27,8.63-50.14,30.36-101.71,17.96-42.62,26.97-64.01,46.88-88.92,18.11-22.66,38.63-48.34,73.99-59.37,5.08-1.59,7.47-1.93,14.57-2.93,6.7-.95,17.91-2.54,40.32-6.46,19.26-3.36,29.6-5.43,36.45-6.8,7.51-1.5,10.62-2.13,16.02-2.5,38.89-2.68,69.86,16.06,88.36,27.26,50.91,30.82,74.67,76,97.65,119.7,18.02,34.27,30.17,66.7,35.13,93.78,5.89,32.2,4.88,59.64-3.01,81.54-5.26,14.59-15.75,33.44-21.39,35.88-1.47.63-3.04.65-4.44.04-4.57-1.98-3.43-6.41-1.87-12.53,1.12-4.37,2.73-10.68,3.91-18.74-2.51,5.63-5.84,11.42-10.32,16.87-10.59,12.89-23.18,18.63-31.52,22.44-26.46,12.08-52.54,11.14-69.77,8.23l1.67-9.86c15.84,2.68,39.8,3.55,63.95-7.47,7.94-3.63,18.82-8.59,27.95-19.69,11.55-14.05,14.35-30.68,15.85-39.62.35-2.11.63-3.77.97-5.06,1.41-5.43,5.21-5.45,6.34-5.32,1.47.16,2.8.92,3.76,2.12,4.1,5.17,2.49,27.03,1.53,35.01-.24,1.99-.51,3.89-.8,5.7,1.68-3.52,3.32-7.37,4.78-11.41,7.29-20.22,8.16-45.91,2.59-76.35-3.33-18.2-11.96-48.75-34.14-90.93-23.37-44.44-45.45-86.42-93.98-115.8-17.49-10.59-46.75-28.31-82.49-25.84-4.76.33-7.48.87-14.74,2.33-6.89,1.38-17.31,3.46-36.69,6.85-22.57,3.94-33.88,5.54-40.63,6.5-6.85.97-8.69,1.23-12.99,2.58-32.44,10.12-51.95,34.53-69.16,56.07-19.04,23.83-27.87,44.79-45.47,86.55-21.27,50.48-27.03,79.51-29.67,99.17-3.2,23.86-5.3,48.48,7.07,64.38l.45.57c2.28,2.88,8.32,10.54,13.19,21.91,4.51,10.53,10.68,24.95,2.95,33.53-7.01,7.78-22.05,6.18-31.16-.11-2.26-1.57-4.06-3.37-5.51-5.19.18.58.39,1.15.63,1.73,3.35,7.74,12.26,10.06,13.27,10.3,4.59,1.1,8.93-.27,12.1-1.26,2.93-.92,7.85-2.46,10.38,1.83,3.87,6.54-6.44,14.1-7.62,14.94-1.44,1.02-2.91,1.85-4.37,2.53,4.38.36,9.15-.04,13.64-1.96,8.77-3.73,14.2-12.18,17.45-17.22,2.14-3.33,5.08-7.89,9.7-5.44,4.69,2.49,2.53,7.42.8,11.37-1.41,3.21-4.34,9.89-3.18,12.54.21.48,2.61,4.68,21.82,4.03,17.19-.59,43.25-4.91,77.44-12.84l2.26,9.74c-34.83,8.08-61.53,12.49-79.36,13.1-1.47.05-2.88.08-4.24.08Z"/>
    <path class="cls-1" d="M748.23,544.53l-8.04-5.95c4.66-6.29,8.64-13.1,11.83-20.24,3.52-7.86,6.1-16.15,7.66-24.63l9.83,1.82c-1.71,9.27-4.53,18.32-8.37,26.9-3.49,7.79-7.83,15.23-12.92,22.1Z"/>
    <path class="cls-1" d="M501.93,653.23l-4.83-8.76c5.24-2.89,14.92-9.59,20.87-22.03,4.99-10.43,5.22-20.25,4.54-26.65l9.94-1.06c.82,7.69.54,19.49-5.46,32.03-7.16,14.96-18.78,23.01-25.07,26.47Z"/>
    <path class="cls-1" d="M662.16,653.31c-6.76-3.51-19.25-11.74-27.02-27.38-5.98-12.03-6.73-23.49-6.3-30.99l9.98.56c-.36,6.29.27,15.9,5.27,25.97,6.51,13.11,17,20.01,22.68,22.96l-4.61,8.87Z"/>
    <g>
      <circle class="cls-1" cx="536.93" cy="513.41" r="1.36"/>
      <path class="cls-1" d="M536.93,519.77c-3.51,0-6.36-2.85-6.36-6.36s2.85-6.36,6.36-6.36,6.36,2.85,6.36,6.36-2.85,6.36-6.36,6.36ZM536.93,509.77c-2.01,0-3.64,1.63-3.64,3.64s1.63,3.64,3.64,3.64,3.64-1.63,3.64-3.64-1.63-3.64-3.64-3.64Z"/>
    </g>
  </g>
</svg>