<?xml version="1.0" encoding="UTF-8"?>
<svg id="Lag_1" xmlns="http://www.w3.org/2000/svg" viewBox="0 0 646.57 902.69">
  <defs>
    <style>
      .cls-1 {
        fill: #403836;
      }

      .cls-1, .cls-2 {
        stroke: #403836;
        stroke-miterlimit: 10;
        stroke-width: 4px;
      }

      .cls-2 {
        fill: none;
      }
    </style>
  </defs>
  <path class="cls-2" d="M50.88,510.36c-.41,13.83,1.03,24.77,1.74,29.47,2.03,13.33,5.23,23.06,5.91,25.09,4.99,14.89,12.07,36.01,32.6,51.04,20.01,14.65,41.49,15.26,48.26,15.17,7.37-.09,22.34-.47,37.44-10.13,12.48-7.98,18.74-18.27,21.52-22.96,2.15-3.63,6.44-11.56,11.12-41.29.35-2.19,4.56-31.03,1.02-65.78-.56-5.49-1.45-12.5-6.63-15.81-8.55-5.47-22.39,3.24-24.48,4.59-.25-4.67-.96-11.46-3.06-19.38-2.94-11.07-7.66-20.72-8.67-20.4-.69.22.4,5.13,3.18,23.31,1.76,11.49,2.1,14.62,0,17.12-2.36,2.82-5.84,2.47-16.27,3.16-19.08,1.26-19.24,3.23-22.46,1.82-15.08-6.6-9.25-48.8-12.38-48.97-1.37-.08-3.22,7.97-4.47,17.37-2.74,20.59-1.11,36.4-1.56,36.44-.81.07-4.94-50.85-7.73-50.76-.98.03-1.37,6.35-4.08,33.14-.8,7.93-1.49,14.53-1.98,19.18-4.86,1.95-9.8,3.89-14.84,5.81-7.08,2.69-14.05,5.24-20.91,7.65-2.35-6.27-4.81-15-5.1-25.5-.46-16.5,4.68-28.53,4.59-28.55-.12-.03-11.71,24.64-12.75,59.15Z"/>
  <path class="cls-2" d="M67.52,589.37c-1.54.76-3.97,1.68-6.92,1.59-7.43-.22-12.23-6.74-15.44-10.71-7.04-8.7-7.41-18.11-7.47-20.92-.07-3.04-.13-8.91,3.24-14.45.85-1.39,2.31-3.42,4.77-5.41.07-.02.14-.05.21-.07,1.5-.47,3.72-.68,6.71.43"/>
  <path class="cls-2" d="M57.46,582.84c-4.86.55-8.99,3.43-10.65,7.56-2.42,6.01,1.18,12.6,5.67,15.29,6.11,3.66,15.79,1.24,20.92-7.02"/>
  <path class="cls-2" d="M211.84,514.29c1.11-1.22,4.25-4.32,8.47-4.18,6.94.22,10.73,9.03,11.56,10.78,4.06,8.61,1.61,17.59.13,23.02-1.1,4.02-4.2,15.4-12.9,19.31-2.79,1.25-5.34,1.47-6.99,1.29l-2.65-.29"/>
  <path class="cls-2" d="M217.3,554.69c1.6-.62,5.22-1.72,8.53-.16,6.16,2.91,8.85,13.93,3.38,19.8-4.19,4.49-11.67,4.52-16.42,1.45-2.32-1.5-3.63-3.52-4.34-4.88"/>
  <g>
    <path class="cls-2" d="M115.26,594.65c5.98,1.68,15.97,3.68,28.25,2.35,12.81-1.39,22.45-5.78,27.97-8.82"/>
    <path class="cls-2" d="M127.45,606.22c1.49,1.01,9.11,5.93,19.15,3.98,8.4-1.63,13.29-7.05,14.68-8.71"/>
    <path class="cls-2" d="M160.21,592.4c-1.14-.94-10.23-8.21-22.08-5.56-8.29,1.86-13.04,7.47-14.44,9.28"/>
  </g>
  <path class="cls-2" d="M129.01,541.05c-.22,3.34-.74,8.49-2.1,14.7-1.57,7.15-3.01,10.01-1.56,12.15,1.05,1.54,4.3,3.72,16.96.45"/>
  <ellipse class="cls-1" cx="99.44" cy="539.45" rx="7.35" ry="9.67" transform="translate(-82.91 22.11) rotate(-8.97)"/>
  <path class="cls-1" d="M174.89,527.2c.83,5.28-1.74,10.07-5.75,10.7s-7.94-3.13-8.77-8.41c-.83-5.28,1.74-10.07,5.75-10.7,4.01-.63,7.94,3.13,8.77,8.41Z"/>
  <path class="cls-2" d="M80.71,535.45c2.53-1.99,8.21-5.88,16.45-7,6.1-.83,11.09.2,14,1.05"/>
  <path class="cls-2" d="M152.46,523.9c1.42-1.49,5.79-5.71,12.95-7,7.71-1.39,13.65,1.51,15.4,2.45"/>
  <path class="cls-2" d="M77.21,509.56c2.78-1.56,7.74-3.86,14.35-4.55,7.04-.73,12.67.71,15.75,1.75"/>
  <path class="cls-2" d="M149.17,498.49c2.64-1.78,7.39-4.49,13.92-5.72,6.96-1.31,12.69-.34,15.84.44"/>
  <path class="cls-2" d="M280.2,722.32c-6.9-14.02-19.59-34.34-40.44-46.83-12.06-7.22-29.2-13.22-32.46-14.37-8.17-2.86-13.49-7.57-20.22-5.85-5.85,1.49-7.27,5.66-12.77,10.64-14.89,13.49-36.37,11.79-37.25,11.71-15.16-1.42-27.39-10.77-31.4-13.84-6.53-4.99-7.06-7.25-11.71-8.51-6.41-1.75-11.99.77-29.8,9.58-12.83,6.35-19.25,9.52-20.22,10.11-20.58,12.43-34.15,32.03-41.51,44.7,6.27,7.95,53.87,66.2,136.09,67.98,84.82,1.84,135.64-57.94,141.7-65.32Z"/>
  <path class="cls-2" d="M83.56,673.03l15.88-14.59-15.88,14.59Z"/>
  <path class="cls-2" d="M99.44,683.67l11.73-15.93-11.73,15.93Z"/>
  <path class="cls-2" d="M115.26,694.02l8.43-18.31-8.43,18.31Z"/>
  <path class="cls-2" d="M136.19,698.75l.86-21.13-.86,21.13Z"/>
  <path class="cls-2" d="M154.52,698.75l-2.37-21.13,2.37,21.13Z"/>
  <path class="cls-2" d="M171.47,691.06l-7.2-18.04,7.2,18.04Z"/>
  <path class="cls-2" d="M190.59,680.12l-16.29-14.21,16.29,14.21Z"/>
  <path class="cls-2" d="M200.64,670.66l-16.26-12.22,16.26,12.22Z"/>
  <path class="cls-2" d="M198.34,598.06c7.59,1.28,21.9,2.47,36.76-4.32,4.48-2.04,10.93-4.99,16.35-11.58,9.75-11.85,8.9-26.66,10.31-26.5,1.05.12,1.56,8.4.48,17.36-1.21,10.05-3.82,15.94-3.02,16.29,1.02.44,6.93-8.19,10.52-18.16,2.19-6.08,5.94-19.37,1.54-43.41-1.49-8.14-5.66-25.33-19.04-50.78-12.69-24.13-25.35-48.2-52.69-64.75-9.92-6-26.45-16.01-46.97-14.6-5.32.37-6.21,1.18-28.56,5.08-25.11,4.38-24.75,3.49-29.83,5.08-18.64,5.82-29.76,19.73-39.36,31.74-10.71,13.4-15.6,25.01-25.39,48.24-11.9,28.23-15.09,44.68-16.5,55.22-1.94,14.47-2.84,28.09,4.44,37.45,1.01,1.29,4.41,5.37,7.14,11.76,2.16,5.05,5.18,12.1,2.11,15.51-2.72,3.02-9.44,2.34-13.53-.48-4.53-3.13-4.91-8.47-6.28-8.21-1.31.25-2.33,5.39-.48,9.66,2.39,5.53,8.52,7.09,9.18,7.25,5.48,1.31,9.93-2.15,10.63-.97.49.83-1.31,3.08-3.41,4.57-5.26,3.72-11.47,2.02-11.57,2.67-.13.86,10.31,6.25,19.33,2.42,8.2-3.49,11.6-13.07,12.56-12.56.91.48-4.29,7.82-2.54,11.82,2.32,5.31,17.41,6.09,57.72-3.27"/>
  <path class="cls-2" d="M239.7,570.46c-.71,3.86-2,8.78-4.41,14.17-2.16,4.83-4.63,8.7-6.8,11.64"/>
  <path class="cls-2" d="M109.32,625.8c.29,2.74.6,9.13-2.75,16.13-3.88,8.11-10.29,12.04-12.63,13.33"/>
  <path class="cls-2" d="M167.79,625.78c-.17,2.92-.11,9.04,3.18,15.66,4.23,8.51,11.14,12.53,13.67,13.84"/>
  <circle class="cls-2" cx="114.51" cy="580.8" r=".75"/>
  <path class="cls-2" d="M261.23,116.89c-.42,14.07,1.05,25.21,1.77,29.99,2.06,13.57,5.32,23.46,6.01,25.53,5.08,15.15,12.28,36.64,33.18,51.94,20.36,14.91,42.22,15.53,49.11,15.44,7.5-.09,22.73-.48,38.09-10.31,12.7-8.13,19.07-18.59,21.9-23.36,2.19-3.69,6.55-11.76,11.31-42.02.35-2.23,4.64-31.58,1.04-66.93-.57-5.58-1.48-12.72-6.75-16.09-8.7-5.57-22.78,3.3-24.91,4.67-.26-4.75-.97-11.66-3.11-19.72-2.99-11.27-7.79-21.09-8.82-20.75-.71.23.41,5.22,3.23,23.72,1.79,11.69,2.13,14.88,0,17.42-2.41,2.87-5.94,2.51-16.55,3.21-19.42,1.29-19.58,3.29-22.85,1.85-15.35-6.72-9.41-49.66-12.6-49.84-1.4-.08-3.28,8.11-4.55,17.68-2.79,20.95-1.13,37.04-1.59,37.09-.82.07-5.03-51.74-7.87-51.65-1,.03-1.39,6.46-4.15,33.73-.82,8.07-1.52,14.79-2.02,19.51-4.94,1.99-9.98,3.96-15.1,5.91-7.2,2.74-14.3,5.33-21.27,7.78-2.4-6.38-4.89-15.26-5.19-25.94-.46-16.79,4.76-29.03,4.67-29.06-.13-.03-11.92,25.07-12.97,60.19Z"/>
  <path class="cls-2" d="M278.17,197.29c-1.57.77-4.04,1.71-7.04,1.62-7.56-.23-12.44-6.86-15.72-10.9-7.17-8.85-7.54-18.43-7.6-21.29-.07-3.1-.14-9.07,3.3-14.7.86-1.41,2.35-3.48,4.86-5.51.07-.02.14-.05.21-.07,1.53-.47,3.78-.7,6.83.44"/>
  <path class="cls-2" d="M267.93,190.64c-4.95.56-9.15,3.49-10.84,7.69-2.46,6.11,1.2,12.82,5.77,15.56,6.22,3.72,16.07,1.26,21.29-7.14"/>
  <path class="cls-2" d="M425.03,120.88c1.13-1.24,4.33-4.39,8.62-4.26,7.06.22,10.92,9.19,11.76,10.97,4.13,8.76,1.64,17.9.14,23.42-1.12,4.09-4.27,15.67-13.13,19.65-2.84,1.27-5.43,1.5-7.11,1.31l-2.7-.3"/>
  <path class="cls-2" d="M430.58,161.99c1.63-.63,5.31-1.76,8.68-.16,6.27,2.96,9,14.17,3.44,20.14-4.26,4.57-11.88,4.6-16.71,1.47-2.36-1.53-3.7-3.58-4.42-4.96"/>
  <g>
    <path class="cls-2" d="M326.84,207.93c6.9-2.94,16.88-6.31,29.27-7.71,13.15-1.49,24.19-.22,31.8,1.25"/>
    <path class="cls-2" d="M339.15,214.44c1.52,1.02,9.27,6.03,19.49,4.05,8.55-1.66,13.52-7.17,14.93-8.86"/>
    <path class="cls-2" d="M372.49,200.37c-1.16-.96-10.41-8.36-22.47-5.66-8.44,1.89-13.27,7.6-14.7,9.44"/>
  </g>
  <path class="cls-2" d="M340.74,148.12c-.23,3.4-.75,8.64-2.14,14.96-1.6,7.27-3.07,10.19-1.58,12.36,1.07,1.56,4.38,3.79,17.25.46"/>
  <ellipse class="cls-1" cx="310.65" cy="146.49" rx="7.48" ry="9.84" transform="translate(-19.04 50.23) rotate(-8.97)"/>
  <path class="cls-1" d="M387.43,134.03c.85,5.37-1.77,10.25-5.85,10.89-4.08.64-8.07-3.19-8.92-8.56-.85-5.37,1.77-10.25,5.85-10.89,4.08-.64,8.07,3.19,8.92,8.56Z"/>
  <path class="cls-2" d="M291.6,142.42c2.58-2.03,8.36-5.99,16.74-7.12,6.2-.84,11.28.21,14.25,1.07"/>
  <path class="cls-2" d="M364.6,130.67c1.44-1.52,5.89-5.81,13.18-7.12,7.85-1.42,13.89,1.54,15.67,2.49"/>
  <path class="cls-2" d="M289.63,126.14c3.1.42,8.5.78,15.1-.69,7.02-1.56,12.11-4.47,14.83-6.26"/>
  <path class="cls-2" d="M371.02,109.73c2.7,1.64,7.55,4.14,14.2,5.33,7.08,1.27,12.9.47,16.1-.19"/>
  <path class="cls-2" d="M494.59,332.58c-7.02-14.27-19.93-34.95-41.16-47.65-12.27-7.35-29.71-13.46-33.03-14.62-8.31-2.91-13.73-7.7-20.58-5.96-5.96,1.52-7.4,5.76-13,10.83-15.16,13.73-37.01,12-37.91,11.91-15.42-1.44-27.87-10.96-31.95-14.08-6.64-5.08-7.19-7.38-11.91-8.66-6.53-1.78-12.2.78-30.33,9.75-13.06,6.46-19.59,9.69-20.58,10.29-20.94,12.65-34.76,32.6-42.24,45.49,6.38,8.09,54.82,67.36,138.48,69.18,86.31,1.88,138.03-58.96,144.19-66.47Z"/>
  <path class="cls-2" d="M294.49,282.41l16.16-14.84-16.16,14.84Z"/>
  <path class="cls-2" d="M310.65,293.24l11.93-16.21-11.93,16.21Z"/>
  <path class="cls-2" d="M326.75,303.78l8.58-18.64-8.58,18.64Z"/>
  <path class="cls-2" d="M348.04,308.59l.88-21.5-.88,21.5Z"/>
  <path class="cls-2" d="M366.7,308.59l-2.41-21.5,2.41,21.5Z"/>
  <path class="cls-2" d="M383.95,300.77l-7.33-18.35,7.33,18.35Z"/>
  <path class="cls-2" d="M403.4,289.63l-16.58-14.46,16.58,14.46Z"/>
  <path class="cls-2" d="M413.63,280.01l-16.55-12.44,16.55,12.44Z"/>
  <path class="cls-2" d="M411.29,206.12c7.72,1.31,22.29,2.51,37.41-4.39,4.56-2.08,11.12-5.08,16.64-11.79,9.92-12.06,9.06-27.13,10.49-26.97,1.07.12,1.59,8.55.49,17.66-1.23,10.22-3.89,16.22-3.07,16.57,1.04.45,7.05-8.34,10.71-18.48,2.23-6.19,6.04-19.71,1.57-44.17-1.52-8.29-5.76-25.78-19.38-51.67-12.91-24.55-25.79-49.04-53.61-65.89-10.09-6.11-26.92-16.29-47.8-14.86-5.42.37-6.32,1.2-29.07,5.17-25.55,4.46-25.18,3.55-30.36,5.17-18.97,5.92-30.28,20.08-40.05,32.3-10.9,13.63-15.88,25.45-25.84,49.09-12.11,28.73-15.35,45.46-16.79,56.2-1.98,14.73-2.89,28.58,4.52,38.11,1.03,1.32,4.48,5.47,7.27,11.96,2.2,5.13,5.27,12.31,2.14,15.78-2.77,3.07-9.61,2.38-13.77-.49-4.61-3.18-5-8.62-6.39-8.36-1.33.25-2.37,5.49-.49,9.83,2.44,5.63,8.67,7.22,9.34,7.38,5.58,1.33,10.11-2.19,10.82-.98.5.85-1.33,3.14-3.47,4.65-5.35,3.79-11.67,2.06-11.77,2.72-.13.87,10.49,6.36,19.67,2.46,8.35-3.55,11.81-13.3,12.78-12.78.92.49-4.36,7.96-2.58,12.03,2.36,5.4,17.71,6.19,58.74-3.33"/>
  <path class="cls-2" d="M453.38,178.05c-.73,3.93-2.03,8.93-4.49,14.42-2.2,4.91-4.71,8.86-6.92,11.84"/>
  <path class="cls-2" d="M320.71,234.36c.3,2.79.61,9.3-2.8,16.42-3.95,8.26-10.47,12.26-12.85,13.57"/>
  <path class="cls-2" d="M380.2,234.34c-.17,2.98-.11,9.19,3.24,15.94,4.3,8.66,11.34,12.75,13.91,14.08"/>
  <circle class="cls-2" cx="325.99" cy="188.56" r=".76"/>
  <path class="cls-2" d="M416.92,625.83c-.41,13.71,1.02,24.55,1.73,29.21,2.01,13.21,5.18,22.85,5.85,24.87,4.95,14.76,11.96,35.69,32.31,50.59,19.83,14.52,41.12,15.12,47.83,15.04,7.31-.09,22.14-.46,37.1-10.04,12.37-7.91,18.57-18.11,21.33-22.75,2.13-3.6,6.38-11.46,11.02-40.93.34-2.17,4.52-30.76,1.01-65.19-.55-5.44-1.44-12.38-6.57-15.67-8.48-5.42-22.19,3.21-24.26,4.55-.25-4.63-.95-11.36-3.03-19.2-2.92-10.98-7.59-20.54-8.59-20.22-.69.22.4,5.08,3.15,23.1,1.74,11.39,2.08,14.49,0,16.97-2.34,2.79-5.79,2.44-16.12,3.13-18.91,1.25-19.07,3.2-22.26,1.8-14.95-6.55-9.17-48.37-12.27-48.54-1.36-.08-3.19,7.89-4.43,17.22-2.72,20.41-1.1,36.08-1.55,36.12-.8.07-4.89-50.4-7.66-50.31-.97.03-1.35,6.29-4.04,32.85-.8,7.86-1.48,14.4-1.97,19.01-4.81,1.94-9.72,3.86-14.71,5.76-7.01,2.67-13.92,5.19-20.72,7.58-2.33-6.21-4.77-14.86-5.05-25.27-.45-16.35,4.63-28.28,4.55-28.3-.12-.03-11.61,24.42-12.63,58.62Z"/>
  <path class="cls-2" d="M433.41,704.14c-1.53.75-3.93,1.66-6.86,1.57-7.37-.22-12.12-6.68-15.31-10.62-6.98-8.62-7.34-17.95-7.41-20.74-.07-3.02-.13-8.83,3.21-14.32.84-1.38,2.29-3.39,4.73-5.36.07-.02.14-.05.21-.07,1.49-.46,3.68-.68,6.65.43"/>
  <path class="cls-2" d="M423.44,697.66c-4.82.55-8.91,3.4-10.56,7.49-2.4,5.95,1.17,12.49,5.62,15.16,6.06,3.63,15.65,1.23,20.74-6.96"/>
  <path class="cls-2" d="M576.45,629.72c1.1-1.21,4.21-4.28,8.39-4.15,6.88.22,10.64,8.95,11.46,10.69,4.03,8.53,1.6,17.43.13,22.81-1.09,3.99-4.16,15.26-12.79,19.14-2.76,1.24-5.29,1.46-6.93,1.28l-2.63-.29"/>
  <path class="cls-2" d="M581.86,669.76c1.59-.61,5.17-1.71,8.45-.16,6.11,2.88,8.77,13.81,3.35,19.62-4.15,4.45-11.57,4.48-16.27,1.44-2.3-1.49-3.6-3.48-4.3-4.84"/>
  <g>
    <path class="cls-2" d="M476.71,720.8c3.04-2.67,14.91-12.46,32.62-12.41,13.38.04,23.02,5.67,26.86,8.21"/>
    <path class="cls-2" d="M492.81,720.84c1.48,1,9.03,5.87,18.98,3.94,8.33-1.61,13.17-6.98,14.55-8.63"/>
    <path class="cls-2" d="M525.28,707.14c-1.13-.94-10.14-8.14-21.89-5.51-8.22,1.84-12.92,7.4-14.31,9.19"/>
  </g>
  <path class="cls-2" d="M494.36,656.25c-.22,3.31-.73,8.42-2.08,14.57-1.55,7.08-2.99,9.92-1.54,12.04,1.04,1.52,4.26,3.69,16.8.45"/>
  <ellipse class="cls-1" cx="465.05" cy="654.66" rx="7.28" ry="9.59" transform="translate(-96.4 80.53) rotate(-8.97)"/>
  <path class="cls-1" d="M539.83,642.52c.83,5.23-1.73,9.98-5.7,10.61-3.97.63-7.86-3.1-8.69-8.33-.83-5.23,1.73-9.98,5.7-10.61,3.97-.63,7.86,3.1,8.69,8.33Z"/>
  <path class="cls-2" d="M446.49,650.7c2.51-1.97,8.14-5.83,16.3-6.94,6.04-.82,10.99.2,13.88,1.04"/>
  <path class="cls-2" d="M517.6,639.25c1.41-1.48,5.74-5.66,12.83-6.94,7.64-1.38,13.53,1.5,15.26,2.43"/>
  <path class="cls-2" d="M443.02,625.03c4.66.02,9.6.2,14.79.61,8.97.71,17.17,1.98,24.49,3.5"/>
  <path class="cls-2" d="M511.69,622.14c4.99-2.83,10.83-5.74,17.49-8.4,5.21-2.07,10.13-3.67,14.65-4.92"/>
  <path class="cls-2" d="M644.2,835.91c-6.83-13.9-19.41-34.04-40.09-46.41-11.95-7.16-28.94-13.11-32.17-14.24-8.1-2.84-13.37-7.5-20.04-5.8-5.8,1.48-7.21,5.61-12.66,10.55-14.76,13.37-36.05,11.68-36.92,11.6-15.02-1.4-27.15-10.68-31.12-13.71-6.47-4.95-7-7.19-11.6-8.44-6.36-1.73-11.88.76-29.54,9.49-12.72,6.29-19.08,9.44-20.04,10.02-20.4,12.32-33.85,31.75-41.14,44.3,6.22,7.88,53.39,65.61,134.88,67.38,84.06,1.83,134.44-57.42,140.44-64.74Z"/>
  <path class="cls-2" d="M449.31,787.05l15.74-14.46-15.74,14.46Z"/>
  <path class="cls-2" d="M465.05,797.6l11.62-15.79-11.62,15.79Z"/>
  <path class="cls-2" d="M480.73,807.86l8.36-18.15-8.36,18.15Z"/>
  <path class="cls-2" d="M501.47,812.55l.85-20.94-.85,20.94Z"/>
  <path class="cls-2" d="M519.64,812.55l-2.34-20.94,2.34,20.94Z"/>
  <path class="cls-2" d="M536.44,804.93l-7.14-17.88,7.14,17.88Z"/>
  <path class="cls-2" d="M555.39,794.08l-16.15-14.08,16.15,14.08Z"/>
  <path class="cls-2" d="M565.36,784.71l-16.12-12.11,16.12,12.11Z"/>
  <path class="cls-2" d="M563.07,712.74c7.52,1.27,21.71,2.44,36.43-4.28,4.44-2.03,10.83-4.94,16.2-11.48,9.66-11.75,8.83-26.42,10.22-26.27,1.04.12,1.54,8.33.47,17.2-1.2,9.96-3.79,15.8-2.99,16.14,1.01.44,6.87-8.12,10.43-18,2.17-6.03,5.89-19.2,1.53-43.02-1.48-8.07-5.61-25.11-18.87-50.33-12.58-23.91-25.12-47.77-52.22-64.17-9.83-5.95-26.22-15.87-46.56-14.47-5.28.36-6.15,1.17-28.31,5.03-24.88,4.34-24.53,3.46-29.57,5.03-18.47,5.76-29.5,19.56-39.01,31.46-10.61,13.28-15.46,24.79-25.17,47.81-11.79,27.98-14.95,44.28-16.36,54.74-1.93,14.34-2.82,27.84,4.4,37.12,1,1.28,4.37,5.32,7.08,11.65,2.14,5,5.14,11.99,2.09,15.37-2.69,2.99-9.36,2.32-13.41-.48-4.49-3.1-4.87-8.4-6.23-8.14-1.3.24-2.31,5.34-.48,9.58,2.37,5.48,8.45,7.03,9.1,7.18,5.43,1.29,9.84-2.13,10.54-.96.49.83-1.3,3.06-3.38,4.53-5.21,3.69-11.37,2.01-11.46,2.65-.12.85,10.22,6.2,19.16,2.39,8.13-3.46,11.5-12.96,12.45-12.45.9.48-4.25,7.75-2.52,11.72,2.3,5.26,17.25,6.03,57.21-3.24"/>
  <path class="cls-2" d="M474.84,740.25c.29,2.71.59,9.05-2.72,15.99-3.85,8.04-10.2,11.94-12.52,13.22"/>
  <path class="cls-2" d="M532.79,740.22c-.16,2.9-.11,8.96,3.15,15.52,4.19,8.44,11.04,12.42,13.54,13.72"/>
  <circle class="cls-2" cx="479.99" cy="695.64" r=".74"/>
</svg>