<?xml version="1.0" encoding="UTF-8"?>
<svg id="Lag_1" xmlns="http://www.w3.org/2000/svg" viewBox="0 0 1529.5 1521.75">
  <defs>
    <style>
      .cls-1 {
        fill: #80111f;
      }
    </style>
  </defs>
  <g>
    <path class="cls-1" d="M38.52,1077.05c5.89-4.7,12.19-9.1,18.9-13.19,6.71-4.09,13.65-7.58,20.85-10.45,7.19-2.87,14.5-4.92,21.95-6.15,7.44-1.22,14.77-1.26,21.99-.11,7.21,1.15,14.18,3.63,20.91,7.45,6.73,3.81,13.01,9.38,18.84,16.69,2.47,3.09,4.99,7.02,7.57,11.78,2.58,4.77,4.49,9.73,5.75,14.88,1.25,5.15,1.55,10.14.9,14.96-.65,4.82-2.92,8.78-6.82,11.89-2.7,2.15-5.41,3.06-8.14,2.71-2.73-.35-5.57-1.45-8.53-3.31-2.95-1.86-5.95-4.23-8.99-7.11s-6.21-5.79-9.52-8.7c-3.31-2.92-6.76-5.6-10.35-8.05-3.59-2.44-7.36-4.2-11.31-5.26-3.95-1.06-8.07-1.14-12.35-.26-4.28.89-8.81,3.25-13.61,7.07-2.3,1.83-4.29,3.8-5.96,5.9-1.68,2.1-2.86,4.31-3.54,6.62-.69,2.32-.78,4.71-.28,7.18.5,2.47,1.81,5.04,3.95,7.72,2.22,2.78,4.79,5.23,7.72,7.36,2.93,2.13,5.91,4.17,8.94,6.13,3.04,1.96,6.02,4,8.94,6.13,2.93,2.13,5.54,4.64,7.84,7.52,2.88,3.6,4.62,6.97,5.24,10.1.62,3.13.41,6.04-.64,8.73-1.04,2.69-2.75,5.27-5.1,7.74-2.36,2.47-5.09,4.95-8.18,7.42-15.48,12.36-30.77,18.04-45.88,17.04-15.11-1-29.16-9.63-42.14-25.9-8.38-10.5-13.69-20.47-15.91-29.91-2.22-9.44-2.1-18.51.35-27.21,2.45-8.7,6.92-16.99,13.39-24.85,6.47-7.87,14.2-15.39,23.19-22.56Z"/>
    <path class="cls-1" d="M223.47,1137.67c6.78,6.44,10.73,12.89,11.87,19.35,1.13,6.46-.68,12.18-5.43,17.18-2.38,2.5-5.45,4.96-9.2,7.39-3.76,2.42-7.76,5.01-12.01,7.76-4.25,2.75-8.6,5.71-13.07,8.87-4.46,3.16-8.63,6.79-12.5,10.86-4.23,4.45-7.31,9.27-9.26,14.47-1.95,5.2-3.68,10.52-5.21,15.94-1.52,5.43-3.3,10.79-5.34,16.08-2.04,5.3-5.21,10.3-9.51,15.03l-.66.69c-20.69,21.76-40.68,23.48-59.96,5.15-8.5-8.08-13.25-16.52-14.25-25.31-1-8.8,1.84-16.99,8.5-24.58l1.06-1.11c3.87-4.07,8.04-7.17,12.5-9.28s9.08-4.2,13.86-6.26c4.78-2.07,9.71-4.48,14.78-7.24,5.07-2.76,10.16-6.82,15.27-12.19,4.67-4.91,8.26-9.74,10.77-14.49,2.51-4.75,4.67-9.36,6.46-13.82,1.79-4.47,3.66-8.82,5.6-13.06,1.94-4.24,4.76-8.3,8.46-12.19,7.04-7.41,14.65-11.07,22.83-10.96,8.17.1,16.32,4.01,24.43,11.72Z"/>
    <path class="cls-1" d="M228.45,1192.74c3.22-4.45,6.66-7.8,10.31-10.05,3.65-2.24,7.42-3.58,11.31-4,3.88-.42,7.81.05,11.78,1.42,3.97,1.37,7.82,3.41,11.55,6.11,3.84,2.78,6.97,5.87,9.39,9.27,2.42,3.4,4.03,6.9,4.85,10.49.82,3.59.89,7.15.21,10.67-.68,3.53-2.11,6.79-4.28,9.8-2.32,3.21-5.44,6-9.35,8.38-3.91,2.37-8.12,4.82-12.61,7.32-4.5,2.51-9,5.36-13.51,8.56-4.51,3.21-8.53,7.24-12.05,12.1-4.72,6.52-7.1,12.85-7.14,18.97-.04,6.12,2.29,10.88,6.99,14.28,3.52,2.55,7.13,3.62,10.84,3.22,3.7-.4,7.49-1.09,11.37-2.07,3.88-.98,7.75-1.61,11.61-1.89,3.86-.28,7.66.93,11.4,3.63,5.66,4.09,8.21,9.84,7.65,17.24-.56,7.4-4.13,15.66-10.72,24.77-12.06,16.67-26.47,25.13-43.23,25.39-16.77.25-35.56-7.15-56.37-22.2-6.62-4.79-11.92-9.37-15.9-13.75-3.99-4.38-6.7-8.72-8.16-13-1.45-4.29-1.67-8.66-.63-13.12,1.03-4.46,3.25-9.16,6.67-14.1l1.12-1.55c2.85-3.93,6.12-7.79,9.83-11.58,3.71-3.78,7.5-7.62,11.38-11.52,3.88-3.9,7.74-7.84,11.61-11.83,3.86-3.99,7.29-8.05,10.28-12.2,2.99-4.14,5.38-8.29,7.17-12.44s3.46-8.26,5.02-12.34c1.56-4.07,3.2-8.13,4.91-12.18,1.71-4.05,3.95-7.99,6.72-11.82Z"/>
    <path class="cls-1" d="M333.22,1268.74c2.44-4.92,5.27-8.8,8.51-11.62,3.23-2.82,6.73-4.76,10.49-5.82,3.76-1.06,7.71-1.24,11.85-.55,4.14.7,8.27,2.06,12.41,4.11,4.25,2.1,7.85,4.63,10.79,7.59s5.12,6.14,6.52,9.54c1.4,3.4,2.06,6.9,1.97,10.49-.09,3.59-.96,7.05-2.6,10.37-1.76,3.55-4.37,6.82-7.83,9.81s-7.21,6.09-11.22,9.31c-4.02,3.22-7.99,6.78-11.9,10.68-3.92,3.91-7.21,8.55-9.88,13.93-3.57,7.21-4.87,13.84-3.89,19.89.98,6.04,4.06,10.35,9.25,12.92,3.9,1.93,7.64,2.39,11.22,1.38,3.58-1.01,7.21-2.31,10.87-3.92,3.66-1.61,7.38-2.87,11.14-3.79,3.76-.92,7.71-.36,11.84,1.69,6.26,3.1,9.72,8.34,10.4,15.74.67,7.39-1.48,16.13-6.47,26.21-9.13,18.44-21.94,29.17-38.43,32.2-16.49,3.03-36.25-1.16-59.27-12.55-7.32-3.62-13.31-7.27-17.96-10.93-4.66-3.66-8.06-7.48-10.2-11.47-2.14-3.99-3.08-8.26-2.8-12.83.28-4.57,1.69-9.58,4.24-15.01l.85-1.72c2.15-4.35,4.75-8.7,7.78-13.04,3.03-4.34,6.13-8.76,9.31-13.25,3.18-4.49,6.34-9.02,9.49-13.59,3.15-4.57,5.85-9.15,8.12-13.73,2.27-4.58,3.94-9.07,5.01-13.46,1.07-4.39,2.04-8.72,2.91-13,.87-4.28,1.81-8.55,2.82-12.83,1.01-4.27,2.57-8.53,4.67-12.77Z"/>
    <path class="cls-1" d="M504.92,1307.28c8.71,2.61,16.69,5.34,23.95,8.18,7.26,2.85,13.39,5.92,18.38,9.21s8.61,6.95,10.84,10.96c2.23,4.01,2.64,8.4,1.21,13.17-1.36,4.53-3.3,7.91-5.83,10.16s-5.45,3.74-8.77,4.47c-3.32.74-6.88.94-10.7.59-3.82-.34-7.68-.77-11.58-1.27-3.91-.5-7.74-.92-11.49-1.24-3.75-.33-7.19-.09-10.32.71-1.32.27-2.72.82-4.21,1.64-1.48.82-2.43,1.91-2.83,3.25-.4,1.35-.32,2.54.27,3.58.58,1.04,1.38,1.95,2.38,2.72,1.01.77,2.15,1.42,3.44,1.93,1.29.52,2.43.93,3.45,1.23,3.28.98,6.85,1.92,10.71,2.81,3.86.89,7.12,2.61,9.8,5.14,1.6,1.55,3.23,3.57,4.88,6.07,1.66,2.5,2.12,4.97,1.38,7.42-.77,2.57-2.36,4.3-4.75,5.18-2.4.88-5.22,1.34-8.46,1.37-3.24.03-6.67-.13-10.27-.48-3.61-.35-7.02-.57-10.22-.66-3.21-.09-5.97.18-8.29.82-2.33.64-3.81,2.06-4.47,4.26-1.14,3.8-.55,6.87,1.77,9.24,2.31,2.36,5.11,4.04,8.4,5.02,3.03.91,6.1,1.56,9.21,1.96,3.11.4,6.2.76,9.27,1.08,3.07.32,6.15.71,9.24,1.17,3.09.46,6.15,1.15,9.18,2.05,4.92,1.48,8.7,3.44,11.33,5.9,2.63,2.46,4.43,5.3,5.39,8.52.96,3.22,1.21,6.74.76,10.53-.45,3.8-1.32,7.84-2.61,12.13-3.05,10.16-7.83,17.53-14.37,22.11-6.53,4.58-13.96,7.35-22.3,8.32-8.33.97-17.03.6-26.07-1.12-9.05-1.71-17.67-3.8-25.87-6.26-7.19-2.16-13.92-4.84-20.17-8.05-6.26-3.21-11.5-7.05-15.73-11.52-4.23-4.47-7.11-9.64-8.66-15.5-1.54-5.87-1.17-12.59,1.1-20.18,1.58-5.26,3.95-9.72,7.11-13.38s6.45-7.17,9.87-10.55c3.42-3.38,6.73-6.95,9.92-10.73,3.2-3.78,5.62-8.42,7.27-13.93,1.87-6.24,2.94-11.99,3.21-17.25.27-5.25.35-10.23.25-14.93-.11-4.7-.12-9.34-.05-13.92.07-4.58.82-9.26,2.25-14.03,1.69-5.63,4.34-10,7.96-13.12,3.62-3.12,7.81-5.29,12.58-6.53,4.77-1.24,9.88-1.64,15.32-1.21,5.44.43,10.75,1.42,15.92,2.97Z"/>
    <path class="cls-1" d="M645.97,1341.39c3.4.39,7.28.96,11.64,1.71,4.35.76,8.85,1.75,13.48,2.99,4.63,1.24,9.13,2.78,13.49,4.63s8.18,4.09,11.46,6.71c3.28,2.63,5.81,5.68,7.6,9.16s2.43,7.45,1.92,11.89c-.73,6.35-2.47,10.91-5.24,13.68-2.77,2.77-7.56,3.77-14.36,2.99-3.14-.36-6.03-1.17-8.67-2.44-2.64-1.27-5.24-2.62-7.79-4.07-2.55-1.45-5.15-2.81-7.79-4.07-2.64-1.27-5.53-2.08-8.67-2.44-3.01-.34-5.82.14-8.42,1.45-2.6,1.31-4.06,3.37-4.38,6.16-.28,2.41,1.39,4.92,5.01,7.52,3.61,2.6,8.2,5.41,13.75,8.42,5.55,3.02,11.54,6.3,17.97,9.86,6.42,3.56,12.32,7.65,17.69,12.25,5.37,4.6,9.69,9.79,12.94,15.56,3.25,5.77,4.46,12.28,3.64,19.52-1.3,11.43-4.41,21.17-9.3,29.23-4.9,8.06-11.33,14.43-19.29,19.12-7.96,4.69-17.27,7.8-27.92,9.35-10.65,1.55-22.39,1.59-35.22.13-8.12-.93-15.81-3.22-23.08-6.88-7.27-3.66-13.56-8.37-18.87-14.12-5.31-5.75-9.34-12.29-12.08-19.61-2.74-7.32-3.65-15.05-2.72-23.17.39-3.43,1.32-6.89,2.78-10.39,1.46-3.5,3.41-6.62,5.84-9.37,2.43-2.74,5.33-4.86,8.68-6.34,3.35-1.48,7.05-1.99,11.11-1.53,3.93.45,7.6,1.67,11.02,3.67,3.42,2,6.79,4.15,10.1,6.46,3.32,2.31,6.75,4.47,10.3,6.48,3.55,2.01,7.35,3.25,11.41,3.71,6.02.69,9.23-.68,9.62-4.11.28-2.41-1.17-4.83-4.34-7.25-3.17-2.42-7.21-5.07-12.12-7.94-4.91-2.88-10.18-6.05-15.82-9.52-5.64-3.47-10.82-7.44-15.54-11.9-4.73-4.46-8.49-9.52-11.29-15.18-2.8-5.66-3.8-12.04-2.98-19.15.48-4.19,1.87-7.99,4.18-11.39,2.31-3.4,5.24-6.41,8.79-9.03,3.55-2.62,7.54-4.83,11.99-6.64,4.45-1.81,8.98-3.22,13.61-4.23,4.62-1.02,9.17-1.68,13.65-2.01,4.48-.32,8.55-.28,12.21.14Z"/>
    <path class="cls-1" d="M808.98,1442.6c-1.21-7.44-1.94-15.09-2.21-22.94-.27-7.85.1-15.61,1.13-23.29,1.02-7.67,2.83-15.05,5.42-22.14,2.59-7.08,6.15-13.49,10.7-19.21,4.54-5.72,10.13-10.57,16.76-14.56,6.63-3.99,14.56-6.73,23.79-8.22,3.9-.63,8.56-.9,13.98-.81,5.42.09,10.68.86,15.79,2.3,5.1,1.44,9.59,3.62,13.47,6.56,3.88,2.93,6.21,6.86,7.01,11.78.55,3.41,0,6.21-1.64,8.42-1.64,2.21-4,4.14-7.07,5.8-3.07,1.66-6.6,3.11-10.61,4.34-4,1.23-8.09,2.57-12.26,4.02-4.17,1.45-8.2,3.14-12.09,5.06-3.89,1.93-7.27,4.35-10.13,7.27-2.86,2.92-4.96,6.47-6.29,10.63-1.33,4.17-1.5,9.27-.52,15.33.47,2.9,1.21,5.6,2.21,8.09,1,2.49,2.35,4.6,4.03,6.34,1.68,1.74,3.72,2.99,6.12,3.77,2.39.78,5.28.89,8.66.34,3.51-.57,6.91-1.6,10.21-3.11,3.29-1.5,6.54-3.1,9.73-4.78,3.2-1.68,6.44-3.28,9.73-4.78,3.29-1.5,6.76-2.55,10.4-3.14,4.55-.74,8.34-.6,11.37.39,3.03,1,5.46,2.61,7.29,4.84,1.83,2.23,3.24,4.98,4.24,8.25,1,3.27,1.81,6.86,2.44,10.77,3.17,19.55.6,35.66-7.68,48.33-8.29,12.67-22.71,20.67-43.25,24-13.26,2.15-24.55,1.87-33.86-.83-9.31-2.7-17.16-7.25-23.53-13.67-6.38-6.41-11.4-14.37-15.08-23.87-3.67-9.5-6.43-19.93-8.27-31.28Z"/>
    <path class="cls-1" d="M980.77,1354.92c1-.33,1.48-1.72,1.44-4.2-.04-2.47-.19-5.58-.44-9.33-.25-3.75-.45-7.78-.61-12.1-.16-4.31.05-8.48.61-12.49.57-4.01,1.71-7.54,3.42-10.58,1.71-3.04,4.32-5.13,7.83-6.27,3.26-1.06,6.52-1.58,9.78-1.56,3.26.02,6.41.64,9.44,1.87,3.03,1.23,5.7,3.05,8.01,5.46,2.31,2.41,4.09,5.56,5.36,9.45,1.22,3.77,1.62,7.64,1.18,11.61-.44,3.97-1.23,8.03-2.38,12.16-1.15,4.14-2.55,8.36-4.2,12.65-1.65,4.3-3.01,8.64-4.08,13.02s-1.75,8.8-2.03,13.26c-.28,4.46.31,8.94,1.77,13.43,1.38,4.26,3.64,8.02,6.79,11.3,3.14,3.28,6.48,6.43,10.03,9.44,3.54,3.02,6.87,6.1,9.97,9.26,3.1,3.16,5.33,6.8,6.67,10.93,1.54,4.74,1.79,9.13.75,13.16-1.05,4.03-2.91,7.66-5.6,10.89-2.69,3.22-6.01,6.02-9.95,8.37-3.94,2.36-8.05,4.23-12.3,5.61-3.88,1.26-8.17,2.15-12.85,2.66-4.68.51-9.24.35-13.67-.5-4.43-.85-8.45-2.67-12.06-5.45s-6.26-6.8-7.96-12.03c-.95-2.92-1.08-6.53-.41-10.85.67-4.32,1.49-8.85,2.44-13.59.95-4.74,1.73-9.39,2.32-13.96.6-4.56.38-8.42-.65-11.58-1.34-4.13-3.58-7.81-6.7-11.02s-6.71-6.15-10.75-8.8c-4.05-2.65-8.25-5.14-12.61-7.49-4.36-2.34-8.54-4.75-12.53-7.22-3.99-2.46-7.47-5.09-10.46-7.89-2.98-2.79-5.07-6.01-6.25-9.66-1.15-3.52-1.33-7.06-.54-10.61.79-3.55,2.12-6.9,4-10.07,1.88-3.16,4.21-5.9,6.99-8.22,2.78-2.31,5.55-3.92,8.3-4.82,3.63-1.18,7.06-1.08,10.27.29,3.22,1.37,6.21,3.46,8.99,6.25,2.78,2.79,5.35,5.92,7.72,9.38,2.37,3.46,4.51,6.73,6.41,9.81,1.9,3.08,3.55,5.6,4.95,7.56,1.4,1.96,2.6,2.78,3.6,2.46Z"/>
    <path class="cls-1" d="M1062.44,1380.23c-3.44-6.71-6.49-13.76-9.16-21.15-2.67-7.39-4.71-14.89-6.09-22.51-1.38-7.62-1.94-15.19-1.65-22.74.28-7.54,1.71-14.73,4.27-21.57,2.56-6.84,6.38-13.18,11.47-19.01,5.08-5.83,11.78-10.88,20.11-15.14,3.52-1.8,7.87-3.49,13.05-5.07,5.19-1.58,10.43-2.47,15.73-2.67,5.3-.2,10.25.5,14.84,2.09,4.59,1.6,8.02,4.61,10.29,9.05,1.57,3.07,1.92,5.91,1.03,8.52-.88,2.61-2.53,5.17-4.94,7.7-2.41,2.53-5.33,4.99-8.76,7.39-3.43,2.4-6.91,4.94-10.43,7.6-3.52,2.66-6.83,5.51-9.95,8.54-3.11,3.03-5.58,6.38-7.4,10.04-1.83,3.66-2.73,7.68-2.71,12.05.02,4.37,1.42,9.28,4.22,14.74,1.34,2.62,2.87,4.96,4.59,7.02,1.72,2.06,3.65,3.66,5.78,4.79,2.13,1.13,4.46,1.7,6.98,1.7,2.52,0,5.3-.78,8.35-2.34,3.17-1.62,6.08-3.65,8.75-6.1,2.67-2.44,5.27-4.96,7.79-7.54,2.52-2.58,5.12-5.1,7.79-7.54,2.67-2.44,5.65-4.51,8.93-6.19,4.1-2.1,7.75-3.14,10.94-3.13,3.19.02,6,.81,8.42,2.36,2.42,1.56,4.61,3.74,6.57,6.54,1.95,2.81,3.83,5.97,5.64,9.5,9.03,17.63,11.55,33.75,7.56,48.35-3.99,14.61-15.25,26.65-33.77,36.14-11.96,6.12-22.79,9.33-32.47,9.63-9.69.3-18.56-1.62-26.59-5.76-8.04-4.14-15.27-10.16-21.69-18.07-6.42-7.91-12.25-16.99-17.49-27.22Z"/>
    <path class="cls-1" d="M1147.92,1262.95c-3.29-4.4-5.47-8.67-6.53-12.83-1.06-4.16-1.21-8.15-.46-11.99.75-3.83,2.37-7.44,4.86-10.82,2.49-3.38,5.58-6.45,9.27-9.22,3.8-2.84,7.68-4.91,11.64-6.21s7.79-1.8,11.46-1.51c3.67.29,7.09,1.28,10.25,2.98,3.16,1.7,5.86,4.03,8.08,7,2.38,3.17,4.11,6.98,5.22,11.42s2.19,9.18,3.24,14.22c1.06,5.04,2.44,10.19,4.16,15.44,1.72,5.26,4.38,10.29,7.98,15.1,4.83,6.44,10.16,10.59,15.99,12.45,5.83,1.86,11.07,1.05,15.71-2.43,3.48-2.61,5.58-5.73,6.3-9.39.72-3.65,1.19-7.48,1.41-11.47s.77-7.88,1.64-11.65c.88-3.77,3.16-7.04,6.85-9.8,5.59-4.18,11.83-4.91,18.74-2.18,6.9,2.74,13.72,8.6,20.46,17.6,12.33,16.47,16.13,32.74,11.39,48.83-4.74,16.08-17.39,31.82-37.95,47.22-6.54,4.9-12.49,8.59-17.86,11.1-5.37,2.5-10.32,3.81-14.83,3.92-4.52.11-8.76-.98-12.71-3.29s-7.78-5.83-11.48-10.56l-1.15-1.53c-2.91-3.89-5.62-8.16-8.13-12.83-2.51-4.67-5.05-9.43-7.62-14.29-2.57-4.86-5.18-9.73-7.85-14.6-2.66-4.87-5.52-9.35-8.59-13.45-3.06-4.09-6.31-7.61-9.75-10.54s-6.86-5.76-10.29-8.46c-3.42-2.7-6.81-5.47-10.17-8.31-3.36-2.83-6.45-6.14-9.29-9.93Z"/>
    <path class="cls-1" d="M1375.57,1116.3c1.86,1.75,4.25,3.59,7.17,5.52,2.92,1.93,6.21,4.08,9.87,6.43,3.66,2.36,7.63,5.13,11.9,8.33,4.27,3.2,8.64,6.9,13.11,11.1,5.12,4.81,8.93,10.42,11.41,16.83,2.49,6.4,3.42,13.34,2.81,20.8-.62,7.47-2.92,15.33-6.92,23.6-4,8.27-10.01,16.67-18.04,25.21-7.58,8.06-15.14,14.24-22.69,18.54-7.55,4.3-14.91,6.86-22.1,7.7-7.19.84-14.17-.03-20.96-2.61-6.78-2.58-13.15-6.67-19.11-12.27-6.15-5.78-11.65-11.72-16.52-17.83-4.87-6.11-9.35-11.09-13.45-14.94-2.7-2.54-5.58-4.88-8.64-7.04-3.06-2.15-6.17-4.3-9.32-6.46-3.15-2.15-6.33-4.36-9.53-6.65-3.2-2.28-6.29-4.83-9.27-7.63-3.82-3.59-7-7.39-9.54-11.4-2.54-4.01-4.21-8.16-5.01-12.44-.8-4.28-.62-8.53.55-12.77,1.17-4.23,3.56-8.27,7.17-12.11,6.5-6.91,13.71-10.2,21.65-9.88,7.94.32,15.77,4.12,23.5,11.38,3.35,3.15,6.27,6.44,8.76,9.86,2.49,3.42,4.72,6.74,6.69,9.95,1.98,3.21,3.84,6.23,5.58,9.04,1.74,2.81,3.54,5.09,5.41,6.84,1.96,1.84,4.25,3.59,6.89,5.26,2.64,1.67,5.39,2.9,8.25,3.68,2.86.79,5.66,1.03,8.41.71,2.75-.31,5.2-1.62,7.37-3.92,1.89-2.02,3.12-4.3,3.67-6.85.56-2.55.52-5.21-.13-7.98-.64-2.77-1.81-5.5-3.5-8.17-1.69-2.68-3.8-5.2-6.31-7.56-2.51-2.36-5.21-4.39-8.08-6.1-2.87-1.7-5.79-3.36-8.75-4.97-2.96-1.61-5.92-3.3-8.89-5.1-2.96-1.79-5.84-4-8.64-6.62-3.16-2.97-5.76-6.09-7.78-9.35-2.02-3.26-3.23-6.65-3.6-10.16-.38-3.52.09-7.1,1.41-10.74,1.32-3.64,3.74-7.33,7.25-11.08,2.62-2.78,5.58-4.96,8.91-6.54,3.32-1.58,6.77-2.4,10.35-2.47,3.58-.07,7.14.57,10.69,1.92,3.55,1.35,6.96,3.56,10.22,6.62,3.26,3.06,6.2,6.14,8.82,9.23,2.62,3.09,5,6.06,7.16,8.9,2.16,2.84,4.19,5.48,6.11,7.91,1.92,2.44,3.81,4.53,5.67,6.28Z"/>
    <path class="cls-1" d="M1360.74,1007.42c1.85-2.88,4.08-6.11,6.67-9.69,2.6-3.57,5.48-7.17,8.63-10.78,3.15-3.61,6.52-6.96,10.11-10.06,3.58-3.1,7.28-5.54,11.08-7.33,3.8-1.78,7.66-2.71,11.58-2.78,3.92-.07,7.76,1.11,11.52,3.52,5.38,3.45,8.7,7.03,9.96,10.74,1.26,3.71.04,8.45-3.66,14.21-1.71,2.66-3.71,4.9-6.01,6.71s-4.67,3.54-7.09,5.19c-2.43,1.65-4.79,3.38-7.09,5.19-2.3,1.81-4.31,4.04-6.01,6.71-1.64,2.55-2.44,5.28-2.41,8.19.03,2.92,1.22,5.13,3.59,6.65,2.04,1.31,5.03.92,8.96-1.18,3.93-2.09,8.47-4.97,13.63-8.63,5.16-3.65,10.75-7.57,16.78-11.77,6.03-4.19,12.3-7.68,18.8-10.47,6.5-2.79,13.06-4.37,19.67-4.74,6.62-.37,12.99,1.41,19.12,5.35,9.68,6.21,17.05,13.3,22.12,21.25,5.07,7.95,7.95,16.53,8.64,25.74.69,9.21-.62,18.94-3.93,29.18-3.31,10.24-8.46,20.79-15.43,31.66-4.42,6.87-9.87,12.76-16.36,17.67-6.5,4.91-13.49,8.48-21,10.7-7.5,2.23-15.15,2.95-22.93,2.18-7.78-.77-15.11-3.36-22-7.78-2.9-1.86-5.6-4.22-8.1-7.08-2.5-2.85-4.44-5.98-5.83-9.38-1.39-3.39-2.01-6.92-1.86-10.59.15-3.66,1.33-7.21,3.53-10.65,2.14-3.33,4.85-6.08,8.16-8.27,3.3-2.18,6.72-4.26,10.25-6.21,3.53-1.96,6.99-4.08,10.36-6.38,3.38-2.29,6.16-5.16,8.37-8.6,3.27-5.1,3.46-8.58.56-10.44-2.04-1.31-4.85-1.08-8.42.7-3.57,1.78-7.73,4.23-12.48,7.37-4.75,3.14-9.92,6.47-15.53,9.99-5.6,3.53-11.45,6.42-17.54,8.69-6.09,2.27-12.29,3.42-18.61,3.43-6.31.02-12.48-1.91-18.5-5.78-3.55-2.28-6.34-5.2-8.37-8.78-2.03-3.57-3.44-7.53-4.22-11.87-.78-4.34-1-8.9-.66-13.69.34-4.79,1.08-9.48,2.21-14.08,1.13-4.59,2.54-8.97,4.22-13.14,1.69-4.16,3.52-7.79,5.52-10.9Z"/>
  </g>
  <path class="cls-1" d="M729.17,1237.4c-1.75,0-3.5,0-5.25-.03-31.77-.32-65.08-3.98-99-10.9-59.8-12.2-116.73-33.61-169.19-63.65-43.41-24.85-81.75-54.47-117.2-90.54-29.6-30.12-52.4-59.52-77.03-92.08-68.27-90.23-153.24-202.53-154.35-359.66-.37-52.17,8.81-107.37,27.28-164.06,15.48-47.52,34.34-87.11,48.11-116.03,12.42-26.08,31.19-65.48,64.21-110.91C342.93,97.25,466.85,15.96,595.67.67c13.06-1.55,47.08-.29,129.25,2.74,179.91,6.65,218.27,18.49,240.11,29.07,23.33,11.3,58.3,34.73,127.97,81.42,27.29,18.29,40.99,27.47,49.52,34.09,29.49,22.9,69.29,62.11,115.67,162.99,40.54,88.19,82.47,179.41,82.94,309.34h0c.24,66.8-11.05,136.45-31.8,196.11-30.66,88.16-74.38,144.79-95.39,172-41.47,53.71-92.51,101.95-147.61,139.51-35.72,24.35-73.5,44.91-112.32,61.12-34.87,14.56-115.8,48.36-224.84,48.36ZM612.47,43.98c-5.53,0-9.42.12-11.61.38-116.51,13.83-229.63,88.79-318.52,211.06-30.64,42.14-47.65,77.87-60.08,103.96-26.89,56.45-71.89,150.94-71.12,260.85.45,63.17,16.09,124.15,47.84,186.44,28.09,55.11,65.02,103.92,97.6,146.98,40.07,52.95,89.93,118.85,181,170.99,106.35,60.89,208,68.36,246.77,68.74,102.64,1.04,179.77-31.18,212.7-44.93,36.07-15.06,71.22-34.2,104.49-56.87,51.32-34.99,98.89-79.96,137.57-130.05,19.59-25.37,60.35-78.17,88.66-159.56,11.09-31.9,29.66-97.9,29.36-181.5h0c-.19-53.88-8.27-105.57-24.68-158.04-14.77-47.23-34.84-90.88-54.24-133.09-42.39-92.21-77.14-126.78-102.67-146.61-7.32-5.68-20.59-14.57-47.03-32.29-67.98-45.55-102.1-68.41-122.66-78.37-11.01-5.33-36.81-17.83-222.52-24.7-54.36-2.01-92.06-3.4-110.85-3.4Z"/>
  <g>
    <ellipse class="cls-1" cx="635.53" cy="541.15" rx="16.67" ry="21.94" transform="translate(-76.61 105.72) rotate(-8.97)"/>
    <path class="cls-1" d="M636.97,564.98c-9.33,0-17.98-8.86-19.88-20.92-2.06-13.04,4.54-24.96,14.71-26.56,10.17-1.6,20.12,7.7,22.18,20.74.98,6.22.05,12.38-2.62,17.35-2.77,5.15-7.06,8.42-12.09,9.22-.77.12-1.53.18-2.29.18ZM634.12,521.32c-.57,0-1.13.04-1.7.13-7.99,1.26-13.1,11.13-11.38,21.99,1.71,10.86,9.6,18.67,17.6,17.41,3.77-.59,7.03-3.14,9.19-7.16,2.26-4.2,3.04-9.47,2.19-14.83h0c-1.59-10.09-8.52-17.55-15.9-17.55Z"/>
  </g>
  <g>
    <path class="cls-1" d="M806.69,513.37c1.89,11.97-3.95,22.84-13.05,24.28-9.1,1.44-18-7.1-19.89-19.08-1.89-11.97,3.95-22.84,13.05-24.28,9.1-1.44,18,7.1,19.89,19.08Z"/>
    <path class="cls-1" d="M791.66,539.81c-9.33,0-17.98-8.86-19.88-20.92-2.06-13.04,4.54-24.96,14.71-26.56,10.15-1.61,20.12,7.7,22.18,20.74,2.06,13.04-4.54,24.96-14.71,26.56-.77.12-1.53.18-2.29.18ZM788.81,496.14c-.57,0-1.13.04-1.7.13-7.99,1.26-13.1,11.13-11.38,21.99,1.71,10.86,9.61,18.68,17.6,17.41,7.99-1.26,13.1-11.13,11.38-21.99-1.59-10.09-8.52-17.55-15.9-17.55Z"/>
  </g>
  <path class="cls-1" d="M724.03,754.16c-24.14,0-68.62-4.88-110.3-35.4-47.87-35.05-64.64-85.11-75.75-118.23-2.65-7.92-9.29-29.39-13.6-57.76-3.3-21.69-4.68-45.11-4-67.75h0c1.23-40.96,9.02-75.59,15.35-97.44,3.66-12.62,7.19-22.34,9.52-28.26,4.34-11.06,5.14-11.65,6.07-12.34l1.95-1.44,4.46,1.21,1.01,1.95c1.02,1.97.45,3.56-.06,4.96-6.89,19.06-10.37,41.07-9.79,61.98.48,17.25,3.7,34.59,9.59,51.61,14.24-5.04,28.56-10.3,42.63-15.66,10.23-3.89,20.58-7.93,30.79-12.02,1.41-13.34,2.81-26.95,4.18-40.49,1.22-12,2.22-22.2,3.08-30.82,1.77-17.89,2.84-28.68,3.74-35.46.94-7.09,1.75-13.22,7.25-13.39,5.58-.18,7.17,6.84,8.32,11.96,1.1,4.87,2.26,11.68,3.56,20.82.88,6.18,1.75,12.98,2.6,19.96.48-5.15,1.07-10.48,1.8-15.94,1.46-10.98,3.26-21.04,5.08-28.32,2.49-9.99,4.96-15.72,10.31-15.42,5.82.33,6.49,7.6,6.81,11.09.39,4.25.53,10.12.69,16.91.62,26.04,1.77,74.5,22.32,83.5,2.17.95,2.68.94,9.19-.15,6.57-1.1,17.58-2.94,39.42-4.39,4.02-.27,7.58-.46,10.76-.64,15.2-.85,19.71-1.25,22.64-4.74,3.24-3.86,2.68-10.05-1.11-34.86-1.88-12.27-3.39-21.73-4.6-29.33-1.41-8.83-2.35-14.67-2.8-18.41-.46-3.86-1.1-9.14,3.6-10.66,1.44-.47,3.01-.3,4.4.46,6.19,3.38,16.78,30.98,21.64,49.29,3.19,12.02,5.37,24.37,6.51,36.81,13.1-7.19,36.83-17.06,53.82-6.19,14.22,9.1,16.16,28.17,17.32,39.56,8.28,81.34-1.91,147.71-2.35,150.5-11.1,70.56-21.44,88-25.86,95.44-5.61,9.47-20.53,34.61-50.42,53.74-36.16,23.13-72.17,23.57-87.55,23.76-.71,0-1.44.01-2.18.01ZM525.37,475.17l5,.15c-.66,22.04.69,44.84,3.9,65.95,4.2,27.6,10.63,48.41,13.2,56.08,11.34,33.84,26.87,80.17,72.17,113.34,40.63,29.75,84.13,33.74,106.45,33.45,14.53-.18,48.54-.59,82.29-22.19,27.89-17.84,41.42-40.67,47.21-50.41,3.77-6.35,13.77-23.23,24.58-91.9.43-2.73,10.43-67.86,2.28-147.93-1.32-12.98-3.39-26.16-12.76-32.15-6.81-4.36-16.54-4.38-28.93-.08-9.67,3.36-18.04,8.45-21.19,10.48l-7.24,4.67-.47-8.6c-.79-14.51-3.07-28.96-6.78-42.94-2.04-7.67-4.37-14.77-6.67-20.93,1.1,6.9,2.42,15.21,3.99,25.51,3.9,25.53,5.36,35.08-1.11,42.8-5.85,6.97-13.34,7.39-29.75,8.3-3.14.17-6.67.37-10.65.63-21.34,1.41-32.04,3.2-38.43,4.27-6.75,1.13-9.83,1.65-14.85-.55-26.38-11.55-27.54-60.22-28.3-92.42-.01-.51-.02-1.03-.04-1.55-.97,5.02-1.97,11.13-2.93,18.37-4.48,33.67-3.76,61.2-3.42,74.43.06,2.41.11,4.31.11,5.65,0,4.31-1.61,6.64-4.75,6.92-4.83.42-5.66-4.51-6.02-6.62-.27-1.59-.59-3.91-.98-7.07-.73-5.86-1.62-13.91-2.66-23.23-1.71-15.43-4.61-41.58-7.37-59.84-.61,5.91-1.32,13.07-2.15,21.47-.85,8.63-1.87,18.83-3.08,30.85-1.48,14.57-2.99,29.21-4.5,43.53l-.32,2.99-2.79,1.12c-11.18,4.49-22.53,8.94-33.75,13.21-15.69,5.97-31.68,11.82-47.54,17.4l-4.62,1.62-1.72-4.58c-7.33-19.5-11.32-39.49-11.88-59.39-4.26,19.69-7.73,43.22-8.51,69.34l-5-.15Z"/>
  <path class="cls-1" d="M548.34,663.01c-.35,0-.71,0-1.06-.02-18.2-.55-29.81-15.01-37.5-24.57l-1.27-1.58c-7.93-9.79-17.5-26.5-18.06-50.49-.15-6.4-.5-21.4,8.07-35.49,3.09-5.08,7.12-9.65,11.96-13.56l.69-.56.84-.29c.2-.07.4-.13.6-.2,5.63-1.75,11.84-1.39,18.45,1.08l-3.49,9.37c-4.29-1.6-8.17-1.94-11.53-1.03-3.62,3.05-6.64,6.54-8.98,10.39-7.05,11.59-6.76,24.06-6.62,30.05.5,21.18,8.89,35.85,15.84,44.43l1.29,1.61c6.92,8.62,16.41,20.43,30,20.84,4.42.14,8.9-.91,13.34-3.09l4.42,8.97c-5.57,2.74-11.28,4.13-17,4.13Z"/>
  <path class="cls-1" d="M543.34,700.17c-6.12,0-11.96-1.51-16.9-4.47-12.16-7.28-21.32-24.97-14.93-40.84,4.43-11.01,15.25-18.77,28.24-20.25l1.13,9.94c-9.33,1.06-17.03,6.45-20.09,14.05-4.28,10.64,2.12,23.34,10.79,28.53,11.18,6.7,30.19,2.56,40.64-14.27l8.49,5.28c-6.11,9.83-15.22,17.02-25.67,20.24-3.91,1.21-7.86,1.8-11.71,1.8Z"/>
  <path class="cls-1" d="M893.56,603.11c-1.02,0-2.02-.05-2.99-.16l-6.01-.67,1.1-9.94,6.01.67c1.44.16,6.66.45,13.25-2.51,17.59-7.91,24.06-31.63,26.5-40.57,3.15-11.56,8.42-30.9,0-48.76l-.29-.61c-6.35-13.68-13.61-20.74-21.57-20.99-6.9-.19-12.59,4.84-15.36,7.87l-7.38-6.74c3.92-4.3,12.14-11.5,23.06-11.12,12.05.38,22.25,9.38,30.33,26.77l.26.56c10,21.2,4.12,42.77.61,55.66-2.51,9.21-10.14,37.21-32.05,47.06-5.05,2.27-10.53,3.49-15.46,3.49Z"/>
  <path class="cls-1" d="M909.82,633.32c-7.27,0-14.42-2.05-19.88-5.58-4.84-3.13-8.73-7.49-11.57-12.96l8.88-4.61c2.03,3.91,4.77,7,8.13,9.17,8.59,5.57,23.05,5.89,30.87-2.5,4.55-4.88,6.36-12.53,4.84-20.45-1.45-7.57-5.76-14.06-10.98-16.52-5.5-2.6-12.02-.79-15.42.51l-3.59-9.33c5.97-2.29,14.86-4.2,23.28-.22,8.13,3.84,14.46,12.92,16.53,23.68,2.15,11.21-.52,21.84-7.34,29.16-6.3,6.76-15.1,9.66-23.74,9.66Z"/>
  <path class="cls-1" d="M690.48,675.04c-6.45,0-12.89-.16-19.31-.47l.48-9.99c21.5,1.04,43.25.29,64.63-2.23,20.66-2.44,41.28-6.56,61.29-12.26l2.74,9.62c-20.52,5.84-41.67,10.07-62.85,12.57-15.54,1.83-31.27,2.75-46.97,2.75Z"/>
  <path class="cls-1" d="M731.78,707.69c-17.18,0-30.12-7.28-35.51-10.92l5.59-8.29c4.31,2.91,19.9,12.1,39.7,8.26,15.89-3.08,25.87-12.63,30.41-18.05l7.67,6.42c-5.39,6.44-17.25,17.79-36.18,21.45-4.07.79-7.97,1.13-11.68,1.13Z"/>
  <path class="cls-1" d="M694.48,672.78l-7.89-6.15c5.25-6.73,16.85-18.65,35.62-22.85,28.38-6.36,50.28,10.25,54.38,13.64l-6.38,7.71c-3.47-2.87-21.97-16.92-45.82-11.59-15.72,3.52-25.49,13.56-29.91,19.24Z"/>
  <path class="cls-1" d="M708.45,615.54c-9.03,0-15.06-2.34-18.26-7.03-3.71-5.44-2.25-11.18.18-20.7.79-3.08,1.68-6.58,2.59-10.75,2.36-10.78,3.93-21.75,4.66-32.61l9.98.67c-.76,11.36-2.4,22.82-4.87,34.08-.95,4.34-1.87,7.92-2.67,11.08-1.87,7.35-2.73,10.95-1.61,12.59.73,1.07,5.77,6.06,33.08-1l2.5,9.68c-10.27,2.66-18.78,3.99-25.58,3.99Z"/>
  <path class="cls-1" d="M596.14,536.02l-6.18-7.87c8.08-6.35,21.54-14.43,39.73-16.9,11.34-1.54,22.72-.69,33.82,2.53l-2.79,9.6c-9.75-2.83-19.74-3.58-29.69-2.23-15.96,2.17-27.79,9.27-34.9,14.86Z"/>
  <path class="cls-1" d="M759.43,509.33l-7.25-6.89c4.95-5.21,15.71-14.39,32.11-17.36,17.48-3.15,31.43,2.45,38.18,6.07l-4.72,8.81c-5.61-3.01-17.19-7.66-31.68-5.04-13.6,2.46-22.53,10.08-26.64,14.4Z"/>
  <path class="cls-1" d="M587.56,477.7l-4.88-8.73c10.7-5.99,22.3-9.67,34.47-10.93,12.67-1.32,25.75.14,37.84,4.2l-3.19,9.48c-10.74-3.61-22.37-4.91-33.62-3.74-10.66,1.11-21.25,4.47-30.63,9.71Z"/>
  <path class="cls-1" d="M751.14,452.37l-5.59-8.29c10.17-6.85,21.42-11.48,33.45-13.75,12.51-2.36,25.67-2,38.06,1.05l-2.39,9.71c-11.01-2.71-22.7-3.03-33.81-.94-10.53,1.99-20.81,6.21-29.72,12.22Z"/>
  <path class="cls-1" d="M732.76,1109.26c-2.91,0-5.82-.03-8.73-.09-183.38-3.99-292.51-130.75-312.52-156.12l-2.1-2.67,1.71-2.94c18.45-31.78,50.07-75.49,95.9-103.17,2.38-1.44,16.07-8.21,46.06-23.05l.18-.09c41.04-20.3,54.8-26.52,71.13-22.07,7.83,2.13,11.53,5.54,16.65,10.27,2.83,2.61,6.36,5.86,11.63,9.9,8.83,6.75,35.7,27.3,68.65,30.38.48.04,48.21,4.13,80.68-25.29,3.92-3.55,6.84-6.87,9.66-10.07,5.93-6.74,11.06-12.57,21.44-15.21,12.27-3.13,22.62,1.75,33.57,6.91,4.76,2.24,9.69,4.56,15.19,6.49,17.47,6.12,50.37,18.55,74.55,33.02,47.33,28.33,77.06,74.54,93.66,108.32l1.42,2.89-2.04,2.49c-8.79,10.71-41.62,48.36-94.87,82.96-31.54,20.49-64.99,36.57-99.43,47.77-39.55,12.87-80.68,19.37-122.38,19.37ZM421.48,949.51c24.25,29.85,129.57,145.89,302.76,149.65,79.74,1.75,155.4-20.28,224.88-65.43,48.51-31.52,79.59-65.52,90.52-78.44-16.26-32.26-44.48-74.96-88.38-101.25-23.42-14.02-55.61-26.17-72.72-32.16-5.99-2.1-11.39-4.64-16.15-6.88-10.09-4.75-18.06-8.51-26.84-6.27-7.38,1.88-10.97,5.96-16.4,12.13-2.86,3.25-6.11,6.94-10.45,10.88-35.69,32.33-86.19,28.03-88.32,27.83-35.81-3.34-64.4-25.21-73.8-32.39-5.64-4.32-9.36-7.74-12.34-10.49-4.82-4.45-7.02-6.48-12.5-7.97-12.83-3.5-25.61,2.36-64.07,21.39l-.18.09c-27.01,13.36-43.31,21.43-45.33,22.65-42.63,25.75-72.61,66.21-90.69,96.68Z"/>
  <rect class="cls-1" x="593.05" y="822.62" width="48.92" height="10" transform="translate(-397.1 635.72) rotate(-42.56)"/>
  <rect class="cls-1" x="626.39" y="845.24" width="44.87" height="10" transform="translate(-420.54 868.73) rotate(-53.64)"/>
  <rect class="cls-1" x="658.11" y="866.01" width="45.73" height="10" transform="translate(-394.99 1125.38) rotate(-65.28)"/>
  <rect class="cls-1" x="695.88" y="873.55" width="47.97" height="10" transform="translate(-187.34 1561.96) rotate(-87.66)"/>
  <rect class="cls-1" x="752.79" y="854.44" width="10" height="48.23" transform="translate(-93.04 89.77) rotate(-6.39)"/>
  <rect class="cls-1" x="785.77" y="842.59" width="10" height="44.05" transform="translate(-264.17 354.73) rotate(-21.76)"/>
  <rect class="cls-1" x="818.83" y="819.62" width="10" height="49.04" transform="translate(-353.85 910.14) rotate(-48.91)"/>
  <rect class="cls-1" x="841.66" y="801.86" width="10" height="46.15" transform="translate(-321.46 1006.16) rotate(-53.07)"/>
  <path class="cls-1" d="M529.88,746.41c-22.95,0-29.93-5.67-32.61-11.81-.84-1.92-1.2-3.97-1.23-6.09-4.04,4.04-8.98,7.82-14.97,10.37-20.14,8.57-42.49-.8-47.93-5-2.19-1.69-3.14-3.64-2.82-5.81.7-4.79,5.52-4.7,8.39-4.64,4.15.08,11.58.22,18.3-3.74-3.82.65-8.27.85-13.03-.28-2.96-.71-18.03-4.95-24.25-19.32-3.79-8.76-3.21-19.38-.45-24.58,1.59-2.99,3.71-3.96,5.2-4.24,5.07-.96,7.32,3.8,8.96,7.28,1.74,3.69,4.12,8.75,9.06,12.16,7.73,5.34,20.13,6.3,24.13,1.86,4.84-5.36-1.73-20.7-5.66-29.87-5.49-12.81-12.11-21.21-14.94-24.79l-.61-.77c-18.1-23.26-15.4-56.57-11.09-88.69,6.45-47.99,23.58-92.84,37.79-126.55,22.36-53.05,33.58-79.68,58.3-110.62,22.48-28.12,47.95-60,91.69-73.65,6.24-1.95,9.2-2.37,17.97-3.61,8.36-1.19,22.36-3.18,50.33-8.06,24.04-4.2,36.95-6.78,45.49-8.49,9.31-1.86,13.16-2.63,19.82-3.09,48.14-3.31,86.54,19.94,109.49,33.83,63.21,38.26,92.77,94.47,121.35,148.82,22.42,42.64,37.53,82.97,43.69,116.63,7.31,39.95,6.06,73.95-3.71,101.07-7.07,19.61-19.95,41.42-26.01,44.04-1.51.66-3.13.67-4.56.05-4.73-2.05-3.56-6.62-1.62-14.18,1.6-6.25,4.01-15.69,5.49-27.95.21-1.75.39-3.47.55-5.16-3.27,9.55-8.28,20.05-16.2,29.68-13.04,15.86-28.58,22.95-38.87,27.65-32.71,14.93-64.98,13.77-86.3,10.17l1.67-9.86c19.93,3.37,50.07,4.47,80.48-9.41,10.02-4.57,23.73-10.83,35.3-24.9,14.61-17.77,18.14-38.73,20.04-49.99.44-2.6.78-4.65,1.19-6.2,1.47-5.66,5.08-5.89,6.58-5.72,1.5.17,2.86.94,3.85,2.19,4.46,5.63,3.04,31.24,1.64,42.75-.69,5.7-1.56,10.81-2.47,15.29,3.34-6.15,6.87-13.63,9.83-21.84,9.16-25.43,10.27-57.69,3.28-95.88-4.17-22.79-14.97-61.02-42.71-113.77-29.24-55.59-56.86-108.1-117.68-144.92-21.94-13.28-58.65-35.5-103.62-32.41-6.01.41-9.43,1.1-18.54,2.92-8.59,1.72-21.57,4.32-45.74,8.54-28.13,4.91-42.22,6.91-50.65,8.11-8.62,1.22-10.93,1.55-16.4,3.26-40.82,12.74-65.28,43.34-86.86,70.35-23.86,29.85-34.9,56.06-56.9,108.26-26.59,63.09-33.79,99.41-37.09,124-4.03,30.02-6.65,61.02,9.07,81.22l.57.72c2.81,3.56,10.27,13.02,16.28,27.05,5.49,12.83,13.01,30.39,3.89,40.5-3.93,4.36-10.39,6.52-18.18,6.06-6.8-.39-13.75-2.72-19.07-6.4-4.65-3.22-7.67-7.3-9.76-10.92.13,2.5.64,5.33,1.85,8.11,4.42,10.21,16.08,13.25,17.4,13.56,6.05,1.44,11.66-.32,15.75-1.6,3.74-1.17,8.85-2.78,11.51,1.73,4.26,7.21-7.77,16.02-9.16,17-3.2,2.26-6.52,3.77-9.71,4.76,6.79,1.24,14.9,1.33,22.47-1.89,11.28-4.8,18.19-15.54,22.33-21.95,2.81-4.37,5.72-8.89,10.48-6.36,4.83,2.57,2.6,7.67.44,12.59-1.97,4.49-5.63,12.84-3.97,16.64,1.75,4,15.94,15.08,125.23-10.29l2.26,9.74c-51.94,12.05-84.05,16.36-104.04,16.36Z"/>
  <path class="cls-1" d="M932.29,673.02l-8.04-5.95c5.86-7.92,10.87-16.49,14.89-25.47,4.43-9.9,7.67-20.33,9.65-31l9.83,1.82c-2.12,11.46-5.6,22.65-10.35,33.27-4.31,9.64-9.69,18.84-15.98,27.33Z"/>
  <path class="cls-1" d="M625.48,808.26l-4.82-8.76c6.67-3.67,18.98-12.2,26.55-28.03,6.35-13.27,6.64-25.76,5.77-33.91l9.94-1.06c1.01,9.43.66,23.9-6.69,39.28-8.78,18.35-23.03,28.22-30.75,32.47Z"/>
  <path class="cls-1" d="M826.49,808.35c-8.29-4.31-23.63-14.41-33.17-33.61-7.34-14.77-8.26-28.83-7.73-38.03l9.98.57c-.45,7.99.34,20.21,6.71,33.02,8.28,16.66,21.61,25.43,28.83,29.18l-4.61,8.87Z"/>
  <circle class="cls-1" cx="639.03" cy="636.55" r="6.29"/>
</svg>