<?xml version="1.0" encoding="UTF-8"?>
<svg id="Lag_1" xmlns="http://www.w3.org/2000/svg" viewBox="0 0 889.12 518.97">
  <path d="M327.49,376.65c-1.67,6.49-8.52,7.78-13.54,10.79-1.1,5.19.98,8.86-.55,14.12-.89,3.05-2.27,4.39-5.21,5.61-2.84,1.17-10.24,1.62-9.17,6.01,1.26,1.77,3.19,4.57,2.66,6.74-1.1,4.54-7.21,5.45-8.05,8.24-1.13,3.78,4.59,8.43,1.32,14.44-1.62,2.98-5.92,4.97-2.52,9.04,4.23-1.43,7.59.08,11.85,0,1.35,3.96.51,7.95.81,11.94,1.07,14.16,3.15,29.07-.95,43.05-5.45,18.59-26.57,15.05-29.87-2.96-2.21-12.08,1.1-31.18,2.24-43.98.14-1.6.7-5.94,2.07-6.43,1.86-.67,10.49-1.22,11.06-1.68-1.25-5.25,1.59-6.17,3.45-9.3,3.11-5.22-2.51-9.02-1.76-13.31.82-4.73,6.59-5.49,8.26-9.61.58-2.37-3.81-5.48-1.82-9.49,2.3-4.61,13-2.18,14.26-10.45.63-4.16-2.17-9.55.11-13.02,1.08-1.65,8.06-4.15,10.67-6.32,1.94-1.6,2.06-3.97,4.69-3.42ZM296.6,453.12h-5.41c-.21,12.22.28,24.5.04,36.73-.03,1.7-.78,3.12-.82,4.58-.19,6.87.03,13.68.79,20.48,1.09.18,1.04-1.3,1.34-2.12,4.64-12.68,4.87-37.15,4.05-50.77-.18-2.95.15-5.96.02-8.9ZM293.51,516.46c3.02-1.3,5.71-4.14,7.26-7.02,5.2-9.63,3.97-36.19,2.79-47.45-.17-1.6-.97-8.17-1.52-8.53-1-.66-2.69-.26-3.91-.34-.14,2.02.7,3.72.81,5.75.7,12.74-.11,36.19-2.54,48.51-.63,3.16-1.96,6.03-2.9,9.07ZM289.64,453.89h-4.64c1.07,16.66-3.44,33.18-.69,49.75.65,3.91,1.49,8.2,4.17,11.28l1.16-61.03ZM283.46,454.66l-4.67,1.25c.09,15.03-4.58,30.37-3.07,45.5.53,5.35,4.31,13.16,10.06,14.27-.98-3.04-2.23-5.92-2.88-9.09-3.1-15.15-.46-30.14.58-45.36.15-2.18-.12-4.41-.02-6.58Z"/>
  <g>
    <path d="M74.69,74.57l15.44.75,1.55,4.7c-2.17,13.23-12.05,23.82-15.59,36.84-6.25,8.78-13.11-1.73-13.85-.86.45,11.56-1.34,30.08-13.62,34.84-11.37,4.41-34.19.23-42.61-8.89-9.24-10.01-6.98-21.74.97-31.53,1.56-1.92,12.78-11.24,10.79-13.02l-12.27-2.36c-1.15-.83-2.5-1.98-2.88-3.36-1.75-6.44,11.72-31.83,12.26-40.37l16.85,7.75c-2.86-10.96-2.66-29.39,6.23-37.66,11.2-10.42,39.45-10.86,49.89,1.11,17.54,20.1-1.32,36.07-13.18,52.07ZM17.29,106.14c-1.38,1.58-4.84,3.08-7.23,5.83-6.79,7.83-9.32,18.07-2.49,26.91,6.67,8.63,29.73,11.92,39.67,9.01,3.89-1.14,9.65-10.25,10.26-14.31,2.64-17.55-.71-31.72,7.18-49.81,6.54-15,29.95-32.24,26.75-47.96-3.59-17.61-26.27-21.58-41.16-17.44-14.17,3.94-17.66,17.29-16.8,30.59.77,11.96,4.04,15.38.57,28.58-3.03,11.55-9.04,19.82-16.75,28.6ZM88.44,80.12c-1-3.82-13.41-2.76-16.89-1.77-5.37,8.15-15.94,34.99-1.69,38.58,4.53,1.14,6.57-11.76,8.16-15.09,2.06-4.32,11.39-17.98,10.41-21.72ZM31.55,62.31c-4.64.1-11.06-8.56-14.37-4.84-3.56,9.8-8.36,20.61-11.01,30.6-.5,1.88-1.13,2.48.83,3.96,3.84-.1,10.19,2.28,13.18,2.26,6.96-.05,13.44-25.66,11.37-31.97Z"/>
    <path d="M49.93,119.02c-2.57.06-3.39.8-3-2.25,1.12-8.78,4.97-21.97,8.11-30.38,2.36-6.32,9.96-22.86,13.75-27.77,1.57-2.03,3.64-3.13,5.97-4l-16.66,33.3-8.16,31.1Z"/>
    <path d="M25.41,112.78c1.25-12.86,8.97-24.94,12.86-37.13,2.47-7.73,3.61-15.83,5.65-23.66.69-2.66-1.22-4.34,3.23-3.61-1.82,18.99-8.94,40.32-16.83,57.8-1.06,2.34-2.22,5.78-4.91,6.6Z"/>
  </g>
  <g id="nDpVH7">
    <g>
      <path d="M339.83,266c-1.82-1.82-5.97-9.49-7.5-9.9-.5-.14-1.3,0-1.73.29-2.27,1.51.32,10.46.5,12.93.33,4.52-.86,11.5-5.6,13.44-12.23,5-18.72-9.66-11.36-18.46,1.66-1.99,7.35-5.53,5.4-8.74-1.91-3.14-7.23,1.39-9.64,2.27-4.45,1.61-7.2,1.74-10.38-2.15-5.3-6.48.49-13.29,7.85-13.11,2.68.07,8.23,2.36,10.25.94,1.4-.98.88-2.47-.37-3.32-3.53-2.41-10.95-3.46-14.2-6.73-5.72-5.75,5.22-14.35,11.05-14.41,3.55-.04,7.16,3.19,8.83,6.1.98,1.71,3.29,10.02,4.61,10.35,1.19.29,4.38-8.1,5.63-9.68,6.07-7.67,18.57-3.07,16.88,6.79-1.02,5.94-12.61,7.14-13.66,10.63-1.54,5.12,5,3.89,7.86,4.32,4.81.72,9.68,1.96,12.39,6.29,7.41,11.84-6.62,22.4-16.84,12.17ZM314.42,280.2c3.65,3.92,11.17,3.36,13.94-1.31,3.74-6.32.77-11.59.51-17.8-.1-2.27.33-7.06,3.74-6.01,1.99.61,5.45,7.53,7.27,9.57,8.96,10.04,22.52,1.82,16.32-9.59-3.96-7.29-11.24-5.38-17.93-7.11-2.23-.58-3.51-2.29-2.88-4.61,1.56-5.76,16.54-4.79,13.54-14.64-2.27-7.48-11.65-7.15-15.75-1.39-1.22,1.71-3.49,9.34-5.25,9.33-3.55-1.79-3.58-6.28-5.04-9.55-3.21-7.21-9.73-9.18-16.08-4.11-2.65,2.11-6.19,6.37-3.37,9.73.62.74,4.36,2.6,5.47,3.12,2.65,1.24,13.84,3.76,9.65,8.25-1.86,1.99-9.68-.72-13.02-.31-6.44.78-9.49,6.6-5.09,11.74,2.68,3.13,5.04,2.96,8.8,1.69,3.24-1.1,6.41-5.08,9.78-3.08,5.99,3.55-4.61,10.24-6.15,13.81-1.53,3.56-1.21,9.35,1.53,12.29Z"/>
      <path d="M328.96,254.64c-2.32,2.18-.08,12.48-.51,16.12-.3,2.56-2.68,7.56-5.05,8.77-3.18,1.64-8.7-1.19-9.12-4.62-.88-7.38,4.27-9.31,6.81-14.88,2.07-4.54,1.84-9.69-4.55-7.53-3.89,1.31-10.26,5.88-14.23,2.25-1.92-1.76-2.78-5.28-.93-7.32,2.22-2.44,7.2-.39,10.09-.34,3.51.07,11.74-1.87,8.74-6.88-2.63-4.38-13.72-6.03-15.6-9.46-1.9-3.46,4.75-8.78,8.35-8.73,10.11.15,7.67,11.39,12.89,16.28,4.49,4.21,6.13-5.07,7.48-7.5.42-.76,1.46-2.15,2.06-2.8,7.08-7.63,17.08.88,8.16,7.79-2.88,2.23-8.26,3.55-9.92,6.9-3.86,7.79,11.16,8.39,15.33,9.49,3.11.82,5.4,3.11,5.96,6.37,1.37,8.05-4.65,10.27-11.01,6.53-4.3-2.53-8.1-10.33-11.9-10.89-.8-.12-2.47-.1-3.06.45ZM311.58,223.25c-2.53.43-7.41,4.66-6.07,7.38.8,1.63,12.39,5.04,15.14,8.78,3.34,4.55-1.25,7.69-5.51,8.31-3.86.56-6.61-.53-10.01-.66-3.86-.14-5.02,3.48-2.6,6.37,4.75,5.67,14.21-4.95,19.23-1.67,2.39,1.57,1.52,5.77.58,8.01-2.02,4.79-10.77,11.78-5.99,17.21,5.71,6.48,11.17-2.01,11.43-7.66.2-4.4-3.66-17.83,4.49-16.1,4.56.97,5.22,4.64,7.82,7.49,1.77,1.94,6.57,5.22,9.2,5.41,6.9.5,6.1-11.13.16-12.9-4.88-1.45-18.86-1.21-17.12-9.61,1.28-6.19,12.25-6.62,13.58-12.2,1.32-5.58-4.58-6.55-8.41-3.93-1.2.82-3.04,3.22-3.7,4.52-1.41,2.81-2.72,11.3-7.92,7.41-6.18-4.62-3.4-18.04-14.29-16.17Z"/>
      <path d="M325.77,243.39c4.75-.86,7.57,8.05,2.45,9.2-5.77,1.3-6.54-8.46-2.45-9.2ZM324.84,244.92c-2.02,2.01-.1,7.8,2.92,6.86,3.66-1.15,2.66-7.37-1.31-7.34-.43,0-1.3.18-1.6.48Z"/>
      <path d="M325.59,249.97c-2.26-2.27,1.75-6.54,3.3-2.73,1.07,2.62-1.96,4.08-3.3,2.73ZM326.34,249.22c1.26,1.35,2.54-1.58,1.43-2.36-1.59-1.11-2.42,1.29-1.43,2.36Z"/>
    </g>
  </g>
  <g id="CJevHf.tif">
    <g>
      <path d="M317.98,44.63c.77-1.28,4.07-5.14,5.37-5.49,1.06-.28,3.9,3.32,4.96,4.2,7.66,6.35,16.58,8.27,26.25,5.78,1.68-.43,8.6-2.99,8.65-4.73.04-1.64-2.36-.86-3.8-1.22-6.97-1.74-8.14-14.51-18.74-15.67-11.21-1.23-20,6.06-26.48,14.31.22-1.51.46-4.27,1.23-5.53.61-1,3.87-2.84,5.11-4.55,2.48-3.41,3.29-8.36,2.88-12.49-.11-1.12-2.27-9.23-2.68-9.5-1.08-.7-2.24,2.19-2.91,3.04-2.9,3.68-7.81,8.25-7.48,13.32.1,1.49,1.49,3.8,1.5,4.7,0,.75-.82,1.59-1.03,2.43-.99,3.95-1.27,8.03-1.66,12.07-.79.95-6.1-5.74-6.56-6.39-8.3-11.55-8.56-20.98-24.37-25.89-1.4-.43-7.65-2.19-8.53-1.57-1.22,2.45,1.42,4.96,2.41,7.3,2.8,6.6,1.45,12.68,6.49,18.64,4.22,4.99,12,9.2,18.56,7.34.62-.18,1.61-1.05,2.09-.94.32.08,2.95,4.2,4.09,5.2,1.05.92,5.66,3.21,5.77,3.53.4,1.16-2.4,8.4-2.62,10.82-.23,2.52.17,5.2-.05,7.68-.34,3.86-1.3,7.75-1.54,11.61-.3,4.87.07,10.06.77,14.88-1.76-.19-2.51-1.85-4.41-1.54-1.42.23-3.29,2.58-4.46,2.94-1.29.39-2.34-.63-3.5-.05-.47.24-.58,1.03-1.05,1.38-.84.63-4.55,1.81-5.6,2.03-.4.08-.73.62-1.2.6-.7-.04-1.55-1.17-2.74-1.09-.97.06-1.76,1.09-2.72,1.11-.3,0-3.15-.1-3.32-.13-1.49-.28-6.48-3.26-8.68-4.08-8.97-3.37-20.98-5.1-30.42-1.81.25.63.38,1.28.41,1.94,12.06-4.25,27.65.04,37.89,6.29,2.92,1.78,5.78,4.41,8.8,5.89,10.75,5.28,24.44-.44,35.3,5.1l-7.04.88c-6.34.84-4.57,9.13-2.24,13.03l-5.8.77c-.11-.09,1.1-1.74-.19-1.55-1.27.19-2.72,1.6-3.95,1.85-4.77.97-9.21-.92-13.64-2.23.13.43.61.88.96,1.16.61.48,1.58.53,1.74,1.15-3.38.36-26.38-1.67-27.45-.38-.13.15-.06,1.17.38,1.36,15.94,1.66,32.13,3.14,48.02.45,3.54-.6,13.69-2.48,15.99-4.89,1.45-1.52,1.58-3.49,1.16-5.46-.22-1-1.2-2.23-1.27-2.93-.26-2.53,5.34-6.87,6.78-9.3,1.38-2.34,1.76-4.82,2.84-7.21,1.85-4.13,5.21-8.62,10-9.14-.08,1.05-1.77.78-1.9,1.39-.09.46.27,1.08.18,1.72-.22,1.52-1.87,7.52-1.31,8.43.14.23,2.14.87,2.64.84-.83,1.3-2.5,9.58-3.1,10.05-.11.08-2.05-.88-2.66-.34-.08.07-.46,1.76-.39,2.02.22.84,1.98.93,1.89,1.22-.93,3.03-4.69,7.04-5.84,10.22l-1.88-.36c.57,1.76,1.16,2.82-.96,3.87l-1.35-1.55c-.44.58,1.12,3.31-.2,3.1-1.65-.26-1.28-2.03-1.73-2.84-.23-.41-1.06-.36-1.16-.26-.59.57,1.4,4.01,1.16,4.25-6.89,1.31-13.6,3.67-19.98,6.51-4.79,2.13-12.16,7.05-17.33,7.06-5.58.01-15.69-5.84-21.35-8.06-8.05-3.15-16.48-5.39-24.45-8.8l-.4-.56c1.35-.61,4.34-.54,3.86-2.32-.68-.7-5.19,1.67-9.12,3.98.53.4,1.07.79,1.61,1.18.56.34,1.14.62,1.74.87.2.04.39.09.59.12.15,0,.29,0,.44-.01,1.86-.2,3.68.58,5.11,1.7.32.25.58.54.84.85,5.83,2.06,11.77,3.83,17.55,5.99,6.65,2.49,17.28,8.39,23.98,8.14,6.49-.24,15.52-6.47,21.84-9.09,7.06-2.93,17.73-4.02,21.95-10.14,8.71-12.64,9.6-21.76,13.78-35.7,1.13-3.76,8.34-12.44,4.09-16.06-2.45-2.09-7.76-.61-10.2,1.05-1,.68-2.74,2.98-3.36,3.24-.52.21-1.76-.27-2.79-.13-2.53.36-6.02,3.21-7.63,5.15-1.18,1.42-5.47,9.24-6.01,9.46-.88.36-.6-1.16-1.04-1.47-.12-.08-2.62-.81-2.85-.84-2.36-.3-3.31,1.48-4.19,1.51-.23.01-3.2-.13-3.37-.17-.87-.19-1.61-1.79-3.02-1.37.35-1.97-.42-4.16-.42-5.96,0-9.09.3-16.48,5.12-24.3,4.04-6.56,5.46-3.49,11.61-5.02,1.87-.47,4.02-1.78,5.51-3,1.11-.9,5.26-5.24,5.26-6.37.01-2.17-1.42-.93-2.51-1-4-.26-7.32-1.88-11.37-.47-5.25,1.84-8.47,9.2-11.3,13.64-1.03.88-.8-1.82-.72-2.47.29-2.39,5.47-15.61,6.84-17.9ZM338.54,44.9c-.34.35-5.23-2.12-5.38-2.37-.18-.31.67-2.15.7-2.88.09-2.28-1.17-4.38-2.67-5.95,2.95-.28,4.85.65,6.26,3.21.2.37,1.09,2.22,1.09,2.39v5.61ZM339.32,45.67c1.02-3.15,1.01-5.74,0-8.89,4.34,1.65,5.21,5.59,3.45,9.65l-3.46-.76ZM349.73,47.58c-2.27.6-4.35-.23-6.55-.76.88-1.77,2.22-3.77,1.55-5.79,3.55,1.01,5.69,2.47,5,6.55ZM358.26,44.9c-1.75,1.94-5.03,1.82-7.34,2.7v-3.87c2.34.84,4.85,1.31,7.34,1.16ZM354.92,42.83c.29.32.99.37,1.02.9-2.71-.04-5.34-1.3-7.73-2.51l3.28-2.89c1.01,1.58,2.17,3.11,3.42,4.5ZM348.72,39.03c-3.19,1.98-4.59-.48-6.7-2.64,2.57-.04,3.98-1.8,5.61-3.48,1.52,2.42,4.74,3.84,1.09,6.11ZM340.32,29.49c.86-.21,6.14,2.03,6.34,2.84.29,1.13-4.19,2.89-5.23,2.92-1.97.06-2.92-1.69-4.82-1.96.78-.42,3.45-3.74,3.71-3.8ZM331.21,30.41c2.57-.83,5-1.19,7.72-.98-2.99,3.56-6.4,2.34-10.44,2.31.41-.63,1.99-1.1,2.72-1.33ZM332.36,41.8c-2.1-1.4-4.28-2.76-5.99-4.64-.5,1,1.32,1.8,1.74,2.51-2.23.1-2.49-4.05-5.41-3.48,5.57-5.05,10.51-1.31,9.66,5.6ZM297.57,36.39c-.69-.22-4.3-1.66-4.46-1.91-.53-.82-.51-5.36-.56-6.59,1.04.47,5.37,8.16,5.02,8.5ZM291.77,33.68c-5.32-1.72-4.8-5.76-2.7-10.05,5.2,2.03,1.49,6.3,2.7,10.05ZM289.05,23.05c-1.74,1.63-2.74,4-2.69,6.38-3.73-2.11-3.37-6.6-.96-9.66l3.66,3.28ZM284.64,19.37l-2.34,5.41-2.51-3.09,2.31,4.64c-1.75-.42-3.65.03-5.4.39-.67-3.83-1.41-7.68-3.1-11.21,3.85.65,7.66,1.88,11.04,3.85ZM278.62,29.43l-.38,3.09-1.55-5.41c1.72.21,3.98-.28,5.61,0,1.01.18,3.01,3.81,4.06,4.64-1.33-.87-5.6,1.21-5.95,1.13-.55-.13-1.94-2.68-1.78-3.45ZM280.95,33.3c4.15-1.81,7.03.26,10.44,2.32-.56.41-4.12,2.66-4.37,2.64-1.05-.09-6.51-4.38-6.06-4.96ZM289.62,41.43c-.53-.17-1.94-.59-2.11-1.18,2.97.57,5.83,1.01,8.89.77,1.34-1.02-3.26-.76-3.63-.81-1.53-.24-2.94-.97-4.49-1.12,3.07-3.51,8.51-1.4,10.44,2.32-2.81,1.27-6.2.94-9.1.02ZM329.12,54.61c1.44-.2,2.96-.14,4.4-.43-.3.8-3.1,3.03-3.68,2.99-.37-.03-1.97-1.95-2.89-1.84.07-.56,1.69-.65,2.17-.72ZM329.27,57.65l-3.29,1.12-4.05-1.5c2.31-1.43,5.43-1.97,7.34.38ZM321.53,17.44c1.07,3.5.21,4.19-2.7,5.8-.43-2.31.99-4.38,2.7-5.8ZM321.92,22.08c.19.78-.41,3.72-.86,4.16-.13.13-3.56,1.48-3.4.28.25-1.83,2.92-3.38,4.25-4.45ZM315.57,18.23c2.2,1.33,2.4,4.63,1.71,6.94-1.35-1.19-1.84-3.42-3.85-3.88-.31-.45,1.59-2.71,2.15-3.07ZM312.65,21.7c3.98,1.68,3.78,6.2,1.54,9.28-.68-.17-.84-1.7-.98-2.3-.3-1.37-.49-2.86-.57-4.27l-.77,3.48c-.57-2.23-.04-4.09.77-6.18ZM325.21,125.32c-.75,1.56-11.27,4.48-13.34,3.09-.13-.75.9-.18,1.13-.4.27-.26-.14-6.67-.41-7.47-.23-.69-1.18-.35-1.11-1.01,3.48-.64,7.38-2.44,10.45.18.89.76,2.47,4.17,3.08,3.68l.38-.77c-.04.87.2,1.9-.19,2.71ZM347.35,101.26c-.28.33-2.09.59-2.62,1.25-.24-.34.89-5.44,1.2-5.75.08-.08,1.8-.04,2.27-.44.27.29-.53,4.56-.86,4.94ZM349.66,82.89c1.36-.17,3.18-.41,3.96,1.05-3.19,1.08-4.67,5.08-5.41,8.13-5.22-1.77-9.1,3.01-11.98,6.57,1.74-6.28,6.24-14.85,13.43-15.75ZM338.54,88.2c-2.49,4.03-3.81,8.56-5.4,12.99-2.11-.15-4.21-.23-6.2-1.01,2.68-4.79,5.66-10.78,11.6-11.98ZM309.17,70.03l2.31-.97c-3.44,4.62-2.81,9.06-3.07,14.33-.24,4.74-.66,9.52-.42,14.31.06,1.26.21,3.93.4,5.01.33,1.83,3.84.02,5.41.58.16-.95-.11-.75-.84-.88-1.95-.34-3.07,1.26-3.02-2.21,1.25-.27,1.7,1.06,2.7,1.38.27.09,4.22.61,4.45.59,1.04-.1,1.85-3.51,5.19-.98.46.35.71,1.07,1.17,1.55.35.36,1.57.64,1.09,1.52-.1.17-1.4.37-.68.96.71.59,2.36-1.27,1.54-2.31l4.25.77-1.54,2.31c1.54.19,2.07-.96,1.93-2.32,1.55.53,1.16.46.77,1.93l1.74-1.54c1.92,3.28-2.04,7.46-4.28,9.63-.89.87-2.73,1.43-3.46,3.12l.96-3.09c-.89.01-1.45,1.86-1.55,1.93-.29.21-1.13-.33-1.14-.58-.05-.87,2.87-2.34,2.31-2.9-1.18-.15-2.23,2.17-2.95,2.29-1.21.2-1.38-1.29-.41-2.17.1-.09,3.18-1.63,1.24-1.66-1.12-.02-2.34,2.52-2.55,2.67-.36.25-1.96-1-2.67-.75.13-.58,3-2.02,2.32-2.7-.36-.36-2.44,1.9-3.67,1.96-1.49.08-3.61-.9-5.22-.81l1.16-1.15c-1.89.17-2.9,1.73-5.02,1.15l.77-1.93c-1.75,1.8-2.79,2.29-5.41,1.93l.38-1.54c-1.7,1.8-3.46,1.66-5.79,1.54l1.73-1.93c-3,2.01-5.22,2.21-8.69,1.16.27-.48,1.52-.85.16-1.1-1.25-.22-4.44,1.3-5.57-1.22.32.05,3.26.22,2.32-.77-.8-.84-2.67.46-3.59.32-1-.16-3.38-1.66-2.04-2.66,1.43-1.07,4.19,1.03,6.52.33.63-.19.93-.99,1.46-1.25,1.19-.58,3.67-2.13,4.23-2.36.53-.22,1.33.25,2.31.04,1.86-.4,4.29-2.84,5.25-2.93.84-.08,3.55,1.23,4.42,1.75l-3.86.19c-.64.49.04.7.57.77,1.07.13,2.19-.1,3.29.39.28.37-1.96.93-1.16,1.54.28.21,1.09-.33,1.38-.36.11,0,.53,1.81,1.66.1-.42-6.55-1.51-13.06-1.1-19.65.38-6.21,1.07-12.67,1.59-18.9.33-3.95,3.28-9.95,2.66-13.2-.19-1-4.48-2.79-5.8-3.86-1.65-1.33-3.3-3.32-4.25-5.22.76-.18.92.39,1.32.81,1.34,1.41,1.99,3.01,3.74,4.38.9.7,4.01,2.73,5.02,2,.55-.4.96-8.87,1.19-10.41.78-5.35,2.7-9.6,7.87-11.85.88-.28-1.8,3.34-2.11,3.69-.64.72-2.2,2.6-2.41,2.82-.26.27-1.01.12-1.5.72-2.15,2.65-1.7,11.34-1.9,14.81.67.23,1.71-.97,1.55.19-.52,3.73-3.74,7.97-4.22,11.64-.38,2.89.36,6.11-.42,9.05Z"/>
      <g>
        <path d="M273.9,140.09c.19.33.06.73.09,1.08-.59.6-5.09-1.86-6.08-2.23-2.45-.91-6.19-1.65-8.27-2.95-.51-.32-.92-.04-.72-1,.66-.52,14.35,4,14.99,5.1Z"/>
        <path d="M272.44,105.6c-.59.52-3.89-1.63-4.76-2-2.99-1.27-6.26-2.44-9.54-2.64.05-.31-.07-1.08,0-1.16.63-.65,7.64,1.64,8.88,2.14.5.2,6.4,2.8,5.42,3.66Z"/>
        <path d="M295.63,117.59c.51.5-1.83,2.76-1.73,3.48-.95,2.12-.96,4.13-.99,6.39-.01,1.01.99,2.29-.56,2.49-1.34-2.21-.9-5.24-.26-7.6.22-.8,2.21-6.08,3.54-4.77Z"/>
        <path d="M300.66,117.2c.73,1.55-1.08,11.12-2.51,11.21s.72-4.4.86-4.93c.42-1.65.57-3.26.88-4.92.11-.56,0-1.2.77-1.36Z"/>
        <path d="M293.7,126.48c-.71-.82,1.33-7.2,3.09-7.34l-2.02,6.68-1.07.66Z"/>
      </g>
    </g>
  </g>
  <g id="RlLqt5.tif">
    <g>
      <path d="M708.42,214.02c.71-.14,2.65.86,2.74,1.74.16,1.59-4.8,10.79-6.22,11.41-.89.39-3.06-.67-2.55-1.89,1.34-1.41,4.84-11.03,6.03-11.26Z"/>
      <g>
        <path d="M767.59,265.79c-.24,5.84-.72,4.05-5.02,4.6-3.24.41-6.36,2.01-9.49,2.25-12.22.97-21.72-3.23-33.06-6.11-2.68-.68-10.57-2.6-12.87-2.29-7.6,1.02-15.43,7.09-22.6,7.73-13.17,1.17-18.55-2.46-30.1-5.44-6.51-1.68-10.98-.71-17.37.72-2.78.62-7.63,2.56-9.98,2.76-1.9.16-1.89-1.94-.89-2.55,8.54-2.39,17.16-5.31,26.17-4.99,2.66-7.93,5.63-15.41,12.47-20.63,11.67-8.9,29.85-10.95,43.76-6.94,12.43,3.58,20.81,17.77,23.83,29.66.09.33.29.55.58.72,1.14.66,8.31,2.09,10.04,2.36,2,.32,4.76.7,6.74.76,6.19.18,11.55-3.08,17.8-2.62ZM725.5,262.86c.37-.39-1.61-4.87-1.96-5.7-2.71-6.49-4.71-9.5-10.47-13.67-10.83-7.83-32.14-7-43.14.2-7.36,4.82-9.96,11.33-12.96,19.31,8.73,2.48,18.77,4.78,27.92,4.11,3.85-.28,7-2.51,10.51-3.84,4.52-1.72,11.71-4.08,16.47-3.58,4.33.45,9.23,2.56,13.63,3.17Z"/>
        <path d="M638.73,286.97c.43-2.8-.19-3.18,2.81-3.53,9.22-1.09,20.37-1.69,29.49-.21,10.7,1.74,20.36,6.21,31.38,3.01,6.7-1.94,11.7-5.13,19.06-6.06,10.92-1.38,30.53.36,41.38,2.91.29.07.77.18.83.48.08.38-2.53,4.2-2.82,5.02-3.07-.27-6.09-1.14-9.13-1.56-11.27-1.56-25.67-3.47-36.66-.54-6.43,1.72-11.75,5.24-18.74,5.72-12.17.84-23.05-4.82-34.93-5.55-7.58-.47-15.18,1.81-22.66.31Z"/>
        <path d="M691.8,197.39c.77-.23,3.01-.37,3.04.75-.12,5.21.16,10.45.01,15.66-.02.77-.32,1.48-.35,2.26-.07,1.79.34,7.85-.46,8.99-.35.5-2.96.5-3.3,0-.12-.17-.43-3.48-.47-4.1-.42-6.99.87-14.44.32-21.52.02-.72.48-1.83,1.21-2.05Z"/>
        <path d="M649.25,214.38c.16-.18,2.15-1.39,2.31-1.36,1.32.23,11.72,16.84,13.74,18.89.49,1.2-1.05,3.41-2.44,2.75s-6.73-8.22-7.97-9.97c-1.28-1.81-5.66-7.65-5.9-9.39-.05-.36,0-.65.25-.92Z"/>
        <path d="M646.51,252.47c.26.39-.1,3.14-.48,3.24-6.16-.77-12.63-2.65-17.96-5.83-1.11-.66-3.54-1.91-3.31-3.4.15-.97,1.36-3.17,2.64-2.46,6.11,3.38,12.44,6.37,19.12,8.45Z"/>
        <path d="M728.35,213.67c1.1-.16,2.88,2.09,2.21,3.21-3.69,3.64-6.41,8.63-9.79,12.4-1.84,2.06-3.39,4.18-5.24.66,1.82-2.56,10.47-15.93,12.81-16.27Z"/>
        <path d="M738.97,253.16l20.38-5.89c.88-.02,1.35,2.2,1.33,2.79-.03,1.01-3.61,1.93-4.5,2.2-5.08,1.57-10.43,2.27-15.54,3.73-1.99.36-2.61-1.24-1.66-2.83Z"/>
        <path d="M654.01,242.36c.46.73-1.72,4.76-2.98,4.48-2.95-1.44-6.06-2.57-8.94-4.14-.8-.43-4.39-2.29-4.3-3.1.04-.35,1.67-3.14,2.33-3.08l13.89,5.84Z"/>
        <path d="M673.87,216.61c1.28-.25,1.58.69,2.18,1.61.87,1.34,4.09,7.17,3.3,8.45-.37.59-2.53,1.7-3.25.62-.35-.52-3.66-8.23-3.72-8.7-.13-1.04.46-1.78,1.49-1.98Z"/>
        <path d="M732.92,231.6c1.17-.18,2.22,2.09,1.89,2.88-.29.69-5.57,4.3-6.46,4.65-1.96.76-2.74-1.07-1.88-2.53.32-.56,5.9-4.91,6.45-4.99Z"/>
      </g>
    </g>
  </g>
  <path d="M529.99,300.75c7.54-1.1,16.94,4.15,20.07,11.1,8.2,18.17-1,52.47-10.68,69.21-8.03,13.88-15.06,24.15-24.54,37-5.45,7.38-11.02,16.62-16.94,23.41-2.37,2.72-4.32,1.48-6.33-.61-14.05-14.59-27.09-30.29-40.35-45.65-12.15-14.07-24.09-26.22-28.22-45.14-3.42-15.63,1.89-36.06,16.89-44.05,21.28-11.35,36.3,20.47,43,35.52,1.29,2.9,2.22,6.61,3.65,9.4,1.14,2.23,1.55,1.79,2.47-.28,5.31-11.93,7.04-16.96,15.39-27.4,5.25-6.56,17.07-21.26,25.59-22.5ZM490.45,363.3c-1.51,1.76-4.48-.27-5.54-1.8-2.65-3.83-2.53-6.39-3.37-10.49-1.55-7.6-12.46-29.1-17.88-34.69-4.35-4.48-11.97-9.8-18.44-7.82-11.39,3.48-19.63,20.22-19.48,31.45,0,.76.72,4.61,1.22,4.95,1.6.09,2.58-1,4.28-1.09,1.74-.09,5.33,1.39,6.35.67.96-.67-.74-6.8,3.45-8.37,5.52-2.06,10.68,6.02,11.89,10.5.6,2.22.44,6.54,2.17,8.02,11.27,4.78,22.37,9.93,33.95,13.94,5.64-1.98,10.68-5.63,16.08-8.31,6.08-3.02,12.45-5.51,18.66-8.24,2.01-1.77-2.58-16.13,4.45-16.26,5.67-.11,4.91,8.5,7.15,9.5,1.22.55,3.79.09,5.39.32,4.99.71,6.66,5.59,7.26-3.55.55-8.41,1.63-24-3.34-30.93-2.16-3.02-9.1-6.23-12.78-6.17-3.53.05-8.21,3.78-10.8,6.1-12.08,10.81-24.06,26.97-28.64,42.68-.45,1.54-1.7,9.22-2.02,9.59ZM537.01,374.41c-.47-.31-9.64,0-11.21,0-3.75,0-3.06,11.14-7.63,10.53-6.65-.89-14.01-4.77-20.28-7.48-10.37-4.47-20.72-8.87-31.11-13.31-2.98-1.27-14.69-5.31-15.94-7.29s-1.1-5.44-1.64-7.73c-.46-1.94-3.53-8.95-5.72-8.96-3.28-.02,1.17,6.79-1.45,8.75s-8.95-1.79-9.76-.99c-1.74,1.71,8.07,6.69,6.35,9-.96,1.28-6.38-.26-7.98.79.16,2.67,6.97,3.33,7.3,4.32.8,2.37-3.13,1.95-3.85,3.41-.76,1.55.54,2.45,2.04,2.46,6.53.06,12.72-2.31,19.77-.21,6.89,2.05,12.51,8.55,18.21,12.36,10.62,7.1,32.99,18.09,45.14,21.69,3.33.99,3.58-1.1,5.29-3.72,3.12-4.79,5.48-10.04,8.23-15,1.07-1.93,3.72-5.08,4.34-6.7.19-.5.13-1.75-.11-1.9ZM541.29,349.96c-1.2-.36-6.77,0-8.56,0-2.41,0-1.92-7.34-3.11-8.09-1.06-.67-1.9.19-1.91,1.35-.03,4.32,2.52,7.37-1.29,11.02-4.16,3.99-9.85,5.24-14.82,7.59-4.52,2.14-8.79,4.37-13.03,6.94-1.88,1.14-5.32,1.47-2.19,3.27,2.02,1.16,9.94,4.52,12.1,5.02,4.93,1.13,8.97-3.36,13.03-5.32,1.8-.87,4.33-1.67,6.32-1.83,2.15-.18,9.73,1.22,10.64-.38,1.22-2.14-8.72-4.26-8.33-7.04.43-3.03,4.74-1.43,7.08-1.53.71-.03,7.89-1.29,4.42-2.37-2.08-.65-4.69.88-6.66-1.48-3.44-4.12,6.03-4.05,6.76-5.07.41-.58.2-1.87-.44-2.07ZM466.46,387.4c-2.19,1.4-7.84-5.77-9.52-7.29-2.12-1.92-4.65-3.64-6.74-5.48-1.04-.92-1.7-2.63-2.95-3.16-1.03-.44-4.87-.07-6.18.13-4.62.72-.73,4.14.99,6.27,3.99,4.94,8.71,9.02,12.83,13.66,1.31,1.48,6.08,8.31,7.13,8.76,2.11.89,5.64-.84,7.73-1.63,3.59-1.36,9.76-4.17,12.92-6.23.66-.43,1.25-.88,1.74-1.51l-1.48-1.37c-3.48-.91-9.49-6.12-12.67-6.51-3.36-.41-3.3,4.03-3.82,4.36ZM456.87,374.67c1.64,1.72,4.82,3.52,6.49,5.55.7.64,2.17.02,2.31-.77.18-1.05-8.71-7.6-9.76-6.67-.04.64.55,1.46.96,1.89ZM517.33,377.74c-.94.19-1.68,1.11-2.32,1.76,2.63,3.16,5.85-2.49,2.32-1.76ZM481.32,423.99c2.13,2.25,5.24,4.46,7.41,6.65,1.31,1.32,5.22,7.37,7.11,6.36,7.45-9.84,14.04-20.3,22.21-29.58l.18-1.36c-.23-.67-10.96-4.25-12.6-4.95-4.64-1.97-10.29-5.51-14.97-7.03-4.43-1.44-5.83,1.69-9.2,3.65-2.06,1.2-4.62,2.42-6.81,3.38-1.74.76-8.42,2.39-8.57,4.1-.1,1.06,4.14,5.1,5.12,6.29,3.27,3.97,6.63,8.82,10.12,12.5Z"/>
  <path d="M498.87,41.57c.74,15.11,11.3,28.27,14.31,42.55,2.29,10.86-1.82,20.87,2.57,31.28,4.74,11.25,14.25,10.22,14.5-2.53.15-7.87-4.35-15.34-5.12-23.02,26.55,26.2,10.78,84.53-27.44,94.13-.66-.12,6.48-7.73,7.09-8.22,5.57-4.44,20.6-13.74,21.22-28.8.86-21.12-21.51-31.21-31.48-10.32-.3.12-2.28-3.79-2.66-4.31-14.02-19.38-35.61,6.06-25.37,23.88,5.54,9.65,25.39,14.53,24.87,27.78-37.91-9.83-49.89-63.09-27.2-90.89-1.53,8.3-3.87,15.64-.88,24.01,2.34,6.54,10.52,10.99,11.21,1.25.5-7.07-3.69-11.82-3.99-18.68-.55-12.9,7.36-22.34,12.3-33.22,2.25-4.96,3.88-10.26,5.61-15.42,1.6,9.38-2.9,18.16-4.41,27.07-.75,4.43-.55,17.35,7.28,14.75,6.59-2.19,1.62-22.13,1.36-27.51-.36-7.63-.16-18.6,6.22-23.76Z"/>
  <g>
    <path d="M833.32,349.98c-1.61-2.04-3.36.72-4.66,1.26-1.16.48-3.42.6-4.79,1-.67.19-1.87.62-2.47.93-1.28.64-2.58,2.02-3.81,2.79-.09-.1.83-1.4.94-1.64,1.22-2.62.92-5.62,1.33-8.36.72-4.74,1.66-5.4,4.06-9.15,1.16-1.81,3.53-5.71,3.19-7.82-.22-1.36-2.9-4.41-4.08-5.11-.57-.34-1.48-.4-2.09-.68-.43-.2-.91-.74-1.43-.84-1.15-.21-1.85,1.05-2.74,1.53-.69.37-1.61.37-2.17.73-.78.51-1.11,1.23-.82,2.14-.8-.22-1.63-.91-2.33,0-.84,1.08.51,2.02.67,2.73.3,1.34.29,2.79.69,4.22.67,2.35,2.18,4.16,3.08,6.36,1.4,3.44,2.26,9.5.81,12.96-.25.61-.68,1.35-1.16,1.8v-2.96c0-1.33-3.14-7.29-3.98-8.73-.86-1.48-2.41-3.27-3.01-4.8-.22-.57-.54-2.38-1.07-2.71-.48-.29-1.2-.05-1.36.53-1.44,5.41-1.52,8.01.29,13.37,1.42,4.2,4.1,8.33,3.71,12.9-.15,1.74-1.94,3.81-2.87,5.31-1.47,2.36-3.33,5.78-5.13,7.84-.13.14-.19.31-.43.26-.12-.53.14-1.09.13-1.57-.05-3.42-.35-9.33-2.25-12.24-1.7-2.61-4.38-4.3-6.81-6.15-.73-.56-1.99-2.17-2.91-1.25-.34.34-.27.55-.21.98.16,1.34,1.48,5.23,2.18,6.38.41.66.98,1.1,1.37,1.65,1.73,2.46,2.74,5.44,3.94,8.14,1.07,2.41.82,6.43-.16,8.84-.45,1.1-.61,1.01-1.32,1.7-4.82,4.68-9.65,8.03-15.66,11.02-3.02,1.5-6.16,2.82-9.2,4.27l-.62-.12c-.1-.46-1.36-1.63-1.3-1.93,1.34-1.73,2.57-3.53,3.6-5.46,1.66-3.14,2.05-5.67,1.68-9.17-.12-1.17,0-2.89-1.16-3.63-2.11-1.33-2.22,1.91-2.7,3.07-.56,1.38-2.06,2.52-3.02,3.65-1.74,2.05-3.13,4.54-4.09,7.05-2.07-.75-4.92-1.27-4.37-4.18.26-1.38,2.65-3.17,3.62-4.18,1.14-1.18.98-4.48.57-5.99-.37-1.36-1.28-2.32-1.67-3.62-.43-1.43-.45-3.01-.83-4.46-1.09-4.21-4.07-6.7-8.26-7.6-1.72-.37-3.87-.12-5.6.08-2.47.3-4.99,2.88-6.48,4.73-1.92,2.38-2.73,4.83-3.25,7.82-.98,5.61-.01,13.28,1.54,18.78.19.67.4,1.48.82,2.01-3.41,1.23-5.71,4.41-6.36,7.93-.26,1.42-.15,3.84-.06,5.35.2,3.38.88,6.74.93,10.13.11.09.19.22.19.36,0,.36.02.73.06,1.09.02.17.04.35.07.52.01.09.03.18.04.28,0,.04.01.08.02.12,0,.01.03.16.02.09-.01-.07.02.08.02.09,0,.04.02.08.02.12.02.09.04.18.06.27.04.17.08.34.13.51.09.35.2.7.31,1.04.05.15.02.29-.06.41.37,1.41.88,4.94,1.71,5.37l-.06.06s0,0-.01.01c.02.03.05.04.06.07,0,0,0-.02-.01-.03.05.09.11.17.17.25.14.15.29.28.45.41.15.12.31.24.45.38.16.16.32.31.49.47.36.33.73.67,1,1.09.14.22.08.49-.1.66-.21,1.1-.58,2.08-.66,3.3-.33,4.72-.04,10.77,2.79,14.7.71.99,1.46,2,2.19,2.97,3.02,4.01,5.79,6.1,10.08,8.68,1.09.66,5.78,3.12,6.78,3.29.8.13,2.5.21,3.39.26,2.7.15,7.81-.59,9.16-3.32.27-.54.11-1.04.41-1.47.39.26.7.54,1.13.75.83.41,2.97,1.1,3.85.95,2.7-.46,6.01-3.99,7.01-6.46.37-.91.47-2.84.4-3.85-.43-5.57-5.87-13.01-8.94-17.61-.5-.76-2.05-2.79-2.21-3.58-.12-.6.02-1.36-.03-1.98-.55-6.41-.64-12.85-1.26-19.26-.21-2.2-.23-4.62-.51-6.79-.04-.34-.45-1.16-.36-1.5l.19-.19,6.91-3.17c2.77,1.48,5.83,2.23,8.81,3.15.45.14.96.5,1.41.6,2.43.57,6.67.67,9.16.41,3.05-.33,10.03-2.8,11.32-5.8.38-.9.05-1.9-1.01-2-1.14-.1-3.28,1.26-4.55,1.59-5.03,1.33-8.26-1.21-12.96-1.69-1.46-.15-2.99.03-4.44-.35,2.06-1.25,4.24-2.35,6.23-3.72,3.8-2.61,7.76-6.2,10.51-9.88,2.02-2.71,4.04-5.82,6.17-8.43.67-.82,1.55-1.57,2.19-2.47.14-.2.42-.95.47-.98.16-.1,1.58-.2,2.2-.5,2.31-1.13,5.14-2.75,7.4-4.05,3.72-2.14,8.75-6.52,10.99-10.15.56-.91,1.02-2.05.27-3ZM764.23,400.08c.58-.53,1.41-.98,2.01-1.52l1.58-1.7c.35-.06.93,1.26,1.31,1.44,0,.28-4.53,2.03-5.16,2.2-.05-.24.12-.3.26-.43ZM763.25,404.13c.2-.12,1.41-.6,1.55-.57.28.05.29.98.36,1.23.5,1.82.78,3.65,1.17,5.5.04.18.2,1.12.16,1.16-.18-.03-.96.04-1.01,0-.09-.09-.09-2.2-.14-2.57-.23-1.69-1.01-3.33-2.25-4.55-.05-.25.05-.15.16-.22ZM768.88,462.01c-1.28.69-3.92.92-5.36.81-.36-.03-.64-.22-1-.25-.63-.05-1.55.12-2.11-.03-.58-.15-2.9-1.62-3.66-2.01-1.02-.53-2.13-.95-3.12-1.53-2.66-1.55-5.32-3.57-7.66-5.56.44-.06,1.09.27,1.56.45,2.91,1.15,5.72,3.15,8.76,3.95.71.19,2.02.25,1.84-.83-.2-1.23-3.46-2.08-4.51-2.55-1.35-.61-2.62-1.44-3.95-2.09-3.66-1.77-6.55-2.14-8.11-6.49-1.14-3.19-1.04-6.15-1.12-9.44-.03-.97-.37-3.22.06-3.97.18-.31.39.35.57.56,1.65,1.88,3.8,3.48,4.8,5.77.98,2.24,1.46,3.55,2.92,5.51.47.62.69,2.14,1.77.74.34.85,1.5,2,2.04.66.23-.58-.04-1.43.41-1.79.37,1.04.98,2.48,2.36,1.92,1.24-.5.49-2.48.66-2.67.44.11.76.61,1.23.72.83.19,1.38-.05,1.53-.92.08-.44-.18-1.72-.34-2.16-.17-.48-.83-1.11-.91-1.61-.05-.28.46-.29.63-.26.98,1.29,2.05,2.49,3,3.8,3.09,4.26,6.79,9.59,8.71,14.45.4,1.02.49,2.04.86,3.05.02.24-1.56,1.58-1.86,1.74ZM775.18,435.81c-.08-1.01.84.82.94.95,1.07,1.41,1.43,2.1,2.3,3.62,2.25,3.92,5.06,7.84,5.07,12.57,0,2.55-3.52,6.36-6.02,6.71-.42.06-3.93-.89-4.47-1.13-.72-.32-.42-.72-.67-1.34-2.05-5.14-5.98-10.78-9.44-15.11-1.41-1.77-3.03-3.38-4.4-5.18-.22-.5.52-1.14.65-1.61l1.31-1.65c-1.25-.04-2.44,1.02-3.13,1.97-.14.19-.3.87-.58.8-.07-.02-.64-.98-.82-1.19-1.32-1.53-2.94-2.16-4.52-3.28-2.47-1.77-3.5-3.89-5.24-6.21-.75-1-2.53-2.48-2.68-3.61-.36-2.63,0-5.29,0-7.92-.01-2.36-.46-4.67-.39-7.05.01-.37.34-1.54.01-1.76-.53-.36-.81.31-1.06.72-1.24,2.03-.46,3.61-.33,5.71.1,1.68-.06,3.47,0,5.16.07,1.9.11,4.71.83,6.34.89,1.99,2.25,2.51,3.45,4.1.54.71,1,1.76,1.57,2.46.69.84,2.07,1.71,2.95,2.47.54.46,1.13,1.23,1.71,1.69,1.13.9,2.5,1.4,3.33,2.71l-.5.19.03.29c.53.98,3.07,4.55,2.82,5.51-.18.67-.61.2-.94-.08-1-.86-1.62-2.53-2.62-3.42-1.75,0-.18,1.73.18,2.47.52,1.08.81,2.24.54,3.43-.2.04-.29-.02-.45-.12-.8-.51-1.84-4.09-2.38-4.13-.92-.07-.34,1.89-.31,2.42.03.61.03,1.25-.13,1.83-.26.19-1.04-1.93-1.1-2.11-.16-.51-.08-2.08-1.04-1.61-.77.38.63,2.67.13,3.03-.14.1-.25.09-.39,0-.47-.3-1.3-3.93-1.82-4.6-.38-1.33-1.59-4.03-2.51-5.04-2.32-2.53-5.43-5.01-7.56-7.67-1.33-1.66-1.1-2.87-1.48-4.81-.29-1.49-.36-1.77-.46-3.31-.17-2.7-.89-5.46-1.14-8.18-.32-3.45-.61-7.8.96-11,.97-1.97,3.12-3.52,4.92-4.78,1.51-1.06,5.61-3.01,5.95-4.87.24-1.29-.12-4.1-.77-5.26-.82-1.46-1.94-1.14-3.13-2.03-.64-.48-2.15-2.39-2.26-3.16-.19-1.4,1.51-2.55,2.08-.94.16.45.39,2.22.62,2.41.44.38,1.03-.34,1.15-.77.24-.93-.15-3.41-.35-4.43-.3-1.51-1.32-3.45-1.07-4.92.48-2.77,2.32-6.46,5.46-6.88,1.18-.16,2.82.11,3.76-.01.73-.1,1.72-.77,2.4-.76,2.42.02,4.19,3.85,4.84,5.8-.74-.2-2.65-.13-3.19.39-1.07,1.03,1.69.38,1.96.39.28.01,1.43.4,1.55.6.25.37.14,1.92.2,2.44.3,2.54,2.33,3.26,2,6.81-.19,1.97-.86,2.1-1.88,3.4-.37.48-.71,1.13-1.07,1.58-.66.82-1.42.98-1.56,2.21-.12.97.14,2.11.74,2.88.58.75,3.13,1.82,4.12,2.29.45.21.83-.07.62.69-.24.88-1.09,2.62-1.51,3.52-.84,1.81-1.79,3.48-2.98,5.08-2.6-.42-6.01-.77-8.24.94-4.52,3.45-5.22,8.06-3.81,13.38,1.15,4.36,6.69,7.14,10.98,6.76,2.5-.22,5.33-2.91,6.66-4.92.19-.29.27-.79.58-1.06.62.03,1.21-.31,1.76-.39.72-.1.16,1.08.13,1.53-.15,2.27.26,4.55.38,6.79.06,1.15.14,3.01-.42,3.99-.73,1.27-2.51,2.2-2.73,4.07-.22,1.84.83,2.68,2.55,1.92l.98-.72c.02.37-.14.69-.14,1.07.03,1.25.54,3.95,1.65,4.65.92.58,1.69-.15,1.88-1.06.3-.22.78,1.16,1.8.85.77-.24.68-1.38.91-1.48.25-.11.17.28.31.44.66.71,1.81.09,2.06-.71.21-.66.02-1.09-.03-1.69ZM747.57,412.99c-2.54,1.08.67,5.24.91,5.48.61.59,6.25,3.27,7.13,3.43,2.35.44,3.82-1.33,5.89-2.66.33-.21,1.06-2.83.8-1.95-.13.46-1.56,1.93-2,2.28-2.79,2.22-5.8,1.99-8.89.48-2.5-1.23-4.4-2.92-4.57-5.88-.03-.51,1.23-1.4.72-1.18ZM772.78,428.27c.11,1.02.59,2.26.62,3.29.01.5-.19,1.01-.11,1.62.13.87,1.67,3.66.75,4.29-.37.25-.61-1.44-.67-1.6-.2-.59-.93-2.64-1.66-2.59-.81.06-.25,1.66-.2,2.06.11.94.15,1.88.26,2.82-1.29-.2-.79-2.23-.88-3.21-.04-.45-.22-1.64-.79-1.56-.77.11-.41,1.56-.47,2.18-.04.37-.43,2.53-.57,2.71-.45.61-.94-.92-1.03-1.23-.25-.9-.29-2-.47-2.93-.06-.29-.28-.59-.3-.71-.03-.19.89-.75-.18-1.2-.99-.42-1.46,2.22-2.55,1.43-.64-.46.14-1.9.47-2.44.43-.71,1.11-1.5,1.68-1.97,1.22-1,.58-5.91.56-7.49-.02-1.22-.22-5.25.26-6.14.07-.13.47-.34.63-.41,1.37-.63,2.85.13,4.28.06.14,1.82-.22,3.67-.13,5.48.12,2.36.26,5.21.51,7.55ZM772.27,410.9c.07.84.09,1.73.13,2.58-1.67-.74-3.14-1.85-5.03-2.02.25-1.39-.35-2.49-.6-3.74-.21-1.06-.34-2.17-.56-3.21-.09-.43-.57-1.18-.15-1.46l4.4-1.9c.18-.03.22.09.28.22.17.34.55,1.81.64,2.25.46,2.18.7,5.06.89,7.29ZM822.11,326.8c.02-.47-.23-1.04-.12-1.55.26-.27,1.52,1.22,1.76,1.01.09-.08,0-1.01.31-.88,1.03.43.91,2.3.82,3.21-.34,3.56-3,6.19-4.54,9.18-.46.89-.79,2.05-1.19,2.96-.07.15-.12.35-.31.38-.18-.75.19-1.43.25-2.08.05-.53-.06-1.1,0-1.63.1-.76.75-1.36.76-2.02,0-1.77-1.81-2.07-1.65-4.03.21-2.41,3.8-2.48,3.89-4.55ZM817.53,325.75c.92-.51,1.98-1.85,3.03-1.89.9-.03.08.57-.01.76-.08.16-.05.46-.07.49-.04.04-.72-.02-.93.02-.71.12-1.42.72-1.96,1.18-.95.82-1.56,2.3-2.89.88,0-.3,2.47-1.24,2.83-1.44ZM816.9,336.32c-.11-.02-.88-.83-.95-.94-.2-.32-.61-1.03-.78-1.36-.66-1.28-.77-3.82-1.39-5.28-.4-.95-1.11-.43-1.35-1.23,1.63.26,1.89,1.94,3.71,1.63.86-.15,2.84-2.84,3.58-2.25.01.01.12.3.08.37-.1.17-1.23.94-1.45,1.2-.78.87-1.05,2.39-1.01,3.52.03.83.57,1.77.5,2.5-.06.69-.77,1.17-.94,1.84Z"/>
    <path d="M752.67,378.51c.06-.11,1.9-1.24,2.13-1.33.6-.25,1.89-.3,2.51-.14.4.1,1.65.69,1.64,1.14,0,1.23-1.42.01-1.84-.06-.29-.05-1.93.08-2.23.15-.6.13-.81,1.01-1.67.99-.39,0-.73-.4-.54-.74Z"/>
    <path d="M747.96,370.84c.41-.03,1.89.13,1.15.65-.42.3-2.01.54-2.63.89-.65.38-1.25,1.65-2.06,1.42-1.05-.31.54-1.75.93-2.04.65-.48,1.8-.86,2.61-.92Z"/>
    <path d="M751.11,374.22c.4.71-1.56.81-1.87.93-.06.02-.73.48-.83.56-.34.27-.42.94-1.01.51-.35-.5,1.11-2.04,1.59-2.2.43-.15,1.87-.23,2.12.2Z"/>
    <path d="M757.89,371.97c1.1-.15,1.77,1.43,1.23,1.48-.23.02-.91-.52-1.76-.37-.27.05-1.34.66-1.06-.3.07-.23,1.33-.78,1.58-.82Z"/>
    <path d="M755.28,375.72s.19-.28.07-.5c-.16-.32-1.32-.34-1.02-.76.57-.8,3.09-.04,2.08,1.08-.24.27-.93.4-1.14.19Z"/>
    <path d="M776.9,456.17c.64-.18,1.99,1.24,1.04,1.68s-1.94-1.43-1.04-1.68Z"/>
    <path d="M756.63,424.45c.85-.24,1.38,1.6.34,1.75-.95.14-1.04-1.55-.34-1.75Z"/>
    <path d="M754.53,379.11c-.16-.6.69-.44,1.17-.53.38-.07.59-.36,1.14-.2.71.22.06.76-.37.82s-1.39-.22-1.93-.09Z"/>
    <path d="M741.93,379.88c.41.61-.18,1.3-.52.58-.23-.48.01-.67.52-.58Z"/>
    <path d="M764.6,461.18c-.55-.79,3.27.03,1.89.69-.82.4-1.24-.44-1.89-.69Z"/>
  </g>
  <g id="Pl573p.tif">
    <g>
      <path d="M792.82,39.61c-1.11,1.85-6.87,2.91-8.57,3.88-1.06.61-2.3-.32-3.13-1.12-1.17-1.12,9.25-8.89,11.77-5.08.47.71.34,1.62-.07,2.31Z"/>
      <path d="M800.81,42.85c.16.46,1.78,3.4.77,3.62-1.15-1.83-8.51-5.62-5.15-8.67,2.22-2.01,3.91,3.73,4.38,5.04Z"/>
      <path d="M792.49,62.81c2.44-1,.66,2.42.69,2.6.57,3.18,3.09-5.8,4.43-3.9.66.94-1.62,4.14-1.65,5.2-.04,1.49,1.76,2.13.77,4.52-1.04,2.51-4.37,1-6.19,1.09-1.65.08-2.61,1.56-4.7.45-1.94-1.03-1.71-5.3-.2-6.33.89-.61,2.31-.17,2.65-.62,1-1.3-.85-8.31,1.73-7.83,2.03.23.03,7,1.15,6.68.37-.19,1.2-1.81,1.3-1.85Z"/>
      <path d="M783.6,74.56c-1.76-.52-5.85,7.05-6.73,5.54-1.18-2.02,5.75-9.19,6.73-5.54Z"/>
      <path d="M781.12,66.29c-.44.41-7-2.74-8.39-2.05-1.96-4.28,10.29.31,8.39,2.05Z"/>
      <path d="M802.62,68.16c-.74.29-3.79,1.34-3.89-.23-.05-.83,5.96-2.71,6.28-1.98.52,1.17-1.64,1.91-2.4,2.21Z"/>
      <path d="M798.33,78.53c-.4-.32-.81-1.27-1.2-1.57-.5-.38-3.15-.95-2.93-1.72,1.69-1.66,6.74,1.95,6.01,3.73-.46.95-1.33.01-1.88-.43Z"/>
      <path d="M887.39,64.34c-6.72-11.12-30.53-7.05-42.98-6.85-.8.13-1.62.19-2.44.15-.78-.04-1.57-.1-2.35-.17-.26-.02-.51-.05-.77-.07-.07,0-.26-.02-.43-.04-.14,0-.31-.01-.4-.02-.83.32-1.45.38-1.77.11-.92.19-1.8-.03-2.58-.53-.42,0-.84,0-1.27-.05-.17-.02-.32-.11-.48-.16-2.31-.01-4.63-.11-6.92-.4-2.02-.26-4.13-.56-6.1-1.08-.49-.13-1.01-.45-1.52-.67l-.69-.04-.64-.21c-.21,0-.42.06-.64.01-.29-.1-.57-.19-.86-.29-.03-.01-.05-.05-.07-.06-.16-.03-.32-.02-.48-.09-.25-.06-.45-.23-.66-.36-.43-.08-.87-.17-1.13-.33-.4,0-.81-.02-1.21-.08-.39-.05-.83-.24-1.17-.36-.05-.02-.09-.04-.14-.06-.03-.01-.05-.03-.07-.04-.24-.14-.58-.37-.81-.53-.04-.03-.09-.07-.12-.1-.25-.25-.51-.51-.71-.81-.06-.08-.09-.18-.14-.27-1.65-.28-2.64-1.54-2.9-2.95-1.21-1.73,3.06-5.28,3.94-6.07.54-.48,2.91-1.51,3.52-1.51h5.29c1.66-.49,7.38,0,9.07-1.25,1.14-.84.98-2.18,1.19-2.81-.09-.13-.18-.27-.28-.4-.07-.07-.15-.14-.23-.21-.27-.05-.54-.11-.81-.16-.24-.04-.48-.08-.72-.15-.07-.02-.14-.05-.2-.07-3.11.81-5.68.93-9.26,1.8-2.13.52-3.83,1.64-5.94,1.98,4.13-4.09,3.85-9.76,9.4-12.63,2.42-1.25,7.23-1.42,7.91-4.93.93-4.78-6.8,1-8,2.07-1.3,1.16-2.24,3.11-3.77,4.16,1.31-6.78,7.85-11,5.77-18.49-1.56-5.6-3.71-2.01-4.49,1.32-.94,4.04-.26,8.32-1.04,12.38-1.27-2.04-2.92-9.08-5.71-9.26-2.08-.13-4.04,2.55-2.6,4.29.57.69,1.88.5,2.74,1.86.54.84,3.2,6.69,3.29,7.53.54,4.92-2.33,9.06-5.56,12.4-.29.12-.68.08-.86-.2-.18-.3-.41-5.43-.85-6.94-.14-.47-2.4-5.71-2.65-5.91-1-.82-2.56.92-2.78,1.76-.99,3.68,5.75,9.83,4.74,14.31-.47,2.11-2.63.64-3.09,2.95-3.28-.49-7.02,1.16-10.16.79-2.6-.31-3.79-3-6.68-.39-1.59,1.43-1.58,4.53-4.5,3.65-.46-5.48-6.37-4.71-3.88-10.15,1.96-4.29,7.95-6.35,8.24-10.4.33-4.57-3.5-2.87-5.56-.76-3.25,3.31-3.01,8.28-4.79,12.09-2.03-2.89-4.97-7.14-4.65-10.96.35-4.19,4.23-7.4,5.32-10.8.48-1.5,1.48-8.16-.04-8.83-2.62-1.14-5.49,6.74-6,8.63-.61,2.25-.53,5.15-1.03,7.22-.09.38.16.44-.5.37-.47-.51-2.91-12.3-3-13.49-.2-2.85,1.99-10.66-.61-12.6-.2-.15-.42-.32-.68-.21-2.43,2.97-2.72,6.88-2.53,10.59l4.54,13.08-.62.12c-1.36-1.04-9.64-8.84-10.72-7.95-3.69,3.06,12.87,12.28,13.86,13.86.79,1.25.63,3.03,1.29,4.45.19.42,4.21,5.07,3.75,5.49-3.24-.88-5.61-4.41-9-5.21-3.35-.79-7.02.31-9.73-.07,1.74.19,13.92,5.78,15.58,6.04.85.13,2.98,1.15,3.61,1.93.41.52,5.92,6.43,6.02,7.05.15.86.18,1.2-.8,1.43-1.47.13-3.79,2.78-4.61,1.83-1.85-2.15-12.21,3.11-14.43,1.65l.21,1-18.89,1.64c-11.21.23-23.4-3.63-34.47-2.76-22.51,1.76-19.98,25.21-9.15,38.59,6.31,7.8,16.96,12.56,22.78,19.88,2.36,2.97,3.34,7.08,6.53,9.46.58.43,1.43.08,1.99.52.76.6,1.55,10.97,5.62,6.14,1.84-2.18.93-6.3.54-8.9,6.98,6.65,9.67,2.29,4.03-4.28,7.47,3.46,14.51,2.7,5.54-5.16.14-.49,8.32-1.11,7.26-4.23-.58-1.7-8.13-1.28-8.26-2.32,3.88-3.14,8.46-9.1-.76-6.67-.46-.46,5.49-10.9-5.21-1.3l-.59-.08c-.62-6.88-8.87,1.93-11.46,2.38-6.99,1.21-21.36-13.5-23.27-19.99-2.26-7.65.34-9.58,7.5-10.88,8.6-1.56,17.23-.05,25.85.43.53-1.47-1.77-1.33-2.77-1.51-6.54-1.14-31.99-3.23-33.07,6.19-.71,6.19,4.72,14.03,8.92,18.22,2.79,2.79,11.71,9.42,15.53,9.49,4.09.08,7.23-4.75,11.02-5.21.37,2.47-8.39,7.24-8.29,7.89.41.73.83.68,1.55.61.6-.06,13.64-6.35,8.48-1.86-1.25,1.09-8.43,3.22-8.03,4.29l11.57,1.26c-2.39,2.95-11.31.45-13.04,1.43-2.67,1.5,6.2,5.58,6.02,6.88-.45,3.2-8.67-6.34-8.17-2.41.17,1.32,3.27,5.4,1.99,7.33-2.21-1.43-2.6-4.15-3.97-6.11-9.73-13.88-26.74-16.77-31.33-36.35-7.43-31.67,29.95-20.38,46.87-19.7,7.09.29,14.29.07,21.28-1.01-.69,1.91-.64,2.74.25,4.53-7.09.07-14.18.4-21.28.01-10.11-.55-38.81-7.45-42.83,5.22-5.63,17.77,9.94,29.61,23.25,37.77.78.48,3.41,2.24,4.19,2.01.34-.13.68-.46.68-.84,0-1.16-16.2-11.38-18.64-13.83-7.48-7.51-15.6-27.1-.55-30.52,7.23-1.65,25.92.51,34.15,1.18,6.77.56,13.48,1.68,20.27,2.02-2.49,6.06,6.65,3.17,6.5,8.75-.03,1.31-3.13,2.32-3.75,4.19-1.38,4.15,3.38,2.84,4.28,4.06.69.94-.3,2.93.07,4.23.19.68,2.53,2.05,2.72,2.3.91,1.19,2.04,6.55,2.95,8.61,4.97,11.26,14.32,18.87,11.66,32.92-.31,1.65-2.14,4.52-2.51,6.56-1.47,8.16,2.34,10.64,4.14,17.22.72,2.64,1.57,19.3,6.65,9.61,2.06-3.93,1.37-7.53,2.29-11.43,1.19-5,4.24-10.85,3.25-16.11-.43-2.27-4.08-5.06-4.24-8.15-.57-11.28,15.08-28.88,18.08-42.06.62-2.72.24-9.01,2.19-11.33.41-.48,2.71-1.38,3.61-2.2,2.18-1.99,5.24-5.22,3.27-8.18,6.48-.24,13.03-.33,19.51-.76,13.33-.87,46.69-7.9,40.37,16.4-2.23,8.59-14.45,17.46-21.39,22.97-.5.4-9.05,5.54-2.83,3.46,2.71-.91,19.44-14.31,21.48-16.85,5.31-6.58,8.86-19.95.54-25.64-9.33-6.37-28.58-2.25-39.42-1.59-6.6.4-13.26.38-19.86.76-.51-.21-1.54-5.2-1.05-6.06,8.78,1.98,17.7,2.2,26.7,2.03,17.11-.32,47.65-7.17,41.41,20.76-3.96,17.73-18.65,20.28-28.45,31.97-2.52,3.01-3.42,6.75-6.42,9.18-.93-1.68,2.73-7.94,2.14-8.56-1.12-.58-7.26,6.01-8.05,3.64-.52-1.54,7.59-4.23,6.18-6.66-.83-1.43-11.35,1.15-13.22-1.65-.13-.68.08-.68.65-.78,1.44-.25,10.01.85,10.65-.5.09-.4.08-.68-.23-.98-.48-.47-6.24-1.98-7.78-3.29-.41-.35-1.73-1.39-.6-1.84,1.49-.6,9.7,4.99,10.64,3.1.35-.7-2.85-2.04-3.49-2.52-.45-.34-5.75-4.58-4.81-5.38,3.72-.15,7.11,4.93,10.74,5.01,6.97.14,23.23-15.08,24.18-22.07,2.71-19.97-38.22-16.16-48.73-9.96-.48.28-5.48,3.87-3.55,3.76.27-.02,3.5-2.75,4.36-3.2,10.66-5.65,55.18-9.01,44.79,13.06-2.44,5.17-13.93,15.1-19.41,16.6-5.39,1.48-11.4-9.45-14.51-2.19-.88-.82-5.57-5.59-6.55-3.77-.81,1.22,1.36,3.84,1.13,4.65-1.24.36-2.06-.62-3.63-.36-4.88.81,1.74,5.76,2.88,7.41-.24.86-18.36,1.11-1.01,6.55-9.2,7.94-1.32,8.41,5.8,4.91-5.76,6.17-3.49,11.08,3.77,4.53-1.03,2.1-.84,9.87,2.21,10.02,3.25.16,3.2-7.26,3.87-7.72.24-.16,1.1.09,1.49-.15,3.99-2.41,4.21-5.82,6.88-9.11,6.96-8.61,19.49-13.7,25.53-23.66,3.61-5.95,6.62-18.73,2.87-24.95ZM782.45,28.36l-3.47,7.47c-.06.07-.66.36-.68.33.72-2.8,1.6-5.96,4.15-7.8ZM806.67,52.44l4.4,1.76-4.63,3.8c-3.39,1.32.4-3.91.23-5.56ZM783.39,51.29l.96,5.91c-3.66,1.65-5.38-.79-7.51-3.34.08-.46,6.06-2.95,6.54-2.57ZM820.88,66.29c.14.27-3.83,3.85-4.29,4.13-4.47,2.67-6.03.35-10.44.63-.99.06-1.81.63-2.78.74-1.65.18-6.79-.7-5.39,1.7.38.66,8.14,4.87,9.29,6.8,1.21,2.04.29,6.41-2.34,6.9-2.94.54-4.45-2.71-7.33-.28-1.21,1.03-3.09,6.73-5.03,2.54-1.83-3.96.08-12.8-1.63-14.49-.69-.68-3.36-.51-4.17-.14-.83.38-5.02,6.66-6.16,7.94-2.46,2.74-3.65,4.67-7.68,4.42-7.39-.46,1.37-7.69-7.75-7.8-.77-.51,2.12-2.83,2.79-3.21,3.96-2.24,10.67-1.69,12.16-6.98-.12-1.03-5.62-1.37-6.7-1.39-1.97-.04-13.45,2.17-11.57-2.02.35-.78,2.61-1.09,2.88-3.17.34-2.64-1.62-2.62-1.76-3.04-.55-1.63,3.97-4.88,5.35-5.2,7.98-1.84,9.44,5.12,15.01,7.68.12.06-.14,1.4,1.62.91,3.42-.96.46-7.07.25-8.95-.21-1.85.21-5.86,1.81-7.1,1.63-1.26,2.2.55,3.86,1.18,4.21,1.61,9.23-1.75,11.32-.87,1.39.59,1.64,5.74,1.5,7.05-.47,4.39-3.94,5.9-4.49,9.9,5.52,1.66,8.08-7.49,12.12-8.57.74-.2,5.31-.49,5.49,0-.98,4.93-.99,8.47,4.06,10.68Z"/>
      <path d="M795.87,60.9c-.19.27-.82.74-1.04,1.11-1.35.1.57-5.27,1.48-4.98,1.3.42.05,3.15-.44,3.87Z"/>
      <g>
        <path d="M746.76,67.8c9.99,1.59,12.14,17.01,15.5,24.21,5.16,11.04,18.49,20.3,16.31,34.54-.54,3.5-3.86,4.74-4.39,6.94-2.11,8.73,7.38,17.28,9.37,25.38.3,1.22,1.82,11.35-.79,10.64-.39-2.62-.03-5.01-.6-7.72-1.75-8.29-13.54-20.84-9.33-29.64,1.03-2.14,3.9-3.12,4.39-5.93,1.79-10.28-10.65-20.73-14.96-29.17-4.62-9.05-4.19-20.79-13.19-26.77l-9.74-2.47c2.27.25,5.25-.34,7.43,0Z"/>
        <path d="M823.54,77.25c-1.94,5.53-2.77,10.21-5.35,15.65-3.33,7.04-17.25,23.99-16.32,30.28.44,2.93,4.17,5.79,5.15,8.75,2.98,9.02-6.29,20.9-7.78,31.65-.32,2.34-.08,7.91-.51,9.5-.04.15-1.81,2.02-2.13,2.21-2.44,1.55-16.85,2.21-14.1-4.05,1.53-.29.56.91.93,1.85.82,2.13,12.25,2.41,13.17-.31.43-7.77,1.28-15.89,4.32-23.1,2.57-6.08,6.29-8.03,4.78-15.98-.95-4.99-5.76-6.96-5.46-12.4.32-5.89,11.99-19.97,15.28-26.24,3.79-7.21,5.2-15,9.13-21.97,1.12-.37-.96,3.69-1.13,4.17Z"/>
      </g>
    </g>
  </g>
  <g id="awt0D6.tif">
    <g>
      <path d="M179.4,216.29c12.04,3.06,15.91,5.98,20.24,17.37,6.15,16.2,6.15,47.62,4.22,65.06-.55,4.98-2.09,10.53-2.65,15.59-1,9.04-.08,17.3-3.71,26.01-.71,1.7-4.55,7.04-6.3,7.48-.71.18-1.82-.17-2.57.06-6.92,2.07-11.01,2.68-18.08,3.44-23.8,2.56-47.57,3.62-71.33.4-1.45-.2-1.79-.97-2.72-1.18-2.27-.51-4.54-.14-6.49-.48-3.09-.54-6.69-1.93-9.88-2.22-1.42-.13-1.79.63-2.44.62-3.91-.08-11.58-4.08-12.95-7.97-.53-1.5-.21-2.92-.51-3.79-.13-.38-.87-.45-1.09-1.16-2.21-6.87.21-15.18.92-22.04,1.06-10.22,1.03-19.71,1.24-30.13.14-7.07.46-14.14.41-21.32-.08-11.53-2.46-34.58,10.27-40.55,4.13-1.94,12.31-4.3,16.69-5.44,11.73-3.07,22.65-.42,34.61-1.67,5.73-.6,14-3.26,19.26-3.06.49.02,2.09.8,2.5.82.47.03.77-.46,1.21-.43,5.19.41,10.64,1.82,15.8,2.66,4.39.72,9.03.83,13.35,1.93ZM158.62,235.23c-1.99-2.77-4.27-9.73-3.7-13.12.22-1.28,3.04-5.13,2.61-5.58-.11-.11-2.63-.88-2.96-.93-6.03-.98-10.63-.42-16.42.4-5.24.74-10.51,1.35-15.72,2.26-2.61,6.49-4.95,17.59-2.08,24.18,1.45,3.32,11.81,14.07,15.29,15.05,2.8.78,6.53.86,9.58,1.7s5.91,2.63,8.97,3.32c3.62.81,8.05.8,11.83,1.29,5.12.65,8.3,1.98,13.69,1.17l8.97-2.41c-1.59-3.07-2.65-6.35-3.25-9.76-.27-1.55-.75-4.63-.86-6.12-.08-1.1.63-1.82.59-2.45-.19-2.8-1.25-7.49-1.18-10.05.03-1.21.89-2.31.64-3.65l.48-.35.51.42c-.4-1.52,2.95-6.35,2.43-7.15-2.63-1.08-5.31-1.74-7.73-3.25-6.52-1.62-13.26-2.3-19.92-3.33.44,1.88-1.12,3.01-1.65,4.6-1.5,4.52.44,8.87,3.46,12.2.63.7,3.55,1.75,1.58,3.49-.98.86-4.54-1.02-5.17-1.89ZM119,218.27c-1.55-.84-2.68.05-4,.01-4.22-.13-8.95-.77-13.13-.64-5.15.16-25.24,6.31-28.53,9.9-6.71,7.32-5,29.8-4.95,39.2.02,3.11-1.12,10.9-.75,13.23.1.63,2.71,4.81,3.18,6.05,3.13,8.16,4.53,15.41,8.1,23.87,3.46,8.18,6.59,17.36,11.4,24.83,2.58,4.02,5.97,7.72,8.79,11.6.8,1.1.19,2.06,1.97,2.49,11.95,2.91,34.17,2.47,46.67,1.2.37-.04.7-.55,1.08-.58.77-.05.62.65.81.63,2.95-.35,5.84-1.57,8.91-1.03-2.68-1.38-5.74-1.85-8.48-3.09-4.76-2.16-8.87-5.96-13.29-8.24-1.3-.67-3.83-.97-5.52-2.06-2.89-1.87-5.85-5.74-8.4-8.09-.18-.17-.86.07-.99-.05-.09-.08-.21-1.27-1.03-2.15-1.99-2.11-6.47-4.41-8.49-6.47-4.44-4.53-4.61-9.09-6.9-14.38-1.01-2.33-2.79-4.52-3.81-6.89-2.96-6.85-3.4-12.92-5.24-19.77-1.55-5.77-4.49-12.09-5.97-18.01-.97-3.89-1.1-9.01-2.43-12.73-.53-1.5-2.72-2.57-1.58-4.74.94-1.28,3.26,2.6,3.65,3.34,1.95,3.71,1.56,6.29,2.54,9.92,4.86,18.16,10.19,35.58,17.73,52.77.84,1.91,2.37,4.73,3.83,6.2,5.17,5.18,11.48,3.07,18.15,3.89-.68-.84-.99-1.67-1.29-2.7-2.8-9.69-6.24-22.48-6.49-32.44-.07-2.74,1.81-3.99,2.84-1.21,1.02,2.76.76,7.59,1.27,10.62,1.07,6.29,2.71,13.36,5.04,19.34.11.28.97.42,1.08.82.41,1.58-.03,4.15-.09,5.79,8.14.39,16.25.12,24.39-.21,1.48-.43.31-1.81.41-2.35.14-.84.9-1.75.94-2.45.76-12.81-3.35-26.41-6.43-38.67-1.93-7.66.39-10.29-9.1-11.6-13.73-1.89-27.48,3-35.45,14.77-.97,1.44-2.08,7.01-4.4,5.87-1.14-.56-.95-2.21-.62-3.21,1.4-4.26,14.91-16.38,19.28-18.28,2.48-1.08,5.75-1.8,8.44-2.28-2.51-1.89-4.29-4.47-6.44-6.68-.83-.85-2.8-1.97-3.7-2.96-4.68-5.19-6.92-13.44-5.81-20.34.16-1.01,1.47-1.06.78-2.48l2.05-9.55ZM200.35,260.1c-.66-.43-7.05,4.86-8.54,5.05l-13.37,3.65c3.07,1.17,7.74,3.74,9.97,6.12,7.92,8.43,6.1,30.23,7.25,41.22.06.62.11,2.98.93,2.52,2.09-13.23,4.72-26.68,3.82-40.02,1.18-6.09.5-12.4-.06-18.53ZM165.73,268.07c.33-1.17-9.66-1.49-10.45-1.63l2.26,9.83c.54.34,4.44-5.4,5.21-6.15.35-.34,2.93-1.87,2.98-2.04ZM184.26,276.4c-4.65-4.54-12.41-8.77-18.43-4.64-10.49,7.19-4.89,14.74-3.39,24.31,1.16,7.41.74,15.02,1.8,22.43,3.57.5,6.76,1.65,10.43,1.65,1.89,0,4.44-.97,5.93-1.05,2.58-.13,6.24.58,9.02.21,4.24-.57.88-5.4,1.32-8.32.1-.68.73-.78.84-1.61,1.24-8.85-.98-26.59-7.52-32.98ZM190.45,343.21c4.32-3.41,5.53-11.8,6.04-17.02.06-.65,1.27-1.7.06-2.75l-26.22-.02c-8.27-2.72-17.41-.99-25.81-1.02-7.36-.03-14.68-.7-22.04-.62,1.81,1.27,3,3.36,4.53,4.8,3.3,3.1,6.36,5.29,10.23,7.19,5.95,2.92,11.72,7.43,17.54,9.52,10.27,3.7,26.2,7.41,35.67-.07Z"/>
      <g>
        <path d="M164.66,244.55c1.23,1.02-2.71,9.1.05,10.91.71.47,1.58.19,1.81.34,1.04.7-.39,8.38-3.66,4.38-.92-1.12-2.57-7.58-2.48-9.03.07-1.1.87-2.17,1-2.89.05-.29-.53-.72-.47-1.32.13-1.33,2.15-3.62,3.74-2.39Z"/>
        <path d="M140.59,247.1c-.11-.12-.42-.89-.46-1.08-.36-1.78-1.32-9.69-1.26-11.26.01-.36.49-1.38.73-1.53,3.3-2.05,2.97,7.67,3.19,8.9.28,1.53,1.38,1.59.96,3.86-.32,1.71-1.95,2.49-3.16,1.11Z"/>
      </g>
    </g>
  </g>
</svg>