<?xml version="1.0" encoding="UTF-8"?>
<svg id="Lag_1" xmlns="http://www.w3.org/2000/svg" viewBox="0 0 1374.04 1374.04">
  <defs>
    <style>
      .cls-1 {
        fill: #c28488;
      }
    </style>
  </defs>
  <path class="cls-1" d="M444.25,429.09c0-4.32-1.4-7.69-4.18-10.12-2.79-2.43-6.43-3.64-10.93-3.64-4.77,0-9.04,1.51-12.82,4.52-3.78,3.02-6.43,7.13-7.96,12.35h35.63c.18-1.44.27-2.47.27-3.1Z"/>
  <path class="cls-1" d="M284.06,902.23c-3.42,0-6.8.88-10.12,2.63-3.33,1.76-6.21,4.3-8.64,7.62-2.43,3.33-4.05,7.24-4.86,11.74-.36,2.34-.54,4.05-.54,5.13,0,5.31,1.55,9.45,4.66,12.42,3.1,2.97,6.99,4.45,11.67,4.45,3.51,0,6.93-.9,10.26-2.7,3.33-1.8,6.21-4.36,8.64-7.69,2.43-3.33,4.05-7.29,4.86-11.87.27-1.8.41-3.42.41-4.86,0-5.31-1.53-9.45-4.59-12.42-3.06-2.97-6.97-4.45-11.74-4.45Z"/>
  <path class="cls-1" d="M368.81,901.82c-4.59,0-8.66,1.31-12.21,3.91-3.56,2.61-6.32,6.1-8.3,10.46-1.98,4.36-2.97,8.97-2.97,13.83,0,2.34.27,4.45.81,6.34l33.47-30.77c-2.79-2.52-6.39-3.78-10.8-3.78Z"/>
  <path class="cls-1" d="M350.32,942.98c2.7,2.43,6.16,3.64,10.39,3.64,4.5,0,8.59-1.3,12.28-3.91,3.69-2.61,6.57-6.07,8.64-10.39,2.07-4.32,3.1-8.86,3.1-13.63,0-2.43-.32-4.54-.94-6.34l-33.47,30.63Z"/>
  <path class="cls-1" d="M433.99,622.34c3.51,0,6.93-.88,10.26-2.63,3.33-1.76,6.18-4.3,8.57-7.63,2.38-3.33,3.98-7.24,4.79-11.74.36-2.34.54-4.05.54-5.13,0-5.31-1.55-9.45-4.66-12.42-3.1-2.97-7-4.45-11.67-4.45-3.51,0-6.91.86-10.19,2.56-3.28,1.71-6.14,4.21-8.57,7.49-2.43,3.28-4.05,7.18-4.86,11.67-.27,1.71-.41,3.33-.41,4.86,0,5.4,1.53,9.65,4.59,12.75,3.06,3.1,6.93,4.65,11.61,4.65Z"/>
  <path class="cls-1" d="M385.82,752.97c0-4.32-1.4-7.69-4.18-10.12-2.79-2.43-6.43-3.64-10.93-3.64-4.77,0-9.04,1.51-12.82,4.52-3.78,3.02-6.43,7.13-7.96,12.35h35.63c.18-1.44.27-2.47.27-3.1Z"/>
  <path class="cls-1" d="M553.69,742.85c-2.79-2.43-6.43-3.64-10.93-3.64-4.77,0-9.04,1.51-12.82,4.52-3.78,3.02-6.43,7.13-7.96,12.35h35.63c.18-1.44.27-2.47.27-3.1,0-4.32-1.4-7.69-4.18-10.12Z"/>
  <path class="cls-1" d="M687.02,0C307.59,0,0,307.59,0,687.02s307.59,687.02,687.02,687.02,687.02-307.59,687.02-687.02S1066.45,0,687.02,0ZM1083.23,724.9h9.04l3.24-18.49h19.03l-3.24,18.49h16.6l-2.7,15.52h-16.73l-6.34,36.17c-.09.54-.13,1.26-.13,2.16,0,1.8.52,3.08,1.55,3.85,1.03.76,2.77,1.15,5.2,1.15h8.91l-2.83,15.92h-12.01c-13.5,0-20.24-5.62-20.24-16.87,0-2.16.18-4.27.54-6.34l6.34-36.03h-8.91l2.7-15.52ZM1056.24,565.66c4.32-2.52,8.99-3.78,14.03-3.78l-3.51,19.84h-4.99c-5.58,0-10.05,1.21-13.43,3.64-3.37,2.43-5.83,6.57-7.36,12.42l-7.02,39.95h-19.03l13.22-74.76h19.03l-2.29,13.23c3.24-4.5,7.02-8.01,11.34-10.53ZM987.55,438.4c1.35-7.74,4.12-14.53,8.3-20.38,4.18-5.85,9.38-10.35,15.59-13.49,6.21-3.15,13-4.72,20.38-4.72,9.53,0,17.09,2.63,22.67,7.9,5.58,5.26,8.37,12.35,8.37,21.25,0,2.88-.23,5.45-.67,7.69-.54,2.7-1.13,5.04-1.76,7.02h-54.65c-.09.63-.14,1.53-.14,2.7,0,4.68,1.37,8.34,4.12,11,2.74,2.65,6.36,3.98,10.86,3.98,3.78,0,7.04-.83,9.78-2.5,2.74-1.66,4.97-3.85,6.68-6.55h20.38c-3.33,7.2-8.48,13.11-15.45,17.75-6.97,4.63-14.87,6.95-23.68,6.95-9.54,0-17.18-2.7-22.94-8.1-5.76-5.4-8.64-12.73-8.64-22,0-2.7.27-5.53.81-8.5ZM957.12,619.31c2.74,2.65,6.36,3.98,10.86,3.98,3.78,0,7.04-.83,9.78-2.5,2.74-1.66,4.97-3.85,6.68-6.55h20.38c-3.33,7.2-8.48,13.11-15.45,17.75-6.97,4.63-14.87,6.95-23.68,6.95-9.54,0-17.18-2.7-22.94-8.1-5.76-5.4-8.64-12.73-8.64-22,0-2.7.27-5.53.81-8.5,1.35-7.74,4.12-14.53,8.3-20.38,4.19-5.85,9.38-10.35,15.59-13.49,6.21-3.15,13-4.72,20.38-4.72,9.53,0,17.09,2.63,22.67,7.9,5.58,5.26,8.37,12.35,8.37,21.25,0,2.88-.23,5.45-.67,7.69-.54,2.7-1.13,5.04-1.75,7.02h-54.66c-.09.63-.14,1.53-.14,2.7,0,4.68,1.37,8.34,4.12,11ZM926.22,782.6c1.03.76,2.77,1.15,5.2,1.15h8.91l-2.84,15.92h-12.01c-13.49,0-20.24-5.62-20.24-16.87,0-2.16.18-4.27.54-6.34l6.34-36.03h-8.91l2.7-15.52h9.04l3.24-18.49h19.03l-3.24,18.49h16.6l-2.7,15.52h-16.73l-6.34,36.17c-.09.54-.13,1.26-.13,2.16,0,1.8.52,3.08,1.55,3.85ZM887.35,635.43c-4.63,2.34-9.69,3.51-15.18,3.51s-10.37-1.24-14.64-3.71c-4.27-2.47-7.6-5.98-9.99-10.53-2.38-4.54-3.58-9.83-3.58-15.86,0-2.79.27-5.71.81-8.77,1.35-7.56,4.03-14.26,8.03-20.11,4-5.85,8.88-10.35,14.64-13.49,5.76-3.15,11.83-4.72,18.22-4.72,5.58,0,10.33,1.1,14.24,3.31,3.91,2.21,6.68,5.06,8.3,8.57l1.89-10.66h19.03l-13.22,75.3c-1.26,6.93-3.78,13.11-7.56,18.56-3.78,5.44-8.73,9.76-14.85,12.96-6.12,3.19-13.13,4.79-21.05,4.79-10.53,0-18.74-2.47-24.63-7.42-5.89-4.95-8.57-11.7-8.03-20.24h18.76c.36,3.42,2,6.14,4.93,8.16,2.92,2.02,6.72,3.04,11.4,3.04,5.58,0,10.32-1.64,14.24-4.93,3.91-3.28,6.5-8.25,7.76-14.91l2.02-11.61c-3.06,3.51-6.9,6.43-11.54,8.77ZM962.85,724.9h19.03l-13.22,74.76h-19.03l13.22-74.76ZM974.05,716c-2.97,0-5.35-.85-7.15-2.56-1.8-1.71-2.7-3.87-2.7-6.48,0-3.6,1.37-6.68,4.12-9.25,2.74-2.56,5.96-3.85,9.65-3.85,2.88,0,5.22.86,7.02,2.56,1.8,1.71,2.7,3.87,2.7,6.48,0,3.6-1.35,6.68-4.05,9.25-2.7,2.56-5.89,3.85-9.58,3.85ZM892.41,484.96h18.76c.36,3.42,2,6.14,4.93,8.16,2.92,2.02,6.72,3.04,11.4,3.04,5.58,0,10.33-1.64,14.24-4.93,3.91-3.28,6.5-8.25,7.76-14.91l2.02-11.61c-3.06,3.51-6.9,6.43-11.54,8.77-4.63,2.34-9.7,3.51-15.18,3.51s-10.37-1.24-14.64-3.71c-4.27-2.47-7.6-5.98-9.99-10.53-2.39-4.54-3.58-9.83-3.58-15.86,0-2.79.27-5.71.81-8.77,1.35-7.56,4.03-14.26,8.03-20.11,4-5.85,8.89-10.35,14.64-13.49,5.75-3.15,11.83-4.72,18.22-4.72,5.58,0,10.33,1.1,14.24,3.31,3.91,2.21,6.68,5.06,8.3,8.57l1.89-10.66h19.03l-13.22,75.3c-1.26,6.93-3.78,13.11-7.56,18.56-3.78,5.44-8.73,9.76-14.85,12.96-6.12,3.19-13.14,4.79-21.05,4.79-10.53,0-18.74-2.47-24.63-7.42-5.89-4.95-8.57-11.7-8.03-20.24ZM820.89,401.02h19.03l-1.62,9.18c3.06-3.15,6.7-5.64,10.93-7.49,4.23-1.84,8.64-2.77,13.22-2.77,7.74,0,13.83,2.09,18.29,6.27,4.45,4.19,6.68,10.15,6.68,17.88,0,2.88-.23,5.49-.67,7.83l-7.83,43.86h-18.76l7.29-41.3c.27-1.62.41-3.19.41-4.72,0-4.5-1.19-7.92-3.58-10.26-2.39-2.34-5.78-3.51-10.19-3.51-5.04,0-9.33,1.51-12.89,4.52-3.56,3.02-5.92,7.36-7.08,13.02l-7.42,42.24h-19.03l13.23-74.76ZM811.64,581.45c-2.39-2.34-5.78-3.51-10.19-3.51-5.04,0-9.33,1.51-12.89,4.52-3.55,3.02-5.92,7.36-7.08,13.02l-7.42,42.24h-19.03l13.22-74.76h19.03l-1.62,9.18c3.06-3.15,6.7-5.64,10.93-7.49,4.23-1.84,8.64-2.77,13.22-2.77,7.74,0,13.83,2.09,18.29,6.27,4.45,4.19,6.68,10.15,6.68,17.88,0,2.88-.23,5.49-.67,7.83l-7.83,43.86h-18.76l7.29-41.3c.27-1.62.41-3.19.41-4.72,0-4.5-1.19-7.92-3.58-10.26ZM726.36,743.39c-2.38-2.34-5.78-3.51-10.19-3.51-5.04,0-9.31,1.51-12.82,4.52-3.51,3.02-5.85,7.31-7.02,12.89l-7.56,42.37h-19.03l17.68-99.86h19.03l-6.07,34.28c3.06-3.15,6.77-5.64,11.13-7.49,4.36-1.84,8.97-2.77,13.83-2.77,7.38,0,13.25,2.11,17.61,6.34,4.36,4.23,6.55,10.17,6.55,17.81,0,2.88-.23,5.49-.67,7.83l-7.83,43.86h-18.76l7.29-41.3c.27-1.62.41-3.19.41-4.72,0-4.5-1.19-7.92-3.58-10.26ZM682.7,637.73l17.68-99.86h19.03l-17.68,99.86h-19.03ZM737.89,637.73h-19.03l13.22-74.76h19.03l-13.23,74.76ZM743.29,554.06c-2.97,0-5.36-.85-7.15-2.56-1.8-1.71-2.7-3.87-2.7-6.48,0-3.6,1.37-6.68,4.12-9.25,2.74-2.56,5.96-3.85,9.65-3.85,2.88,0,5.22.86,7.02,2.56,1.8,1.71,2.7,3.87,2.7,6.48,0,3.6-1.35,6.68-4.05,9.25-2.7,2.56-5.89,3.85-9.58,3.85ZM724.67,444.88l7.69-43.86h18.89l-7.29,41.16c-.27,1.62-.41,3.19-.41,4.72,0,4.41,1.21,7.81,3.64,10.19s5.85,3.58,10.26,3.58c5.13,0,9.49-1.6,13.09-4.79,3.6-3.19,5.89-7.76,6.88-13.7l7.29-41.16h18.89l-13.22,74.76h-18.89l1.62-9.45c-2.88,3.24-6.43,5.78-10.66,7.63-4.23,1.84-8.68,2.77-13.36,2.77-7.74,0-13.86-2.09-18.35-6.28-4.5-4.18-6.75-10.14-6.75-17.88,0-2.88.22-5.44.67-7.69ZM676.09,401.02h9.04l3.24-18.49h19.03l-3.24,18.49h16.6l-2.7,15.52h-16.73l-6.34,36.17c-.09.54-.13,1.26-.13,2.16,0,1.8.52,3.08,1.55,3.85s2.77,1.15,5.2,1.15h8.91l-2.83,15.92h-12.01c-13.5,0-20.24-5.62-20.24-16.87,0-2.16.18-4.27.54-6.34l6.34-36.03h-8.91l2.7-15.52ZM625.08,401.02h9.04l3.24-18.49h19.03l-3.24,18.49h16.6l-2.7,15.52h-16.73l-6.34,36.17c-.09.54-.14,1.26-.14,2.16,0,1.8.52,3.08,1.55,3.85,1.03.76,2.77,1.15,5.2,1.15h8.91l-2.84,15.92h-12.01c-13.5,0-20.24-5.62-20.24-16.87,0-2.16.18-4.27.54-6.34l6.34-36.03h-8.91l2.7-15.52ZM634.79,554.06c-2.97,0-5.35-.85-7.15-2.56-1.8-1.71-2.7-3.87-2.7-6.48,0-3.6,1.37-6.68,4.12-9.25,2.74-2.56,5.96-3.85,9.65-3.85,2.88,0,5.22.86,7.02,2.56,1.8,1.71,2.7,3.87,2.7,6.48,0,3.6-1.35,6.68-4.05,9.25-2.7,2.56-5.89,3.85-9.58,3.85ZM642.62,562.96l-13.22,74.76h-19.03l13.22-74.76h19.03ZM608.61,578.48h-16.73l-6.34,36.17c-.09.54-.13,1.26-.13,2.16,0,1.8.52,3.08,1.55,3.85,1.03.76,2.77,1.15,5.2,1.15h8.91l-2.84,15.92h-12.01c-13.49,0-20.24-5.62-20.24-16.87,0-2.16.18-4.27.54-6.34l6.34-36.03h-8.91l2.7-15.52h9.04l3.24-18.49h19.03l-3.24,18.49h16.6l-2.7,15.52ZM555.51,410.6c2.56-3.42,6.14-6.07,10.73-7.96,4.59-1.89,9.85-2.83,15.79-2.83s10.66.94,14.98,2.83c4.32,1.89,7.67,4.52,10.06,7.9,2.38,3.37,3.57,7.22,3.57,11.54,0,1.08-.05,1.89-.14,2.43h-17.54c.27-3.15-.63-5.67-2.7-7.56-2.07-1.89-5.08-2.83-9.04-2.83-3.24,0-5.89.7-7.96,2.09-2.07,1.4-3.1,3.26-3.1,5.6s1.17,4.25,3.51,5.74c2.34,1.48,5.94,3.13,10.8,4.93,4.86,1.89,8.75,3.62,11.67,5.2,2.92,1.57,5.47,3.73,7.63,6.48,2.16,2.74,3.24,6.19,3.24,10.32,0,4.59-1.4,8.59-4.19,12.01-2.79,3.42-6.61,6.03-11.47,7.83-4.86,1.8-10.35,2.7-16.47,2.7-5.49,0-10.46-.92-14.91-2.77-4.45-1.84-7.96-4.41-10.53-7.69-2.56-3.28-3.85-7.04-3.85-11.27,0-.63.09-1.66.27-3.1h18.35c-.27,3.15.67,5.69,2.84,7.62,2.16,1.94,5.22,2.9,9.18,2.9,3.6,0,6.59-.65,8.98-1.96,2.38-1.3,3.58-3.21,3.58-5.73,0-2.25-1.1-4.05-3.31-5.4-2.21-1.35-5.69-2.88-10.46-4.59-4.77-1.71-8.73-3.37-11.87-4.99-3.15-1.62-5.85-3.87-8.1-6.75-2.25-2.88-3.37-6.52-3.37-10.93s1.28-8.32,3.85-11.74ZM515.23,589.48c2.34,1.48,5.94,3.13,10.8,4.93,4.86,1.89,8.75,3.62,11.67,5.2,2.92,1.57,5.47,3.73,7.63,6.48,2.16,2.74,3.24,6.19,3.24,10.32,0,4.59-1.4,8.59-4.19,12.01-2.79,3.42-6.61,6.03-11.47,7.83-4.86,1.8-10.35,2.7-16.47,2.7-5.49,0-10.46-.92-14.91-2.77-4.45-1.84-7.96-4.41-10.53-7.69-2.56-3.28-3.85-7.04-3.85-11.27,0-.63.09-1.66.27-3.1h18.35c-.27,3.15.67,5.69,2.84,7.62,2.16,1.94,5.22,2.9,9.18,2.9,3.6,0,6.59-.65,8.98-1.96,2.38-1.3,3.58-3.21,3.58-5.73,0-2.25-1.1-4.05-3.31-5.4-2.21-1.35-5.69-2.88-10.46-4.59-4.77-1.71-8.73-3.37-11.87-4.99-3.15-1.62-5.85-3.87-8.1-6.75-2.25-2.88-3.37-6.52-3.37-10.93s1.28-8.32,3.85-11.74c2.56-3.42,6.14-6.07,10.73-7.96,4.59-1.89,9.85-2.83,15.79-2.83s10.66.94,14.98,2.83c4.32,1.89,7.67,4.52,10.05,7.9,2.38,3.37,3.58,7.22,3.58,11.54,0,1.08-.05,1.89-.13,2.43h-17.54c.27-3.15-.63-5.67-2.7-7.56-2.07-1.89-5.08-2.83-9.04-2.83-3.24,0-5.89.7-7.96,2.09-2.07,1.4-3.1,3.26-3.1,5.6s1.17,4.25,3.51,5.74ZM454.3,797.51c-4.64,2.25-9.74,3.37-15.32,3.37s-10.37-1.24-14.64-3.71c-4.28-2.47-7.6-5.98-9.99-10.53-2.39-4.54-3.58-9.83-3.58-15.86,0-2.79.27-5.71.81-8.77,1.35-7.56,4.03-14.26,8.03-20.11,4-5.85,8.91-10.35,14.71-13.49,5.8-3.15,11.9-4.72,18.29-4.72,4.86,0,9.31,1.06,13.36,3.17,4.05,2.12,7.06,4.93,9.04,8.43l6.34-35.49h19.03l-17.68,99.86h-19.03l2.02-11.07c-2.97,3.69-6.77,6.66-11.4,8.91ZM351.88,781.25c2.74,2.65,6.36,3.98,10.86,3.98,3.78,0,7.04-.83,9.78-2.5,2.74-1.66,4.97-3.85,6.68-6.55h20.38c-3.33,7.2-8.48,13.11-15.45,17.75-6.97,4.63-14.87,6.95-23.68,6.95-9.54,0-17.18-2.7-22.94-8.1-5.76-5.4-8.64-12.73-8.64-22,0-2.7.27-5.53.81-8.5,1.35-7.74,4.12-14.53,8.3-20.38,4.18-5.85,9.38-10.35,15.59-13.49,6.21-3.15,13-4.72,20.38-4.72,9.53,0,17.09,2.63,22.67,7.9,5.58,5.26,8.37,12.35,8.37,21.25,0,2.88-.23,5.45-.67,7.69-.54,2.7-1.13,5.04-1.75,7.02h-54.66c-.09.63-.14,1.53-.14,2.7,0,4.68,1.37,8.34,4.12,11ZM401.67,624.7c-2.39-4.54-3.58-9.83-3.58-15.86,0-2.79.27-5.71.81-8.77,1.35-7.56,4.03-14.26,8.03-20.11,4-5.85,8.91-10.35,14.71-13.49,5.8-3.15,11.9-4.72,18.29-4.72,4.86,0,9.31,1.06,13.36,3.17,4.05,2.12,7.06,4.93,9.04,8.43l6.34-35.49h19.03l-17.68,99.86h-19.03l2.02-11.07c-2.97,3.69-6.77,6.66-11.4,8.91-4.64,2.25-9.74,3.37-15.32,3.37s-10.37-1.24-14.64-3.71c-4.28-2.47-7.6-5.98-9.99-10.53ZM485.81,375.92h19.03l-9.99,56.68,30.5-31.58h24.7l-39.54,37.38,26.45,37.38h-24.43l-19.7-31.71-5.67,31.71h-19.03l17.68-99.86ZM411.99,404.53c6.21-3.15,13-4.72,20.38-4.72,9.54,0,17.09,2.63,22.67,7.9,5.58,5.26,8.37,12.35,8.37,21.25,0,2.88-.23,5.45-.67,7.69-.54,2.7-1.13,5.04-1.76,7.02h-54.65c-.09.63-.14,1.53-.14,2.7,0,4.68,1.37,8.34,4.12,11,2.74,2.65,6.37,3.98,10.86,3.98,3.78,0,7.04-.83,9.78-2.5,2.74-1.66,4.97-3.85,6.68-6.55h20.38c-3.33,7.2-8.48,13.11-15.45,17.75-6.97,4.63-14.87,6.95-23.68,6.95-9.54,0-17.18-2.7-22.94-8.1-5.76-5.4-8.64-12.73-8.64-22,0-2.7.27-5.53.81-8.5,1.35-7.74,4.12-14.53,8.3-20.38,4.18-5.85,9.38-10.35,15.59-13.49ZM321.44,381.59h69.09l-2.7,14.85h-24.97l-14.04,79.35h-19.03l14.04-79.35h-25.1l2.7-14.85ZM314.02,606.82l7.69-43.86h18.89l-7.29,41.16c-.27,1.62-.41,3.19-.41,4.72,0,4.41,1.21,7.81,3.64,10.19,2.43,2.38,5.85,3.58,10.26,3.58,5.13,0,9.49-1.6,13.09-4.79,3.6-3.19,5.89-7.76,6.88-13.7l7.29-41.16h18.89l-13.22,74.76h-18.89l1.62-9.45c-2.88,3.24-6.43,5.78-10.66,7.63-4.23,1.84-8.68,2.77-13.36,2.77-7.74,0-13.86-2.09-18.35-6.28-4.5-4.18-6.75-10.14-6.75-17.88,0-2.88.22-5.44.67-7.69ZM268,699.8h19.03l-9.99,56.68,30.5-31.58h24.7l-39.54,37.38,26.45,37.38h-24.43l-19.7-31.71-5.67,31.71h-19.03l17.68-99.86ZM296.48,957.96c-5.76,3.24-11.79,4.86-18.08,4.86-5.58,0-10.3-1.1-14.17-3.31-3.87-2.2-6.7-5.06-8.5-8.57l-1.89,10.66h-19.03l17.68-99.86h19.03l-6.34,36.03c2.97-3.6,6.79-6.52,11.47-8.77,4.68-2.25,9.76-3.37,15.25-3.37s10.5,1.19,14.78,3.58c4.27,2.39,7.58,5.83,9.92,10.32,2.34,4.5,3.51,9.76,3.51,15.79,0,2.79-.27,5.67-.81,8.64-1.35,7.65-4.05,14.42-8.1,20.31-4.05,5.89-8.95,10.46-14.71,13.7ZM398.23,940.42c-4.05,6.93-9.6,12.39-16.67,16.4-7.06,4-14.87,6-23.41,6s-15.83-2.38-21.59-7.15l-6.48,5.94h-11.47l12.69-11.61c-3.69-5.04-5.53-11.25-5.53-18.62,0-8.45,2-16.17,6-23.14,4-6.97,9.49-12.48,16.47-16.53,6.97-4.05,14.73-6.07,23.28-6.07,4.41,0,8.48.63,12.21,1.89,3.73,1.26,6.99,3.06,9.78,5.4l6.61-6.07h11.47l-12.82,11.74c3.69,5.22,5.53,11.43,5.53,18.62,0,8.55-2.02,16.28-6.07,23.21ZM455.99,905.6c-5.58,0-10.05,1.21-13.43,3.64-3.37,2.43-5.83,6.57-7.35,12.42l-7.02,39.95h-19.03l13.22-74.76h19.03l-2.29,13.23c3.24-4.5,7.02-8.01,11.34-10.53,4.32-2.52,9-3.78,14.04-3.78l-3.51,19.84h-4.99ZM541.41,917.75l-7.83,43.86h-18.76l7.29-41.3c.27-1.62.41-3.19.41-4.72,0-4.5-1.19-7.92-3.58-10.26-2.38-2.34-5.78-3.51-10.19-3.51-5.04,0-9.33,1.51-12.89,4.52-3.55,3.02-5.92,7.36-7.08,13.02l-7.42,42.24h-19.03l13.22-74.76h19.03l-1.62,9.18c3.06-3.15,6.7-5.64,10.93-7.49,4.23-1.84,8.64-2.77,13.23-2.77,7.74,0,13.83,2.09,18.28,6.27,4.45,4.19,6.68,10.15,6.68,17.88,0,2.88-.23,5.49-.67,7.83ZM576.36,760.53c-.54,2.7-1.13,5.04-1.76,7.02h-54.65c-.09.63-.14,1.53-.14,2.7,0,4.68,1.37,8.34,4.12,11,2.74,2.65,6.36,3.98,10.86,3.98,3.78,0,7.04-.83,9.78-2.5,2.74-1.66,4.97-3.85,6.68-6.55h20.38c-3.33,7.2-8.48,13.11-15.45,17.75-6.97,4.63-14.87,6.95-23.68,6.95-9.54,0-17.18-2.7-22.94-8.1-5.76-5.4-8.64-12.73-8.64-22,0-2.7.27-5.53.81-8.5,1.35-7.74,4.12-14.53,8.3-20.38,4.18-5.85,9.38-10.35,15.59-13.49,6.21-3.15,13-4.72,20.38-4.72,9.54,0,17.09,2.63,22.67,7.9,5.58,5.26,8.37,12.35,8.37,21.25,0,2.88-.23,5.45-.67,7.69ZM594.98,724.9h19.03l-2.29,13.23c3.24-4.5,7.02-8.01,11.34-10.53,4.32-2.52,9-3.78,14.03-3.78l-3.51,19.84h-4.99c-5.58,0-10.05,1.21-13.43,3.64-3.37,2.43-5.83,6.57-7.35,12.42l-7.02,39.95h-19.03l13.22-74.76ZM658.55,940.42c-4.05,6.93-9.6,12.39-16.67,16.4-7.06,4-14.87,6-23.41,6-6.39,0-12.03-1.3-16.93-3.91-4.91-2.61-8.71-6.3-11.41-11.07-2.7-4.77-4.05-10.26-4.05-16.46,0-8.45,2-16.17,6-23.14,4-6.97,9.49-12.48,16.47-16.53,6.97-4.05,14.73-6.07,23.28-6.07,6.39,0,12.08,1.33,17.07,3.98,4.99,2.65,8.86,6.37,11.61,11.13,2.74,4.77,4.12,10.26,4.12,16.46,0,8.55-2.02,16.28-6.07,23.21ZM646.53,637.73l17.68-99.86h19.03l-17.68,99.86h-19.03ZM742.75,962.15c-1.26,6.93-3.78,13.11-7.56,18.56-3.78,5.44-8.73,9.76-14.84,12.96-6.12,3.19-13.14,4.79-21.05,4.79-10.53,0-18.74-2.47-24.63-7.42s-8.57-11.7-8.03-20.24h18.76c.36,3.42,2,6.14,4.93,8.16,2.92,2.02,6.72,3.04,11.4,3.04,5.58,0,10.32-1.64,14.24-4.93,3.91-3.28,6.5-8.25,7.76-14.91l2.02-11.61c-3.06,3.51-6.91,6.43-11.54,8.77-4.63,2.34-9.69,3.51-15.18,3.51s-10.37-1.24-14.64-3.71c-4.28-2.47-7.6-5.98-9.99-10.53-2.38-4.54-3.58-9.83-3.58-15.86,0-2.79.27-5.71.81-8.77,1.35-7.56,4.03-14.26,8.03-20.11,4-5.85,8.88-10.35,14.64-13.49,5.76-3.15,11.83-4.72,18.22-4.72,5.58,0,10.32,1.1,14.24,3.31,3.91,2.21,6.68,5.06,8.3,8.57l1.89-10.66h19.03l-13.22,75.3ZM768.53,794.34c-4.5-4.18-6.75-10.14-6.75-17.88,0-2.88.22-5.44.67-7.69l7.69-43.86h18.89l-7.29,41.16c-.27,1.62-.41,3.19-.41,4.72,0,4.41,1.21,7.81,3.64,10.19,2.43,2.38,5.85,3.58,10.26,3.58,5.13,0,9.49-1.6,13.09-4.79,3.6-3.19,5.89-7.76,6.88-13.7l7.29-41.16h18.89l-13.22,74.76h-18.89l1.62-9.45c-2.88,3.24-6.43,5.78-10.66,7.63-4.23,1.84-8.68,2.77-13.36,2.77-7.74,0-13.86-2.09-18.35-6.28ZM865.28,961.61h-18.89l1.62-9.45c-2.88,3.24-6.43,5.78-10.66,7.63-4.23,1.84-8.68,2.77-13.36,2.77-7.74,0-13.86-2.09-18.35-6.28-4.5-4.18-6.75-10.14-6.75-17.88,0-2.88.22-5.44.67-7.69l7.69-43.86h18.89l-7.29,41.16c-.27,1.62-.41,3.19-.41,4.72,0,4.41,1.22,7.81,3.64,10.19,2.43,2.38,5.85,3.58,10.26,3.58,5.13,0,9.49-1.6,13.09-4.79,3.6-3.19,5.89-7.76,6.88-13.7l7.29-41.16h18.89l-13.22,74.76ZM871.49,759.72l-7.02,39.95h-19.03l13.23-74.76h19.03l-2.29,13.23c3.24-4.5,7.02-8.01,11.34-10.53,4.32-2.52,9-3.78,14.04-3.78l-3.51,19.84h-4.99c-5.58,0-10.05,1.21-13.43,3.64-3.37,2.43-5.83,6.57-7.36,12.42ZM961.64,917.75l-7.83,43.86h-18.76l7.29-41.3c.27-1.62.41-3.19.41-4.72,0-4.5-1.19-7.92-3.58-10.26-2.38-2.34-5.78-3.51-10.19-3.51-5.04,0-9.33,1.51-12.89,4.52-3.55,3.02-5.92,7.36-7.08,13.02l-7.42,42.24h-19.03l13.22-74.76h19.03l-1.62,9.18c3.06-3.15,6.7-5.64,10.93-7.49,4.23-1.84,8.64-2.77,13.23-2.77,7.74,0,13.83,2.09,18.29,6.27,4.45,4.19,6.68,10.15,6.68,17.88,0,2.88-.23,5.49-.67,7.83ZM1043.42,962.15c-1.26,6.93-3.78,13.11-7.56,18.56-3.78,5.44-8.73,9.76-14.84,12.96-6.12,3.19-13.14,4.79-21.05,4.79-10.53,0-18.74-2.47-24.63-7.42s-8.57-11.7-8.03-20.24h18.76c.36,3.42,2,6.14,4.93,8.16,2.92,2.02,6.73,3.04,11.4,3.04,5.58,0,10.32-1.64,14.24-4.93,3.91-3.28,6.5-8.25,7.76-14.91l2.02-11.61c-3.06,3.51-6.91,6.43-11.54,8.77-4.63,2.34-9.69,3.51-15.18,3.51s-10.37-1.24-14.64-3.71c-4.27-2.47-7.6-5.98-9.99-10.53-2.38-4.54-3.58-9.83-3.58-15.86,0-2.79.27-5.71.81-8.77,1.35-7.56,4.03-14.26,8.03-20.11,4-5.85,8.88-10.35,14.64-13.49,5.75-3.15,11.83-4.72,18.22-4.72,5.58,0,10.32,1.1,14.24,3.31,3.91,2.21,6.68,5.06,8.3,8.57l1.89-10.66h19.03l-13.23,75.3ZM1051.24,818.76c-3.78,5.44-8.73,9.76-14.84,12.96-6.12,3.19-13.14,4.79-21.05,4.79-10.53,0-18.74-2.47-24.63-7.42-5.89-4.95-8.57-11.7-8.03-20.24h18.76c.36,3.42,2,6.14,4.92,8.16,2.92,2.02,6.73,3.04,11.4,3.04,5.58,0,10.33-1.64,14.24-4.93,3.91-3.28,6.5-8.25,7.76-14.91l2.02-11.61c-3.06,3.51-6.9,6.43-11.54,8.77-4.63,2.34-9.7,3.51-15.18,3.51s-10.37-1.24-14.64-3.71c-4.28-2.47-7.6-5.98-9.99-10.53-2.39-4.54-3.58-9.83-3.58-15.86,0-2.79.27-5.71.81-8.77,1.35-7.56,4.03-14.26,8.03-20.11,4-5.85,8.88-10.35,14.64-13.49,5.76-3.15,11.83-4.72,18.22-4.72,5.58,0,10.32,1.1,14.24,3.31,3.91,2.21,6.68,5.06,8.3,8.57l1.89-10.66h19.03l-13.22,75.3c-1.26,6.93-3.78,13.11-7.56,18.56ZM1137.07,922.47c-.54,2.7-1.12,5.04-1.75,7.02h-54.66c-.09.63-.13,1.53-.13,2.7,0,4.68,1.37,8.34,4.12,11,2.74,2.65,6.36,3.98,10.86,3.98,3.78,0,7.04-.83,9.78-2.5,2.74-1.66,4.97-3.85,6.68-6.55h20.38c-3.33,7.2-8.48,13.11-15.45,17.75-6.97,4.63-14.87,6.95-23.69,6.95-9.54,0-17.18-2.7-22.94-8.1-5.76-5.4-8.64-12.73-8.64-22,0-2.7.27-5.53.81-8.5,1.35-7.74,4.12-14.53,8.3-20.38,4.18-5.85,9.38-10.35,15.59-13.49,6.21-3.15,13-4.72,20.38-4.72,9.53,0,17.09,2.63,22.67,7.9,5.58,5.26,8.37,12.35,8.37,21.25,0,2.88-.23,5.45-.67,7.69Z"/>
  <path class="cls-1" d="M470.83,757.16c0-5.31-1.55-9.45-4.65-12.42-3.1-2.97-7-4.45-11.67-4.45-3.51,0-6.91.86-10.19,2.56-3.28,1.71-6.14,4.21-8.57,7.49-2.43,3.28-4.05,7.18-4.86,11.67-.27,1.71-.41,3.33-.41,4.86,0,5.4,1.53,9.65,4.59,12.75,3.06,3.1,6.93,4.65,11.61,4.65,3.51,0,6.93-.88,10.26-2.63,3.33-1.76,6.19-4.3,8.57-7.63,2.38-3.33,3.98-7.24,4.79-11.74.36-2.34.54-4.05.54-5.13Z"/>
  <path class="cls-1" d="M991.06,591.03c0-4.32-1.4-7.69-4.18-10.12-2.79-2.43-6.43-3.64-10.93-3.64-4.77,0-9.04,1.51-12.82,4.52-3.78,3.02-6.43,7.13-7.96,12.35h35.63c.18-1.44.27-2.47.27-3.1Z"/>
  <path class="cls-1" d="M1030.6,740.29c-3.51,0-6.9.86-10.19,2.56-3.28,1.71-6.14,4.21-8.57,7.49-2.43,3.28-4.05,7.18-4.86,11.67-.27,1.71-.4,3.33-.4,4.86,0,5.4,1.53,9.65,4.59,12.75,3.06,3.1,6.93,4.65,11.61,4.65,3.51,0,6.93-.88,10.26-2.63,3.33-1.76,6.19-4.3,8.57-7.63,2.38-3.33,3.98-7.24,4.79-11.74.36-2.34.54-4.05.54-5.13,0-5.31-1.55-9.45-4.66-12.42-3.1-2.97-7-4.45-11.67-4.45Z"/>
  <path class="cls-1" d="M1015.21,902.23c-3.51,0-6.9.86-10.19,2.56-3.28,1.71-6.14,4.21-8.57,7.49-2.43,3.28-4.05,7.18-4.86,11.67-.27,1.71-.41,3.33-.41,4.86,0,5.4,1.53,9.65,4.59,12.75,3.06,3.1,6.93,4.65,11.61,4.65,3.51,0,6.92-.88,10.26-2.63,3.33-1.76,6.18-4.3,8.57-7.63,2.38-3.33,3.98-7.24,4.79-11.74.36-2.34.54-4.05.54-5.13,0-5.31-1.55-9.45-4.66-12.42-3.1-2.97-6.99-4.45-11.67-4.45Z"/>
  <path class="cls-1" d="M1043.69,429.09c0-4.32-1.4-7.69-4.18-10.12-2.79-2.43-6.43-3.64-10.93-3.64-4.77,0-9.04,1.51-12.82,4.52-3.78,3.02-6.43,7.13-7.96,12.35h35.63c.18-1.44.27-2.47.27-3.1Z"/>
  <path class="cls-1" d="M1114.4,904.79c-2.79-2.43-6.43-3.64-10.93-3.64-4.77,0-9.04,1.51-12.82,4.52-3.78,3.02-6.43,7.13-7.96,12.35h35.63c.18-1.44.27-2.47.27-3.1,0-4.32-1.4-7.69-4.18-10.12Z"/>
  <path class="cls-1" d="M714.55,902.23c-3.51,0-6.9.86-10.19,2.56-3.29,1.71-6.14,4.21-8.57,7.49-2.43,3.28-4.05,7.18-4.86,11.67-.27,1.71-.41,3.33-.41,4.86,0,5.4,1.53,9.65,4.59,12.75,3.06,3.1,6.93,4.65,11.61,4.65,3.51,0,6.93-.88,10.26-2.63,3.33-1.76,6.19-4.3,8.57-7.63,2.38-3.33,3.98-7.24,4.79-11.74.36-2.34.54-4.05.54-5.13,0-5.31-1.55-9.45-4.66-12.42-3.1-2.97-7-4.45-11.67-4.45Z"/>
  <path class="cls-1" d="M956.65,433.28c0-5.31-1.55-9.45-4.66-12.42-3.1-2.97-7-4.45-11.67-4.45-3.51,0-6.9.86-10.19,2.56-3.28,1.71-6.14,4.21-8.57,7.49-2.43,3.28-4.05,7.18-4.86,11.67-.27,1.71-.41,3.33-.41,4.86,0,5.4,1.53,9.65,4.59,12.75,3.06,3.1,6.93,4.65,11.61,4.65,3.51,0,6.93-.88,10.26-2.63,3.33-1.76,6.18-4.3,8.57-7.63,2.38-3.33,3.98-7.24,4.79-11.74.36-2.34.54-4.05.54-5.13Z"/>
  <path class="cls-1" d="M904.02,595.22c0-5.31-1.55-9.45-4.66-12.42-3.1-2.97-7-4.45-11.67-4.45-3.51,0-6.9.86-10.19,2.56-3.29,1.71-6.14,4.21-8.57,7.49-2.43,3.28-4.05,7.18-4.86,11.67-.27,1.71-.41,3.33-.41,4.86,0,5.4,1.53,9.65,4.59,12.75,3.06,3.1,6.93,4.65,11.61,4.65,3.51,0,6.93-.88,10.26-2.63,3.33-1.76,6.18-4.3,8.57-7.63,2.38-3.33,3.98-7.24,4.79-11.74.36-2.34.54-4.05.54-5.13Z"/>
  <path class="cls-1" d="M629.13,901.82c-4.59,0-8.66,1.31-12.21,3.91-3.55,2.61-6.32,6.1-8.3,10.46-1.98,4.36-2.97,8.97-2.97,13.83,0,5.31,1.42,9.4,4.25,12.28,2.83,2.88,6.55,4.32,11.13,4.32s8.59-1.3,12.28-3.91c3.69-2.61,6.57-6.07,8.64-10.39,2.07-4.32,3.1-8.86,3.1-13.63,0-5.4-1.51-9.56-4.52-12.48-3.02-2.92-6.81-4.39-11.4-4.39Z"/>
</svg>