<?xml version="1.0" encoding="UTF-8"?>
<svg id="Lag_1" xmlns="http://www.w3.org/2000/svg" viewBox="0 0 1357.53 1357.53">
  <defs>
    <style>
      .cls-1 {
        fill: #c28488;
      }
    </style>
  </defs>
  <path class="cls-1" d="M202.99,589.28c-3.47,0-6.82.85-10.07,2.53-3.25,1.69-6.07,4.16-8.47,7.4-2.4,3.25-4,7.09-4.8,11.53-.27,1.69-.4,3.29-.4,4.8,0,5.33,1.51,9.53,4.53,12.6,3.02,3.07,6.84,4.6,11.47,4.6,3.47,0,6.84-.87,10.13-2.6,3.29-1.73,6.11-4.25,8.47-7.53,2.35-3.29,3.93-7.15,4.73-11.6.36-2.31.53-4,.53-5.07,0-5.24-1.53-9.33-4.6-12.27-3.07-2.93-6.91-4.4-11.53-4.4Z"/>
  <path class="cls-1" d="M650.04,604.88c.18-1.42.27-2.44.27-3.07,0-4.27-1.38-7.6-4.13-10-2.76-2.4-6.36-3.6-10.8-3.6-4.71,0-8.93,1.49-12.67,4.47-3.73,2.98-6.36,7.05-7.87,12.2h35.2Z"/>
  <path class="cls-1" d="M548.17,589.28c-3.47,0-6.82.85-10.07,2.53-3.25,1.69-6.07,4.16-8.47,7.4-2.4,3.25-4,7.09-4.8,11.53-.27,1.69-.4,3.29-.4,4.8,0,5.33,1.51,9.53,4.53,12.6,3.02,3.07,6.84,4.6,11.47,4.6,3.47,0,6.84-.87,10.13-2.6,3.29-1.73,6.11-4.25,8.47-7.53,2.36-3.29,3.93-7.15,4.73-11.6.35-2.31.53-4,.53-5.07,0-5.24-1.53-9.33-4.6-12.27s-6.91-4.4-11.53-4.4Z"/>
  <path class="cls-1" d="M305.12,601.81c0-4.27-1.38-7.6-4.13-10-2.76-2.4-6.36-3.6-10.8-3.6-4.71,0-8.93,1.49-12.67,4.47-3.73,2.98-6.36,7.05-7.87,12.2h35.2c.18-1.42.27-2.44.27-3.07Z"/>
  <path class="cls-1" d="M694.76,473.15c4.44,0,8.49-1.29,12.13-3.87,3.64-2.58,6.49-6,8.53-10.27,2.04-4.27,3.07-8.75,3.07-13.47,0-5.33-1.49-9.44-4.47-12.33-2.98-2.89-6.73-4.33-11.27-4.33s-8.56,1.29-12.07,3.87c-3.51,2.58-6.25,6.02-8.2,10.33-1.96,4.31-2.94,8.87-2.94,13.67,0,5.25,1.4,9.29,4.2,12.13,2.8,2.85,6.46,4.27,11,4.27Z"/>
  <path class="cls-1" d="M706.96,865.67c-1.87,0-3.53.6-5,1.8-1.47,1.2-2.38,2.82-2.73,4.87-.09.27-.13.67-.13,1.2,0,1.6.51,2.91,1.53,3.93,1.02,1.02,2.38,1.53,4.07,1.53,2.13,0,4-.78,5.6-2.33,1.6-1.55,2.4-3.49,2.4-5.8,0-1.6-.53-2.87-1.6-3.8-1.07-.93-2.45-1.4-4.13-1.4Z"/>
  <path class="cls-1" d="M438.31,908.87c-4.53,0-8.56,1.29-12.07,3.87-3.51,2.58-6.25,6.02-8.2,10.33-1.96,4.31-2.93,8.87-2.93,13.67,0,5.25,1.4,9.29,4.2,12.13,2.8,2.85,6.47,4.27,11,4.27s8.49-1.29,12.13-3.87c3.64-2.58,6.49-6,8.53-10.27,2.04-4.27,3.07-8.75,3.07-13.47,0-5.33-1.49-9.44-4.47-12.33-2.98-2.89-6.73-4.33-11.26-4.33Z"/>
  <path class="cls-1" d="M451.38,632.74c3.47,0,6.84-.87,10.13-2.6,3.29-1.73,6.11-4.25,8.47-7.53,2.35-3.29,3.93-7.15,4.73-11.6.35-2.31.53-4,.53-5.07,0-5.24-1.53-9.33-4.6-12.27-3.07-2.93-6.91-4.4-11.53-4.4-3.47,0-6.82.85-10.07,2.53-3.25,1.69-6.07,4.16-8.47,7.4-2.4,3.25-4,7.09-4.8,11.53-.27,1.69-.4,3.29-.4,4.8,0,5.33,1.51,9.53,4.53,12.6,3.02,3.07,6.84,4.6,11.47,4.6Z"/>
  <path class="cls-1" d="M543.57,761.81c0-4.27-1.38-7.6-4.13-10-2.76-2.4-6.36-3.6-10.8-3.6-4.71,0-8.93,1.49-12.67,4.47-3.73,2.98-6.36,7.05-7.87,12.2h35.2c.18-1.42.27-2.44.27-3.07Z"/>
  <path class="cls-1" d="M1357.53,678.77C1357.53,303.89,1053.64,0,678.77,0S0,303.89,0,678.77s303.89,678.77,678.77,678.77,678.77-303.89,678.77-678.77ZM1143.28,414.08l8.67,56.67,28.66-56.67h20.13l-40.4,73.87h-22.93l-14.13-73.87h20ZM1100.81,387.22c2.71-2.53,5.89-3.8,9.53-3.8,2.84,0,5.15.85,6.93,2.53,1.78,1.69,2.67,3.82,2.67,6.4,0,3.56-1.33,6.6-4,9.13-2.67,2.53-5.82,3.8-9.47,3.8-2.93,0-5.29-.84-7.07-2.53-1.78-1.69-2.67-3.82-2.67-6.4,0-3.55,1.36-6.6,4.07-9.13ZM1114.21,414.08l-13.07,73.87h-18.8l13.07-73.87h18.8ZM1039.15,414.08h8.93l3.2-18.27h18.8l-3.2,18.27h16.4l-2.67,15.33h-16.53l-6.27,35.73c-.09.53-.13,1.25-.13,2.13,0,1.78.51,3.05,1.53,3.8s2.73,1.13,5.13,1.13h8.8l-2.8,15.73h-11.86c-13.33,0-20-5.55-20-16.67,0-2.13.18-4.22.53-6.27l6.27-35.6h-8.8l2.67-15.33ZM972.88,389.28h18.8l-9.87,56,30.13-31.2h24.4l-39.07,36.93,26.13,36.93h-24.13l-19.47-31.33-5.6,31.33h-18.8l17.47-98.66ZM868.22,450.75c1.33-7.47,3.98-14.09,7.93-19.87,3.95-5.78,8.78-10.22,14.47-13.33,5.69-3.11,11.69-4.67,18-4.67,5.51,0,10.15,1.11,13.93,3.33,3.78,2.22,6.55,5.02,8.33,8.4l1.87-10.53h18.8l-13.07,73.87h-18.8l2-10.8c-2.93,3.47-6.73,6.33-11.4,8.6-4.67,2.27-9.76,3.4-15.27,3.4s-10.22-1.22-14.4-3.67c-4.18-2.44-7.42-5.91-9.73-10.4-2.31-4.49-3.47-9.71-3.47-15.67,0-2.75.27-5.64.8-8.67ZM879.29,732.87c9.42,0,16.89,2.6,22.4,7.8,5.51,5.2,8.27,12.2,8.27,21,0,2.85-.22,5.38-.67,7.6-.53,2.67-1.11,4.98-1.73,6.93h-54c-.09.62-.13,1.51-.13,2.67,0,4.62,1.36,8.24,4.07,10.87,2.71,2.62,6.29,3.93,10.73,3.93,3.73,0,6.95-.82,9.67-2.47,2.71-1.64,4.91-3.8,6.6-6.47h20.13c-3.29,7.11-8.38,12.96-15.27,17.53-6.89,4.58-14.69,6.87-23.4,6.87-9.42,0-16.98-2.67-22.67-8-5.69-5.33-8.53-12.58-8.53-21.73,0-2.67.27-5.47.8-8.4,1.33-7.64,4.07-14.35,8.2-20.13,4.13-5.78,9.27-10.22,15.4-13.33,6.13-3.11,12.84-4.67,20.13-4.67ZM857.23,601.68c0,2.85-.22,5.38-.67,7.6-.53,2.67-1.11,4.98-1.73,6.93h-54c-.09.62-.13,1.51-.13,2.67,0,4.62,1.36,8.24,4.07,10.87,2.71,2.62,6.29,3.93,10.73,3.93,3.73,0,6.95-.82,9.67-2.47,2.71-1.64,4.91-3.8,6.6-6.47h20.13c-3.29,7.11-8.38,12.96-15.27,17.53-6.89,4.58-14.69,6.87-23.4,6.87-9.42,0-16.98-2.67-22.67-8-5.69-5.33-8.53-12.58-8.53-21.73,0-2.67.27-5.47.8-8.4,1.33-7.64,4.07-14.35,8.2-20.13,4.13-5.78,9.27-10.22,15.4-13.33,6.13-3.11,12.84-4.67,20.13-4.67,9.42,0,16.89,2.6,22.4,7.8,5.51,5.2,8.27,12.2,8.27,21ZM739.83,497.02h18.53c.35,3.38,1.98,6.07,4.86,8.07,2.89,2,6.64,3,11.27,3,5.51,0,10.2-1.62,14.07-4.87,3.87-3.25,6.42-8.16,7.67-14.73l2-11.47c-3.02,3.47-6.82,6.36-11.4,8.67-4.58,2.31-9.58,3.47-15,3.47s-10.25-1.22-14.47-3.67c-4.22-2.44-7.51-5.91-9.87-10.4-2.36-4.49-3.54-9.71-3.54-15.67,0-2.75.27-5.64.8-8.67,1.33-7.47,3.98-14.09,7.93-19.87,3.96-5.78,8.78-10.22,14.47-13.33,5.69-3.11,11.69-4.67,18-4.67,5.51,0,10.2,1.09,14.07,3.27,3.87,2.18,6.6,5,8.2,8.47l1.87-10.53h18.8l-13.07,74.4c-1.24,6.84-3.73,12.96-7.47,18.33-3.73,5.38-8.62,9.64-14.67,12.8-6.04,3.15-12.98,4.73-20.8,4.73-10.4,0-18.51-2.44-24.33-7.33-5.82-4.89-8.47-11.55-7.93-20ZM737.37,600.28c2.31,1.47,5.87,3.09,10.66,4.87,4.8,1.87,8.64,3.58,11.53,5.13,2.89,1.55,5.4,3.69,7.53,6.4,2.13,2.71,3.2,6.11,3.2,10.2,0,4.53-1.38,8.49-4.13,11.87-2.76,3.38-6.53,5.96-11.33,7.73-4.8,1.78-10.22,2.67-16.27,2.67-5.42,0-10.33-.91-14.73-2.73-4.4-1.82-7.87-4.35-10.4-7.6-2.53-3.24-3.8-6.95-3.8-11.13,0-.62.09-1.64.27-3.07h18.13c-.27,3.11.67,5.62,2.8,7.53,2.13,1.91,5.15,2.87,9.07,2.87,3.55,0,6.51-.64,8.87-1.93,2.35-1.29,3.53-3.18,3.53-5.67,0-2.22-1.09-4-3.27-5.33s-5.62-2.84-10.33-4.53c-4.71-1.69-8.62-3.33-11.73-4.93s-5.78-3.82-8-6.67c-2.22-2.84-3.33-6.44-3.33-10.8s1.27-8.22,3.8-11.6c2.54-3.38,6.07-6,10.6-7.87,4.53-1.87,9.73-2.8,15.6-2.8s10.53.93,14.8,2.8c4.27,1.87,7.58,4.47,9.93,7.8,2.35,3.33,3.53,7.13,3.53,11.4,0,1.07-.05,1.87-.13,2.4h-17.33c.27-3.11-.62-5.6-2.67-7.47-2.05-1.87-5.02-2.8-8.93-2.8-3.2,0-5.82.69-7.87,2.07-2.05,1.38-3.07,3.22-3.07,5.53s1.15,4.2,3.47,5.67ZM762.9,709.28l-17.47,98.66h-18.8l17.47-98.66h18.8ZM721.3,769.27c-.53,2.67-1.11,4.98-1.73,6.93h-54c-.09.62-.13,1.51-.13,2.67,0,4.62,1.35,8.24,4.07,10.87,2.71,2.62,6.29,3.93,10.73,3.93,3.73,0,6.95-.82,9.67-2.47,2.71-1.64,4.91-3.8,6.6-6.47h20.13c-3.29,7.11-8.38,12.96-15.27,17.53-6.89,4.58-14.69,6.87-23.4,6.87-9.42,0-16.98-2.67-22.67-8-5.69-5.33-8.53-12.58-8.53-21.73,0-2.67.27-5.47.8-8.4,1.33-7.64,4.07-14.35,8.2-20.13,4.13-5.78,9.27-10.22,15.4-13.33s12.84-4.67,20.13-4.67c9.42,0,16.89,2.6,22.4,7.8,5.51,5.2,8.27,12.2,8.27,21,0,2.85-.22,5.38-.67,7.6ZM721.36,869.14c0,3.65-.85,6.87-2.53,9.67-1.69,2.8-3.91,4.98-6.67,6.53-2.76,1.56-5.73,2.33-8.93,2.33-3.82,0-6.93-1.09-9.33-3.26-2.4-2.18-3.6-5.13-3.6-8.87,0-1.42.09-2.49.27-3.2.89-4.62,3.02-8.33,6.4-11.13,3.38-2.8,7.24-4.2,11.6-4.2,3.82,0,6.91,1.09,9.27,3.27,2.35,2.18,3.53,5.13,3.53,8.87ZM609.44,807.94h-22.93l-14.13-73.87h20l8.67,56.67,28.67-56.67h20.13l-40.4,73.87ZM673.9,647.94l17.47-98.66h18.8l-17.47,98.66h-18.8ZM666.17,435.22c3.96-6.89,9.38-12.33,16.27-16.33,6.89-4,14.55-6,23-6,6.31,0,11.93,1.31,16.87,3.93s8.75,6.29,11.47,11c2.71,4.71,4.07,10.13,4.07,16.27,0,8.45-2,16.09-6,22.93-4,6.85-9.49,12.25-16.47,16.2-6.98,3.96-14.69,5.93-23.13,5.93-6.31,0-11.89-1.29-16.73-3.87-4.85-2.58-8.6-6.22-11.27-10.93-2.67-4.71-4-10.13-4-16.27,0-8.35,1.98-15.98,5.93-22.86ZM660.97,580.68c5.51,5.2,8.27,12.2,8.27,21,0,2.85-.22,5.38-.67,7.6-.53,2.67-1.11,4.98-1.73,6.93h-54c-.09.62-.13,1.51-.13,2.67,0,4.62,1.36,8.24,4.07,10.87,2.71,2.62,6.29,3.93,10.73,3.93,3.73,0,6.95-.82,9.67-2.47,2.71-1.64,4.91-3.8,6.6-6.47h20.13c-3.29,7.11-8.38,12.96-15.27,17.53-6.89,4.58-14.69,6.87-23.4,6.87-9.42,0-16.98-2.67-22.67-8-5.69-5.33-8.53-12.58-8.53-21.73,0-2.67.27-5.47.8-8.4,1.33-7.64,4.07-14.35,8.2-20.13,4.13-5.78,9.27-10.22,15.4-13.33s12.84-4.67,20.13-4.67c9.42,0,16.89,2.6,22.4,7.8ZM585.3,414.08h18.8l-2.27,13.07c3.2-4.44,6.93-7.91,11.2-10.4,4.27-2.49,8.89-3.73,13.86-3.73l-3.47,19.6h-4.93c-5.51,0-9.93,1.2-13.27,3.6-3.33,2.4-5.76,6.49-7.27,12.27l-6.93,39.47h-18.8l13.07-73.87ZM570.31,574.08h18.8l-13.07,74.4c-1.24,6.84-3.73,12.96-7.47,18.33-3.73,5.38-8.62,9.64-14.67,12.8-6.04,3.15-12.98,4.73-20.8,4.73-10.4,0-18.51-2.44-24.33-7.33-5.82-4.89-8.47-11.55-7.93-20h18.53c.36,3.38,1.98,6.07,4.87,8.07,2.89,2,6.64,3,11.27,3,5.51,0,10.2-1.62,14.07-4.87,3.87-3.25,6.42-8.16,7.67-14.73l2-11.47c-3.02,3.47-6.82,6.36-11.4,8.67-4.58,2.31-9.58,3.47-15,3.47s-10.24-1.22-14.47-3.67-7.51-5.91-9.87-10.4c-2.36-4.49-3.53-9.71-3.53-15.67,0-2.75.27-5.64.8-8.67,1.33-7.47,3.98-14.09,7.93-19.87,3.95-5.78,8.78-10.22,14.47-13.33,5.69-3.11,11.69-4.67,18-4.67,5.51,0,10.2,1.09,14.07,3.27,3.87,2.18,6.6,5,8.2,8.47l1.87-10.53ZM510.04,789.74c2.71,2.62,6.29,3.93,10.73,3.93,3.73,0,6.95-.82,9.67-2.47,2.71-1.64,4.91-3.8,6.6-6.47h20.13c-3.29,7.11-8.38,12.96-15.27,17.53-6.89,4.58-14.69,6.87-23.4,6.87-9.42,0-16.98-2.67-22.67-8-5.69-5.33-8.53-12.58-8.53-21.73,0-2.67.27-5.47.8-8.4,1.33-7.64,4.07-14.35,8.2-20.13,4.13-5.78,9.27-10.22,15.4-13.33,6.13-3.11,12.84-4.67,20.13-4.67,9.42,0,16.89,2.6,22.4,7.8,5.51,5.2,8.27,12.2,8.27,21,0,2.85-.22,5.38-.67,7.6-.53,2.67-1.11,4.98-1.73,6.93h-54c-.09.62-.13,1.51-.13,2.67,0,4.62,1.36,8.24,4.07,10.87ZM493.18,451.02c1.33-7.64,4.07-14.35,8.2-20.13,4.13-5.78,9.27-10.22,15.4-13.33,6.13-3.11,12.84-4.67,20.13-4.67,9.42,0,16.89,2.6,22.4,7.8,5.51,5.2,8.27,12.2,8.27,21,0,2.85-.22,5.38-.67,7.6-.53,2.67-1.11,4.98-1.73,6.93h-54c-.09.62-.13,1.51-.13,2.67,0,4.62,1.35,8.24,4.07,10.87,2.71,2.62,6.29,3.93,10.73,3.93,3.73,0,6.95-.82,9.67-2.47,2.71-1.64,4.91-3.8,6.6-6.47h20.13c-3.29,7.11-8.38,12.96-15.27,17.53-6.89,4.58-14.69,6.87-23.4,6.87-9.42,0-16.98-2.67-22.67-8-5.69-5.33-8.53-12.58-8.53-21.73,0-2.67.27-5.47.8-8.4ZM420.24,464.62h18.13c-.27,3.11.67,5.62,2.8,7.53,2.13,1.91,5.15,2.87,9.06,2.87,3.55,0,6.51-.64,8.87-1.93,2.35-1.29,3.53-3.18,3.53-5.67,0-2.22-1.09-4-3.27-5.33-2.18-1.33-5.62-2.84-10.33-4.53-4.71-1.69-8.62-3.33-11.73-4.93-3.11-1.6-5.78-3.82-8-6.67-2.22-2.84-3.33-6.44-3.33-10.8s1.27-8.22,3.8-11.6c2.53-3.38,6.07-6,10.6-7.87,4.53-1.87,9.73-2.8,15.6-2.8s10.53.93,14.8,2.8c4.27,1.87,7.58,4.47,9.93,7.8,2.35,3.33,3.53,7.13,3.53,11.4,0,1.07-.05,1.87-.13,2.4h-17.33c.27-3.11-.62-5.6-2.67-7.47-2.05-1.87-5.02-2.8-8.93-2.8-3.2,0-5.82.69-7.87,2.07-2.05,1.38-3.07,3.22-3.07,5.53s1.15,4.2,3.47,5.67c2.31,1.47,5.87,3.09,10.67,4.87,4.8,1.87,8.64,3.58,11.53,5.13,2.89,1.55,5.4,3.69,7.53,6.4,2.13,2.71,3.2,6.11,3.2,10.2,0,4.53-1.38,8.49-4.13,11.87-2.75,3.38-6.53,5.96-11.33,7.73-4.8,1.78-10.22,2.67-16.27,2.67-5.42,0-10.33-.91-14.73-2.73-4.4-1.82-7.87-4.35-10.4-7.6-2.53-3.24-3.8-6.95-3.8-11.13,0-.62.09-1.64.27-3.07ZM416.71,610.74c1.33-7.47,3.98-14.09,7.93-19.87,3.95-5.78,8.78-10.22,14.47-13.33,5.69-3.11,11.69-4.67,18-4.67,5.51,0,10.15,1.11,13.93,3.33,3.78,2.22,6.56,5.02,8.33,8.4l1.87-10.53h18.8l-13.07,73.87h-18.8l2-10.8c-2.93,3.47-6.73,6.33-11.4,8.6-4.67,2.27-9.76,3.4-15.27,3.4s-10.22-1.22-14.4-3.67c-4.18-2.44-7.42-5.91-9.73-10.4-2.31-4.49-3.47-9.71-3.47-15.67,0-2.75.27-5.64.8-8.67ZM405.51,805.81c-4.58,2.22-9.62,3.33-15.13,3.33s-10.25-1.22-14.47-3.67c-4.22-2.44-7.51-5.91-9.87-10.4-2.36-4.49-3.53-9.71-3.53-15.67,0-2.75.27-5.64.8-8.67,1.33-7.47,3.98-14.09,7.93-19.87,3.96-5.78,8.8-10.22,14.53-13.33,5.73-3.11,11.75-4.67,18.07-4.67,4.8,0,9.2,1.05,13.2,3.13,4,2.09,6.98,4.87,8.93,8.33l6.27-35.06h18.8l-17.47,98.66h-18.8l2-10.93c-2.93,3.65-6.69,6.58-11.27,8.8ZM347.52,647.94h-18.8l17.47-98.66h18.8l-17.47,98.66ZM467.98,709.28h18.8l-17.47,98.66h-18.8l17.47-98.66ZM413.11,589.41h-16.53l-6.27,35.73c-.09.53-.13,1.25-.13,2.13,0,1.78.51,3.05,1.53,3.8,1.02.76,2.73,1.13,5.13,1.13h8.8l-2.8,15.73h-11.87c-13.33,0-20-5.55-20-16.67,0-2.13.18-4.22.53-6.27l6.27-35.6h-8.8l2.67-15.33h8.93l3.2-18.27h18.8l-3.2,18.27h16.4l-2.67,15.33ZM346.25,414.08h18.8l-1.6,9.07c3.02-3.11,6.62-5.58,10.8-7.4,4.18-1.82,8.53-2.73,13.07-2.73,7.64,0,13.67,2.07,18.07,6.2,4.4,4.13,6.6,10.02,6.6,17.67,0,2.85-.22,5.42-.67,7.73l-7.73,43.33h-18.53l7.2-40.8c.27-1.6.4-3.15.4-4.67,0-4.44-1.18-7.82-3.53-10.13-2.36-2.31-5.71-3.47-10.07-3.47-4.98,0-9.22,1.49-12.73,4.47-3.51,2.98-5.85,7.27-7,12.87l-7.33,41.73h-18.8l13.07-73.87ZM245.98,450.75c1.33-7.47,3.98-14.09,7.93-19.87,3.95-5.78,8.78-10.22,14.47-13.33,5.69-3.11,11.69-4.67,18-4.67,5.51,0,10.15,1.11,13.93,3.33,3.78,2.22,6.55,5.02,8.33,8.4l1.87-10.53h18.8l-13.07,73.87h-18.8l2-10.8c-2.93,3.47-6.73,6.33-11.4,8.6-4.67,2.27-9.76,3.4-15.27,3.4s-10.22-1.22-14.4-3.67c-4.18-2.44-7.42-5.91-9.73-10.4-2.31-4.49-3.47-9.71-3.47-15.67,0-2.75.27-5.64.8-8.67ZM271.59,629.74c2.71,2.62,6.29,3.93,10.73,3.93,3.73,0,6.95-.82,9.67-2.47,2.71-1.64,4.91-3.8,6.6-6.47h20.13c-3.29,7.11-8.38,12.96-15.27,17.53-6.89,4.58-14.69,6.87-23.4,6.87-9.42,0-16.98-2.67-22.67-8-5.69-5.33-8.53-12.58-8.53-21.73,0-2.67.27-5.47.8-8.4,1.33-7.64,4.07-14.35,8.2-20.13,4.13-5.78,9.27-10.22,15.4-13.33s12.84-4.67,20.13-4.67c9.42,0,16.89,2.6,22.4,7.8,5.51,5.2,8.27,12.2,8.27,21,0,2.85-.22,5.38-.67,7.6-.53,2.67-1.11,4.98-1.73,6.93h-54c-.09.62-.13,1.51-.13,2.67,0,4.62,1.35,8.24,4.07,10.87ZM167.72,461.15h19.07c-.36,3.73.64,6.8,3,9.2,2.35,2.4,5.8,3.6,10.33,3.6s8.11-.95,10.73-2.87,3.93-4.64,3.93-8.2c0-3.29-1.36-5.91-4.07-7.87-2.71-1.96-6.96-4.13-12.73-6.53-5.33-2.22-9.67-4.27-13-6.13-3.33-1.87-6.18-4.47-8.53-7.8-2.36-3.33-3.53-7.53-3.53-12.6,0-5.78,1.49-10.8,4.47-15.07,2.97-4.27,7.07-7.55,12.26-9.87,5.2-2.31,11.13-3.47,17.8-3.47s12.29,1.09,17.13,3.26c4.85,2.18,8.49,5.27,10.93,9.27,2.44,4,3.49,8.67,3.13,14h-19.87l.13-1.47c0-2.93-1.09-5.33-3.27-7.2s-5.22-2.8-9.13-2.8c-4.18,0-7.56.98-10.13,2.93-2.58,1.96-3.87,4.62-3.87,8,0,2.22.73,4.16,2.2,5.8,1.47,1.65,3.26,3.07,5.4,4.27,2.13,1.2,5.2,2.73,9.2,4.6,5.24,2.31,9.55,4.49,12.93,6.53,3.38,2.05,6.27,4.76,8.66,8.13,2.4,3.38,3.6,7.51,3.6,12.4,0,5.33-1.45,10.09-4.33,14.27-2.89,4.18-6.98,7.45-12.27,9.8-5.29,2.36-11.45,3.53-18.47,3.53-9.33,0-17-2.11-23-6.33-6-4.22-9-10.15-9-17.8,0-.8.09-2,.27-3.6ZM212.06,647.94l2-10.93c-2.93,3.65-6.69,6.58-11.27,8.8-4.58,2.22-9.62,3.33-15.13,3.33s-10.25-1.22-14.47-3.67c-4.22-2.44-7.51-5.91-9.87-10.4-2.36-4.49-3.53-9.71-3.53-15.67,0-2.75.27-5.64.8-8.67,1.33-7.47,3.98-14.09,7.93-19.87,3.96-5.78,8.8-10.22,14.53-13.33,5.73-3.11,11.75-4.67,18.07-4.67,4.8,0,9.2,1.05,13.2,3.13,4,2.09,6.98,4.87,8.93,8.33l6.27-35.06h18.8l-17.47,98.66h-18.8ZM257.72,807.94h-18.8l13.07-73.87h18.8l-13.07,73.87ZM263.05,725.27c-2.93,0-5.29-.84-7.07-2.53-1.78-1.69-2.67-3.82-2.67-6.4,0-3.55,1.35-6.6,4.07-9.13,2.71-2.53,5.89-3.8,9.53-3.8,2.84,0,5.15.85,6.93,2.53,1.78,1.69,2.67,3.82,2.67,6.4,0,3.56-1.33,6.6-4,9.13-2.67,2.53-5.82,3.8-9.47,3.8ZM326.52,807.94l7.2-40.8c.27-1.6.4-3.15.4-4.67,0-4.44-1.18-7.82-3.53-10.13-2.36-2.31-5.71-3.47-10.07-3.47-4.98,0-9.22,1.49-12.73,4.47-3.51,2.98-5.85,7.27-7,12.87l-7.33,41.73h-18.8l13.07-73.87h18.8l-1.6,9.07c3.02-3.11,6.62-5.58,10.8-7.4,4.18-1.82,8.53-2.73,13.07-2.73,7.64,0,13.67,2.07,18.07,6.2,4.4,4.13,6.6,10.02,6.6,17.67,0,2.85-.22,5.42-.67,7.73l-7.73,43.33h-18.53ZM381.38,909.4l-10.4,58.53h-18.8l10.4-58.53h-8.53l2.67-15.33h8.53l.67-3.73c1.6-9.07,5.33-15.73,11.2-20,5.87-4.27,13.95-6.27,24.27-6l-2.67,15.73c-4.44-.09-7.73.67-9.87,2.27s-3.56,4.49-4.27,8.67l-.53,3.07h12.93l-2.67,15.33h-12.93ZM467.38,947c-4,6.85-9.49,12.25-16.47,16.2-6.98,3.96-14.69,5.93-23.13,5.93-6.31,0-11.89-1.29-16.73-3.87-4.85-2.58-8.6-6.22-11.27-10.93-2.67-4.71-4-10.13-4-16.27,0-8.35,1.98-15.98,5.93-22.86,3.95-6.89,9.38-12.33,16.27-16.33,6.89-4,14.55-6,23-6,6.31,0,11.93,1.31,16.87,3.93,4.93,2.62,8.75,6.29,11.47,11,2.71,4.71,4.07,10.13,4.07,16.27,0,8.45-2,16.09-6,22.93ZM524.71,912.6c-5.51,0-9.93,1.2-13.27,3.6-3.33,2.4-5.75,6.49-7.27,12.27l-6.93,39.47h-18.8l13.07-73.87h18.8l-2.27,13.07c3.2-4.44,6.93-7.91,11.2-10.4,4.27-2.49,8.89-3.73,13.87-3.73l-3.47,19.6h-4.93ZM595.1,917.27h-17.33c.27-3.11-.62-5.6-2.67-7.47-2.05-1.87-5.02-2.8-8.93-2.8-3.2,0-5.82.69-7.87,2.07-2.05,1.38-3.07,3.22-3.07,5.53s1.15,4.2,3.47,5.67c2.31,1.47,5.87,3.09,10.67,4.87,4.8,1.87,8.64,3.58,11.53,5.13,2.89,1.55,5.4,3.69,7.53,6.4,2.13,2.71,3.2,6.11,3.2,10.2,0,4.53-1.38,8.49-4.13,11.87-2.75,3.38-6.53,5.96-11.33,7.73-4.8,1.78-10.22,2.67-16.27,2.67-5.42,0-10.33-.91-14.73-2.73-4.4-1.82-7.87-4.35-10.4-7.6-2.53-3.24-3.8-6.95-3.8-11.13,0-.62.09-1.64.27-3.07h18.13c-.27,3.11.67,5.62,2.8,7.53,2.13,1.91,5.15,2.87,9.06,2.87,3.55,0,6.51-.64,8.87-1.93,2.35-1.29,3.53-3.18,3.53-5.67,0-2.22-1.09-4-3.27-5.33s-5.62-2.84-10.33-4.53-8.62-3.33-11.73-4.93c-3.11-1.6-5.78-3.82-8-6.67-2.22-2.84-3.33-6.44-3.33-10.8s1.27-8.22,3.8-11.6c2.53-3.38,6.07-6,10.6-7.87,4.53-1.87,9.73-2.8,15.6-2.8s10.53.93,14.8,2.8c4.27,1.87,7.58,4.47,9.93,7.8,2.35,3.33,3.53,7.13,3.53,11.4,0,1.07-.05,1.87-.13,2.4ZM650.97,909.4h-16.53l-6.27,35.73c-.09.53-.13,1.25-.13,2.13,0,1.78.51,3.05,1.53,3.8s2.73,1.13,5.13,1.13h8.8l-2.8,15.73h-11.86c-13.33,0-20-5.55-20-16.67,0-2.13.18-4.22.53-6.27l6.27-35.6h-8.8l2.67-15.33h8.93l3.2-18.27h18.8l-3.2,18.27h16.4l-2.67,15.33ZM724.83,967.93h-18.8l2-10.8c-2.93,3.47-6.73,6.33-11.4,8.6s-9.76,3.4-15.27,3.4-10.22-1.22-14.4-3.67c-4.18-2.44-7.42-5.91-9.73-10.4-2.31-4.49-3.47-9.71-3.47-15.67,0-2.75.27-5.64.8-8.67,1.33-7.47,3.98-14.09,7.93-19.87,3.96-5.78,8.78-10.22,14.47-13.33,5.69-3.11,11.69-4.67,18-4.67,5.51,0,10.15,1.11,13.93,3.33,3.78,2.22,6.56,5.02,8.33,8.4l1.87-10.53h18.8l-13.07,73.87ZM817.36,929.27c-.53,2.67-1.11,4.98-1.73,6.93h-54c-.09.62-.13,1.51-.13,2.67,0,4.62,1.35,8.24,4.07,10.87,2.71,2.62,6.29,3.93,10.73,3.93,3.73,0,6.95-.82,9.67-2.47,2.71-1.64,4.91-3.8,6.6-6.47h20.13c-3.29,7.11-8.38,12.96-15.27,17.53-6.89,4.58-14.69,6.87-23.4,6.87-9.42,0-16.98-2.67-22.67-8-5.69-5.33-8.53-12.58-8.53-21.73,0-2.67.27-5.47.8-8.4,1.33-7.64,4.07-14.35,8.2-20.13,4.13-5.78,9.27-10.22,15.4-13.33,6.13-3.11,12.84-4.67,20.13-4.67,9.42,0,16.89,2.6,22.4,7.8,5.51,5.2,8.27,12.2,8.27,21,0,2.85-.22,5.38-.67,7.6ZM807.56,806.47c-4.8,1.78-10.22,2.67-16.27,2.67-5.42,0-10.33-.91-14.73-2.73-4.4-1.82-7.87-4.35-10.4-7.6-2.53-3.24-3.8-6.95-3.8-11.13,0-.62.09-1.64.27-3.07h18.13c-.27,3.11.67,5.62,2.8,7.53,2.13,1.91,5.15,2.87,9.07,2.87,3.55,0,6.51-.64,8.87-1.93,2.36-1.29,3.54-3.18,3.54-5.67,0-2.22-1.09-4-3.27-5.33-2.18-1.33-5.62-2.84-10.33-4.53-4.71-1.69-8.62-3.33-11.73-4.93s-5.78-3.82-8-6.67c-2.22-2.84-3.33-6.44-3.33-10.8s1.27-8.22,3.8-11.6c2.53-3.38,6.07-6,10.6-7.87,4.53-1.87,9.73-2.8,15.6-2.8s10.53.93,14.8,2.8c4.27,1.87,7.58,4.47,9.93,7.8,2.35,3.33,3.53,7.13,3.53,11.4,0,1.07-.05,1.87-.13,2.4h-17.33c.27-3.11-.62-5.6-2.67-7.47-2.05-1.87-5.02-2.8-8.93-2.8-3.2,0-5.82.69-7.87,2.07-2.05,1.38-3.07,3.22-3.07,5.53s1.15,4.2,3.47,5.67c2.31,1.47,5.87,3.09,10.67,4.87,4.8,1.87,8.64,3.58,11.53,5.13,2.89,1.55,5.4,3.69,7.53,6.4,2.13,2.71,3.2,6.11,3.2,10.2,0,4.53-1.38,8.49-4.13,11.87-2.76,3.38-6.53,5.96-11.33,7.73ZM822.69,967.93l17.47-98.66h18.8l-17.47,98.66h-18.8ZM922.55,917.27h-17.33c.27-3.11-.62-5.6-2.67-7.47-2.05-1.87-5.02-2.8-8.93-2.8-3.2,0-5.82.69-7.87,2.07-2.05,1.38-3.07,3.22-3.07,5.53s1.15,4.2,3.47,5.67c2.31,1.47,5.87,3.09,10.67,4.87,4.8,1.87,8.64,3.58,11.53,5.13,2.89,1.55,5.4,3.69,7.53,6.4,2.13,2.71,3.2,6.11,3.2,10.2,0,4.53-1.38,8.49-4.13,11.87-2.76,3.38-6.53,5.96-11.33,7.73-4.8,1.78-10.22,2.67-16.27,2.67-5.42,0-10.33-.91-14.73-2.73-4.4-1.82-7.87-4.35-10.4-7.6-2.53-3.24-3.8-6.95-3.8-11.13,0-.62.09-1.64.27-3.07h18.13c-.27,3.11.67,5.62,2.8,7.53,2.13,1.91,5.15,2.87,9.07,2.87,3.55,0,6.51-.64,8.87-1.93,2.36-1.29,3.54-3.18,3.54-5.67,0-2.22-1.09-4-3.27-5.33-2.18-1.33-5.62-2.84-10.33-4.53-4.71-1.69-8.62-3.33-11.73-4.93-3.11-1.6-5.78-3.82-8-6.67-2.22-2.84-3.33-6.44-3.33-10.8s1.27-8.22,3.8-11.6c2.53-3.38,6.07-6,10.6-7.87,4.53-1.87,9.73-2.8,15.6-2.8s10.53.93,14.8,2.8c4.27,1.87,7.58,4.47,9.93,7.8,2.35,3.33,3.53,7.13,3.53,11.4,0,1.07-.05,1.87-.13,2.4ZM907.76,642.08l-6.4,5.87h-11.33l12.53-11.47c-3.65-4.98-5.47-11.11-5.47-18.4,0-8.35,1.98-15.98,5.93-22.86,3.95-6.89,9.38-12.33,16.27-16.33,6.89-4,14.55-6,23-6,4.35,0,8.38.62,12.07,1.87,3.69,1.25,6.91,3.02,9.67,5.33l6.53-6h11.33l-12.67,11.6c3.64,5.16,5.46,11.29,5.46,18.4,0,8.45-2,16.09-6,22.93-4,6.85-9.49,12.25-16.46,16.2-6.98,3.96-14.69,5.93-23.13,5.93s-15.65-2.35-21.33-7.07ZM1005.35,929.27c-.53,2.67-1.11,4.98-1.73,6.93h-54c-.09.62-.13,1.51-.13,2.67,0,4.62,1.36,8.24,4.07,10.87,2.71,2.62,6.29,3.93,10.73,3.93,3.73,0,6.95-.82,9.67-2.47,2.71-1.64,4.91-3.8,6.6-6.47h20.13c-3.29,7.11-8.38,12.96-15.27,17.53-6.89,4.58-14.69,6.87-23.4,6.87-9.42,0-16.98-2.67-22.67-8-5.69-5.33-8.53-12.58-8.53-21.73,0-2.67.27-5.47.8-8.4,1.33-7.64,4.07-14.35,8.2-20.13,4.13-5.78,9.27-10.22,15.4-13.33,6.13-3.11,12.84-4.67,20.13-4.67,9.42,0,16.89,2.6,22.4,7.8,5.51,5.2,8.27,12.2,8.27,21,0,2.85-.22,5.38-.67,7.6ZM1021.69,787.01c-4,6.85-9.49,12.25-16.47,16.2-6.98,3.96-14.69,5.93-23.13,5.93-6.31,0-11.89-1.29-16.73-3.87-4.85-2.58-8.6-6.22-11.27-10.93-2.67-4.71-4-10.13-4-16.27,0-8.35,1.98-15.98,5.93-22.86,3.95-6.89,9.38-12.33,16.27-16.33,6.89-4,14.55-6,23-6,6.31,0,11.93,1.31,16.87,3.93,4.93,2.62,8.75,6.29,11.47,11,2.71,4.71,4.07,10.13,4.07,16.27,0,8.45-2,16.09-6,22.93ZM1008.68,684.34c-10.4,0-18.51-2.44-24.33-7.33-5.82-4.89-8.47-11.55-7.93-20h18.53c.35,3.38,1.98,6.07,4.87,8.07,2.89,2,6.64,3,11.26,3,5.51,0,10.2-1.62,14.07-4.87,3.87-3.25,6.42-8.16,7.67-14.73l2-11.47c-3.02,3.47-6.82,6.36-11.4,8.67-4.58,2.31-9.58,3.47-15,3.47s-10.25-1.22-14.47-3.67c-4.22-2.44-7.51-5.91-9.87-10.4-2.36-4.49-3.53-9.71-3.53-15.67,0-2.75.27-5.64.8-8.67,1.33-7.47,3.98-14.09,7.93-19.87,3.96-5.78,8.78-10.22,14.47-13.33,5.69-3.11,11.69-4.67,18-4.67,5.51,0,10.2,1.09,14.07,3.27,3.87,2.18,6.6,5,8.2,8.47l1.87-10.53h18.8l-13.07,74.4c-1.25,6.84-3.73,12.96-7.47,18.33-3.73,5.38-8.62,9.64-14.67,12.8-6.05,3.15-12.98,4.73-20.8,4.73ZM1104.88,808.47c-1.24,6.84-3.73,12.96-7.47,18.33-3.73,5.38-8.62,9.64-14.67,12.8-6.04,3.15-12.98,4.73-20.8,4.73-10.4,0-18.51-2.44-24.33-7.33-5.82-4.89-8.47-11.55-7.93-20h18.53c.36,3.38,1.98,6.07,4.87,8.07,2.89,2,6.64,3,11.27,3,5.51,0,10.2-1.62,14.07-4.87,3.87-3.25,6.42-8.16,7.67-14.73l2-11.47c-3.02,3.47-6.82,6.36-11.4,8.67-4.58,2.31-9.58,3.47-15,3.47s-10.24-1.22-14.47-3.67-7.51-5.91-9.87-10.4c-2.36-4.49-3.53-9.71-3.53-15.67,0-2.75.27-5.64.8-8.67,1.33-7.47,3.98-14.09,7.93-19.87,3.95-5.78,8.78-10.22,14.47-13.33,5.69-3.11,11.69-4.67,18-4.67,5.51,0,10.2,1.09,14.07,3.27,3.86,2.18,6.6,5,8.2,8.47l1.87-10.53h18.8l-13.07,74.4ZM1144.14,609.28c-.53,2.67-1.11,4.98-1.73,6.93h-54c-.09.62-.13,1.51-.13,2.67,0,4.62,1.35,8.24,4.07,10.87,2.71,2.62,6.29,3.93,10.73,3.93,3.73,0,6.95-.82,9.66-2.47,2.71-1.64,4.91-3.8,6.6-6.47h20.13c-3.29,7.11-8.38,12.96-15.27,17.53-6.89,4.58-14.69,6.87-23.4,6.87-9.42,0-16.98-2.67-22.67-8-5.69-5.33-8.53-12.58-8.53-21.73,0-2.67.27-5.47.8-8.4,1.33-7.64,4.07-14.35,8.2-20.13,4.13-5.78,9.27-10.22,15.4-13.33,6.13-3.11,12.84-4.67,20.13-4.67,9.42,0,16.89,2.6,22.4,7.8,5.51,5.2,8.27,12.2,8.27,21,0,2.85-.22,5.38-.67,7.6ZM1162.54,574.08h18.8l-2.27,13.07c3.2-4.44,6.93-7.91,11.2-10.4,4.27-2.49,8.89-3.73,13.86-3.73l-3.46,19.6h-4.93c-5.51,0-9.93,1.2-13.27,3.6-3.33,2.4-5.76,6.49-7.27,12.27l-6.93,39.47h-18.8l13.07-73.87Z"/>
  <path class="cls-1" d="M698.9,751.81c-2.76-2.4-6.36-3.6-10.8-3.6-4.71,0-8.93,1.49-12.67,4.47-3.73,2.98-6.36,7.05-7.87,12.2h35.2c.18-1.42.27-2.44.27-3.07,0-4.27-1.38-7.6-4.13-10Z"/>
  <path class="cls-1" d="M280.65,472.75c3.47,0,6.84-.87,10.13-2.6,3.29-1.73,6.11-4.25,8.47-7.53,2.36-3.29,3.93-7.15,4.73-11.6.35-2.31.53-4,.53-5.07,0-5.24-1.53-9.33-4.6-12.27-3.07-2.93-6.91-4.4-11.53-4.4-3.47,0-6.82.85-10.07,2.53-3.25,1.69-6.07,4.16-8.47,7.4-2.4,3.25-4,7.09-4.8,11.53-.27,1.69-.4,3.29-.4,4.8,0,5.33,1.51,9.53,4.53,12.6,3.02,3.07,6.84,4.6,11.47,4.6Z"/>
  <path class="cls-1" d="M548.64,441.82c0-4.27-1.38-7.6-4.13-10-2.76-2.4-6.36-3.6-10.8-3.6-4.71,0-8.93,1.49-12.67,4.47-3.73,2.98-6.35,7.05-7.87,12.2h35.2c.18-1.42.27-2.44.27-3.07Z"/>
  <path class="cls-1" d="M1023.75,589.28c-3.47,0-6.82.85-10.07,2.53-3.25,1.69-6.07,4.16-8.47,7.4-2.4,3.25-4,7.09-4.8,11.53-.27,1.69-.4,3.29-.4,4.8,0,5.33,1.51,9.53,4.53,12.6,3.02,3.07,6.84,4.6,11.47,4.6,3.47,0,6.84-.87,10.13-2.6,3.29-1.73,6.11-4.25,8.47-7.53,2.35-3.29,3.93-7.15,4.73-11.6.36-2.31.53-4,.53-5.07,0-5.24-1.53-9.33-4.6-12.27-3.07-2.93-6.91-4.4-11.53-4.4Z"/>
  <path class="cls-1" d="M982.95,911.8c-2.76-2.4-6.36-3.6-10.8-3.6-4.71,0-8.93,1.49-12.67,4.47-3.73,2.98-6.36,7.05-7.87,12.2h35.2c.18-1.42.27-2.44.27-3.07,0-4.27-1.38-7.6-4.13-10Z"/>
  <path class="cls-1" d="M992.62,748.87c-4.53,0-8.56,1.29-12.07,3.87-3.51,2.58-6.25,6.02-8.2,10.33-1.96,4.31-2.93,8.87-2.93,13.67,0,5.25,1.4,9.29,4.2,12.13,2.8,2.85,6.47,4.27,11,4.27s8.49-1.29,12.13-3.87c3.64-2.58,6.49-6,8.53-10.27,2.04-4.27,3.07-8.75,3.07-13.47,0-5.33-1.49-9.44-4.47-12.33-2.98-2.89-6.74-4.33-11.27-4.33Z"/>
  <path class="cls-1" d="M902.89,472.75c3.47,0,6.84-.87,10.13-2.6,3.29-1.73,6.11-4.25,8.47-7.53,2.35-3.29,3.93-7.15,4.73-11.6.35-2.31.53-4,.53-5.07,0-5.24-1.53-9.33-4.6-12.27-3.07-2.93-6.91-4.4-11.53-4.4-3.47,0-6.82.85-10.07,2.53-3.25,1.69-6.07,4.16-8.47,7.4-2.4,3.25-4,7.09-4.8,11.53-.27,1.69-.4,3.29-.4,4.8,0,5.33,1.51,9.53,4.53,12.6,3.02,3.07,6.84,4.6,11.47,4.6Z"/>
  <path class="cls-1" d="M1121.75,591.81c-2.76-2.4-6.36-3.6-10.8-3.6-4.71,0-8.93,1.49-12.67,4.47-3.73,2.98-6.36,7.05-7.87,12.2h35.2c.18-1.42.27-2.44.27-3.07,0-4.27-1.38-7.6-4.13-10Z"/>
  <path class="cls-1" d="M696.96,909.27c-3.47,0-6.82.85-10.07,2.53-3.25,1.69-6.07,4.16-8.47,7.4-2.4,3.25-4,7.09-4.8,11.53-.26,1.69-.4,3.29-.4,4.8,0,5.33,1.51,9.53,4.53,12.6,3.02,3.07,6.84,4.6,11.47,4.6,3.47,0,6.84-.87,10.13-2.6,3.29-1.73,6.11-4.25,8.47-7.53,2.35-3.29,3.93-7.15,4.73-11.6.36-2.31.53-4,.53-5.07,0-5.24-1.53-9.33-4.6-12.27-3.07-2.93-6.91-4.4-11.53-4.4Z"/>
  <path class="cls-1" d="M1077.01,749.27c-3.47,0-6.82.85-10.07,2.53-3.25,1.69-6.07,4.16-8.47,7.4-2.4,3.25-4,7.09-4.8,11.53-.27,1.69-.4,3.29-.4,4.8,0,5.33,1.51,9.53,4.53,12.6,3.02,3.07,6.84,4.6,11.47,4.6,3.47,0,6.85-.87,10.13-2.6,3.29-1.73,6.11-4.25,8.47-7.53,2.36-3.29,3.93-7.15,4.73-11.6.35-2.31.53-4,.53-5.07,0-5.24-1.53-9.33-4.6-12.27-3.07-2.93-6.91-4.4-11.53-4.4Z"/>
  <path class="cls-1" d="M421.85,765.94c0-5.24-1.53-9.33-4.6-12.27-3.07-2.93-6.91-4.4-11.53-4.4-3.47,0-6.82.85-10.07,2.53-3.25,1.69-6.07,4.16-8.47,7.4-2.4,3.25-4,7.09-4.8,11.53-.27,1.69-.4,3.29-.4,4.8,0,5.33,1.51,9.53,4.53,12.6,3.02,3.07,6.84,4.6,11.47,4.6,3.47,0,6.84-.87,10.13-2.6,3.29-1.73,6.11-4.25,8.47-7.53,2.35-3.29,3.93-7.15,4.73-11.6.36-2.31.53-4,.53-5.07Z"/>
  <path class="cls-1" d="M955.35,605.54c0-2.4-.31-4.49-.93-6.27l-33.07,30.26c2.67,2.4,6.09,3.6,10.27,3.6,4.44,0,8.49-1.29,12.13-3.87,3.64-2.58,6.49-6,8.53-10.27,2.04-4.27,3.07-8.75,3.07-13.47Z"/>
  <path class="cls-1" d="M810.7,592.68c-3.73,2.98-6.36,7.05-7.87,12.2h35.2c.18-1.42.27-2.44.27-3.07,0-4.27-1.38-7.6-4.13-10-2.76-2.4-6.36-3.6-10.8-3.6-4.71,0-8.93,1.49-12.67,4.47Z"/>
  <path class="cls-1" d="M939.62,588.88c-4.53,0-8.56,1.29-12.07,3.87-3.51,2.58-6.25,6.02-8.2,10.33-1.96,4.31-2.93,8.87-2.93,13.67,0,2.31.27,4.4.8,6.27l33.07-30.4c-2.76-2.49-6.31-3.73-10.67-3.73Z"/>
  <path class="cls-1" d="M794.96,911.8c-2.76-2.4-6.36-3.6-10.8-3.6-4.71,0-8.93,1.49-12.67,4.47-3.73,2.98-6.36,7.05-7.87,12.2h35.2c.18-1.42.27-2.44.27-3.07,0-4.27-1.38-7.6-4.13-10Z"/>
  <path class="cls-1" d="M803.29,445.95c0-5.24-1.53-9.33-4.6-12.27s-6.91-4.4-11.53-4.4c-3.47,0-6.82.85-10.07,2.53-3.25,1.69-6.07,4.16-8.47,7.4-2.4,3.25-4,7.09-4.8,11.53-.26,1.69-.4,3.29-.4,4.8,0,5.33,1.51,9.53,4.53,12.6,3.02,3.07,6.84,4.6,11.47,4.6,3.47,0,6.84-.87,10.13-2.6,3.29-1.73,6.11-4.25,8.47-7.53,2.35-3.29,3.93-7.15,4.73-11.6.36-2.31.53-4,.53-5.07Z"/>
  <path class="cls-1" d="M891.03,761.81c0-4.27-1.38-7.6-4.13-10-2.76-2.4-6.36-3.6-10.8-3.6-4.71,0-8.93,1.49-12.67,4.47-3.73,2.98-6.36,7.05-7.87,12.2h35.2c.18-1.42.27-2.44.27-3.07Z"/>
</svg>