<?xml version="1.0" encoding="UTF-8"?>
<svg id="Lag_1" xmlns="http://www.w3.org/2000/svg" viewBox="0 0 1355 1355">
  <defs>
    <style>
      .cls-1 {
        fill: #c28488;
      }
    </style>
  </defs>
  <path class="cls-1" d="M677.5,0C303.33,0,0,303.33,0,677.5s303.33,677.5,677.5,677.5,677.5-303.33,677.5-677.5S1051.67,0,677.5,0ZM1104.55,652.06h8.92l3.19-18.23h18.76l-3.19,18.23h16.37l-2.66,15.31h-16.5l-6.26,35.66c-.09.53-.13,1.24-.13,2.13,0,1.78.51,3.04,1.53,3.79s2.73,1.13,5.12,1.13h8.78l-2.8,15.7h-11.84c-13.31,0-19.96-5.54-19.96-16.64,0-2.13.18-4.21.53-6.25l6.26-35.53h-8.78l2.66-15.31ZM1022.37,529.22c1.33-7.63,4.06-14.33,8.18-20.09,4.13-5.77,9.25-10.2,15.37-13.31,6.12-3.11,12.82-4.66,20.1-4.66,9.4,0,16.86,2.6,22.36,7.79,5.5,5.19,8.25,12.18,8.25,20.96,0,2.84-.22,5.37-.67,7.59-.53,2.66-1.11,4.97-1.73,6.92h-53.9c-.09.62-.13,1.51-.13,2.66,0,4.61,1.35,8.23,4.06,10.85,2.71,2.62,6.28,3.93,10.71,3.93,3.73,0,6.94-.82,9.65-2.46,2.71-1.64,4.9-3.79,6.59-6.45h20.09c-3.28,7.1-8.36,12.93-15.24,17.5-6.88,4.57-14.66,6.85-23.36,6.85-9.4,0-16.95-2.66-22.62-7.98-5.68-5.32-8.52-12.55-8.52-21.69,0-2.66.27-5.46.8-8.38ZM1040.34,707.62c2.71,2.62,6.28,3.93,10.71,3.93,3.73,0,6.94-.82,9.65-2.46,2.71-1.64,4.9-3.79,6.59-6.45h20.09c-3.28,7.1-8.36,12.93-15.24,17.5-6.88,4.57-14.66,6.85-23.36,6.85-9.4,0-16.95-2.66-22.63-7.98-5.68-5.32-8.52-12.55-8.52-21.69,0-2.66.27-5.46.8-8.38,1.33-7.63,4.06-14.33,8.19-20.09,4.13-5.77,9.25-10.2,15.37-13.31,6.12-3.11,12.82-4.66,20.09-4.66,9.4,0,16.86,2.6,22.36,7.79,5.5,5.19,8.25,12.18,8.25,20.96,0,2.84-.22,5.37-.67,7.59-.53,2.66-1.11,4.97-1.73,6.92h-53.9c-.09.62-.13,1.51-.13,2.66,0,4.61,1.35,8.23,4.06,10.85ZM1003.61,566.09h-18.76l17.43-98.48h18.76l-17.43,98.48ZM971.67,723.66c-4.57,2.22-9.61,3.33-15.11,3.33s-10.23-1.22-14.44-3.66c-4.22-2.44-7.5-5.9-9.85-10.38-2.35-4.48-3.52-9.69-3.52-15.64,0-2.75.27-5.63.8-8.65,1.33-7.45,3.97-14.06,7.92-19.83,3.95-5.77,8.78-10.2,14.51-13.31,5.72-3.11,11.73-4.66,18.03-4.66,4.79,0,9.18,1.04,13.18,3.13,3.99,2.09,6.96,4.86,8.92,8.32l6.25-35h18.77l-17.43,98.48h-18.77l2-10.91c-2.93,3.64-6.68,6.57-11.24,8.78ZM923.96,560.43c-6.88,4.57-14.66,6.85-23.36,6.85-9.4,0-16.95-2.66-22.63-7.98-5.68-5.32-8.52-12.55-8.52-21.69,0-2.66.27-5.46.8-8.38,1.33-7.63,4.06-14.33,8.19-20.09,4.13-5.77,9.25-10.2,15.37-13.31,6.12-3.11,12.82-4.66,20.09-4.66,9.4,0,16.86,2.6,22.36,7.79,5.5,5.19,8.25,12.18,8.25,20.96,0,2.84-.22,5.37-.67,7.59-.53,2.66-1.11,4.97-1.73,6.92h-53.9c-.09.62-.13,1.51-.13,2.66,0,4.61,1.35,8.23,4.06,10.85,2.71,2.62,6.28,3.93,10.71,3.93,3.73,0,6.94-.82,9.65-2.46,2.71-1.64,4.9-3.79,6.59-6.45h20.09c-3.28,7.1-8.36,12.93-15.24,17.5ZM928.22,627.31l-17.43,98.48h-18.77l17.43-98.48h18.76ZM777.65,670.29c-2.35-2.31-5.7-3.46-10.05-3.46-4.97,0-9.18,1.49-12.64,4.46-3.46,2.97-5.77,7.21-6.92,12.71l-7.45,41.79h-18.76l17.43-98.48h18.76l-5.99,33.8c3.01-3.1,6.67-5.57,10.98-7.39,4.3-1.82,8.85-2.73,13.64-2.73,7.27,0,13.06,2.09,17.37,6.25,4.3,4.17,6.45,10.03,6.45,17.57,0,2.84-.22,5.41-.67,7.72l-7.72,43.25h-18.5l7.19-40.72c.27-1.6.4-3.15.4-4.66,0-4.44-1.18-7.81-3.52-10.12ZM713.96,829.99c-2.35-2.31-5.7-3.46-10.05-3.46-4.97,0-9.2,1.49-12.71,4.46-3.51,2.97-5.83,7.25-6.99,12.84l-7.32,41.65h-18.76l13.04-73.73h18.76l-1.6,9.05c3.01-3.1,6.61-5.57,10.78-7.39,4.17-1.82,8.52-2.73,13.04-2.73,7.63,0,13.64,2.06,18.03,6.19,4.39,4.13,6.59,10.01,6.59,17.63,0,2.84-.22,5.41-.67,7.72l-7.72,43.25h-18.5l7.19-40.72c.27-1.6.4-3.15.4-4.66,0-4.44-1.18-7.81-3.53-10.12ZM800.13,555.57l-7.98,45.65h-18.76l19.16-108.86h18.76l-1.86,10.65c3.01-3.37,6.81-6.19,11.38-8.45,4.57-2.26,9.56-3.39,14.97-3.39s10.36,1.18,14.57,3.53c4.21,2.35,7.47,5.75,9.78,10.18,2.31,4.44,3.46,9.63,3.46,15.57,0,2.75-.27,5.59-.8,8.52-1.33,7.54-3.99,14.22-7.98,20.03-3.99,5.81-8.83,10.31-14.51,13.51-5.68,3.19-11.62,4.79-17.83,4.79-5.41,0-10-1.11-13.77-3.33-3.77-2.22-6.63-5.01-8.58-8.38ZM815.44,673.15c3.95-6.88,9.36-12.31,16.24-16.3,6.87-3.99,14.53-5.99,22.96-5.99,6.3,0,11.91,1.31,16.84,3.93,4.92,2.62,8.74,6.28,11.44,10.98,2.71,4.7,4.06,10.11,4.06,16.24,0,8.43-1.99,16.06-5.99,22.89-3.99,6.83-9.47,12.22-16.44,16.17-6.96,3.95-14.66,5.92-23.09,5.92-6.3,0-11.87-1.28-16.7-3.86-4.84-2.57-8.59-6.21-11.25-10.91-2.66-4.7-3.99-10.11-3.99-16.24,0-8.34,1.98-15.95,5.92-22.82ZM947.05,578.33l15.17-85.97h18.77l-15.17,85.84c-1.42,8.16-4.48,14.04-9.18,17.63-4.7,3.59-10.82,5.39-18.37,5.39h-8.25l2.79-15.84h5.32c2.84,0,4.92-.56,6.25-1.66,1.33-1.11,2.22-2.91,2.66-5.39ZM987.97,307.91h18.76l-17.43,98.48h-18.77l17.43-98.48ZM977.13,461.75c2.84,0,5.14.84,6.92,2.53,1.77,1.69,2.66,3.82,2.66,6.39,0,3.55-1.33,6.59-3.99,9.12-2.66,2.53-5.81,3.79-9.45,3.79-2.93,0-5.28-.82-7.05-2.46-1.78-1.64-2.66-3.79-2.66-6.45,0-3.55,1.33-6.59,3.99-9.12s5.86-3.79,9.58-3.79ZM905.86,336.13c5.68-3.11,11.67-4.66,17.96-4.66,5.5,0,10.14,1.11,13.91,3.33,3.77,2.22,6.54,5.01,8.32,8.38l1.86-10.52h18.76l-13.04,73.73h-18.76l2-10.78c-2.93,3.46-6.72,6.32-11.38,8.58-4.66,2.26-9.74,3.39-15.24,3.39s-10.2-1.22-14.37-3.66c-4.17-2.44-7.41-5.9-9.72-10.38-2.31-4.48-3.46-9.69-3.46-15.64,0-2.75.27-5.63.8-8.65,1.33-7.45,3.97-14.06,7.92-19.83,3.95-5.77,8.76-10.2,14.44-13.31ZM822.69,307.91h18.76l-9.85,55.89,30.08-31.14h24.35l-38.99,36.86,26.08,36.86h-24.09l-19.43-31.27-5.59,31.27h-18.76l17.43-98.48ZM734.32,383.1h18.1c-.27,3.11.67,5.61,2.8,7.52,2.13,1.91,5.14,2.86,9.05,2.86,3.55,0,6.5-.64,8.85-1.93,2.35-1.28,3.53-3.17,3.53-5.66,0-2.22-1.09-3.99-3.26-5.32-2.18-1.33-5.61-2.84-10.31-4.53-4.7-1.69-8.61-3.33-11.71-4.92-3.11-1.6-5.77-3.81-7.98-6.65-2.22-2.84-3.33-6.43-3.33-10.78s1.26-8.21,3.79-11.58c2.53-3.37,6.06-5.99,10.58-7.85,4.53-1.86,9.72-2.79,15.57-2.79s10.51.93,14.77,2.79c4.26,1.86,7.56,4.46,9.91,7.79,2.35,3.33,3.53,7.12,3.53,11.38,0,1.06-.05,1.86-.13,2.39h-17.3c.27-3.11-.62-5.59-2.66-7.45-2.04-1.86-5.01-2.79-8.92-2.79-3.19,0-5.81.69-7.85,2.06-2.04,1.38-3.06,3.22-3.06,5.52s1.15,4.19,3.46,5.66c2.3,1.46,5.85,3.08,10.65,4.86,4.79,1.86,8.63,3.57,11.51,5.12,2.88,1.55,5.39,3.68,7.52,6.39,2.13,2.71,3.19,6.1,3.19,10.18,0,4.53-1.38,8.47-4.13,11.84-2.75,3.37-6.52,5.94-11.31,7.72-4.79,1.77-10.2,2.66-16.24,2.66-5.41,0-10.31-.91-14.71-2.73-4.39-1.82-7.85-4.35-10.38-7.59-2.53-3.24-3.79-6.94-3.79-11.11,0-.62.09-1.64.27-3.06ZM708.57,542.8h18.1c-.27,3.11.67,5.61,2.79,7.52,2.13,1.91,5.15,2.86,9.05,2.86,3.55,0,6.5-.64,8.85-1.93,2.35-1.28,3.53-3.17,3.53-5.66,0-2.22-1.09-3.99-3.26-5.32s-5.61-2.84-10.31-4.53c-4.7-1.69-8.61-3.33-11.71-4.92-3.11-1.6-5.77-3.81-7.98-6.65-2.22-2.84-3.33-6.43-3.33-10.78s1.26-8.21,3.79-11.58c2.53-3.37,6.06-5.99,10.58-7.85,4.53-1.86,9.72-2.79,15.57-2.79s10.51.93,14.77,2.79c4.26,1.86,7.56,4.46,9.91,7.79,2.35,3.33,3.53,7.12,3.53,11.38,0,1.06-.05,1.86-.13,2.39h-17.3c.26-3.11-.62-5.59-2.66-7.45-2.04-1.86-5.01-2.79-8.92-2.79-3.19,0-5.81.69-7.85,2.06-2.04,1.38-3.06,3.22-3.06,5.52s1.15,4.19,3.46,5.66c2.31,1.46,5.85,3.08,10.65,4.86,4.79,1.86,8.63,3.57,11.51,5.12,2.88,1.55,5.39,3.68,7.52,6.39,2.13,2.71,3.19,6.1,3.19,10.18,0,4.53-1.38,8.47-4.13,11.84-2.75,3.37-6.52,5.94-11.31,7.72-4.79,1.77-10.2,2.66-16.24,2.66-5.41,0-10.31-.91-14.71-2.73-4.39-1.82-7.85-4.35-10.38-7.59-2.53-3.24-3.79-6.94-3.79-11.11,0-.62.09-1.64.26-3.06ZM703.59,627.31h18.77l-17.43,98.48h-18.76l2-10.91c-2.93,3.64-6.68,6.57-11.25,8.78-4.57,2.22-9.61,3.33-15.11,3.33s-10.23-1.22-14.44-3.66c-4.22-2.44-7.5-5.9-9.85-10.38-2.35-4.48-3.53-9.69-3.53-15.64,0-2.75.27-5.63.8-8.65,1.33-7.45,3.97-14.06,7.92-19.83,3.95-5.77,8.78-10.2,14.5-13.31,5.72-3.11,11.73-4.66,18.03-4.66,4.79,0,9.18,1.04,13.18,3.13,3.99,2.09,6.96,4.86,8.92,8.32l6.25-35ZM620.81,369.53c1.33-7.63,4.06-14.33,8.18-20.09,4.13-5.77,9.25-10.2,15.37-13.31,6.12-3.11,12.82-4.66,20.09-4.66,9.4,0,16.86,2.6,22.36,7.79,5.5,5.19,8.25,12.18,8.25,20.96,0,2.84-.22,5.37-.67,7.59-.53,2.66-1.11,4.97-1.73,6.92h-53.9c-.09.62-.13,1.51-.13,2.66,0,4.61,1.35,8.23,4.06,10.85,2.71,2.62,6.28,3.93,10.71,3.93,3.73,0,6.94-.82,9.65-2.46,2.71-1.64,4.9-3.79,6.59-6.45h20.09c-3.28,7.1-8.36,12.93-15.24,17.5-6.88,4.57-14.66,6.85-23.36,6.85-9.41,0-16.95-2.66-22.62-7.98-5.68-5.32-8.52-12.55-8.52-21.69,0-2.66.27-5.46.8-8.38ZM638.71,491.16c9.4,0,16.85,2.6,22.36,7.79,5.5,5.19,8.25,12.18,8.25,20.96,0,2.84-.22,5.37-.67,7.59-.53,2.66-1.11,4.97-1.73,6.92h-53.9c-.09.62-.13,1.51-.13,2.66,0,4.61,1.35,8.23,4.06,10.85,2.7,2.62,6.28,3.93,10.71,3.93,3.73,0,6.94-.82,9.65-2.46,2.71-1.64,4.9-3.79,6.59-6.45h20.1c-3.28,7.1-8.36,12.93-15.24,17.5-6.88,4.57-14.66,6.85-23.36,6.85-9.4,0-16.95-2.66-22.62-7.98-5.68-5.32-8.52-12.55-8.52-21.69,0-2.66.27-5.46.8-8.38,1.33-7.63,4.06-14.33,8.19-20.09,4.12-5.77,9.25-10.2,15.37-13.31,6.12-3.11,12.82-4.66,20.09-4.66ZM624.73,811.75l-2.66,15.31h-12.91l-10.38,58.42h-18.76l10.38-58.42h-8.52l2.66-15.31h8.52l.67-3.73c1.6-9.05,5.32-15.7,11.18-19.96,5.85-4.26,13.93-6.26,24.22-5.99l-2.66,15.7c-4.44-.09-7.72.67-9.85,2.26-2.13,1.6-3.55,4.48-4.26,8.65l-.53,3.06h12.91ZM547.55,494.02c4.17-1.82,8.52-2.73,13.04-2.73,7.63,0,13.64,2.06,18.03,6.19,4.39,4.13,6.59,10.01,6.59,17.63,0,2.84-.22,5.41-.67,7.72l-7.72,43.25h-18.5l7.19-40.72c.27-1.6.4-3.15.4-4.66,0-4.44-1.18-7.81-3.53-10.12-2.35-2.31-5.7-3.46-10.05-3.46-4.97,0-9.21,1.49-12.71,4.46-3.51,2.97-5.83,7.25-6.99,12.84l-7.32,41.65h-18.76l13.04-73.73h18.76l-1.59,9.05c3.01-3.1,6.61-5.57,10.78-7.39ZM523.66,652.06h18.76l-13.04,73.73h-18.76l13.04-73.73ZM534.71,643.27c-2.93,0-5.28-.84-7.05-2.53-1.78-1.69-2.66-3.81-2.66-6.39,0-3.55,1.35-6.59,4.06-9.12,2.71-2.53,5.88-3.79,9.52-3.79,2.84,0,5.14.84,6.92,2.53,1.77,1.69,2.66,3.82,2.66,6.39,0,3.55-1.33,6.59-3.99,9.12s-5.81,3.79-9.45,3.79ZM559.33,652.06h18.77l-1.6,9.05c3.01-3.1,6.61-5.57,10.78-7.39,4.17-1.82,8.52-2.73,13.04-2.73,7.63,0,13.64,2.06,18.03,6.19,4.39,4.13,6.59,10.01,6.59,17.63,0,2.84-.22,5.41-.67,7.72l-7.72,43.25h-18.5l7.19-40.72c.27-1.6.4-3.15.4-4.66,0-4.44-1.18-7.81-3.53-10.12-2.35-2.31-5.7-3.46-10.05-3.46-4.97,0-9.2,1.49-12.71,4.46-3.51,2.97-5.83,7.25-6.99,12.84l-7.32,41.65h-18.77l13.04-73.73ZM526.99,415.44h18.5c.35,3.37,1.97,6.06,4.86,8.05,2.88,1.99,6.63,2.99,11.25,2.99,5.5,0,10.18-1.62,14.04-4.86,3.86-3.24,6.41-8.14,7.65-14.71l1.99-11.44c-3.02,3.46-6.81,6.34-11.38,8.65-4.57,2.31-9.56,3.46-14.97,3.46s-10.23-1.22-14.44-3.66c-4.22-2.44-7.5-5.9-9.85-10.38-2.35-4.48-3.53-9.69-3.53-15.64,0-2.75.27-5.63.8-8.65,1.33-7.45,3.97-14.06,7.92-19.83,3.95-5.77,8.76-10.2,14.44-13.31,5.68-3.11,11.67-4.66,17.97-4.66,5.5,0,10.18,1.09,14.04,3.26,3.86,2.18,6.59,4.99,8.18,8.45l1.86-10.52h18.77l-13.04,74.26c-1.24,6.83-3.73,12.93-7.45,18.3-3.73,5.37-8.61,9.63-14.64,12.78-6.04,3.15-12.95,4.72-20.76,4.72-10.38,0-18.48-2.44-24.29-7.32-5.81-4.88-8.45-11.53-7.92-19.96ZM456.46,332.66h18.76l-1.6,9.05c3.02-3.1,6.61-5.57,10.78-7.39,4.17-1.82,8.52-2.73,13.04-2.73,7.63,0,13.64,2.06,18.03,6.19,4.39,4.13,6.59,10.01,6.59,17.63,0,2.84-.22,5.41-.67,7.72l-7.72,43.25h-18.5l7.19-40.72c.27-1.6.4-3.15.4-4.66,0-4.44-1.18-7.81-3.53-10.12-2.35-2.31-5.7-3.46-10.05-3.46-4.97,0-9.21,1.49-12.71,4.46-3.51,2.97-5.83,7.25-6.99,12.84l-7.32,41.65h-18.76l13.04-73.73ZM448.21,883.29c-4.66,2.26-9.74,3.39-15.24,3.39s-10.2-1.22-14.37-3.66-7.41-5.9-9.71-10.38c-2.31-4.48-3.46-9.69-3.46-15.64,0-2.75.27-5.63.8-8.65,1.33-7.45,3.97-14.06,7.92-19.83,3.95-5.77,8.76-10.2,14.44-13.31,5.68-3.11,11.67-4.66,17.97-4.66,5.5,0,10.14,1.11,13.91,3.33,3.77,2.22,6.54,5.01,8.32,8.38l1.86-10.52h18.76l-13.04,73.73h-18.76l1.99-10.78c-2.93,3.46-6.72,6.32-11.38,8.58ZM472.43,652.06l-13.04,73.73h-18.77l13.04-73.73h18.77ZM454.99,634.36c0-3.55,1.35-6.59,4.06-9.12s5.88-3.79,9.52-3.79c2.84,0,5.14.84,6.92,2.53,1.77,1.69,2.66,3.82,2.66,6.39,0,3.55-1.33,6.59-3.99,9.12-2.66,2.53-5.81,3.79-9.45,3.79-2.93,0-5.28-.84-7.05-2.53-1.78-1.69-2.66-3.81-2.66-6.39ZM471.7,566.09l7.19-40.72c.27-1.6.4-3.15.4-4.66,0-4.44-1.18-7.81-3.53-10.12-2.35-2.31-5.7-3.46-10.05-3.46-4.97,0-9.21,1.49-12.71,4.46-3.51,2.97-5.84,7.25-6.99,12.84l-7.32,41.65h-18.76l13.04-73.73h18.77l-1.6,9.05c3.01-3.1,6.61-5.57,10.78-7.39,4.17-1.82,8.52-2.73,13.04-2.73,7.63,0,13.64,2.06,18.03,6.19,4.39,4.13,6.59,10.01,6.59,17.63,0,2.84-.22,5.41-.67,7.72l-7.72,43.25h-18.5ZM358.11,370.86l10.11-57.36h18.63l-10.11,57.36c-.36,2.49-.53,4.22-.53,5.19,0,4.61,1.37,8.14,4.13,10.58,2.75,2.44,6.65,3.66,11.71,3.66,6.03,0,10.98-1.66,14.84-4.99,3.86-3.33,6.36-8.14,7.52-14.44l10.11-57.36h18.77l-10.12,57.36c-1.42,7.98-4.3,14.71-8.65,20.16-4.35,5.46-9.6,9.54-15.77,12.24-6.17,2.71-12.8,4.06-19.9,4.06-9.4,0-17.01-2.44-22.82-7.32-5.81-4.88-8.72-11.89-8.72-21.03,0-2.48.27-5.19.8-8.12ZM345.67,492.36h18.63l-7.19,40.59c-.27,1.6-.4,3.15-.4,4.66,0,4.35,1.2,7.7,3.59,10.05,2.39,2.35,5.77,3.53,10.11,3.53,5.06,0,9.36-1.58,12.91-4.73,3.55-3.15,5.81-7.65,6.79-13.51l7.19-40.59h18.63l-13.04,73.73h-18.63l1.6-9.32c-2.84,3.19-6.34,5.7-10.51,7.52-4.17,1.82-8.56,2.73-13.18,2.73-7.63,0-13.66-2.06-18.1-6.19-4.44-4.13-6.65-10-6.65-17.63,0-2.84.22-5.37.67-7.59l7.59-43.25ZM274.34,467.61h18.77l-9.85,55.89,30.08-31.14h24.35l-38.99,36.86,26.08,36.86h-24.09l-19.43-31.27-5.59,31.27h-18.76l17.43-98.48ZM319.25,630.37c0,3.55-1.33,6.59-3.99,9.12s-5.81,3.79-9.45,3.79c-2.93,0-5.28-.84-7.05-2.53-1.78-1.69-2.66-3.81-2.66-6.39,0-3.55,1.35-6.59,4.06-9.12,2.71-2.53,5.88-3.79,9.52-3.79,2.84,0,5.14.84,6.92,2.53,1.77,1.69,2.66,3.82,2.66,6.39ZM210.79,702.5h18.1c-.27,3.11.67,5.61,2.79,7.52,2.13,1.91,5.15,2.86,9.05,2.86,3.55,0,6.5-.64,8.85-1.93,2.35-1.28,3.53-3.17,3.53-5.66,0-2.22-1.09-3.99-3.26-5.32-2.18-1.33-5.61-2.84-10.31-4.53-4.7-1.69-8.61-3.33-11.71-4.92-3.11-1.6-5.77-3.81-7.98-6.65-2.22-2.84-3.33-6.43-3.33-10.78s1.26-8.21,3.79-11.58c2.53-3.37,6.06-5.99,10.58-7.85,4.53-1.86,9.72-2.79,15.57-2.79s10.52.93,14.77,2.79c4.26,1.86,7.56,4.46,9.91,7.79,2.35,3.33,3.53,7.12,3.53,11.38,0,1.06-.05,1.86-.13,2.39h-17.3c.27-3.11-.62-5.59-2.66-7.45-2.04-1.86-5.01-2.79-8.92-2.79-3.19,0-5.81.69-7.85,2.06-2.04,1.38-3.06,3.22-3.06,5.52s1.15,4.19,3.46,5.66c2.31,1.46,5.86,3.08,10.65,4.86,4.79,1.86,8.63,3.57,11.51,5.12,2.88,1.55,5.39,3.68,7.52,6.39,2.13,2.71,3.19,6.1,3.19,10.18,0,4.53-1.38,8.47-4.13,11.84-2.75,3.37-6.52,5.94-11.31,7.72-4.79,1.77-10.2,2.66-16.24,2.66-5.41,0-10.31-.91-14.71-2.73-4.39-1.82-7.85-4.35-10.38-7.59-2.53-3.24-3.79-6.94-3.79-11.11,0-.62.09-1.64.27-3.06ZM220.71,827.06l-10.38,58.42h-18.77l10.38-58.42h-8.52l2.66-15.31h8.52l.66-3.73c1.6-9.05,5.32-15.7,11.18-19.96,5.86-4.26,13.93-6.26,24.22-5.99l-2.66,15.7c-4.44-.09-7.72.67-9.85,2.26-2.13,1.6-3.55,4.48-4.26,8.65l-.53,3.06h12.91l-2.66,15.31h-12.91ZM306.55,864.59c-3.99,6.83-9.47,12.22-16.44,16.17-6.96,3.95-14.66,5.92-23.09,5.92-6.3,0-11.87-1.28-16.7-3.86-4.84-2.57-8.59-6.21-11.25-10.91-2.66-4.7-3.99-10.11-3.99-16.24,0-8.34,1.97-15.95,5.92-22.82,3.95-6.88,9.36-12.31,16.24-16.3,6.87-3.99,14.53-5.99,22.96-5.99,6.3,0,11.91,1.31,16.84,3.93,4.92,2.62,8.74,6.28,11.44,10.98,2.71,4.7,4.06,10.11,4.06,16.24,0,8.43-2,16.06-5.99,22.89ZM300.49,725.78h-18.76l13.04-73.73h18.76l-13.04,73.73ZM368.7,830.25h-4.92c-5.5,0-9.91,1.2-13.24,3.59-3.33,2.4-5.75,6.48-7.25,12.24l-6.92,39.39h-18.77l13.04-73.73h18.76l-2.26,13.04c3.19-4.44,6.92-7.9,11.18-10.38,4.26-2.48,8.87-3.73,13.84-3.73l-3.46,19.56ZM381.94,744.62c-3.73,5.37-8.61,9.63-14.64,12.78-6.03,3.15-12.95,4.72-20.76,4.72-10.38,0-18.48-2.44-24.29-7.32-5.81-4.88-8.45-11.53-7.92-19.96h18.5c.35,3.37,1.97,6.06,4.86,8.05,2.88,1.99,6.63,2.99,11.25,2.99,5.5,0,10.18-1.62,14.04-4.86,3.86-3.24,6.41-8.14,7.65-14.71l2-11.44c-3.02,3.46-6.81,6.34-11.38,8.65-4.57,2.31-9.56,3.46-14.97,3.46s-10.23-1.22-14.44-3.66c-4.21-2.44-7.5-5.9-9.85-10.38-2.35-4.48-3.53-9.69-3.53-15.64,0-2.75.27-5.63.8-8.65,1.33-7.45,3.97-14.06,7.92-19.83,3.95-5.77,8.76-10.2,14.44-13.31,5.68-3.11,11.67-4.66,17.97-4.66,5.5,0,10.18,1.09,14.04,3.26,3.86,2.18,6.59,4.99,8.18,8.45l1.86-10.52h18.77l-13.04,74.26c-1.24,6.83-3.73,12.93-7.45,18.3ZM448.34,989.95c-5.5,0-9.91,1.2-13.24,3.59-3.33,2.4-5.75,6.48-7.25,12.24l-6.92,39.39h-18.76l13.04-73.73h18.76l-2.26,13.04c3.19-4.44,6.92-7.9,11.18-10.38,4.26-2.48,8.87-3.73,13.84-3.73l-3.46,19.56h-4.92ZM530.05,1006.59c-.53,2.66-1.11,4.97-1.73,6.92h-53.9c-.09.62-.13,1.51-.13,2.66,0,4.61,1.35,8.23,4.06,10.85,2.71,2.62,6.28,3.93,10.71,3.93,3.73,0,6.94-.82,9.65-2.46,2.71-1.64,4.9-3.79,6.59-6.45h20.09c-3.28,7.1-8.36,12.93-15.24,17.5-6.88,4.57-14.66,6.85-23.35,6.85-9.41,0-16.95-2.66-22.63-7.98-5.68-5.32-8.52-12.55-8.52-21.69,0-2.66.27-5.46.8-8.38,1.33-7.63,4.06-14.33,8.19-20.09,4.13-5.77,9.25-10.2,15.37-13.31,6.12-3.11,12.82-4.66,20.09-4.66,9.4,0,16.86,2.6,22.36,7.79,5.5,5.19,8.25,12.18,8.25,20.96,0,2.84-.22,5.37-.67,7.59ZM531.58,885.48h-11.84c-13.31,0-19.96-5.54-19.96-16.64,0-2.13.18-4.21.53-6.25l6.25-35.53h-8.78l2.66-15.31h8.92l3.19-18.23h18.77l-3.2,18.23h16.37l-2.66,15.31h-16.5l-6.25,35.66c-.09.53-.13,1.24-.13,2.13,0,1.78.51,3.04,1.53,3.79s2.73,1.13,5.12,1.13h8.78l-2.79,15.7ZM554.14,1045.18h-18.76l17.43-98.48h18.77l-17.43,98.48ZM646.5,1006.59c-.53,2.66-1.11,4.97-1.73,6.92h-53.9c-.09.62-.13,1.51-.13,2.66,0,4.61,1.35,8.23,4.06,10.85,2.7,2.62,6.27,3.93,10.71,3.93,3.73,0,6.94-.82,9.65-2.46,2.71-1.64,4.9-3.79,6.59-6.45h20.09c-3.28,7.1-8.36,12.93-15.24,17.5-6.88,4.57-14.66,6.85-23.36,6.85-9.41,0-16.95-2.66-22.62-7.98-5.68-5.32-8.52-12.55-8.52-21.69,0-2.66.27-5.46.8-8.38,1.33-7.63,4.06-14.33,8.18-20.09,4.13-5.77,9.25-10.2,15.37-13.31,6.12-3.11,12.82-4.66,20.1-4.66,9.4,0,16.85,2.6,22.36,7.79,5.5,5.19,8.25,12.18,8.25,20.96,0,2.84-.22,5.37-.67,7.59ZM641.23,885.48h-18.76l13.04-73.73h18.77l-13.04,73.73ZM646.56,802.97c-2.93,0-5.28-.84-7.05-2.53-1.78-1.69-2.66-3.81-2.66-6.39,0-3.55,1.35-6.59,4.06-9.12,2.71-2.53,5.88-3.79,9.52-3.79,2.84,0,5.14.84,6.92,2.53,1.77,1.69,2.66,3.82,2.66,6.39,0,3.55-1.33,6.59-3.99,9.12-2.66,2.53-5.81,3.79-9.45,3.79ZM671.11,1045.18l-14.11-73.73h19.96l8.65,56.56,28.61-56.56h20.09l-40.32,73.73h-22.89ZM802.2,1045.18h-18.76l1.99-10.78c-2.93,3.46-6.72,6.32-11.38,8.58-4.66,2.26-9.74,3.39-15.24,3.39s-10.2-1.22-14.37-3.66c-4.17-2.44-7.41-5.9-9.72-10.38-2.31-4.48-3.46-9.69-3.46-15.64,0-2.75.27-5.63.8-8.65,1.33-7.45,3.97-14.06,7.92-19.83,3.95-5.77,8.76-10.2,14.44-13.31,5.67-3.11,11.67-4.66,17.96-4.66,5.5,0,10.14,1.11,13.91,3.33,3.77,2.22,6.54,5.01,8.32,8.38l1.86-10.52h18.76l-13.04,73.73ZM798,885.48l2-10.91c-2.93,3.64-6.68,6.57-11.25,8.78-4.57,2.22-9.61,3.33-15.11,3.33s-10.23-1.22-14.44-3.66c-4.22-2.44-7.5-5.9-9.85-10.38-2.35-4.48-3.53-9.69-3.53-15.64,0-2.75.27-5.63.8-8.65,1.33-7.45,3.97-14.06,7.92-19.83,3.95-5.77,8.78-10.2,14.5-13.31,5.72-3.11,11.73-4.66,18.03-4.66,4.79,0,9.18,1.04,13.18,3.13,3.99,2.09,6.96,4.86,8.92,8.32l6.25-35h18.77l-17.43,98.48h-18.76ZM897.08,1001.93l-7.72,43.25h-18.5l7.19-40.72c.27-1.6.4-3.15.4-4.66,0-4.44-1.18-7.81-3.53-10.12-2.35-2.31-5.7-3.46-10.05-3.46-4.97,0-9.21,1.49-12.71,4.46-3.51,2.97-5.84,7.25-6.99,12.84l-7.32,41.65h-18.76l13.04-73.73h18.77l-1.6,9.05c3.02-3.1,6.61-5.57,10.78-7.39,4.17-1.82,8.52-2.73,13.04-2.73,7.63,0,13.64,2.06,18.03,6.19,4.39,4.13,6.59,10.01,6.59,17.63,0,2.84-.22,5.41-.67,7.72ZM909.12,846.89c-.53,2.66-1.11,4.97-1.73,6.92h-53.9c-.09.62-.13,1.51-.13,2.66,0,4.61,1.35,8.23,4.06,10.85,2.71,2.62,6.28,3.93,10.71,3.93,3.73,0,6.94-.82,9.65-2.46,2.71-1.64,4.9-3.79,6.59-6.45h20.09c-3.28,7.1-8.36,12.93-15.24,17.5-6.88,4.57-14.66,6.85-23.36,6.85-9.4,0-16.95-2.66-22.62-7.98-5.68-5.32-8.52-12.55-8.52-21.69,0-2.66.27-5.46.8-8.38,1.33-7.63,4.06-14.33,8.18-20.09,4.13-5.77,9.25-10.2,15.37-13.31,6.12-3.11,12.82-4.66,20.1-4.66,9.4,0,16.86,2.6,22.36,7.79,5.5,5.19,8.25,12.18,8.25,20.96,0,2.84-.22,5.37-.67,7.59ZM954.31,986.76h-16.5l-6.26,35.66c-.09.53-.13,1.24-.13,2.13,0,1.78.51,3.04,1.53,3.79,1.02.75,2.73,1.13,5.12,1.13h8.78l-2.79,15.7h-11.84c-13.31,0-19.96-5.54-19.96-16.64,0-2.13.18-4.21.53-6.25l6.25-35.53h-8.78l2.66-15.31h8.92l3.19-18.23h18.77l-3.19,18.23h16.37l-2.66,15.31ZM1020.77,885.48h-18.76l2-10.91c-2.93,3.64-6.68,6.57-11.25,8.78-4.57,2.22-9.61,3.33-15.11,3.33s-10.23-1.22-14.44-3.66-7.5-5.9-9.85-10.38c-2.35-4.48-3.53-9.69-3.53-15.64,0-2.75.27-5.63.8-8.65,1.33-7.45,3.97-14.06,7.92-19.83,3.95-5.77,8.78-10.2,14.5-13.31,5.72-3.11,11.73-4.66,18.03-4.66,4.79,0,9.18,1.04,13.18,3.13,3.99,2.09,6.96,4.86,8.92,8.32l6.26-35h18.76l-17.43,98.48ZM1113.13,846.89c-.53,2.66-1.11,4.97-1.73,6.92h-53.9c-.09.62-.13,1.51-.13,2.66,0,4.61,1.35,8.23,4.06,10.85,2.71,2.62,6.28,3.93,10.71,3.93,3.73,0,6.94-.82,9.65-2.46,2.71-1.64,4.9-3.79,6.59-6.45h20.09c-3.28,7.1-8.36,12.93-15.24,17.5-6.88,4.57-14.66,6.85-23.35,6.85-9.41,0-16.95-2.66-22.63-7.98-5.68-5.32-8.52-12.55-8.52-21.69,0-2.66.27-5.46.8-8.38,1.33-7.63,4.06-14.33,8.19-20.09,4.13-5.77,9.25-10.2,15.37-13.31,6.12-3.11,12.82-4.66,20.09-4.66,9.4,0,16.86,2.6,22.36,7.79,5.5,5.19,8.25,12.18,8.25,20.96,0,2.84-.22,5.37-.67,7.59ZM1145.67,868.65c1.02.75,2.73,1.13,5.12,1.13h8.78l-2.79,15.7h-11.84c-13.31,0-19.96-5.54-19.96-16.64,0-2.13.18-4.21.53-6.25l6.25-35.53h-8.78l2.66-15.31h8.92l3.19-18.23h18.77l-3.19,18.23h16.37l-2.66,15.31h-16.5l-6.26,35.66c-.09.53-.13,1.24-.13,2.13,0,1.78.51,3.04,1.53,3.79Z"/>
  <path class="cls-1" d="M677.1,667.23c-3.46,0-6.81.84-10.05,2.53-3.24,1.69-6.06,4.15-8.45,7.39-2.39,3.24-3.99,7.08-4.79,11.51-.27,1.69-.4,3.28-.4,4.79,0,5.32,1.51,9.51,4.53,12.58,3.01,3.06,6.83,4.59,11.44,4.59,3.46,0,6.83-.86,10.11-2.59,3.28-1.73,6.1-4.24,8.45-7.52,2.35-3.28,3.93-7.14,4.73-11.58.35-2.31.53-3.99.53-5.06,0-5.23-1.53-9.32-4.59-12.24s-6.9-4.39-11.51-4.39Z"/>
  <path class="cls-1" d="M1090.77,829.45c-2.75-2.39-6.34-3.59-10.78-3.59-4.7,0-8.92,1.49-12.64,4.46-3.73,2.98-6.34,7.03-7.85,12.18h35.13c.18-1.42.27-2.44.27-3.06,0-4.26-1.38-7.59-4.13-9.98Z"/>
  <path class="cls-1" d="M820.36,550.92c3.46,0,6.83-.88,10.11-2.66,3.28-1.77,6.12-4.3,8.52-7.59,2.39-3.28,3.99-7.19,4.79-11.71.27-1.77.4-3.37.4-4.79,0-5.23-1.51-9.32-4.52-12.24-3.02-2.93-6.88-4.39-11.58-4.39-3.37,0-6.7.86-9.98,2.6-3.28,1.73-6.12,4.24-8.52,7.52-2.4,3.28-3.99,7.14-4.79,11.58-.36,2.31-.53,3.99-.53,5.06,0,5.24,1.53,9.32,4.59,12.24,3.06,2.93,6.9,4.39,11.51,4.39Z"/>
  <path class="cls-1" d="M788.95,826.93c-3.46,0-6.81.84-10.05,2.53-3.24,1.69-6.06,4.15-8.45,7.39-2.39,3.24-3.99,7.08-4.79,11.51-.27,1.69-.4,3.28-.4,4.79,0,5.32,1.51,9.51,4.53,12.58,3.01,3.06,6.83,4.59,11.44,4.59,3.46,0,6.83-.86,10.11-2.59,3.28-1.73,6.1-4.24,8.45-7.52,2.35-3.28,3.93-7.14,4.73-11.58.35-2.31.53-3.99.53-5.06,0-5.23-1.53-9.32-4.59-12.24s-6.9-4.39-11.51-4.39Z"/>
  <path class="cls-1" d="M590.34,364.47c0-5.23-1.53-9.32-4.59-12.24-3.06-2.93-6.9-4.39-11.51-4.39-3.46,0-6.81.84-10.05,2.53-3.24,1.69-6.06,4.15-8.45,7.39-2.4,3.24-3.99,7.08-4.79,11.51-.27,1.69-.4,3.28-.4,4.79,0,5.32,1.51,9.51,4.53,12.58,3.01,3.06,6.83,4.59,11.44,4.59,3.46,0,6.83-.86,10.11-2.59,3.28-1.73,6.1-4.24,8.45-7.52,2.35-3.28,3.93-7.14,4.72-11.58.35-2.31.53-3.99.53-5.06Z"/>
  <path class="cls-1" d="M843.99,711.01c4.43,0,8.47-1.28,12.11-3.86,3.64-2.57,6.47-5.99,8.52-10.25,2.04-4.26,3.06-8.74,3.06-13.44,0-5.32-1.49-9.43-4.46-12.31-2.97-2.88-6.72-4.33-11.25-4.33s-8.54,1.29-12.05,3.86c-3.51,2.58-6.23,6.01-8.18,10.31-1.95,4.3-2.93,8.85-2.93,13.64,0,5.24,1.4,9.27,4.19,12.11,2.79,2.84,6.45,4.26,10.98,4.26Z"/>
  <path class="cls-1" d="M624.14,989.15c-2.75-2.39-6.34-3.59-10.78-3.59-4.71,0-8.92,1.49-12.64,4.46-3.73,2.98-6.34,7.03-7.85,12.18h35.13c.18-1.42.26-2.44.26-3.06,0-4.26-1.37-7.59-4.12-9.98Z"/>
  <path class="cls-1" d="M507.69,989.15c-2.75-2.39-6.34-3.59-10.78-3.59-4.7,0-8.92,1.49-12.64,4.46-3.73,2.98-6.34,7.03-7.85,12.18h35.13c.18-1.42.27-2.44.27-3.06,0-4.26-1.38-7.59-4.13-9.98Z"/>
  <path class="cls-1" d="M464.64,843.56c0-5.23-1.53-9.32-4.59-12.24-3.06-2.93-6.9-4.39-11.51-4.39-3.46,0-6.81.84-10.05,2.53-3.24,1.69-6.06,4.15-8.45,7.39-2.4,3.24-3.99,7.08-4.79,11.51-.27,1.69-.4,3.28-.4,4.79,0,5.32,1.51,9.51,4.53,12.58,3.01,3.06,6.83,4.59,11.44,4.59,3.46,0,6.83-.86,10.11-2.59,3.28-1.73,6.1-4.24,8.45-7.52,2.35-3.28,3.93-7.14,4.72-11.58.35-2.31.53-3.99.53-5.06Z"/>
  <path class="cls-1" d="M774.38,986.62c-3.46,0-6.81.84-10.05,2.53-3.24,1.69-6.05,4.15-8.45,7.39-2.4,3.24-3.99,7.08-4.79,11.51-.27,1.69-.4,3.28-.4,4.79,0,5.32,1.51,9.51,4.53,12.58,3.01,3.06,6.83,4.59,11.44,4.59,3.46,0,6.83-.86,10.12-2.59,3.28-1.73,6.1-4.24,8.45-7.52,2.35-3.28,3.93-7.14,4.72-11.58.35-2.31.53-3.99.53-5.06,0-5.23-1.53-9.32-4.59-12.24-3.06-2.93-6.9-4.39-11.51-4.39Z"/>
  <path class="cls-1" d="M1077.74,520.04c0-4.26-1.38-7.59-4.13-9.98-2.75-2.39-6.34-3.59-10.78-3.59-4.7,0-8.92,1.49-12.64,4.46-3.73,2.98-6.34,7.03-7.85,12.18h35.13c.18-1.42.27-2.44.27-3.06Z"/>
  <path class="cls-1" d="M992.96,826.93c-3.46,0-6.81.84-10.05,2.53-3.24,1.69-6.06,4.15-8.45,7.39-2.39,3.24-3.99,7.08-4.79,11.51-.27,1.69-.4,3.28-.4,4.79,0,5.32,1.51,9.51,4.53,12.58,3.02,3.06,6.83,4.59,11.44,4.59,3.46,0,6.83-.86,10.12-2.59,3.28-1.73,6.1-4.24,8.45-7.52,2.35-3.28,3.93-7.14,4.73-11.58.35-2.31.53-3.99.53-5.06,0-5.23-1.53-9.32-4.59-12.24-3.06-2.93-6.9-4.39-11.51-4.39Z"/>
  <path class="cls-1" d="M1073.81,679.74c0-4.26-1.38-7.59-4.13-9.98-2.75-2.39-6.34-3.59-10.78-3.59-4.7,0-8.92,1.49-12.64,4.46-3.73,2.98-6.34,7.03-7.85,12.18h35.13c.18-1.42.27-2.44.27-3.06Z"/>
  <path class="cls-1" d="M918.11,391.22c3.46,0,6.83-.86,10.12-2.59,3.28-1.73,6.1-4.24,8.45-7.52,2.35-3.28,3.93-7.14,4.73-11.58.35-2.31.53-3.99.53-5.06,0-5.23-1.53-9.32-4.59-12.24-3.06-2.93-6.9-4.39-11.51-4.39-3.46,0-6.81.84-10.05,2.53-3.24,1.69-6.06,4.15-8.45,7.39-2.39,3.24-3.99,7.08-4.79,11.51-.27,1.69-.4,3.28-.4,4.79,0,5.32,1.51,9.51,4.53,12.58,3.02,3.06,6.83,4.59,11.44,4.59Z"/>
  <path class="cls-1" d="M277.54,826.53c-4.52,0-8.54,1.29-12.04,3.86-3.51,2.58-6.23,6.01-8.18,10.31-1.95,4.3-2.93,8.85-2.93,13.64,0,5.24,1.4,9.27,4.19,12.11,2.79,2.84,6.45,4.26,10.98,4.26s8.47-1.28,12.11-3.86c3.64-2.57,6.47-5.99,8.52-10.25,2.04-4.26,3.06-8.74,3.06-13.44,0-5.32-1.49-9.43-4.46-12.31-2.97-2.88-6.72-4.33-11.25-4.33Z"/>
  <path class="cls-1" d="M361.57,667.23c-3.46,0-6.81.84-10.05,2.53-3.24,1.69-6.06,4.15-8.45,7.39-2.39,3.24-3.99,7.08-4.79,11.51-.27,1.69-.4,3.28-.4,4.79,0,5.32,1.51,9.51,4.53,12.58,3.02,3.06,6.83,4.59,11.45,4.59,3.46,0,6.83-.86,10.11-2.59,3.28-1.73,6.1-4.24,8.45-7.52,2.35-3.28,3.93-7.14,4.73-11.58.35-2.31.53-3.99.53-5.06,0-5.23-1.53-9.32-4.59-12.24-3.06-2.93-6.9-4.39-11.51-4.39Z"/>
  <path class="cls-1" d="M987.97,683.86c0-5.23-1.53-9.32-4.59-12.24-3.06-2.93-6.9-4.39-11.51-4.39-3.46,0-6.81.84-10.05,2.53-3.24,1.69-6.06,4.15-8.45,7.39-2.4,3.24-3.99,7.08-4.79,11.51-.27,1.69-.4,3.28-.4,4.79,0,5.32,1.51,9.51,4.53,12.58,3.01,3.06,6.83,4.59,11.44,4.59,3.46,0,6.83-.86,10.11-2.59,3.28-1.73,6.1-4.24,8.45-7.52,2.35-3.28,3.93-7.14,4.72-11.58.35-2.31.53-3.99.53-5.06Z"/>
  <path class="cls-1" d="M676.17,360.35c0-4.26-1.37-7.59-4.12-9.98-2.75-2.39-6.34-3.59-10.78-3.59-4.7,0-8.92,1.49-12.64,4.46-3.73,2.98-6.34,7.03-7.85,12.18h35.13c.18-1.42.26-2.44.26-3.06Z"/>
  <path class="cls-1" d="M925.63,520.04c0-4.26-1.38-7.59-4.13-9.98-2.75-2.39-6.34-3.59-10.78-3.59-4.7,0-8.92,1.49-12.64,4.46-3.73,2.98-6.34,7.03-7.85,12.18h35.13c.18-1.42.27-2.44.27-3.06Z"/>
  <path class="cls-1" d="M650.42,520.04c0-4.26-1.38-7.59-4.13-9.98-2.75-2.39-6.34-3.59-10.78-3.59-4.7,0-8.92,1.49-12.64,4.46-3.73,2.98-6.34,7.03-7.85,12.18h35.13c.18-1.42.27-2.44.27-3.06Z"/>
  <path class="cls-1" d="M886.77,829.45c-2.75-2.39-6.34-3.59-10.78-3.59-4.7,0-8.92,1.49-12.64,4.46-3.73,2.98-6.34,7.03-7.85,12.18h35.13c.18-1.42.27-2.44.27-3.06,0-4.26-1.38-7.59-4.13-9.98Z"/>
</svg>