<?xml version="1.0" encoding="UTF-8"?>
<svg id="Lag_1" xmlns="http://www.w3.org/2000/svg" viewBox="0 0 1324 1324">
  <defs>
    <style>
      .cls-1 {
        fill: #c28488;
      }
    </style>
  </defs>
  <path class="cls-1" d="M1044.82,577.14c-2.69-2.34-6.2-3.51-10.53-3.51-4.6,0-8.71,1.45-12.35,4.36-3.64,2.91-6.2,6.87-7.67,11.9h34.33c.17-1.39.26-2.38.26-2.99,0-4.16-1.34-7.41-4.03-9.75Z"/>
  <path class="cls-1" d="M662,0C296.39,0,0,296.39,0,662s296.39,662,662,662,662-296.39,662-662S1027.61,0,662,0ZM993.65,424.41c3.86-6.72,9.14-12.03,15.86-15.93,6.72-3.9,14.19-5.85,22.43-5.85,4.25,0,8.17.61,11.77,1.82,3.6,1.22,6.74,2.95,9.43,5.2l6.37-5.85h11.05l-12.35,11.31c3.55,5.03,5.33,11.01,5.33,17.95,0,8.24-1.95,15.69-5.85,22.37-3.9,6.68-9.25,11.94-16.06,15.8-6.81,3.86-14.33,5.79-22.56,5.79s-15.26-2.3-20.8-6.89l-6.24,5.72h-11.05l12.22-11.18c-3.56-4.85-5.33-10.84-5.33-17.95,0-8.15,1.93-15.58,5.79-22.3ZM981.49,562.45c4.16-2.43,8.67-3.64,13.52-3.64l-3.38,19.12h-4.81c-5.38,0-9.69,1.17-12.94,3.51-3.25,2.34-5.61,6.33-7.09,11.96l-6.76,38.49h-18.34l12.74-72.04h18.33l-2.21,12.74c3.12-4.33,6.76-7.72,10.92-10.14ZM897.23,484.68h18.07c.35,3.29,1.93,5.92,4.75,7.87,2.82,1.95,6.48,2.92,10.99,2.92,5.37,0,9.95-1.58,13.72-4.75,3.77-3.17,6.26-7.95,7.48-14.37l1.95-11.18c-2.95,3.38-6.65,6.2-11.12,8.45-4.47,2.25-9.34,3.38-14.63,3.38s-9.99-1.19-14.11-3.57c-4.12-2.38-7.33-5.76-9.62-10.14-2.3-4.38-3.45-9.47-3.45-15.28,0-2.69.26-5.5.78-8.45,1.3-7.28,3.88-13.74,7.74-19.38,3.86-5.63,8.56-9.97,14.11-13,5.55-3.03,11.4-4.55,17.56-4.55,5.37,0,9.95,1.06,13.72,3.19,3.77,2.13,6.44,4.88,8,8.26l1.82-10.27h18.33l-12.74,72.56c-1.22,6.67-3.64,12.64-7.28,17.88-3.64,5.24-8.41,9.4-14.3,12.48-5.9,3.08-12.66,4.62-20.29,4.62-10.14,0-18.06-2.38-23.73-7.15-5.68-4.77-8.26-11.27-7.74-19.5ZM789.57,439.82c1.3-7.45,3.97-14,8-19.64,4.03-5.63,9.04-9.97,15.02-13,5.98-3.03,12.53-4.55,19.64-4.55,9.19,0,16.47,2.54,21.85,7.61,5.37,5.07,8.06,11.9,8.06,20.48,0,2.78-.22,5.25-.65,7.41-.52,2.6-1.09,4.85-1.69,6.76h-52.67c-.09.61-.13,1.48-.13,2.6,0,4.51,1.32,8.04,3.97,10.6,2.64,2.56,6.13,3.84,10.47,3.84,3.64,0,6.78-.8,9.43-2.41,2.64-1.6,4.79-3.71,6.44-6.31h19.64c-3.21,6.94-8.17,12.64-14.89,17.1-6.72,4.47-14.32,6.7-22.82,6.7-9.19,0-16.56-2.6-22.11-7.8-5.55-5.2-8.32-12.27-8.32-21.2,0-2.6.26-5.33.78-8.19ZM794.31,785.78c-4.55,2.21-9.51,3.32-14.89,3.32s-9.97-1.19-14.04-3.57c-4.08-2.38-7.24-5.76-9.49-10.14-2.25-4.38-3.38-9.47-3.38-15.28,0-2.69.26-5.5.78-8.45,1.3-7.28,3.88-13.74,7.74-19.38,3.86-5.63,8.56-9.97,14.11-13,5.55-3.03,11.4-4.55,17.56-4.55,5.37,0,9.9,1.09,13.59,3.25,3.68,2.17,6.39,4.9,8.13,8.19l1.82-10.27h18.33l-12.74,72.04h-18.33l1.95-10.53c-2.86,3.38-6.57,6.18-11.12,8.39ZM728.9,771.48c.99.74,2.66,1.1,5.01,1.1h8.58l-2.73,15.34h-11.57c-13,0-19.51-5.42-19.51-16.25,0-2.08.17-4.12.52-6.11l6.11-34.72h-8.58l2.6-14.96h8.71l3.12-17.81h18.33l-3.12,17.81h15.99l-2.6,14.96h-16.12l-6.11,34.85c-.09.52-.13,1.22-.13,2.08,0,1.74.5,2.97,1.49,3.71ZM739.83,626.36c-6.72,4.47-14.33,6.7-22.82,6.7-9.19,0-16.56-2.6-22.11-7.8-5.55-5.2-8.32-12.27-8.32-21.2,0-2.6.26-5.33.78-8.19,1.3-7.45,3.97-14,8-19.64,4.03-5.63,9.04-9.97,15.02-13,5.98-3.03,12.53-4.55,19.64-4.55,9.19,0,16.47,2.54,21.85,7.61,5.37,5.07,8.06,11.9,8.06,20.48,0,2.78-.22,5.25-.65,7.41-.52,2.6-1.09,4.85-1.69,6.76h-52.66c-.09.61-.13,1.48-.13,2.6,0,4.51,1.32,8.04,3.97,10.6,2.64,2.56,6.13,3.84,10.47,3.84,3.64,0,6.78-.8,9.43-2.41,2.64-1.6,4.79-3.71,6.44-6.31h19.64c-3.21,6.94-8.17,12.64-14.89,17.1ZM815.96,701c-1.65,2.73-3.82,4.86-6.5,6.37-2.69,1.52-5.59,2.27-8.71,2.27-3.73,0-6.76-1.06-9.1-3.18-2.34-2.12-3.51-5.01-3.51-8.65,0-1.39.09-2.43.26-3.12.87-4.51,2.95-8.13,6.24-10.86,3.29-2.73,7.07-4.1,11.31-4.1,3.72,0,6.74,1.06,9.04,3.19,2.3,2.12,3.45,5.01,3.45,8.65s-.83,6.7-2.47,9.43ZM801.66,542.03l-3.12,17.81h15.99l-2.6,14.96h-16.12l-6.11,34.85c-.09.52-.13,1.22-.13,2.08,0,1.74.5,2.97,1.49,3.71.99.74,2.66,1.1,5.01,1.1h8.58l-2.73,15.34h-11.57c-13,0-19.51-5.42-19.51-16.25,0-2.08.17-4.12.52-6.11l6.11-34.72h-8.58l2.6-14.96h8.71l3.12-17.81h18.33ZM727.73,413.03c2.47-3.29,5.92-5.85,10.34-7.67,4.42-1.82,9.49-2.73,15.21-2.73s10.27.91,14.43,2.73c4.16,1.82,7.39,4.36,9.69,7.61,2.3,3.25,3.45,6.96,3.45,11.12,0,1.04-.04,1.82-.13,2.34h-16.9c.26-3.03-.61-5.46-2.6-7.28-2-1.82-4.9-2.73-8.71-2.73-3.12,0-5.68.67-7.67,2.02-2,1.34-2.99,3.14-2.99,5.4s1.13,4.1,3.38,5.53c2.25,1.43,5.72,3.01,10.4,4.75,4.68,1.82,8.43,3.49,11.25,5.01,2.81,1.52,5.27,3.6,7.35,6.24,2.08,2.64,3.12,5.96,3.12,9.95,0,4.42-1.35,8.28-4.03,11.57-2.69,3.3-6.37,5.81-11.05,7.54-4.68,1.73-9.97,2.6-15.87,2.6-5.29,0-10.08-.89-14.37-2.66-4.29-1.78-7.67-4.25-10.14-7.41-2.47-3.16-3.71-6.78-3.71-10.86,0-.6.08-1.6.26-2.99h17.68c-.26,3.03.65,5.48,2.73,7.35,2.08,1.87,5.03,2.8,8.84,2.8,3.47,0,6.35-.63,8.65-1.89,2.3-1.25,3.45-3.1,3.45-5.53,0-2.17-1.06-3.9-3.19-5.2-2.13-1.3-5.48-2.77-10.08-4.42-4.6-1.65-8.41-3.25-11.44-4.81-3.03-1.56-5.64-3.72-7.8-6.5-2.17-2.77-3.25-6.28-3.25-10.53s1.24-8.02,3.71-11.31ZM700.36,379.62h18.33l-17.03,96.23h-18.34l17.04-96.23ZM686.06,535.66l-17.04,96.23h-18.33l17.04-96.23h18.33ZM629.23,407.18c5.98-3.03,12.53-4.55,19.64-4.55,9.19,0,16.47,2.54,21.85,7.61,5.37,5.07,8.06,11.9,8.06,20.48,0,2.78-.22,5.25-.65,7.41-.52,2.6-1.09,4.85-1.69,6.76h-52.66c-.09.61-.13,1.48-.13,2.6,0,4.51,1.32,8.04,3.97,10.6,2.64,2.56,6.13,3.84,10.47,3.84,3.64,0,6.78-.8,9.43-2.41,2.64-1.6,4.79-3.71,6.44-6.31h19.64c-3.21,6.94-8.17,12.64-14.89,17.1-6.72,4.47-14.33,6.7-22.82,6.7-9.19,0-16.56-2.6-22.11-7.8-5.55-5.2-8.32-12.27-8.32-21.2,0-2.6.26-5.33.78-8.19,1.3-7.45,3.97-14,8-19.64,4.03-5.63,9.04-9.97,15.02-13ZM621.3,718.49c4.16-2.43,8.67-3.64,13.52-3.64l-3.38,19.12h-4.81c-5.38,0-9.69,1.17-12.94,3.51-3.25,2.34-5.61,6.33-7.09,11.96l-6.76,38.49h-18.33l12.74-72.04h18.33l-2.21,12.74c3.12-4.33,6.76-7.72,10.92-10.14ZM552.38,403.8l8.45,55.27,27.96-55.27h19.64l-39.4,72.04h-22.37l-13.78-72.04h19.51ZM545.23,559.84h18.33l-1.56,8.84c2.95-3.03,6.46-5.44,10.53-7.22,4.08-1.78,8.32-2.66,12.74-2.66,7.45,0,13.33,2.01,17.62,6.05,4.29,4.03,6.44,9.78,6.44,17.23,0,2.78-.22,5.29-.65,7.54l-7.54,42.26h-18.08l7.02-39.79c.26-1.56.39-3.07.39-4.55,0-4.33-1.15-7.63-3.45-9.88-2.3-2.25-5.57-3.38-9.82-3.38-4.85,0-8.99,1.45-12.42,4.36-3.42,2.91-5.7,7.09-6.83,12.55l-7.15,40.7h-18.34l12.74-72.04ZM450.7,439.82c1.3-7.45,3.97-14,8-19.64,4.03-5.63,9.04-9.97,15.02-13,5.98-3.03,12.53-4.55,19.64-4.55,9.19,0,16.47,2.54,21.85,7.61,5.37,5.07,8.06,11.9,8.06,20.48,0,2.78-.22,5.25-.65,7.41-.52,2.6-1.09,4.85-1.69,6.76h-52.67c-.09.61-.13,1.48-.13,2.6,0,4.51,1.32,8.04,3.97,10.6,2.64,2.56,6.13,3.84,10.47,3.84,3.64,0,6.78-.8,9.43-2.41,2.64-1.6,4.79-3.71,6.44-6.31h19.64c-3.21,6.94-8.17,12.64-14.89,17.1-6.72,4.47-14.33,6.7-22.82,6.7-9.19,0-16.56-2.6-22.11-7.8-5.55-5.2-8.32-12.27-8.32-21.2,0-2.6.26-5.33.78-8.19ZM449.4,379.62l-17.03,96.23h-18.34l17.04-96.23h18.33ZM328.98,439.56c1.3-7.28,3.88-13.74,7.74-19.38,3.86-5.63,8.58-9.97,14.17-13s11.46-4.55,17.62-4.55c4.68,0,8.97,1.02,12.87,3.06,3.9,2.04,6.81,4.75,8.71,8.13l6.11-34.2h18.33l-17.03,96.23h-18.34l1.95-10.66c-2.86,3.56-6.52,6.42-10.99,8.58-4.47,2.16-9.38,3.25-14.76,3.25s-9.99-1.19-14.11-3.57c-4.12-2.38-7.33-5.76-9.62-10.14-2.3-4.38-3.45-9.47-3.45-15.28,0-2.69.26-5.5.78-8.45ZM355.38,551.26c-2.86,0-5.16-.82-6.89-2.47-1.74-1.65-2.6-3.73-2.6-6.24,0-3.47,1.32-6.44,3.97-8.91,2.64-2.47,5.74-3.71,9.3-3.71,2.77,0,5.03.83,6.76,2.47,1.73,1.65,2.6,3.73,2.6,6.24,0,3.47-1.3,6.44-3.9,8.91-2.6,2.47-5.68,3.71-9.23,3.71ZM362.92,559.84l-12.74,72.04h-18.34l12.74-72.04h18.33ZM226,475.84h-18.34l16.13-90.77h18.2l-15.99,90.77ZM255.25,403.8h18.33l-1.56,8.84c2.95-3.03,6.46-5.44,10.53-7.22,4.07-1.78,8.32-2.66,12.74-2.66,7.45,0,13.33,2.01,17.62,6.05,4.29,4.03,6.44,9.78,6.44,17.23,0,2.78-.22,5.29-.65,7.54l-7.54,42.26h-18.07l7.02-39.79c.26-1.56.39-3.07.39-4.55,0-4.33-1.15-7.63-3.45-9.88-2.3-2.25-5.57-3.38-9.82-3.38-4.86,0-8.99,1.45-12.42,4.36-3.42,2.91-5.7,7.09-6.83,12.55l-7.15,40.7h-18.33l12.74-72.04ZM260.33,559.84h19.51l8.45,55.27,27.96-55.27h19.64l-39.4,72.04h-22.37l-13.78-72.04ZM357.07,787.93h-18.34l1.95-10.53c-2.86,3.38-6.57,6.18-11.12,8.39-4.55,2.21-9.52,3.32-14.89,3.32s-9.97-1.19-14.04-3.57c-4.08-2.38-7.24-5.76-9.49-10.14-2.25-4.38-3.38-9.47-3.38-15.28,0-2.69.26-5.5.78-8.45,1.3-7.28,3.88-13.74,7.74-19.38,3.86-5.63,8.56-9.97,14.11-13,5.55-3.03,11.4-4.55,17.56-4.55,5.37,0,9.9,1.09,13.59,3.25,3.68,2.17,6.39,4.9,8.13,8.19l1.82-10.27h18.33l-12.74,72.04ZM421.05,730.84h-16.12l-6.11,34.85c-.09.52-.13,1.22-.13,2.08,0,1.74.5,2.97,1.49,3.71s2.67,1.1,5.01,1.1h8.58l-2.73,15.34h-11.57c-13,0-19.51-5.42-19.51-16.25,0-2.08.17-4.12.52-6.11l6.11-34.72h-8.58l2.6-14.96h8.71l3.12-17.81h18.33l-3.12,17.81h15.99l-2.6,14.96ZM437.04,631.88h-18.33l1.95-10.66c-2.86,3.56-6.52,6.42-10.99,8.58-4.47,2.16-9.39,3.25-14.76,3.25s-9.99-1.19-14.11-3.57c-4.12-2.38-7.33-5.76-9.62-10.14-2.3-4.38-3.45-9.47-3.45-15.28,0-2.69.26-5.5.78-8.45,1.3-7.28,3.88-13.74,7.74-19.38,3.86-5.63,8.58-9.97,14.17-13,5.59-3.03,11.46-4.55,17.62-4.55,4.68,0,8.97,1.02,12.87,3.06,3.9,2.04,6.8,4.75,8.71,8.13l6.11-34.2h18.33l-17.03,96.23ZM455.38,595.86c1.3-7.45,3.97-14,8-19.64,4.03-5.63,9.04-9.97,15.02-13,5.98-3.03,12.53-4.55,19.64-4.55,9.19,0,16.47,2.54,21.85,7.61,5.37,5.07,8.06,11.9,8.06,20.48,0,2.78-.22,5.25-.65,7.41-.52,2.6-1.09,4.85-1.69,6.76h-52.66c-.09.61-.13,1.48-.13,2.6,0,4.51,1.32,8.04,3.97,10.6,2.64,2.56,6.13,3.84,10.47,3.84,3.64,0,6.78-.8,9.43-2.41,2.64-1.6,4.79-3.71,6.44-6.31h19.64c-3.21,6.94-8.17,12.64-14.89,17.1-6.72,4.47-14.33,6.7-22.82,6.7-9.19,0-16.56-2.6-22.11-7.8-5.55-5.2-8.32-12.27-8.32-21.2,0-2.6.26-5.33.78-8.19ZM460.19,730.84l2.6-14.96h8.32l.65-3.64c1.56-8.84,5.2-15.34,10.92-19.5,5.72-4.16,13.61-6.11,23.67-5.85l-2.6,15.34c-4.33-.08-7.54.65-9.62,2.21-2.08,1.56-3.47,4.38-4.16,8.45l-.52,2.99h12.61l-2.6,14.96h-12.61l-10.14,57.08h-18.33l10.14-57.08h-8.32ZM543.54,901.71l-7.54,42.26h-18.07l7.02-39.79c.26-1.56.39-3.07.39-4.55,0-4.33-1.15-7.63-3.45-9.88-2.3-2.25-5.57-3.38-9.82-3.38-4.86,0-8.97,1.45-12.35,4.36-3.38,2.91-5.64,7.05-6.76,12.42l-7.28,40.83h-18.34l17.04-96.23h18.33l-5.85,33.03c2.95-3.03,6.52-5.44,10.73-7.22,4.2-1.78,8.65-2.66,13.33-2.66,7.11,0,12.76,2.04,16.97,6.11,4.2,4.08,6.31,9.8,6.31,17.16,0,2.78-.22,5.29-.65,7.54ZM532.1,789.1c-6.16,0-11.6-1.25-16.32-3.77-4.73-2.51-8.39-6.07-10.99-10.66-2.6-4.59-3.9-9.88-3.9-15.86,0-8.15,1.93-15.58,5.79-22.3,3.86-6.72,9.15-12.03,15.86-15.93,6.72-3.9,14.19-5.85,22.43-5.85,6.15,0,11.64,1.28,16.45,3.84,4.81,2.56,8.54,6.13,11.18,10.73,2.64,4.59,3.97,9.88,3.97,15.86,0,8.24-1.95,15.69-5.85,22.37-3.9,6.68-9.25,11.94-16.06,15.8s-14.32,5.79-22.56,5.79ZM620,943.97h-18.2l1.56-9.1c-2.77,3.12-6.2,5.57-10.27,7.35-4.08,1.78-8.37,2.66-12.87,2.66-7.46,0-13.35-2.01-17.68-6.05-4.34-4.03-6.5-9.77-6.5-17.23,0-2.77.22-5.24.65-7.41l7.41-42.26h18.21l-7.02,39.66c-.26,1.56-.39,3.08-.39,4.55,0,4.25,1.17,7.52,3.51,9.82s5.63,3.45,9.88,3.45c4.94,0,9.15-1.54,12.61-4.62,3.47-3.07,5.68-7.48,6.63-13.2l7.02-39.66h18.21l-12.74,72.04ZM632.74,768.16c0-.6.08-1.6.26-2.99h17.69c-.26,3.03.65,5.48,2.73,7.35,2.08,1.87,5.03,2.8,8.84,2.8,3.47,0,6.35-.63,8.65-1.89,2.3-1.25,3.45-3.1,3.45-5.53,0-2.17-1.06-3.9-3.19-5.2-2.12-1.3-5.48-2.77-10.08-4.42s-8.41-3.25-11.44-4.81c-3.04-1.56-5.64-3.72-7.8-6.5-2.17-2.77-3.25-6.28-3.25-10.53s1.24-8.02,3.71-11.31c2.47-3.29,5.92-5.85,10.34-7.67,4.42-1.82,9.49-2.73,15.21-2.73s10.27.91,14.43,2.73c4.16,1.82,7.39,4.36,9.69,7.61,2.3,3.25,3.44,6.96,3.44,11.12,0,1.04-.04,1.82-.13,2.34h-16.9c.26-3.03-.61-5.46-2.6-7.28-2-1.82-4.9-2.73-8.71-2.73-3.12,0-5.68.67-7.67,2.02-2,1.34-2.99,3.14-2.99,5.4s1.13,4.1,3.38,5.53c2.25,1.43,5.72,3.01,10.4,4.75,4.68,1.82,8.43,3.49,11.25,5.01,2.82,1.52,5.27,3.6,7.35,6.24,2.08,2.64,3.12,5.96,3.12,9.95,0,4.42-1.35,8.28-4.03,11.57-2.69,3.3-6.37,5.81-11.05,7.54-4.68,1.73-9.97,2.6-15.86,2.6-5.29,0-10.08-.89-14.37-2.66-4.29-1.78-7.67-4.25-10.14-7.41-2.47-3.16-3.71-6.78-3.71-10.86ZM699.19,894.56h-16.9c.26-3.03-.61-5.46-2.6-7.28-2-1.82-4.9-2.73-8.71-2.73-3.12,0-5.68.67-7.67,2.02-2,1.34-2.99,3.14-2.99,5.4s1.12,4.1,3.38,5.53c2.25,1.43,5.72,3.01,10.4,4.75,4.68,1.82,8.43,3.49,11.25,5.01,2.81,1.52,5.26,3.6,7.35,6.24,2.08,2.64,3.12,5.96,3.12,9.95,0,4.42-1.34,8.28-4.03,11.57-2.69,3.3-6.37,5.81-11.05,7.54-4.68,1.73-9.97,2.6-15.86,2.6-5.29,0-10.08-.89-14.37-2.66-4.29-1.78-7.67-4.25-10.14-7.41-2.47-3.16-3.71-6.78-3.71-10.86,0-.6.09-1.6.26-2.99h17.69c-.26,3.03.65,5.48,2.73,7.35,2.08,1.87,5.03,2.8,8.84,2.8,3.47,0,6.35-.63,8.65-1.89,2.3-1.25,3.45-3.1,3.45-5.53,0-2.17-1.06-3.9-3.19-5.2-2.12-1.3-5.48-2.77-10.08-4.42s-8.41-3.25-11.44-4.81c-3.03-1.56-5.64-3.72-7.8-6.5-2.17-2.77-3.25-6.28-3.25-10.53s1.24-8.02,3.71-11.31c2.47-3.29,5.92-5.85,10.34-7.67,4.42-1.82,9.49-2.73,15.21-2.73s10.27.91,14.43,2.73c4.16,1.82,7.39,4.36,9.69,7.61,2.3,3.25,3.45,6.96,3.45,11.12,0,1.04-.04,1.82-.13,2.34ZM748.99,943.97l-18.99-30.56-5.46,30.56h-18.33l17.03-96.23h18.34l-9.62,54.61,29.39-30.43h23.8l-38.1,36.02,25.49,36.02h-23.54ZM854.58,906.26c-.52,2.6-1.09,4.85-1.69,6.76h-52.67c-.09.61-.13,1.48-.13,2.6,0,4.51,1.32,8.04,3.97,10.6,2.64,2.56,6.13,3.84,10.47,3.84,3.64,0,6.78-.8,9.43-2.41,2.64-1.6,4.79-3.71,6.44-6.31h19.63c-3.21,6.94-8.17,12.64-14.89,17.1-6.72,4.47-14.33,6.7-22.82,6.7-9.19,0-16.56-2.6-22.11-7.8-5.55-5.2-8.32-12.27-8.32-21.2,0-2.6.26-5.33.78-8.19,1.3-7.45,3.97-14,8-19.64,4.03-5.63,9.04-9.97,15.02-13,5.98-3.03,12.53-4.55,19.64-4.55,9.19,0,16.47,2.54,21.85,7.61,5.37,5.07,8.06,11.9,8.06,20.48,0,2.78-.22,5.25-.65,7.41ZM861.08,574.8h-16.12l-6.11,34.85c-.09.52-.13,1.22-.13,2.08,0,1.74.5,2.97,1.49,3.71.99.74,2.66,1.1,5.01,1.1h8.58l-2.73,15.34h-11.57c-13,0-19.5-5.42-19.5-16.25,0-2.08.17-4.12.52-6.11l6.11-34.72h-8.58l2.6-14.96h8.71l3.12-17.81h18.33l-3.12,17.81h15.99l-2.6,14.96ZM863.81,604.06c0-2.6.26-5.33.78-8.19,1.3-7.45,3.97-14,8-19.64,4.03-5.63,9.04-9.97,15.02-13,5.98-3.03,12.53-4.55,19.64-4.55,9.19,0,16.47,2.54,21.85,7.61,5.37,5.07,8.06,11.9,8.06,20.48,0,2.78-.22,5.25-.65,7.41-.52,2.6-1.09,4.85-1.69,6.76h-52.66c-.09.61-.13,1.48-.13,2.6,0,4.51,1.32,8.04,3.97,10.6,2.64,2.56,6.13,3.84,10.47,3.84,3.64,0,6.78-.8,9.43-2.41,2.64-1.6,4.79-3.71,6.44-6.31h19.64c-3.21,6.94-8.17,12.64-14.89,17.1-6.72,4.47-14.33,6.7-22.82,6.7-9.19,0-16.56-2.6-22.11-7.8-5.55-5.2-8.32-12.27-8.32-21.2ZM942.74,767.51c-3.9,6.68-9.25,11.94-16.06,15.8-6.81,3.86-14.33,5.79-22.56,5.79-6.16,0-11.59-1.25-16.32-3.77-4.73-2.51-8.39-6.07-10.99-10.66-2.6-4.59-3.9-9.88-3.9-15.86,0-8.15,1.93-15.58,5.79-22.3,3.86-6.72,9.15-12.03,15.86-15.93,6.72-3.9,14.19-5.85,22.43-5.85,6.16,0,11.64,1.28,16.45,3.84,4.81,2.56,8.54,6.13,11.18,10.73,2.64,4.59,3.97,9.88,3.97,15.86,0,8.24-1.95,15.69-5.85,22.37ZM1023.88,788.45c-1.21,6.67-3.64,12.64-7.28,17.88-3.64,5.24-8.41,9.4-14.31,12.48-5.9,3.08-12.66,4.62-20.29,4.62-10.14,0-18.06-2.38-23.73-7.15-5.68-4.77-8.26-11.27-7.74-19.5h18.07c.34,3.29,1.93,5.92,4.75,7.87,2.81,1.95,6.48,2.92,10.99,2.92,5.38,0,9.95-1.58,13.72-4.75,3.77-3.17,6.26-7.95,7.48-14.37l1.95-11.18c-2.95,3.38-6.65,6.2-11.12,8.45-4.47,2.25-9.34,3.38-14.63,3.38s-9.99-1.19-14.11-3.57-7.33-5.76-9.62-10.14c-2.3-4.38-3.45-9.47-3.45-15.28,0-2.69.26-5.5.78-8.45,1.3-7.28,3.88-13.74,7.74-19.38,3.86-5.63,8.56-9.97,14.11-13,5.55-3.03,11.4-4.55,17.55-4.55,5.37,0,9.95,1.06,13.72,3.19,3.77,2.13,6.44,4.88,8,8.26l1.82-10.27h18.33l-12.74,72.56ZM1066.66,594.17c-.52,2.6-1.09,4.85-1.69,6.76h-52.67c-.09.61-.13,1.48-.13,2.6,0,4.51,1.32,8.04,3.97,10.6,2.64,2.56,6.13,3.84,10.47,3.84,3.64,0,6.78-.8,9.43-2.41,2.64-1.6,4.79-3.71,6.44-6.31h19.63c-3.21,6.94-8.17,12.64-14.89,17.1-6.72,4.47-14.33,6.7-22.82,6.7-9.19,0-16.56-2.6-22.11-7.8-5.55-5.2-8.32-12.27-8.32-21.2,0-2.6.26-5.33.78-8.19,1.3-7.45,3.97-14,8-19.64,4.03-5.63,9.04-9.97,15.02-13,5.98-3.03,12.53-4.55,19.64-4.55,9.19,0,16.47,2.54,21.85,7.61,5.37,5.07,8.06,11.9,8.06,20.48,0,2.78-.22,5.25-.65,7.41ZM1118.16,421.88h-4.81c-5.38,0-9.69,1.17-12.94,3.51-3.25,2.34-5.61,6.33-7.09,11.96l-6.76,38.49h-18.33l12.74-72.04h18.33l-2.21,12.74c3.12-4.33,6.76-7.72,10.92-10.14,4.16-2.43,8.67-3.64,13.52-3.64l-3.38,19.12Z"/>
  <path class="cls-1" d="M996.7,730.71c-3.38,0-6.65.83-9.82,2.47-3.17,1.65-5.91,4.05-8.26,7.22-2.34,3.17-3.9,6.92-4.68,11.25-.26,1.65-.39,3.21-.39,4.68,0,5.2,1.47,9.3,4.42,12.29,2.95,2.99,6.67,4.48,11.18,4.48,3.38,0,6.67-.84,9.88-2.53,3.21-1.69,5.96-4.14,8.26-7.35,2.3-3.21,3.84-6.98,4.62-11.31.35-2.25.52-3.9.52-4.94,0-5.11-1.49-9.1-4.49-11.96-2.99-2.86-6.74-4.29-11.25-4.29Z"/>
  <path class="cls-1" d="M914.39,730.32c-4.42,0-8.35,1.26-11.77,3.77-3.42,2.52-6.09,5.87-8,10.08-1.91,4.21-2.86,8.65-2.86,13.33,0,5.12,1.37,9.06,4.1,11.83,2.73,2.78,6.31,4.16,10.73,4.16s8.28-1.25,11.83-3.77c3.56-2.51,6.33-5.85,8.32-10.01,1.99-4.16,2.99-8.54,2.99-13.13,0-5.2-1.45-9.21-4.36-12.03-2.91-2.82-6.57-4.23-10.99-4.23Z"/>
  <path class="cls-1" d="M362.79,461.02c3.38,0,6.67-.84,9.88-2.53,3.21-1.69,5.96-4.14,8.26-7.35,2.3-3.21,3.84-6.98,4.62-11.31.34-2.25.52-3.9.52-4.94,0-5.11-1.49-9.1-4.48-11.96-2.99-2.86-6.74-4.29-11.25-4.29-3.38,0-6.66.83-9.82,2.47-3.17,1.65-5.92,4.05-8.26,7.22-2.34,3.17-3.9,6.92-4.68,11.25-.26,1.65-.39,3.21-.39,4.68,0,5.2,1.47,9.3,4.42,12.29,2.95,2.99,6.67,4.48,11.18,4.48Z"/>
  <path class="cls-1" d="M918.69,586.89c0-4.16-1.34-7.41-4.03-9.75-2.69-2.34-6.2-3.51-10.53-3.51-4.6,0-8.71,1.45-12.35,4.36-3.64,2.91-6.2,6.87-7.67,11.9h34.33c.17-1.39.26-2.38.26-2.99Z"/>
  <path class="cls-1" d="M832.74,889.23c-2.69-2.34-6.2-3.51-10.53-3.51-4.6,0-8.71,1.45-12.35,4.36-3.64,2.91-6.2,6.87-7.67,11.9h34.33c.17-1.39.26-2.38.26-2.99,0-4.16-1.34-7.41-4.03-9.75Z"/>
  <path class="cls-1" d="M329.9,730.71c-3.38,0-6.66.83-9.82,2.47-3.17,1.65-5.92,4.05-8.26,7.22-2.34,3.17-3.9,6.92-4.68,11.25-.26,1.65-.39,3.21-.39,4.68,0,5.2,1.47,9.3,4.42,12.29,2.95,2.99,6.67,4.48,11.18,4.48,3.38,0,6.67-.84,9.88-2.53,3.21-1.69,5.96-4.14,8.26-7.35,2.3-3.21,3.83-6.98,4.62-11.31.34-2.25.52-3.9.52-4.94,0-5.11-1.49-9.1-4.48-11.96-2.99-2.86-6.74-4.29-11.25-4.29Z"/>
  <path class="cls-1" d="M409.87,574.67c-3.38,0-6.65.83-9.82,2.47-3.17,1.65-5.92,4.05-8.26,7.22-2.34,3.17-3.9,6.92-4.68,11.25-.26,1.65-.39,3.21-.39,4.68,0,5.2,1.47,9.3,4.42,12.29,2.95,2.99,6.67,4.48,11.18,4.48,3.38,0,6.67-.84,9.88-2.53,3.21-1.69,5.96-4.14,8.26-7.35,2.3-3.21,3.84-6.98,4.62-11.31.35-2.25.52-3.9.52-4.94,0-5.11-1.5-9.1-4.49-11.96-2.99-2.86-6.74-4.29-11.25-4.29Z"/>
  <path class="cls-1" d="M509.47,586.89c0-4.16-1.34-7.41-4.03-9.75-2.69-2.34-6.2-3.51-10.53-3.51-4.59,0-8.71,1.45-12.35,4.36-3.64,2.91-6.2,6.87-7.67,11.9h34.33c.17-1.39.26-2.38.26-2.99Z"/>
  <path class="cls-1" d="M542.37,730.32c-4.42,0-8.34,1.26-11.77,3.77-3.42,2.52-6.09,5.87-8,10.08-1.91,4.21-2.86,8.65-2.86,13.33,0,5.12,1.37,9.06,4.1,11.83,2.73,2.78,6.31,4.16,10.73,4.16s8.28-1.25,11.83-3.77c3.55-2.51,6.33-5.85,8.32-10.01,1.99-4.16,2.99-8.54,2.99-13.13,0-5.2-1.45-9.21-4.36-12.03-2.91-2.82-6.57-4.23-10.99-4.23Z"/>
  <path class="cls-1" d="M1021.55,461.41c4.33,0,8.28-1.25,11.83-3.77,3.55-2.51,6.33-5.85,8.32-10.01,1.99-4.16,2.99-8.54,2.99-13.13,0-2.34-.3-4.38-.91-6.11l-32.25,29.52c2.6,2.34,5.94,3.51,10.01,3.51Z"/>
  <path class="cls-1" d="M660.31,430.85c0-4.16-1.34-7.41-4.03-9.75-2.69-2.34-6.2-3.51-10.53-3.51-4.6,0-8.71,1.45-12.35,4.36-3.64,2.91-6.2,6.87-7.67,11.9h34.33c.17-1.39.26-2.38.26-2.99Z"/>
  <path class="cls-1" d="M959.13,434.88c0-5.11-1.49-9.1-4.49-11.96-2.99-2.86-6.74-4.29-11.25-4.29-3.38,0-6.65.83-9.82,2.47-3.17,1.65-5.92,4.05-8.26,7.22-2.34,3.17-3.9,6.92-4.68,11.25-.26,1.65-.39,3.21-.39,4.68,0,5.2,1.47,9.3,4.42,12.29,2.95,2.99,6.68,4.48,11.18,4.48,3.38,0,6.67-.84,9.88-2.53,3.21-1.69,5.96-4.14,8.26-7.35,2.3-3.21,3.83-6.98,4.62-11.31.35-2.25.52-3.9.52-4.94Z"/>
  <path class="cls-1" d="M843.66,430.85c0-4.16-1.34-7.41-4.03-9.75-2.69-2.34-6.2-3.51-10.53-3.51-4.6,0-8.71,1.45-12.35,4.36-3.64,2.91-6.2,6.87-7.67,11.9h34.33c.17-1.39.26-2.38.26-2.99Z"/>
  <path class="cls-1" d="M804.38,688.19c-1.82,0-3.44.58-4.88,1.75-1.43,1.17-2.32,2.75-2.66,4.75-.09.26-.13.65-.13,1.17,0,1.56.5,2.84,1.49,3.83,1,1,2.32,1.49,3.97,1.49,2.08,0,3.9-.76,5.46-2.27,1.56-1.52,2.34-3.4,2.34-5.66,0-1.56-.52-2.8-1.56-3.71-1.04-.91-2.39-1.37-4.03-1.37Z"/>
  <path class="cls-1" d="M810.37,746.97c0-5.11-1.5-9.1-4.49-11.96-2.99-2.86-6.74-4.29-11.25-4.29-3.38,0-6.65.83-9.82,2.47-3.17,1.65-5.92,4.05-8.26,7.22-2.34,3.17-3.9,6.92-4.68,11.25-.26,1.65-.39,3.21-.39,4.68,0,5.2,1.47,9.3,4.42,12.29,2.95,2.99,6.67,4.48,11.18,4.48,3.38,0,6.67-.84,9.88-2.53,3.21-1.69,5.96-4.14,8.26-7.35,2.3-3.21,3.84-6.98,4.62-11.31.35-2.25.52-3.9.52-4.94Z"/>
  <path class="cls-1" d="M741.45,586.89c0-4.16-1.34-7.41-4.03-9.75-2.69-2.34-6.2-3.51-10.53-3.51-4.6,0-8.71,1.45-12.35,4.36-3.64,2.91-6.2,6.87-7.67,11.9h34.33c.17-1.39.26-2.38.26-2.99Z"/>
  <path class="cls-1" d="M1039.75,421.88c-2.69-2.43-6.16-3.64-10.4-3.64s-8.34,1.26-11.77,3.77c-3.43,2.52-6.09,5.87-8,10.08-1.91,4.21-2.86,8.65-2.86,13.33,0,2.26.26,4.29.78,6.11l32.25-29.65Z"/>
  <path class="cls-1" d="M504.79,430.85c0-4.16-1.34-7.41-4.03-9.75-2.69-2.34-6.2-3.51-10.53-3.51-4.6,0-8.71,1.45-12.35,4.36-3.64,2.91-6.2,6.87-7.67,11.9h34.33c.17-1.39.26-2.38.26-2.99Z"/>
</svg>