<?xml version="1.0" encoding="UTF-8"?>
<svg id="Lag_1" xmlns="http://www.w3.org/2000/svg" viewBox="0 0 887.81 917.82">
  <defs>
    <style>
      .cls-1 {
        fill: #3e3735;
      }
    </style>
  </defs>
  <path class="cls-1" d="M84.23,73.64c16.02-4.19,30.47-3.46,43.35,2.17,12.88,5.63,24.55,13.78,35.01,24.42,10.46,10.66,20.06,22.63,28.81,35.92,8.74,13.3,16.9,25.65,24.49,37.05,7.59,11.41,14.73,20.73,21.46,27.97,6.72,7.24,13.56,9.95,20.56,8.12,5.33-1.39,9.4-6.84,12.18-16.35,2.78-9.5,5.21-21.21,7.28-35.14,2.06-13.92,4.48-29.04,7.24-45.34,2.76-16.29,6.92-31.86,12.48-46.71,5.56-14.83,13.12-27.88,22.68-39.17,9.56-11.27,22.35-19,38.37-23.19,15.61-4.08,29.33-4.47,41.15-1.21,11.82,3.28,22.06,9.7,30.72,19.29,8.65,9.59,16.22,22.2,22.72,37.84,6.49,15.64,12.43,33.73,17.8,54.26,3.65,13.97,10.74,29.78,21.28,47.43,10.54,17.66,21.99,36.71,34.36,57.18,12.36,20.47,24.55,42.3,36.53,65.49,11.99,23.2,21.25,47.34,27.8,72.39,8.8,33.69,13.28,62.59,13.43,86.68.14,24.09-3.01,44.33-9.47,60.73-6.48,16.39-15.84,29.26-28.09,38.61-12.27,9.34-26.61,16.17-43.03,20.46s-33.1,5.57-48.78,3.53c-15.68-2.05-29.89-6.9-42.64-14.53-12.75-7.64-23.77-17.93-33.07-30.85-9.3-12.92-16.26-28.22-20.88-45.89-6.22-23.82-9.32-44.07-9.29-60.77.03-16.68.97-31.95,2.84-45.83,1.86-13.87,3.29-27.29,4.29-40.29.99-12.98-.71-27.89-5.11-44.74-2.47-9.45-5.94-16.44-10.42-20.97-4.47-4.53-9.18-6.16-14.11-4.87-4.53,1.18-7.41,5.67-8.66,13.45-1.26,7.79-1.75,17.24-1.48,28.36.27,11.12.79,23.17,1.54,36.13.76,12.97.55,25.2-.62,36.7-1.17,11.5-3.82,21.52-7.94,30.05-4.13,8.54-10.72,13.99-19.76,16.35-9.04,2.36-17.55.86-25.54-4.52-7.99-5.37-15.61-12.71-22.86-22-7.26-9.29-14.04-19.7-20.34-31.22-6.3-11.52-12.16-22.17-17.56-31.95-5.41-9.77-10.25-17.83-14.54-24.17-4.29-6.34-8.08-9.08-11.36-8.22-4.11,1.07-7.02,3.81-8.72,8.2-1.71,4.39-2.58,9.46-2.62,15.16-.05,5.72.53,11.71,1.74,17.98,1.2,6.27,2.39,11.66,3.57,16.18,4.29,16.44,11.06,30.58,20.3,42.42,9.24,11.85,19.11,23.21,29.63,34.06,10.51,10.86,20.34,22,29.47,33.44,9.13,11.44,15.79,25.16,19.98,41.19,4.19,16.02,6.17,32.06,5.99,48.13-.19,16.07-4.05,31.11-11.57,45.15-7.52,14.03-19.41,26.9-35.66,38.61-16.26,11.7-38.14,21.16-65.66,28.35-17.67,4.62-34.04,4.5-49.13-.33-15.09-4.84-28.25-12.36-39.48-22.6-11.23-10.23-20.68-22.03-28.33-35.38-7.66-13.35-13.15-26.4-16.48-39.14-7.83-29.98-13.02-59.46-15.54-88.43-2.53-28.96-4.56-58.15-6.1-87.6-1.55-29.43-3.8-59.46-6.75-90.07-2.96-30.6-8.77-62.55-17.47-95.82-3.86-14.79-5.07-29.06-3.62-42.83,1.44-13.76,5.46-26.54,12.03-38.36,6.56-11.8,15.83-22.12,27.79-30.96,11.95-8.82,26.56-15.5,43.81-20.01Z"/>
  <path class="cls-1" d="M304.68,737.19c-8.37-7.78-13.95-16.23-16.7-25.38-2.76-9.14-3.24-18.68-1.46-28.61,1.78-9.92,5.76-20.06,11.92-30.41,6.16-10.34,13.83-20.46,23.02-30.37,9.45-10.18,19.14-18.57,29.07-25.15,9.92-6.59,19.49-11.13,28.71-13.63,9.22-2.5,17.81-3.07,25.8-1.72,7.99,1.37,14.81,4.67,20.46,9.91,6.04,5.61,10.5,13.3,13.38,23.09,2.88,9.79,5.72,20.32,8.49,31.58,2.78,11.27,6.39,22.52,10.83,33.76,4.44,11.24,11.25,21.1,20.4,29.6,12.27,11.4,25.75,16.81,40.44,16.23,14.68-.58,27.8-7.09,39.36-19.54,8.67-9.33,13.86-18.73,15.57-28.2,1.72-9.46,2.8-19.13,3.24-28.98.44-9.86,1.72-19.73,3.83-29.62,2.11-9.89,7.76-19.78,16.95-29.69,13.92-14.99,29.57-22.17,46.96-21.57,17.38.62,34.66,8.88,51.8,24.79,31.37,29.13,41.29,65.21,29.8,108.26-11.5,43.05-42.85,92.15-94.06,147.3-16.29,17.54-31.13,31.67-44.53,42.39-13.41,10.73-25.79,18.2-37.13,22.41-11.35,4.21-22.01,5.24-31.98,3.09-9.97-2.15-19.67-7.33-29.09-15.55l-2.92-2.71c-7.4-6.87-14.31-14.87-20.72-23.98-6.41-9.11-12.9-18.42-19.47-27.96-6.57-9.52-13.26-19.03-20.06-28.5-6.8-9.47-14.09-17.83-21.89-25.06-7.79-7.24-16.03-12.91-24.72-17.03-8.69-4.12-17.37-7.96-26.03-11.53-8.66-3.56-17.23-7.31-25.73-11.26-8.49-3.93-16.34-9.25-23.55-15.94Z"/>
  <path class="cls-1" d="M653.32,207.31c0-14.88,2.84-26.85,8.56-35.89,5.71-9.04,13.28-16.09,22.72-21.15,9.43-5.05,20.2-8.38,32.29-9.98,12.09-1.6,24.65-2.41,37.68-2.41,20.73-.01,39.34,2.77,55.83,8.35,16.48,5.57,30.44,13.34,41.88,23.31,11.43,9.96,20.21,21.59,26.34,34.88,6.12,13.29,9.18,27.78,9.19,43.46,0,14.62-1.58,28.51-4.76,41.67-3.18,13.16-7.83,24.73-13.94,34.7-6.11,9.97-13.62,17.89-22.52,23.74-8.91,5.85-19.21,8.78-30.9,8.79-7.18,0-12.9-.39-17.15-1.19-4.26-.8-7.98-1.59-11.17-2.39-3.19-.8-6.05-1.59-8.57-2.39-2.53-.8-5.65-1.19-9.37-1.19-2.66,0-4.72.54-6.18,1.6-1.46,1.07-2.46,2.26-2.99,3.59-.53,1.33-.86,2.66-.99,3.99-.14,1.33-.2,2.39-.2,3.19,0,9.31,2,17.14,5.99,23.52,3.99,6.38,8.31,12.69,12.97,18.93,4.65,6.25,8.98,13.22,12.97,20.93,3.99,7.71,5.99,17.41,5.99,29.11,0,11.17-2.18,21.33-6.56,30.51-4.38,9.17-10.16,17.15-17.33,23.93-7.17,6.78-15.41,12.03-24.71,15.76-9.31,3.72-19.01,5.59-29.11,5.6-11.96,0-22.73-2.05-32.3-6.16-9.57-4.12-17.75-9.76-24.53-16.94-6.78-7.17-11.97-15.68-15.56-25.51-3.6-9.84-5.4-20.59-5.4-32.3,0-11.96,1.52-23.53,4.57-34.69,3.05-11.17,6.43-22.2,10.15-33.1,3.71-10.9,7.1-21.87,10.15-32.9,3.05-11.03,4.57-22.66,4.57-34.89,0-9.03-.94-17.94-2.8-26.71-1.87-8.77-3.87-17.54-6-26.32-2.13-8.77-4.13-17.6-5.99-26.51-1.87-8.9-2.8-17.87-2.8-26.91ZM776.96,269.45c8.24,0,15.08-2.06,20.53-6.19,5.44-4.12,8.17-9.24,8.17-15.36,0-5.84-2.47-10.76-7.38-14.75-4.92-3.99-10.84-5.98-17.75-5.97-3.73,0-7.32.67-10.77,2-3.46,1.33-6.51,3.06-9.17,5.19-2.66,2.13-4.78,4.59-6.38,7.38-1.59,2.79-2.39,5.78-2.39,8.97,0,5.32,2.33,9.77,6.99,13.35,4.65,3.59,10.7,5.38,18.14,5.37Z"/>
</svg>