<?xml version="1.0" encoding="UTF-8"?>
<svg id="Lag_1" xmlns="http://www.w3.org/2000/svg" viewBox="0 0 1079.6 1079.6">
  <defs>
    <style>
      .cls-1 {
        fill: #3e3735;
      }
    </style>
  </defs>
  <path class="cls-1" d="M433.73,851.15c-3.06.03-5.52,2.54-5.49,5.6.03,3.06,2.54,5.52,5.6,5.49,3.06-.03,5.52-2.54,5.49-5.6-.03-3.06-2.54-5.52-5.6-5.49Z"/>
  <path class="cls-1" d="M383.16,810.12c-15.73-18.02-29.5-14.04-40.35.43-10.25,13.67-12.21,25.68,3.38,43.6l32.88,37.73c14.03,16.13,27.47,18.12,40.91.2,13.14-17.52,9.62-28.87-3.81-44.13l-33.01-37.83ZM405.65,878.84c-1.79,2.39-4.28,1.56-7.13-1.82l-39.52-45.2c-2.39-2.62-3.85-5.38-1.96-7.9,1.89-2.52,4.31-1.33,6.74,1.53l39.52,45.2c2.99,3.48,4.15,5.81,2.35,8.2Z"/>
  <path class="cls-1" d="M487.77,774.03l-2.34,3.47,1.9,1.91c.76.78.94,1.16.66,1.56-.24.36-.56.24-1.29-.48l-7.69-7.69c-.68-.69-.82-1.01-.57-1.37.29-.43.7-.25,1.27.34l1.82,1.82,2.34-3.47-1.27-1.25c-1.61-1.64-4.37-3.44-6.94.37-1.6,2.37-1.71,4.39,1.35,7.44l6.58,6.58c3.5,3.51,5.56,2.37,7.21-.09,2.33-3.45.47-5.63-1.73-7.83l-1.3-1.31Z"/>
  <path class="cls-1" d="M462.92,788.63l13.18,15.79,2.5-3.7-3.13-3.32.75-1.11,3.38,2.94,2.38-3.52-15.28-12.68-3.78,5.59ZM467.65,788.67c.81.71,4.67,4.01,5.8,5.03l-.58.86c-1.34-1.46-4.72-5.09-5.33-5.73l.11-.16Z"/>
  <path class="cls-1" d="M424.59,752.36c-15.73-18.02-29.5-14.04-40.35.43-10.25,13.67-12.21,25.68,3.38,43.6l32.88,37.73c14.03,16.13,27.47,18.12,40.91.2,13.14-17.52,9.62-28.87-3.81-44.13l-33.01-37.83ZM447.09,821.09c-1.79,2.39-4.28,1.56-7.13-1.82l-39.52-45.2c-2.39-2.62-3.85-5.38-1.96-7.9,1.89-2.52,4.31-1.33,6.74,1.53l39.52,45.2c2.99,3.48,4.15,5.81,2.35,8.2Z"/>
  <path class="cls-1" d="M552.3,261.72c-5.35-7.2-8.56-6.73-14.76,2.34l-1.86,2.72,21.73,29.47,2.48-3.63c6.19-9.07,5.87-12.84.19-20.71l-7.78-10.19Z"/>
  <path class="cls-1" d="M352.07,705.78c5.57-8.16,4.17-12.67.56-17.79l-13.47-18.06c-4.48-6.16-7.9-5.39-13.68,3.07l-1.86,2.72,25.34,34.59,3.1-4.54Z"/>
  <path class="cls-1" d="M511.69,471.18c5.16-7.56,4.56-12.85,1.13-17.85l-47.74-65.4c-3.97-5.37-7.46-6.42-13.45,2.35l-2.27,3.33,59.43,81.8,2.89-4.23Z"/>
  <path class="cls-1" d="M304.53,622.35c-2.92-4.21-6.25-7.81-12.23.96l-3.1,4.54,19.63,27.15,3.92-5.75c3.72-5.44,3.83-10.24.05-15.49l-8.27-11.41Z"/>
  <polygon class="cls-1" points="482.29 788.35 470.85 776.88 468.46 780.42 482.7 794.63 487.12 788.09 484.5 785.08 482.29 788.35"/>
  <path class="cls-1" d="M748.81,244.56c-5.35-7.2-8.56-6.73-14.76,2.34l-1.86,2.72,21.73,29.47,2.48-3.63c6.19-9.07,5.87-12.84.19-20.71l-7.78-10.19Z"/>
  <path class="cls-1" d="M539.8,0C241.68,0,0,241.68,0,539.8s241.68,539.8,539.8,539.8,539.8-241.68,539.8-539.8S837.92,0,539.8,0ZM526.34,236.9c24.77-36.29,45.14-41.45,60.11-20.59l6.19,8.66c8.78,12.2,8.51,25.32,2.82,38.28,11.97-8.67,19.88-6.38,32.75,12.16,10.47,15.12,20.45,29.03,24.7,32.82l-31.17,45.66c-3.19.04-9.97-8.14-30.48-36.32-8.96-12.32-11.72-10.21-17.08-2.35l-1.65,2.42,38.06,52.58-32,46.87-90.46-124.26,38.19-55.95ZM436.74,368.15c26.42-38.71,48.03-45.68,67.33-19.21l36.02,49.41c17.92,24.64,22.41,42.35-4.84,82.26l-43.15,63.21-90.46-124.27,35.1-51.41ZM388.65,438.6l17.05,23.61-28.08,41.13,17.17,24.58,26.84-39.31,17.23,23.73-26.84,39.31,21.76,29.04,31.79-46.57,14.36,27.54-61.11,89.51-90.46-124.26,60.28-88.31ZM279.65,598.27c21.06-30.85,42.31-41.16,59.05-18.65l3.28,4.45c11.72,15.98,6.75,29.44,2.69,40.4,9.43-6.87,22.31-12.25,33.68,3.48l7.06,9.7c15.87,21.48,17.32,37.09-12,80.04l-40.46,59.27-90.46-124.27,37.16-54.43ZM522.1,749.7c-1.74,1.71-2.15,3.86-2.19,6.02-.29,15.58-6.26,28.69-15.28,41.48-26.24,37.23-51.5,75.16-77.29,112.71-4.61,6.71-8.62,13.89-14.29,19.85-2.96,3.11-6.41,4.89-10.82,4.5-1.67-.15-3.72-.37-5.02.42-7.5,4.55-14.71,1.89-21.49-.84-25.31-10.19-47.44-25.15-65.48-45.78-4.11-4.7-7.47-9.94-6-16.92.23-1.09-.38-2.46-.9-3.55-3.03-6.29-1.8-12.02,2.06-17.65,16-23.32,31.91-46.7,47.86-70.05-.05-.04-.1-.07-.15-.11,15.5-22.71,31.03-45.4,46.49-68.13,4.35-6.39,10.04-11.06,16.7-14.86,5.93-3.38,12.74-5.25,16.69-12.09,2.19-3.8,7.34-2.86,11.28-1.88,9.07,2.24,17.57,6,25.65,10.58,16.47,9.33,31.52,20.61,44.96,33.98,3.42,3.4,6.43,7.14,8.55,11.5,1.83,3.78,1.99,7.57-1.31,10.81ZM583.35,680.87l-40.46,59.27-90.46-124.26,37.16-54.43c21.06-30.85,42.31-41.17,59.05-18.65l3.28,4.45c11.72,15.98,6.75,29.44,2.68,40.4,9.43-6.87,22.32-12.25,33.68,3.48l7.06,9.7c15.87,21.47,17.32,37.09-12,80.03ZM628.76,614.35l-90.46-124.27,60.28-88.31,17.05,23.61-28.08,41.13,17.17,24.58,26.84-39.31,17.23,23.73-26.84,39.31,21.76,29.04,31.79-46.57,14.36,27.54-61.11,89.52ZM702.04,507l-90.46-124.27,60.28-88.31,17.05,23.61-28.08,41.13,17.17,24.58,26.84-39.31,17.23,23.73-26.84,39.31,21.76,29.04,31.79-46.57,14.36,27.54-61.11,89.52ZM818.26,336.75c-3.19.04-9.97-8.14-30.48-36.32-8.96-12.32-11.71-10.21-17.08-2.35l-1.65,2.42,38.06,52.58-32,46.87-90.46-124.27,38.19-55.95c24.77-36.29,45.14-41.45,60.11-20.59l6.19,8.66c8.78,12.2,8.51,25.32,2.82,38.28,11.97-8.67,19.88-6.38,32.75,12.16,10.47,15.13,20.45,29.03,24.7,32.83l-31.17,45.66Z"/>
  <path class="cls-1" d="M549.1,633.11c-4.48-6.16-7.9-5.39-13.68,3.08l-1.86,2.72,25.34,34.59,3.1-4.54c5.57-8.16,4.17-12.67.57-17.79l-13.47-18.06Z"/>
  <path class="cls-1" d="M514.47,585.53c-2.92-4.21-6.25-7.81-12.23.96l-3.1,4.54,19.63,27.15,3.92-5.75c3.72-5.44,3.83-10.24.05-15.49l-8.27-11.41Z"/>
</svg>