<?xml version="1.0" encoding="UTF-8"?>
<svg id="Lag_1" xmlns="http://www.w3.org/2000/svg" viewBox="0 0 1079.38 1082.35">
  <defs>
    <style>
      .cls-1 {
        stroke-width: 43px;
      }

      .cls-1, .cls-2 {
        fill: none;
      }

      .cls-1, .cls-2, .cls-3 {
        stroke: #3e3735;
        stroke-miterlimit: 10;
      }

      .cls-2 {
        stroke-width: 3px;
      }

      .cls-3 {
        fill: #3e3735;
        stroke-width: 4px;
      }
    </style>
  </defs>
  <path class="cls-2" d="M535.12,788.36l1.7-41.75-1.7,41.75Z"/>
  <path class="cls-2" d="M569.87,788.36l-4.67-41.75,4.67,41.75Z"/>
  <g>
    <path class="cls-1" d="M1057.88,542.65c.3,82.67-19.66,144.37-26.63,164.43-25.16,72.36-61.2,119.85-80.14,144.38-47.7,61.78-97.71,99.34-124.18,117.38-40.52,27.62-75.97,43.68-94.41,51.38-32.92,13.75-101.35,41.52-192.82,40.61-24.54-.24-120.93-3.25-224.24-62.4-81.06-46.41-125.59-104.02-163.4-153.98-58.3-77.06-129.62-171.31-130.54-301.8-.71-100.12,40.28-186.18,63.8-235.55,11.6-24.35,26.96-56.2,54.12-93.57,20.57-28.3,124.97-171.91,290.64-191.58,9.9-1.18,43.14.05,109.62,2.51,162.35,6,188.31,17.05,201.44,23.41,19.11,9.26,49.12,29.36,109.14,69.58,23.43,15.7,35.14,23.55,42.04,28.9,26.31,20.42,57.64,53.38,95.08,134.81,34.73,75.55,70.09,152.47,70.48,261.48Z"/>
    <path class="cls-2" d="M366.59,416.17c-.82,27.32,2.03,48.94,3.44,58.22,4.01,26.34,10.32,45.56,11.67,49.57,9.86,29.42,23.84,71.13,64.41,100.84,39.52,28.94,81.96,30.14,95.34,29.98,14.56-.18,44.13-.92,73.96-20.01,24.66-15.77,37.02-36.1,42.51-45.35,4.25-7.17,12.72-22.84,21.96-81.58.68-4.33,9-61.31,2.01-129.95-1.1-10.84-2.87-24.69-13.1-31.23-16.89-10.81-44.24,6.41-48.35,9.07-.5-9.22-1.89-22.64-6.04-38.28-5.81-21.88-15.12-40.94-17.13-40.29-1.37.44.79,10.13,6.28,46.05,3.47,22.7,4.14,28.88,0,33.82-4.67,5.57-11.54,4.87-32.14,6.24-37.7,2.5-38.01,6.38-44.37,3.6-29.79-13.05-18.27-96.41-24.46-96.75-2.71-.15-6.36,15.74-8.84,34.33-5.41,40.68-2.19,71.92-3.09,72-1.6.14-9.76-100.46-15.28-100.28-1.94.06-2.7,12.54-8.06,65.48-1.59,15.66-2.95,28.7-3.92,37.89-9.59,3.86-19.37,7.69-29.32,11.47-13.98,5.32-27.75,10.35-41.3,15.11-4.65-12.38-9.5-29.63-10.07-50.37-.9-32.59,9.24-56.37,9.07-56.41-.25-.07-23.14,48.67-25.18,116.85Z"/>
    <path class="cls-2" d="M399.47,572.26c-3.05,1.5-7.84,3.31-13.67,3.14-14.68-.44-24.16-13.32-30.51-21.16-13.92-17.18-14.63-35.79-14.76-41.34-.14-6.01-.26-17.6,6.4-28.54,1.67-2.74,4.57-6.75,9.43-10.69.14-.05.27-.09.41-.13,2.97-.92,7.34-1.35,13.26.86"/>
    <path class="cls-2" d="M379.6,559.36c-9.61,1.09-17.76,6.78-21.04,14.93-4.78,11.87,2.33,24.89,11.2,30.21,12.07,7.23,31.19,2.45,41.33-13.87"/>
    <path class="cls-2" d="M684.58,423.93c2.2-2.41,8.4-8.53,16.73-8.27,13.71.43,21.2,17.83,22.84,21.3,8.02,17.01,3.19,34.75.27,45.47-2.17,7.95-8.29,30.43-25.49,38.16-5.51,2.47-10.54,2.91-13.81,2.54l-5.24-.58"/>
    <path class="cls-2" d="M695.37,503.74c3.17-1.22,10.31-3.41,16.85-.32,12.17,5.75,17.48,27.52,6.68,39.11-8.27,8.88-23.06,8.93-32.43,2.86-4.58-2.96-7.18-6.95-8.58-9.64"/>
    <g>
      <path class="cls-2" d="M493.78,585.49c16.23.79,35.51.57,57.01-1.97,20.7-2.44,38.86-6.48,54.06-10.81"/>
      <path class="cls-2" d="M517.86,605.56c2.94,1.99,17.99,11.71,37.84,7.86,16.6-3.21,26.25-13.92,28.99-17.2"/>
      <path class="cls-2" d="M582.6,578.26c-2.25-1.86-20.22-16.23-43.63-10.99-16.38,3.67-25.75,14.76-28.53,18.33"/>
    </g>
    <path class="cls-2" d="M520.95,476.81c-.44,6.59-1.46,16.78-4.15,29.04-3.1,14.12-5.95,19.78-3.07,24,2.07,3.04,8.5,7.36,33.5.89"/>
    <ellipse class="cls-3" cx="462.52" cy="473.64" rx="14.52" ry="19.11" transform="translate(-68.2 77.92) rotate(-8.97)"/>
    <path class="cls-3" d="M611.59,449.45c1.65,10.43-3.44,19.89-11.36,21.14-7.92,1.25-15.68-6.19-17.32-16.61-1.65-10.43,3.44-19.89,11.36-21.14,7.92-1.25,15.68,6.19,17.32,16.61Z"/>
    <path class="cls-2" d="M425.53,465.74c5.01-3.93,16.22-11.62,32.5-13.83,12.04-1.63,21.9.4,27.66,2.07"/>
    <path class="cls-2" d="M567.28,442.93c2.8-2.95,11.44-11.28,25.58-13.83,15.24-2.75,26.97,2.99,30.42,4.84"/>
    <path class="cls-2" d="M418.62,414.58c5.5-3.07,15.29-7.63,28.35-8.99,13.91-1.45,25.03,1.41,31.11,3.46"/>
    <path class="cls-2" d="M560.77,392.71c5.22-3.52,14.6-8.87,27.51-11.31,13.75-2.59,25.06-.67,31.29.87"/>
    <path class="cls-2" d="M819.64,834.92c-13.62-27.71-38.7-67.85-79.9-92.52-23.83-14.26-57.68-26.13-64.13-28.39-16.14-5.65-26.66-14.95-39.95-11.56-11.56,2.94-14.37,11.18-25.23,21.03-29.42,26.65-71.86,23.29-73.59,23.13-29.94-2.8-54.12-21.28-62.03-27.33-12.9-9.86-13.95-14.32-23.13-16.82-12.67-3.45-23.68,1.51-58.88,18.92-25.35,12.54-38.03,18.82-39.95,19.98-40.65,24.56-67.48,63.29-82,88.31,12.39,15.71,106.43,130.78,268.85,134.31,167.56,3.64,267.97-114.46,279.94-129.05Z"/>
    <path class="cls-2" d="M431.15,737.54l31.38-28.82-31.38,28.82Z"/>
    <path class="cls-2" d="M462.52,758.56l23.16-31.47-23.16,31.47Z"/>
    <path class="cls-2" d="M493.78,779.01l16.65-36.18-16.65,36.18Z"/>
    <path class="cls-2" d="M604.84,773.17l-14.22-35.63,14.22,35.63Z"/>
    <path class="cls-2" d="M642.61,751.56l-32.19-28.07,32.19,28.07Z"/>
    <path class="cls-2" d="M662.47,732.86l-32.13-24.14,32.13,24.14Z"/>
    <path class="cls-2" d="M657.92,589.42c15,2.53,43.27,4.87,72.62-8.53,8.85-4.04,21.59-9.85,32.3-22.88,19.25-23.42,17.59-52.67,20.37-52.36,2.08.23,3.08,16.6.94,34.29-2.4,19.85-7.55,31.49-5.96,32.18,2.01.87,13.69-16.19,20.79-35.88,4.33-12.02,11.73-38.27,3.04-85.76-2.94-16.09-11.18-50.04-37.62-100.33-25.07-47.67-50.08-95.22-104.09-127.91-19.6-11.86-52.26-31.63-92.8-28.84-10.52.72-12.27,2.33-56.43,10.03-49.6,8.66-48.89,6.9-58.94,10.03-36.82,11.49-58.8,38.98-77.75,62.7-21.15,26.47-30.82,49.42-50.16,95.31-23.5,55.78-29.81,88.27-32.61,109.1-3.84,28.59-5.61,55.5,8.78,73.99,1.99,2.56,8.71,10.61,14.11,23.23,4.27,9.97,10.24,23.9,4.16,30.64-5.37,5.96-18.66,4.63-26.73-.95-8.94-6.18-9.71-16.74-12.41-16.23-2.59.49-4.61,10.65-.95,19.09,4.73,10.93,16.83,14.01,18.14,14.32,10.83,2.58,19.62-4.25,21-1.91.97,1.65-2.58,6.09-6.74,9.03-10.39,7.35-22.66,4-22.85,5.28-.25,1.69,20.37,12.35,38.18,4.77,16.21-6.9,22.92-25.83,24.82-24.82,1.79.95-8.47,15.45-5.02,23.36,4.58,10.48,34.39,12.02,114.04-6.46"/>
    <path class="cls-2" d="M739.63,534.91c-1.41,7.62-3.95,17.35-8.71,27.99-4.27,9.53-9.15,17.19-13.44,22.99"/>
    <path class="cls-2" d="M482.05,644.24c.58,5.41,1.18,18.05-5.43,31.87-7.67,16.03-20.32,23.79-24.95,26.34"/>
    <path class="cls-2" d="M597.56,644.2c-.33,5.78-.22,17.85,6.29,30.94,8.35,16.82,22.01,24.75,27,27.34"/>
    <circle class="cls-2" cx="492.3" cy="555.32" r="1.47"/>
  </g>
</svg>