<?xml version="1.0" encoding="UTF-8"?>
<svg id="Lag_1" xmlns="http://www.w3.org/2000/svg" viewBox="0 0 1092.61 1092.61">
  <defs>
    <style>
      .cls-1 {
        fill: #3e3735;
      }
    </style>
  </defs>
  <path class="cls-1" d="M627.54,595.37c3.1.45,6.19.78,9.29.2,1.7-.32,3.25-1.23,2.3-3.15-2.54-5.14-3.44-11.04-7.28-16.53-2.92,5.42-5.24,10.23-6.8,15.43-.73,2.45-.06,3.69,2.49,4.05Z"/>
  <path class="cls-1" d="M485.49,452.83c-11.23-9.24-24.96-12.22-39.01-12.49-25.66-.49-51.33-.05-76.99-.29-5.33-.05-6.66,1.91-6.58,6.88.25,15.09.09,30.18.1,45.28,0,15.09.1,30.19-.06,45.28-.05,4.28,1.44,5.93,5.79,5.9,28.41-.18,56.83.26,85.22-.44,13.81-.34,26.41-5.29,36.09-15.96,7.7-8.49,9.98-19.1,10.64-29.88,1.03-16.67-1.2-32.76-15.19-44.28Z"/>
  <path class="cls-1" d="M633.82,686.92c-1.8,4.26-2.84,7.18-4.23,9.92-6.34,12.47-5.05,11.33,8.28,11.35,3.69,0,4.55-1.83,3.29-4.85-2.09-5-4.41-9.91-7.34-16.41Z"/>
  <path class="cls-1" d="M546.3,0C244.59,0,0,244.59,0,546.3s244.59,546.3,546.3,546.3,546.3-244.59,546.3-546.3S848.02,0,546.3,0ZM306.39,348.85c-.02-37.82-.02-75.65,0-113.47,0-7.99.46-8.46,8.2-8.46,75.41-.01,150.83-.01,226.24,0,7.45,0,7.75.3,7.76,7.52.02,38.61-.08,77.22.11,115.82.03,5.7-1.97,7.41-7.51,7.39-37.8-.18-75.61-.09-113.41-.08-37.61,0-75.22.02-112.83,0-8.12,0-8.56-.46-8.57-8.71ZM548.74,857.57c0,7.99-.21,8.2-8.27,8.2-44.3.01-88.59.01-132.89,0-8.54,0-8.69-.15-8.69-8.4,0-76.87,0-153.74,0-230.61,0-8.01.18-8.18,8.29-8.18,44.49,0,88.98,0,133.48.01,7.95,0,8.07.15,8.08,8.37.01,38.63,0,77.26,0,115.89,0,38.24,0,76.48,0,114.72ZM544.03,540.87c-9.57,21.16-25.99,35.22-48.15,42.74-14.75,5-29.84,5.97-45.19,5.91-26.65-.12-53.31-.04-79.97-.02-7.69,0-7.72.03-7.72,7.94-.02,85.49-.03,170.99-.05,256.48q0,9.73-9.7,9.74c-11.76,0-23.52.03-35.28,0-7.62-.02-8.2-.52-8.2-7.87-.02-49.22,0-98.44,0-147.65,0-26.47,0-52.94,0-79.42h.09c0-73.93,0-147.85,0-221.78,0-2.16.08-4.32.03-6.47-.13-4.63,1.86-6.65,6.69-6.64,48.8.13,97.62-.7,146.4.5,25.09.62,48.63,8.43,66.74,27.52,9.17,9.67,15.74,21.06,19.2,33.92,7.78,28.86,7.58,57.55-4.89,85.12ZM653.59,786.18c-.09,4.83-.28,8.38-6.76,8.14-10.76-.4-21.54-.16-32.31-.07-5.81.05-6.53,1.55-6.79,10.2-.15,4.87,2.12,6.01,6.41,5.95,10.18-.16,20.38.2,30.55-.12,6.79-.22,6.27,4.06,6.33,8.54.06,4.62.17,8.63-6.48,8.39-9.78-.35-19.59.18-29.37-.19-5.19-.19-7.15,1.99-7.24,6.74-.01.59-.08,1.17-.11,1.76-.53,9.78-.33,9.99,9.22,9.99,9.6,0,19.19-.02,28.79,0,7.57.03,7.76.26,7.75,8.05-.01,7.47-.24,7.76-7.45,7.78-16.65.04-33.3-.16-49.94.11-5.59.09-7.75-1.81-7.63-7.43.25-11.56.08-23.12.08-34.68,0-11.37.11-22.73-.05-34.1-.07-4.95,1.76-6.96,6.92-6.9,17.04.21,34.08.24,51.12-.08,6.15-.12,7.07,2.81,6.97,7.93ZM675.32,746.87c-1.76.07-3.52.01-6.39.01-5.85,1.25-9.77-1.06-12.59-8.2-5.69-14.39-6.25-14.17-21.99-14.17-17.56,0-17.73-.07-24.15,16.37-1.73,4.41-4.27,6.27-8.73,6-4.46-.27-10.33,1.92-13.01-1.2-2.97-3.45,2.12-7.58,3.72-11.24,7.75-17.73,16.05-35.21,24.17-52.77,2.13-4.61,4.33-9.19,6.46-13.81,3.03-6.58,8.99-3.99,13.94-4.44,3.98-.36,7.13.64,9.04,4.8,9.61,20.97,19.39,41.86,29.13,62.77,1.49,3.19,3.13,6.31,4.52,9.54,2.21,5.09,1.52,6.09-4.12,6.32ZM591,622.8c9.69-22.03,19.47-44.02,29.02-66.11,2.13-4.92,5.43-6.74,10.57-6.29,5.01.44,10.1-1.33,13.08,5.66,10.06,23.59,20.99,46.8,31.32,70.28,3.35,7.62,2.97,7.79-5.68,7.83-.78,0-1.57,0-2.35,0-10.28,0-10.42.05-14.24-9.51-6.43-16.05-4.31-12.65-19.27-12.85-17.61-.24-17.79-.13-24.1,16.12-2.03,5.24-5.35,6.38-10.4,6.31-12.97-.16-12.98,0-7.94-11.44ZM770.49,861.59c-9.73.91-15.81-2.8-21.58-10.43-10.47-13.87-22.09-26.87-33.25-40.21-.21-.25-.71-.25-1.16-.4-1.9,1.71-1.09,4.01-1.1,6.02-.08,12.73-.17,25.47.01,38.2.07,4.69-1.48,6.72-6.42,6.65-16.06-.25-13.97,1.33-14.03-13.64-.09-20.76.09-41.53-.1-62.29-.05-5.24,1.61-7.15,7.06-7.29,8.23-.21,14.59,1.01,20.09,8.59,9.73,13.43,20.95,25.78,31.59,38.55,1.47,1.77,2.74,3.81,6.02,5.2,0-15.03,0-29.3,0-43.57,0-8.44.12-8.62,8.46-8.6,13.23.03,12.08-1.12,12.13,11.96.08,21.15-.2,42.31.08,63.46.08,6.01-2.1,7.28-7.79,7.81ZM716.7,575.88c.04,1.69-.7,3.93,1.04,4.89,1.98,1.09,3.05-1.18,4.29-2.23,9.11-7.69,18.27-15.33,27.17-23.26,4.07-3.63,8.38-5.38,13.83-4.9,3.89.34,7.83.04,11.74.14,1.5.04,3.37-.14,3.88,1.82.41,1.58-.95,2.42-2.01,3.29-10.98,9.11-21.88,18.32-33,27.25-2.59,2.08-3.14,3.26-.81,5.96,11.25,13.02,22.31,26.21,33.42,39.34,1.11,1.31,2.91,2.55,2.05,4.49-.87,1.96-3.03,1.31-4.72,1.49-.39.04-.78,0-1.17.01q-16.41.25-26.81-12.55c-4.7-5.76-9.41-11.51-14.35-17.05-1.88-2.11-2.84-6.84-6.84-4.89-3.95,1.93-7.7,4.88-7.71,10.21-.01,5.68-.22,11.37,0,17.04.21,5.24-1.79,7.39-7.19,7.31-15.02-.23-12.97.81-13.08-12.83-.08-9.79-.02-19.59-.01-29.38,0-11.75.13-23.51-.06-35.26-.07-4.48,1.52-6.25,6.1-6.39,14.19-.42,14.18-.56,14.19,13.76,0,3.92-.06,7.84.04,11.75ZM782.82,671.28c-.14,4.33.78,8.99-6.13,8.69-6.45-.28-12.93.16-19.38-.11-4.88-.21-6.51,1.73-6.46,6.53.19,17.24.08,34.48.06,51.73-.01,8.41-.32,8.78-8.44,8.76-17.45-.05-15.08,1.52-15.2-14.92-.11-15.09-.17-30.18.06-45.26.08-5.06-1.61-7.12-6.77-6.84-5.86.32-11.75-.1-17.62.15-4.26.18-5.96-1.49-6.2-5.72-.56-10.05.07-10.88,9.89-10.89,11.16,0,22.33,0,33.49,0,12.14,0,24.29.21,36.42-.08,6.2-.15,6.42,3.44,6.28,7.97ZM776.47,526.97c-26.25.02-52.5,0-78.75,0-35.07,0-70.13.01-105.2,0-8.58,0-8.88-.31-8.88-8.96,0-47.04,0-94.08,0-141.11,0-46.84,0-93.68,0-140.53,0-8.51.06-8.55,8.49-8.56,11.56-.02,23.12.13,34.67-.05,4.57-.07,6.47,1.81,6.32,6.25-.1,3.13,0,6.27,0,9.41,0,77.02,0,154.05.01,231.07q0,8.53,8.36,8.55c45.06,0,90.11,0,135.17,0,8.12,0,8.3.18,8.33,8.15.03,9.02.03,18.03,0,27.05-.02,8.32-.4,8.73-8.54,8.74ZM786.22,441.32c0,8.01-.19,8.18-8.27,8.18-33.88.01-67.77.02-101.65,0-7.78,0-8.02-.23-8.02-7.83-.02-68.98-.02-137.96,0-206.94,0-7.63.26-7.89,7.97-7.9,33.88-.02,67.77-.02,101.65,0,8.17,0,8.33.16,8.33,8.14.02,34.49,0,68.98,0,103.47,0,34.29.01,68.59,0,102.88Z"/>
</svg>