<?xml version="1.0" encoding="UTF-8"?>
<svg id="Lag_1" xmlns="http://www.w3.org/2000/svg" viewBox="0 0 999.26 999.38">
  <defs>
    <style>
      .cls-1 {
        fill: #322e27;
      }
    </style>
  </defs>
  <g>
    <path class="cls-1" d="M526.56,345.84l3.69-17.15c2.97-14.01,6.01-27.28,9.38-41.9l-.95-.24c-9.13,12.24-18.32,24.7-28.04,37.27l-11.83,15.13,27.75,6.89Z"/>
    <path class="cls-1" d="M466.47,508.36h-.26c-1.67,4.1-3.33,8.28-5.12,12.52l-2.2,5.12,7.64.15-.04-5.16c-.05-4.21-.03-8.22,0-12.63Z"/>
    <path class="cls-1" d="M719.92,473.66c19.96-12.48,20.22-27.75,11.6-41.55l-1.83-2.92-87.31,31.9,3.13,5.01c12.8,20.48,37.6,30.56,74.4,7.56Z"/>
    <path class="cls-1" d="M555.44,605.7v-.26c-4.12-1.63-8.31-3.26-12.57-5.02l-5.14-2.16-.09,7.64,5.16-.08c4.21-.08,8.22-.1,12.64-.11Z"/>
    <path class="cls-1" d="M610.42,497.48l-.3-.4c-8.08,2.28-16.26,4.64-24.69,6.87l-10.2,2.65,8.63,11.6,7.67-6.05c6.24-4.96,12.26-9.58,18.89-14.67Z"/>
    <path class="cls-1" d="M496.15,425.64l-6.78-1.06-7.63,21.45,5.79.9c10.59,1.65,17.34-2.76,18.56-10.64.95-6.1-2.56-9.51-9.95-10.66Z"/>
    <path class="cls-1" d="M771.23,120.99l-26.85,15.44,34.98,26.57,16.59-23.23c6.65-9.37,13.21-18.46,19.88-27.64-4.18-3.42-8.43-6.76-12.73-10.05-10.47,6.31-21.07,12.63-31.87,18.91Z"/>
    <path class="cls-1" d="M140.65,225.72l15.73,26.68,26.18-35.27-23.41-16.34c-13.11-9.08-25.71-18.02-38.7-27.31-2.29,2.66-4.57,5.34-6.81,8.06,8.98,14.47,18.03,29.12,27.01,44.18Z"/>
    <path class="cls-1" d="M416.89,125.73l9-1.25c36.74-5.12,66.22-35,56.49-104.91-1.06-7.6-2.79-14.05-5.03-19.57-18.05.79-35.86,2.52-53.37,5.17l-7.09,120.56Z"/>
    <path class="cls-1" d="M876.26,752.43l-15.58-26.76-26.38,35.12,23.31,16.47c16.06,11.27,31.39,22.32,47.6,34.09,1.23-1.66,2.45-3.32,3.66-5-10.81-17.63-21.76-35.47-32.62-53.91Z"/>
    <path class="cls-1" d="M956.83,420.28c4.31,30.33,20.65,46.08,41.77,45.1-1.4-20.62-4.04-40.9-7.86-60.77l-36.41-1.95,2.5,17.61Z"/>
    <path class="cls-1" d="M599.44,850.84l-9.01,1.2c-36.77,4.91-66.41,34.62-57.08,104.58,2.86,21.43,10.9,34.19,21.81,40.66,11.83-1.07,23.54-2.48,35.11-4.23l9.16-142.21Z"/>
    <path class="cls-1" d="M245.09,853.57l26.94-15.29-34.83-26.76-16.72,23.13c-12.51,17.42-24.74,33.95-37.97,51.75.98.81,1.98,1.59,2.97,2.39,19.49-11.64,39.2-23.5,59.62-35.22Z"/>
    <path class="cls-1" d="M64.58,575.94l-2.6-17.6c-4.76-32.21-23.01-47.88-46.04-44.48-7.1,1.05-12.36,3.8-15.94,8.12.76,17.28,2.39,34.33,4.86,51.11l59.72,2.86Z"/>
    <path class="cls-1" d="M364.97,452.86c2.18,8.11,4.43,16.31,6.56,24.77l2.52,10.24,11.72-8.48-5.95-7.75c-4.88-6.31-9.43-12.38-14.44-19.07l-.41.29Z"/>
    <path class="cls-1" d="M424.89,754.52c-.88,6.11,2.67,9.47,10.07,10.54l6.79.98,7.38-21.54-5.8-.83c-10.61-1.52-17.3,2.97-18.43,10.86Z"/>
    <path class="cls-1" d="M346.15,673.61l-7.6,6.15c-6.18,5.03-12.13,9.74-18.69,14.91l.3.4c8.05-2.38,16.2-4.84,24.6-7.18l10.17-2.78-8.78-11.49Z"/>
    <path class="cls-1" d="M292.1,363.15c17.63-11.76,22.09-26.4,14.15-38.3-6.15-9.21-15.53-9.06-27.83-.85l-11.28,7.52,15.32,38.06,9.64-6.43Z"/>
    <path class="cls-1" d="M926.38,476.97l-86.93,51.36-9.42-66.34,79.1-41.14-3.02-21.28-85.6-4.66-8.52-59.97,163.22,9.46c-24.4-74.78-65.92-141.81-119.97-196.45l-83.72,135.43-50.65-38.47,32.31-45.24-51.18-38.87-52.29,30.06-53.06-40.3,162.02-78.87C694.59,32.83,621.09,7.98,542.4,1.32c.35,1.95.67,3.94.95,5.97,13.66,98.18-36.6,154.46-109.34,164.58l-80.24,11.17,10.02-164.88c-78.54,22.11-149.22,62.93-206.99,117.33l146.22,88.18-37.91,51.07-45.59-31.81-38.3,51.6,30.64,51.95-39.71,53.5-88.86-177.54C38.3,289.88,9.27,368.86,1.57,454.01c42.83-5.95,72.97,16.07,90.54,47.46l86.64-51.85,9.79,66.29-78.87,41.58,3.14,21.27,85.63,4.19,8.85,59.93-189.83-9.94c23.18,84.04,67.73,159.21,127.45,219.29l100.82-161.04,50.43,38.75-32.57,45.05,50.95,39.15,52.46-29.77,52.83,40.6-194.15,93.15c73.61,48.28,160.72,77.66,254.45,81.25-3.64-9.04-6.29-19.28-7.83-30.82-13.11-98.25,37.47-154.23,110.26-163.95l80.3-10.71-12.39,186.59c86.58-23.22,162.96-67.12,222.06-130.01l-158.66-96.92,38.2-50.85,45.41,32.07,38.59-51.38-30.34-52.12,40.02-53.27,90.96,184.35c36.7-66.16,58.98-145.37,62.54-236.63-33.7-1.54-57.94-21.72-72.87-48.76ZM737.25,385.53l19.85,31.77c22.47,35.95,20.65,67.89-13.8,89.42-51.68,32.3-96.97,16.43-122.31-24.12l-27.95-44.73,144.21-52.34ZM519.62,590.65l.14-11.59,43.9,21.99-.15,12.64-44.19,3.56.13-11.06,10.06-.16.13-11.18-10.01-4.2ZM556.8,539.55l14.94-11.79-12.63-16.97-19.87,5.16-13.09-17.6,91.29-17.28,14.28,19.2-62.42,56.07-12.5-16.8ZM510.05,495.99l-21.8-3.4-5.2-29.96-6.99-1.09-9.85,27.61-19.71-3.07,28.86-80.08,25.61,3.99c16.01,2.5,28.04,10.36,25.41,27.25-2.3,14.82-12.29,22.56-23.99,25.2l7.66,33.54ZM477.72,544.59l-11.06-.23-.08-10.05-11.17-.23-4.28,9.97-11.58-.23,22.35-43.69,12.64.26,3.19,44.21ZM529.08,255.63l45.93,11.4-21.29,149.27-40.19-9.97,7.2-33.41-40.61-10.08-23.05,29.47-42.1-10.45,114.11-126.24ZM406.77,506.72l-11.6-15.09-17.14,12.41,4.91,19.94-17.77,12.87-16.12-91.5,19.38-14.04,55.29,63.14-16.96,12.28ZM419,563.21l-10.14,9.78-24.47-37.73,7.2-6.95c8.15-7.86,16.95-8.8,25.24-.19,12.44,12.91,11.36,26.22,2.16,35.09ZM406.12,583.66l.05,11.06-10.05.32.05,11.17,10.07,4.04.05,11.59-44.23-21.3-.05-12.64,44.11-4.24ZM387.01,647.68c5.63-5.56,12.31-5.71,18.1-3.16l7.28-16.64,8.19,8.29-7.2,14.35,2.63,2.66,12.86-8.62,7.4,7.49-37.41,24.92-9.62-9.74c-6.02-6.09-8.65-13.2-2.23-19.55ZM223.53,325.65l42.64-28.45c26.65-17.78,54.07-23.31,71.11,2.22,14.94,22.4,9.85,45.66-4.1,64.48l52.76,33.75-36.29,24.21-44.73-32.31-11.64,7.77,19.68,49.02-32.8,21.89-56.62-142.59ZM272.11,587.03l2.94-18.72c3.33-21.18,15.54-32.63,37.89-29.12,33.52,5.28,47.08,26.59,43.33,50.48l-4.14,26.35-80.01-29ZM313.05,711.17l-14.53-19.02,61.71-56.86,12.71,16.64-14.79,11.97,12.84,16.82,19.81-5.41,13.31,17.44-91.06,18.42ZM455.98,784.44l-25.66-3.68c-16.04-2.3-28.15-10.02-25.72-26.94,2.13-14.84,12.03-22.7,23.69-25.49l-8.05-33.44,21.84,3.13,5.56,29.89,7.01,1.01,9.52-27.72,19.74,2.83-27.92,80.41ZM462.27,699.93l-12.63-.44-2.51-44.26,11.05.39-.07,10.05,11.17.39,4.43-9.9,11.58.41-23.01,43.37ZM477.3,606.97l10.45,25.88-18.51-.16-7.97-23.31-5.94-.05-4.81,23.2-16.73-.15,14.19-67.31,21.76.19c13.6.12,24.54,4.99,24.42,18.79-.11,12.1-7.46,19.45-16.85,22.92ZM490.23,548.42l37.8-24.35,9.47,9.89c5.91,6.18,8.44,13.34,1.92,19.58-5.72,5.48-12.4,5.53-18.15,2.88l-7.55,16.53-8.05-8.42,7.42-14.24-2.59-2.7-12.99,8.43-7.28-7.61ZM506.12,637.49l10.29-9.62,23.88,38.1-7.31,6.84c-8.28,7.73-17.08,8.53-25.24-.2-12.24-13.1-10.95-26.38-1.62-35.11ZM558.54,760.21l-54.51-63.81,17.11-12.08,11.41,15.24,17.29-12.21-4.66-20,17.92-12.65,15,91.71-19.55,13.8ZM615.35,652.99c-33.46-5.7-46.75-27.18-42.69-51.02l4.47-26.3,79.65,30.01-3.18,18.68c-3.6,21.14-15.95,32.43-38.25,28.63ZM810.3,651.72l-6.91,46.81-150.65-6.8,6.04-40.96,33.95,3.94,6.11-41.39-31.56-20.1,6.34-42.91,136.68,101.4Z"/>
    <path class="cls-1" d="M311.03,559.59c-12.95-2.04-18.53,3.65-19.8,11.77l-.27,1.72,48.52,17.48.46-2.95c1.9-12.07-5.03-24.26-28.9-28.02Z"/>
    <path class="cls-1" d="M720.26,657.91l17.43,2.02c14.23,1.6,27.74,3.35,42.61,5.3l.14-.98c-13.06-7.91-26.36-15.85-39.81-24.31l-16.21-10.32-4.18,28.29Z"/>
    <path class="cls-1" d="M531.2,546.64c2.35-2.26,1.98-4.81-.76-7.66l-2.5-2.62-10.08,6.56,2.14,2.24c3.92,4.09,8.16,4.4,11.2,1.49Z"/>
    <path class="cls-1" d="M527.24,666.27l.68-.63-14.52-23.06-1.15,1.08c-4.71,4.4-5.8,11.74,2.92,21.06,4.73,5.06,8.9,4.51,12.08,1.54Z"/>
    <path class="cls-1" d="M588.96,604.24c-2.05,12.04,4.73,24.32,28.55,28.38,12.92,2.2,18.58-3.41,19.96-11.52l.29-1.72-48.3-18.09-.5,2.95Z"/>
    <path class="cls-1" d="M458.04,673.82l-.04,5.16c-.02,4.21-.1,8.22-.19,12.63h.26c1.72-4.08,3.45-8.23,5.32-12.44l2.28-5.09-7.63-.27Z"/>
    <path class="cls-1" d="M477.19,585.66c.04-4.98-3.28-7.29-9.56-7.35l-5.75-.05-3.72,18.02,4.92.04c9,.08,14.06-4.23,14.11-10.66Z"/>
    <path class="cls-1" d="M382.84,600.86l5.17,2.08-.03-7.64-5.16.16c-4.21.15-8.21.23-12.63.31v.26c4.15,1.57,8.37,3.13,12.65,4.83Z"/>
    <path class="cls-1" d="M553.62,703.56l-11.82,8.34,5.86,7.82c4.8,6.37,9.28,12.49,14.19,19.25l.41-.29c-2.08-8.13-4.23-16.37-6.25-24.86l-2.39-10.27Z"/>
    <path class="cls-1" d="M398.75,664.68l9.98-6.71-2.18-2.2c-3.98-4.03-8.23-4.27-11.22-1.32-2.32,2.29-1.9,4.84.88,7.65l2.55,2.58Z"/>
    <path class="cls-1" d="M397.44,534.76l-.66.64,14.87,22.83,1.14-1.1c4.64-4.48,5.61-11.83-3.25-21.02-4.81-4.99-8.97-4.37-12.1-1.35Z"/>
  </g>
  <path class="cls-1" d="M526.56,345.84l3.69-17.15c2.97-14.01,6.01-27.28,9.38-41.9l-.95-.24c-9.13,12.24-18.32,24.7-28.04,37.27l-11.83,15.13,27.75,6.89Z"/>
  <path class="cls-1" d="M466.47,508.36h-.26c-1.67,4.1-3.33,8.28-5.12,12.52l-2.2,5.12,7.64.15-.04-5.16c-.05-4.21-.03-8.22,0-12.63Z"/>
  <path class="cls-1" d="M719.92,473.66c19.96-12.48,20.22-27.75,11.6-41.55l-1.83-2.92-87.31,31.9,3.13,5.01c12.8,20.48,37.6,30.56,74.4,7.56Z"/>
  <path class="cls-1" d="M555.44,605.7v-.26c-4.12-1.63-8.31-3.26-12.57-5.02l-5.14-2.16-.09,7.64,5.16-.08c4.21-.08,8.22-.1,12.64-.11Z"/>
  <path class="cls-1" d="M610.42,497.48l-.3-.4c-8.08,2.28-16.26,4.64-24.69,6.87l-10.2,2.65,8.63,11.6,7.67-6.05c6.24-4.96,12.26-9.58,18.89-14.67Z"/>
  <path class="cls-1" d="M496.15,425.64l-6.78-1.06-7.63,21.45,5.79.9c10.59,1.65,17.34-2.76,18.56-10.64.95-6.1-2.56-9.51-9.95-10.66Z"/>
  <path class="cls-1" d="M771.23,120.99l-26.85,15.44,34.98,26.57,16.59-23.23c6.65-9.37,13.21-18.46,19.88-27.64-4.18-3.42-8.43-6.76-12.73-10.05-10.47,6.31-21.07,12.63-31.87,18.91Z"/>
  <path class="cls-1" d="M140.65,225.72l15.73,26.68,26.18-35.27-23.41-16.34c-13.11-9.08-25.71-18.02-38.7-27.31-2.29,2.66-4.57,5.34-6.81,8.06,8.98,14.47,18.03,29.12,27.01,44.18Z"/>
  <path class="cls-1" d="M416.89,125.73l9-1.25c36.74-5.12,66.22-35,56.49-104.91-1.06-7.6-2.79-14.05-5.03-19.57-18.05.79-35.86,2.52-53.37,5.17l-7.09,120.56Z"/>
  <path class="cls-1" d="M876.26,752.43l-15.58-26.76-26.38,35.12,23.31,16.47c16.06,11.27,31.39,22.32,47.6,34.09,1.23-1.66,2.45-3.32,3.66-5-10.81-17.63-21.76-35.47-32.62-53.91Z"/>
  <path class="cls-1" d="M956.83,420.28c4.31,30.33,20.65,46.08,41.77,45.1-1.4-20.62-4.04-40.9-7.86-60.77l-36.41-1.95,2.5,17.61Z"/>
  <path class="cls-1" d="M599.44,850.84l-9.01,1.2c-36.77,4.91-66.41,34.62-57.08,104.58,2.86,21.43,10.9,34.19,21.81,40.66,11.83-1.07,23.54-2.48,35.11-4.23l9.16-142.21Z"/>
  <path class="cls-1" d="M245.09,853.57l26.94-15.29-34.83-26.76-16.72,23.13c-12.51,17.42-24.74,33.95-37.97,51.75.98.81,1.98,1.59,2.97,2.39,19.49-11.64,39.2-23.5,59.62-35.22Z"/>
  <path class="cls-1" d="M64.58,575.94l-2.6-17.6c-4.76-32.21-23.01-47.88-46.04-44.48-7.1,1.05-12.36,3.8-15.94,8.12.76,17.28,2.39,34.33,4.86,51.11l59.72,2.86Z"/>
  <path class="cls-1" d="M364.97,452.86c2.18,8.11,4.43,16.31,6.56,24.77l2.52,10.24,11.72-8.48-5.95-7.75c-4.88-6.31-9.43-12.38-14.44-19.07l-.41.29Z"/>
  <path class="cls-1" d="M424.89,754.52c-.88,6.11,2.67,9.47,10.07,10.54l6.79.98,7.38-21.54-5.8-.83c-10.61-1.52-17.3,2.97-18.43,10.86Z"/>
  <path class="cls-1" d="M346.15,673.61l-7.6,6.15c-6.18,5.03-12.13,9.74-18.69,14.91l.3.4c8.05-2.38,16.2-4.84,24.6-7.18l10.17-2.78-8.78-11.49Z"/>
  <path class="cls-1" d="M292.1,363.15c17.63-11.76,22.09-26.4,14.15-38.3-6.15-9.21-15.53-9.06-27.83-.85l-11.28,7.52,15.32,38.06,9.64-6.43Z"/>
  <path class="cls-1" d="M926.38,476.97l-86.93,51.36-9.42-66.34,79.1-41.14-3.02-21.28-85.6-4.66-8.52-59.97,163.22,9.46c-24.4-74.78-65.92-141.81-119.97-196.45l-83.72,135.43-50.65-38.47,32.31-45.24-51.18-38.87-52.29,30.06-53.06-40.3,162.02-78.87C694.59,32.83,621.09,7.98,542.4,1.32c.35,1.95.67,3.94.95,5.97,13.66,98.18-36.6,154.46-109.34,164.58l-80.24,11.17,10.02-164.88c-78.54,22.11-149.22,62.93-206.99,117.33l146.22,88.18-37.91,51.07-45.59-31.81-38.3,51.6,30.64,51.95-39.71,53.5-88.86-177.54C38.3,289.88,9.27,368.86,1.57,454.01c42.83-5.95,72.97,16.07,90.54,47.46l86.64-51.85,9.79,66.29-78.87,41.58,3.14,21.27,85.63,4.19,8.85,59.93-189.83-9.94c23.18,84.04,67.73,159.21,127.45,219.29l100.82-161.04,50.43,38.75-32.57,45.05,50.95,39.15,52.46-29.77,52.83,40.6-194.15,93.15c73.61,48.28,160.72,77.66,254.45,81.25-3.64-9.04-6.29-19.28-7.83-30.82-13.11-98.25,37.47-154.23,110.26-163.95l80.3-10.71-12.39,186.59c86.58-23.22,162.96-67.12,222.06-130.01l-158.66-96.92,38.2-50.85,45.41,32.07,38.59-51.38-30.34-52.12,40.02-53.27,90.96,184.35c36.7-66.16,58.98-145.37,62.54-236.63-33.7-1.54-57.94-21.72-72.87-48.76ZM737.25,385.53l19.85,31.77c22.47,35.95,20.65,67.89-13.8,89.42-51.68,32.3-96.97,16.43-122.31-24.12l-27.95-44.73,144.21-52.34ZM519.62,590.65l.14-11.59,43.9,21.99-.15,12.64-44.19,3.56.13-11.06,10.06-.16.13-11.18-10.01-4.2ZM556.8,539.55l14.94-11.79-12.63-16.97-19.87,5.16-13.09-17.6,91.29-17.28,14.28,19.2-62.42,56.07-12.5-16.8ZM510.05,495.99l-21.8-3.4-5.2-29.96-6.99-1.09-9.85,27.61-19.71-3.07,28.86-80.08,25.61,3.99c16.01,2.5,28.04,10.36,25.41,27.25-2.3,14.82-12.29,22.56-23.99,25.2l7.66,33.54ZM477.72,544.59l-11.06-.23-.08-10.05-11.17-.23-4.28,9.97-11.58-.23,22.35-43.69,12.64.26,3.19,44.21ZM529.08,255.63l45.93,11.4-21.29,149.27-40.19-9.97,7.2-33.41-40.61-10.08-23.05,29.47-42.1-10.45,114.11-126.24ZM406.77,506.72l-11.6-15.09-17.14,12.41,4.91,19.94-17.77,12.87-16.12-91.5,19.38-14.04,55.29,63.14-16.96,12.28ZM419,563.21l-10.14,9.78-24.47-37.73,7.2-6.95c8.15-7.86,16.95-8.8,25.24-.19,12.44,12.91,11.36,26.22,2.16,35.09ZM406.12,583.66l.05,11.06-10.05.32.05,11.17,10.07,4.04.05,11.59-44.23-21.3-.05-12.64,44.11-4.24ZM387.01,647.68c5.63-5.56,12.31-5.71,18.1-3.16l7.28-16.64,8.19,8.29-7.2,14.35,2.63,2.66,12.86-8.62,7.4,7.49-37.41,24.92-9.62-9.74c-6.02-6.09-8.65-13.2-2.23-19.55ZM223.53,325.65l42.64-28.45c26.65-17.78,54.07-23.31,71.11,2.22,14.94,22.4,9.85,45.66-4.1,64.48l52.76,33.75-36.29,24.21-44.73-32.31-11.64,7.77,19.68,49.02-32.8,21.89-56.62-142.59ZM272.11,587.03l2.94-18.72c3.33-21.18,15.54-32.63,37.89-29.12,33.52,5.28,47.08,26.59,43.33,50.48l-4.14,26.35-80.01-29ZM313.05,711.17l-14.53-19.02,61.71-56.86,12.71,16.64-14.79,11.97,12.84,16.82,19.81-5.41,13.31,17.44-91.06,18.42ZM455.98,784.44l-25.66-3.68c-16.04-2.3-28.15-10.02-25.72-26.94,2.13-14.84,12.03-22.7,23.69-25.49l-8.05-33.44,21.84,3.13,5.56,29.89,7.01,1.01,9.52-27.72,19.74,2.83-27.92,80.41ZM462.27,699.93l-12.63-.44-2.51-44.26,11.05.39-.07,10.05,11.17.39,4.43-9.9,11.58.41-23.01,43.37ZM477.3,606.97l10.45,25.88-18.51-.16-7.97-23.31-5.94-.05-4.81,23.2-16.73-.15,14.19-67.31,21.76.19c13.6.12,24.54,4.99,24.42,18.79-.11,12.1-7.46,19.45-16.85,22.92ZM490.23,548.42l37.8-24.35,9.47,9.89c5.91,6.18,8.44,13.34,1.92,19.58-5.72,5.48-12.4,5.53-18.15,2.88l-7.55,16.53-8.05-8.42,7.42-14.24-2.59-2.7-12.99,8.43-7.28-7.61ZM506.12,637.49l10.29-9.62,23.88,38.1-7.31,6.84c-8.28,7.73-17.08,8.53-25.24-.2-12.24-13.1-10.95-26.38-1.62-35.11ZM558.54,760.21l-54.51-63.81,17.11-12.08,11.41,15.24,17.29-12.21-4.66-20,17.92-12.65,15,91.71-19.55,13.8ZM615.35,652.99c-33.46-5.7-46.75-27.18-42.69-51.02l4.47-26.3,79.65,30.01-3.18,18.68c-3.6,21.14-15.95,32.43-38.25,28.63ZM810.3,651.72l-6.91,46.81-150.65-6.8,6.04-40.96,33.95,3.94,6.11-41.39-31.56-20.1,6.34-42.91,136.68,101.4Z"/>
  <path class="cls-1" d="M311.03,559.59c-12.95-2.04-18.53,3.65-19.8,11.77l-.27,1.72,48.52,17.48.46-2.95c1.9-12.07-5.03-24.26-28.9-28.02Z"/>
  <path class="cls-1" d="M720.26,657.91l17.43,2.02c14.23,1.6,27.74,3.35,42.61,5.3l.14-.98c-13.06-7.91-26.36-15.85-39.81-24.31l-16.21-10.32-4.18,28.29Z"/>
  <path class="cls-1" d="M531.2,546.64c2.35-2.26,1.98-4.81-.76-7.66l-2.5-2.62-10.08,6.56,2.14,2.24c3.92,4.09,8.16,4.4,11.2,1.49Z"/>
  <path class="cls-1" d="M527.24,666.27l.68-.63-14.52-23.06-1.15,1.08c-4.71,4.4-5.8,11.74,2.92,21.06,4.73,5.06,8.9,4.51,12.08,1.54Z"/>
  <path class="cls-1" d="M588.96,604.24c-2.05,12.04,4.73,24.32,28.55,28.38,12.92,2.2,18.58-3.41,19.96-11.52l.29-1.72-48.3-18.09-.5,2.95Z"/>
  <path class="cls-1" d="M458.04,673.82l-.04,5.16c-.02,4.21-.1,8.22-.19,12.63h.26c1.72-4.08,3.45-8.23,5.32-12.44l2.28-5.09-7.63-.27Z"/>
  <path class="cls-1" d="M477.19,585.66c.04-4.98-3.28-7.29-9.56-7.35l-5.75-.05-3.72,18.02,4.92.04c9,.08,14.06-4.23,14.11-10.66Z"/>
  <path class="cls-1" d="M382.84,600.86l5.17,2.08-.03-7.64-5.16.16c-4.21.15-8.21.23-12.63.31v.26c4.15,1.57,8.37,3.13,12.65,4.83Z"/>
  <path class="cls-1" d="M553.62,703.56l-11.82,8.34,5.86,7.82c4.8,6.37,9.28,12.49,14.19,19.25l.41-.29c-2.08-8.13-4.23-16.37-6.25-24.86l-2.39-10.27Z"/>
  <path class="cls-1" d="M398.75,664.68l9.98-6.71-2.18-2.2c-3.98-4.03-8.23-4.27-11.22-1.32-2.32,2.29-1.9,4.84.88,7.65l2.55,2.58Z"/>
  <path class="cls-1" d="M397.44,534.76l-.66.64,14.87,22.83,1.14-1.1c4.64-4.48,5.61-11.83-3.25-21.02-4.81-4.99-8.97-4.37-12.1-1.35Z"/>
</svg>