<?xml version="1.0" encoding="UTF-8"?>
<svg id="Lag_1" xmlns="http://www.w3.org/2000/svg" viewBox="0 0 1317.9 783.38">
  <defs>
    <style>
      .cls-1 {
        fill: #3e3735;
      }
    </style>
  </defs>
  <path class="cls-1" d="M93.1,56.68v30.38h-54.92v24.15h40.51v29.02h-40.51v53.76H0V56.68h93.1Z"/>
  <path class="cls-1" d="M137.7,186.29c-10.78-6.04-19.32-14.41-25.61-25.12-6.3-10.71-9.45-22.82-9.45-36.32s3.15-25.61,9.45-36.32c6.3-10.71,14.83-19.05,25.61-25.03,10.78-5.97,22.59-8.96,35.45-8.96s24.83,2.99,35.54,8.96c10.71,5.97,19.18,14.32,25.42,25.03s9.35,22.82,9.35,36.32-3.12,25.61-9.35,36.32c-6.23,10.71-14.74,19.09-25.51,25.12-10.78,6.04-22.59,9.06-35.45,9.06s-24.67-3.02-35.45-9.06ZM196.22,150.36c5.65-6.36,8.47-14.87,8.47-25.51s-2.82-19.51-8.47-25.81c-5.65-6.3-13.34-9.45-23.08-9.45s-17.6,3.15-23.18,9.45c-5.58,6.3-8.38,14.9-8.38,25.81s2.79,19.32,8.38,25.61c5.58,6.3,13.31,9.45,23.18,9.45s17.43-3.18,23.08-9.54Z"/>
  <path class="cls-1" d="M328.18,193.99l-27.27-50.64h-4.09v50.64h-38.17V56.68h60.18c11.03,0,20.38,1.92,28.05,5.75,7.66,3.83,13.44,9.09,17.33,15.78,3.9,6.69,5.84,14.19,5.84,22.5,0,9.35-2.57,17.56-7.69,24.64-5.13,7.08-12.63,12.11-22.5,15.09l30.97,53.56h-42.65ZM296.82,117.25h18.89c5.19,0,9.09-1.23,11.69-3.7,2.6-2.46,3.9-6.04,3.9-10.71,0-4.41-1.33-7.89-3.99-10.42-2.66-2.53-6.52-3.8-11.59-3.8h-18.89v28.63Z"/>
  <path class="cls-1" d="M397.9,183.96c-10.26-7.6-15.78-18.47-16.56-32.62h40.71c.39,4.81,1.82,8.31,4.28,10.52,2.47,2.21,5.65,3.31,9.54,3.31,3.51,0,6.39-.88,8.67-2.63,2.27-1.75,3.41-4.19,3.41-7.3,0-4.02-1.88-7.14-5.65-9.35-3.77-2.21-9.87-4.67-18.31-7.4-8.96-2.99-16.2-5.87-21.72-8.67-5.52-2.79-10.32-6.88-14.41-12.27-4.09-5.39-6.13-12.43-6.13-21.13s2.21-16.39,6.62-22.69c4.41-6.3,10.52-11.07,18.31-14.32,7.79-3.24,16.62-4.87,26.49-4.87,15.97,0,28.73,3.73,38.27,11.2,9.54,7.47,14.64,17.95,15.29,31.45h-41.48c-.13-4.15-1.4-7.27-3.8-9.35-2.4-2.08-5.49-3.12-9.25-3.12-2.86,0-5.19.85-7.01,2.53-1.82,1.69-2.73,4.09-2.73,7.21,0,2.6,1,4.84,3.02,6.72,2.01,1.88,4.51,3.51,7.5,4.87,2.99,1.36,7.4,3.09,13.24,5.16,8.7,2.99,15.87,5.94,21.52,8.86,5.65,2.92,10.52,7.01,14.61,12.27,4.09,5.26,6.13,11.91,6.13,19.96s-2.04,15.52-6.13,22.01c-4.09,6.49-10,11.62-17.72,15.39-7.73,3.77-16.85,5.65-27.36,5.65-15.97,0-29.09-3.8-39.34-11.39Z"/>
  <path class="cls-1" d="M607.66,56.68v30.38h-36.62v106.93h-38.17v-106.93h-36.23v-30.38h111.02Z"/>
  <path class="cls-1" d="M706.8,171.59h-48.69l-7.4,22.4h-40.12l50.05-137.31h44.02l49.86,137.31h-40.32l-7.4-22.4ZM700.27,42.56c-4.74,4.48-10.62,6.72-17.63,6.72s-13.08-2.24-17.82-6.72c-4.74-4.48-7.11-10.42-7.11-17.82s2.37-13.54,7.11-18.02c4.74-4.48,10.68-6.72,17.82-6.72s12.89,2.24,17.63,6.72c4.74,4.48,7.11,10.49,7.11,18.02s-2.37,13.34-7.11,17.82ZM697.25,142.37l-14.8-44.41-14.61,44.41h29.41ZM689.07,17.82c-1.69-1.75-3.83-2.63-6.43-2.63s-4.77.88-6.52,2.63c-1.75,1.75-2.63,3.99-2.63,6.72s.88,4.97,2.63,6.72c1.75,1.75,3.93,2.63,6.52,2.63s4.74-.88,6.43-2.63c1.69-1.75,2.53-3.99,2.53-6.72s-.85-4.97-2.53-6.72Z"/>
  <path class="cls-1" d="M803.2,87.25v22.4h43.82v29.02h-43.82v24.74h49.67v30.58h-87.84V56.68h87.84v30.58h-49.67Z"/>
  <path class="cls-1" d="M907.99,164.77h42.65v29.21h-80.83V56.68h38.17v108.1Z"/>
  <path class="cls-1" d="M1001.67,56.68v137.31h-38.17V56.68h38.17Z"/>
  <path class="cls-1" d="M1109.18,101.86c-2.21-3.63-5.23-6.43-9.06-8.38-3.83-1.95-8.34-2.92-13.54-2.92-9.61,0-17.17,3.12-22.69,9.35-5.52,6.23-8.28,14.61-8.28,25.12,0,11.82,2.95,20.81,8.86,26.98,5.91,6.17,14.51,9.25,25.81,9.25,13.37,0,22.92-6.04,28.63-18.11h-38.37v-27.46h71.28v37.01c-2.99,7.27-7.37,14.09-13.15,20.45-5.78,6.36-13.08,11.59-21.91,15.68-8.83,4.09-18.89,6.13-30.19,6.13-13.76,0-25.94-2.95-36.52-8.86-10.58-5.91-18.76-14.15-24.54-24.74-5.78-10.58-8.67-22.69-8.67-36.32s2.89-25.54,8.67-36.13c5.78-10.58,13.93-18.83,24.44-24.74,10.52-5.91,22.66-8.86,36.42-8.86,17.27,0,31.55,4.16,42.85,12.46,11.3,8.31,18.31,19.67,21.04,34.08h-41.1Z"/>
  <path class="cls-1" d="M1270.44,56.68v30.38h-36.62v106.93h-38.17v-106.93h-36.23v-30.38h111.02Z"/>
  <path class="cls-1" d="M65.79,528.75c-15.71-7.39-27.95-17.4-36.73-30.03-8.78-12.63-13.79-26.64-15.02-42.04h21.72c2.46,16.94,10.4,32.04,23.79,45.28,13.4,13.25,33.8,19.87,61.22,19.87,16.01,0,29.95-2.92,41.81-8.78,11.85-5.85,21.02-13.86,27.49-24.03,6.47-10.16,9.7-21.41,9.7-33.73,0-15.71-3.78-28.18-11.32-37.42-7.55-9.24-16.94-16.17-28.18-20.79-11.25-4.62-26.42-9.54-45.51-14.79-20.95-5.54-37.81-11.09-50.59-16.63-12.79-5.54-23.56-14.09-32.34-25.64-8.78-11.55-13.17-27.33-13.17-47.36,0-15.4,4.08-29.49,12.24-42.28,8.16-12.78,19.79-22.87,34.88-30.26,15.09-7.39,32.49-11.09,52.21-11.09,28.65,0,51.75,7.09,69.31,21.25,17.56,14.17,28.03,31.58,31.42,52.21h-22.18c-1.85-8.32-5.93-16.78-12.24-25.41-6.32-8.62-15.25-15.78-26.8-21.48-11.55-5.7-25.34-8.55-41.35-8.55-21.56,0-39.74,5.93-54.52,17.79-14.79,11.86-22.18,27.65-22.18,47.36,0,15.71,3.85,28.26,11.55,37.66,7.7,9.4,17.17,16.48,28.42,21.25,11.24,4.78,26.41,9.63,45.51,14.55,21.25,5.85,38.12,11.48,50.59,16.86,12.48,5.39,23.1,13.86,31.88,25.41,8.78,11.55,13.17,27.19,13.17,46.9,0,14.48-3.85,28.18-11.55,41.12-7.7,12.94-19.02,23.49-33.96,31.65-14.94,8.17-33.04,12.24-54.29,12.24s-39.27-3.7-54.98-11.09Z"/>
  <path class="cls-1" d="M413.7,212.25v251.81c0,22.49-6.93,40.74-20.79,54.75-13.86,14.02-32.65,21.02-56.37,21.02-24.95,0-44.59-7.62-58.91-22.87-14.32-15.25-21.48-36.27-21.48-63.07h20.79c0,19.72,4.77,35.89,14.32,48.51,9.54,12.63,24.64,18.94,45.28,18.94s33.96-5.62,42.74-16.86c8.78-11.24,13.17-24.72,13.17-40.43v-251.81h21.25Z"/>
  <path class="cls-1" d="M551.38,519.28c-24.03-14.01-42.82-33.65-56.37-58.91-13.56-25.25-20.33-53.75-20.33-85.48s6.77-60.6,20.33-85.71c13.55-25.1,32.34-44.66,56.37-58.68,24.03-14.01,50.98-21.02,80.86-21.02s56.83,7.01,80.86,21.02c24.03,14.02,42.81,33.58,56.37,58.68,13.55,25.11,20.33,53.68,20.33,85.71s-6.78,60.22-20.33,85.48c-13.56,25.26-32.34,44.9-56.37,58.91-24.03,14.02-50.98,21.02-80.86,21.02s-56.83-7-80.86-21.02ZM701.55,503.8c20.63-12.01,36.88-29.11,48.74-51.29,11.85-22.18,17.79-48.05,17.79-77.62s-5.94-55.91-17.79-78.08c-11.86-22.18-28.11-39.27-48.74-51.29-20.64-12.01-43.74-18.02-69.31-18.02s-48.67,6.01-69.31,18.02c-20.64,12.01-36.96,29.11-48.98,51.29-12.01,22.18-18.02,48.21-18.02,78.08s6.01,55.44,18.02,77.62c12.01,22.18,28.34,39.27,48.98,51.29,20.63,12.01,43.73,18.02,69.31,18.02s48.67-6.01,69.31-18.02Z"/>
  <path class="cls-1" d="M1092.89,212.25l-123.83,324.35h-23.1l-123.36-324.35h22.64l112.27,299.86,113.2-299.86h22.18Z"/>
  <path class="cls-1" d="M1317.9,212.25v17.56h-92.41v306.79h-20.79V229.81h-92.41v-17.56h205.61Z"/>
  <path class="cls-1" d="M89.02,553.65l19.28,156.47,74.22-156.47h75.83l-116.63,227.48H49.5l-36.31-227.48h75.82Z"/>
  <path class="cls-1" d="M342.51,553.65l-40.16,227.48h-71.33l40.16-227.48h71.33Z"/>
  <path class="cls-1" d="M362.27,766.67c-16.6-11.13-24.9-27.42-24.9-48.84,0-2.14.21-5.35.64-9.64h75.83c-.64,6.64.37,11.57,3.05,14.78,2.68,3.21,7.12,4.82,13.33,4.82,3.86,0,7.07-.96,9.64-2.89s3.86-4.71,3.86-8.35c0-5.14-2.52-9.42-7.55-12.85-5.04-3.42-13.12-7.5-24.26-12.21-12.21-5.14-22.22-10.07-30.04-14.78-7.82-4.71-14.62-11.13-20.4-19.28-5.78-8.14-8.67-18.31-8.67-30.52,0-16.06,4.02-29.93,12.05-41.61,8.03-11.67,19.22-20.51,33.58-26.51,14.35-5.99,30.73-9,49.16-9,16.49,0,31.22,2.57,44.18,7.71,12.96,5.14,23.13,12.59,30.52,22.33,7.39,9.75,11.08,21.26,11.08,34.54,0,1.72-.22,4.71-.64,9h-76.79c.43-2.57.64-4.28.64-5.14,0-4.07-1.18-7.23-3.53-9.48-2.36-2.25-5.57-3.37-9.64-3.37-3.65,0-6.64,1.07-9,3.21-2.36,2.14-3.53,4.93-3.53,8.35,0,4.71,2.46,8.84,7.39,12.37,4.92,3.53,12.74,7.87,23.45,13.01,12.21,5.78,22.33,11.24,30.36,16.39s14.94,11.94,20.72,20.4c5.78,8.46,8.68,18.8,8.68,31,0,13.93-3.69,26.46-11.08,37.59-7.39,11.14-18.05,19.87-31.97,26.18-13.93,6.32-30.42,9.48-49.48,9.48-27.85,0-50.07-5.57-66.67-16.71Z"/>
  <path class="cls-1" d="M644.2,553.65l-22.49,128.2c-.64,3.43-.96,6.96-.96,10.6,0,7.28,1.93,13.01,5.78,17.19s9.96,6.26,18.31,6.26c10.28,0,18.42-3.05,24.42-9.16,5.99-6.1,9.96-14.4,11.89-24.9l22.49-128.2h71.01l-22.49,128.2c-3.86,22.28-11.52,41.02-22.97,56.23-11.46,15.21-25.49,26.56-42.09,34.06-16.6,7.5-34.86,11.25-54.78,11.25-25.49,0-45.84-6.69-61.05-20.08-15.21-13.38-22.81-32.5-22.81-57.35,0-7.92.75-15.95,2.25-24.1l22.49-128.2h71.01Z"/>
  <path class="cls-1" d="M863.64,610.2l-4.82,28.27h70.68l-9.64,53.66h-70.68l-5.78,32.13h80.32l-9.96,56.87h-151.65l40.16-227.48h151.65l-9.96,56.55h-80.32Z"/>
  <path class="cls-1" d="M1018.51,727.15h68.76l-9.64,53.98h-140.08l40.16-227.48h71.33l-30.52,173.5Z"/>
  <path class="cls-1" d="M1315.7,553.65l-9.96,56.55h-60.4l-30.2,170.93h-71.33l30.2-170.93h-59.76l9.96-56.55h191.49Z"/>
</svg>